G75*
%MOIN*%
%OFA0B0*%
%FSLAX25Y25*%
%IPPOS*%
%LPD*%
%AMOC8*
5,1,8,0,0,1.08239X$1,22.5*
%
%ADD10C,0.00039*%
%ADD11C,0.00000*%
%ADD12R,0.12000X0.04500*%
%ADD13C,0.00787*%
%ADD14R,0.07087X0.07087*%
%ADD15C,0.05937*%
%ADD16C,0.04756*%
%ADD17R,0.03543X0.03150*%
%ADD18R,0.04331X0.03937*%
%ADD19R,0.03937X0.04331*%
%ADD20R,0.02559X0.02146*%
%ADD21R,0.00787X0.00787*%
%ADD22C,0.01600*%
%ADD23C,0.00800*%
%ADD24OC8,0.02381*%
%ADD25C,0.01200*%
%ADD26C,0.00600*%
D10*
X0005000Y0024685D02*
X0005000Y0197913D01*
X0005006Y0198389D01*
X0005023Y0198864D01*
X0005052Y0199339D01*
X0005092Y0199813D01*
X0005144Y0200286D01*
X0005207Y0200757D01*
X0005281Y0201227D01*
X0005367Y0201695D01*
X0005464Y0202161D01*
X0005572Y0202624D01*
X0005691Y0203084D01*
X0005822Y0203542D01*
X0005963Y0203996D01*
X0006116Y0204447D01*
X0006279Y0204893D01*
X0006453Y0205336D01*
X0006638Y0205774D01*
X0006833Y0206208D01*
X0007039Y0206637D01*
X0007255Y0207061D01*
X0007481Y0207480D01*
X0007717Y0207893D01*
X0007963Y0208300D01*
X0008219Y0208701D01*
X0008485Y0209095D01*
X0008760Y0209484D01*
X0009044Y0209865D01*
X0009337Y0210239D01*
X0009639Y0210607D01*
X0009951Y0210967D01*
X0010270Y0211319D01*
X0010598Y0211663D01*
X0010935Y0212000D01*
X0011279Y0212328D01*
X0011631Y0212647D01*
X0011991Y0212959D01*
X0012359Y0213261D01*
X0012733Y0213554D01*
X0013114Y0213838D01*
X0013503Y0214113D01*
X0013897Y0214379D01*
X0014298Y0214635D01*
X0014705Y0214881D01*
X0015118Y0215117D01*
X0015537Y0215343D01*
X0015961Y0215559D01*
X0016390Y0215765D01*
X0016824Y0215960D01*
X0017262Y0216145D01*
X0017705Y0216319D01*
X0018151Y0216482D01*
X0018602Y0216635D01*
X0019056Y0216776D01*
X0019514Y0216907D01*
X0019974Y0217026D01*
X0020437Y0217134D01*
X0020903Y0217231D01*
X0021371Y0217317D01*
X0021841Y0217391D01*
X0022312Y0217454D01*
X0022785Y0217506D01*
X0023259Y0217546D01*
X0023734Y0217575D01*
X0024209Y0217592D01*
X0024685Y0217598D01*
X0197913Y0217598D01*
X0198389Y0217592D01*
X0198864Y0217575D01*
X0199339Y0217546D01*
X0199813Y0217506D01*
X0200286Y0217454D01*
X0200757Y0217391D01*
X0201227Y0217317D01*
X0201695Y0217231D01*
X0202161Y0217134D01*
X0202624Y0217026D01*
X0203084Y0216907D01*
X0203542Y0216776D01*
X0203996Y0216635D01*
X0204447Y0216482D01*
X0204893Y0216319D01*
X0205336Y0216145D01*
X0205774Y0215960D01*
X0206208Y0215765D01*
X0206637Y0215559D01*
X0207061Y0215343D01*
X0207480Y0215117D01*
X0207893Y0214881D01*
X0208300Y0214635D01*
X0208701Y0214379D01*
X0209095Y0214113D01*
X0209484Y0213838D01*
X0209865Y0213554D01*
X0210239Y0213261D01*
X0210607Y0212959D01*
X0210967Y0212647D01*
X0211319Y0212328D01*
X0211663Y0212000D01*
X0212000Y0211663D01*
X0212328Y0211319D01*
X0212647Y0210967D01*
X0212959Y0210607D01*
X0213261Y0210239D01*
X0213554Y0209865D01*
X0213838Y0209484D01*
X0214113Y0209095D01*
X0214379Y0208701D01*
X0214635Y0208300D01*
X0214881Y0207893D01*
X0215117Y0207480D01*
X0215343Y0207061D01*
X0215559Y0206637D01*
X0215765Y0206208D01*
X0215960Y0205774D01*
X0216145Y0205336D01*
X0216319Y0204893D01*
X0216482Y0204447D01*
X0216635Y0203996D01*
X0216776Y0203542D01*
X0216907Y0203084D01*
X0217026Y0202624D01*
X0217134Y0202161D01*
X0217231Y0201695D01*
X0217317Y0201227D01*
X0217391Y0200757D01*
X0217454Y0200286D01*
X0217506Y0199813D01*
X0217546Y0199339D01*
X0217575Y0198864D01*
X0217592Y0198389D01*
X0217598Y0197913D01*
X0217598Y0024685D01*
X0217592Y0024209D01*
X0217575Y0023734D01*
X0217546Y0023259D01*
X0217506Y0022785D01*
X0217454Y0022312D01*
X0217391Y0021841D01*
X0217317Y0021371D01*
X0217231Y0020903D01*
X0217134Y0020437D01*
X0217026Y0019974D01*
X0216907Y0019514D01*
X0216776Y0019056D01*
X0216635Y0018602D01*
X0216482Y0018151D01*
X0216319Y0017705D01*
X0216145Y0017262D01*
X0215960Y0016824D01*
X0215765Y0016390D01*
X0215559Y0015961D01*
X0215343Y0015537D01*
X0215117Y0015118D01*
X0214881Y0014705D01*
X0214635Y0014298D01*
X0214379Y0013897D01*
X0214113Y0013503D01*
X0213838Y0013114D01*
X0213554Y0012733D01*
X0213261Y0012359D01*
X0212959Y0011991D01*
X0212647Y0011631D01*
X0212328Y0011279D01*
X0212000Y0010935D01*
X0211663Y0010598D01*
X0211319Y0010270D01*
X0210967Y0009951D01*
X0210607Y0009639D01*
X0210239Y0009337D01*
X0209865Y0009044D01*
X0209484Y0008760D01*
X0209095Y0008485D01*
X0208701Y0008219D01*
X0208300Y0007963D01*
X0207893Y0007717D01*
X0207480Y0007481D01*
X0207061Y0007255D01*
X0206637Y0007039D01*
X0206208Y0006833D01*
X0205774Y0006638D01*
X0205336Y0006453D01*
X0204893Y0006279D01*
X0204447Y0006116D01*
X0203996Y0005963D01*
X0203542Y0005822D01*
X0203084Y0005691D01*
X0202624Y0005572D01*
X0202161Y0005464D01*
X0201695Y0005367D01*
X0201227Y0005281D01*
X0200757Y0005207D01*
X0200286Y0005144D01*
X0199813Y0005092D01*
X0199339Y0005052D01*
X0198864Y0005023D01*
X0198389Y0005006D01*
X0197913Y0005000D01*
X0024685Y0005000D01*
X0024209Y0005006D01*
X0023734Y0005023D01*
X0023259Y0005052D01*
X0022785Y0005092D01*
X0022312Y0005144D01*
X0021841Y0005207D01*
X0021371Y0005281D01*
X0020903Y0005367D01*
X0020437Y0005464D01*
X0019974Y0005572D01*
X0019514Y0005691D01*
X0019056Y0005822D01*
X0018602Y0005963D01*
X0018151Y0006116D01*
X0017705Y0006279D01*
X0017262Y0006453D01*
X0016824Y0006638D01*
X0016390Y0006833D01*
X0015961Y0007039D01*
X0015537Y0007255D01*
X0015118Y0007481D01*
X0014705Y0007717D01*
X0014298Y0007963D01*
X0013897Y0008219D01*
X0013503Y0008485D01*
X0013114Y0008760D01*
X0012733Y0009044D01*
X0012359Y0009337D01*
X0011991Y0009639D01*
X0011631Y0009951D01*
X0011279Y0010270D01*
X0010935Y0010598D01*
X0010598Y0010935D01*
X0010270Y0011279D01*
X0009951Y0011631D01*
X0009639Y0011991D01*
X0009337Y0012359D01*
X0009044Y0012733D01*
X0008760Y0013114D01*
X0008485Y0013503D01*
X0008219Y0013897D01*
X0007963Y0014298D01*
X0007717Y0014705D01*
X0007481Y0015118D01*
X0007255Y0015537D01*
X0007039Y0015961D01*
X0006833Y0016390D01*
X0006638Y0016824D01*
X0006453Y0017262D01*
X0006279Y0017705D01*
X0006116Y0018151D01*
X0005963Y0018602D01*
X0005822Y0019056D01*
X0005691Y0019514D01*
X0005572Y0019974D01*
X0005464Y0020437D01*
X0005367Y0020903D01*
X0005281Y0021371D01*
X0005207Y0021841D01*
X0005144Y0022312D01*
X0005092Y0022785D01*
X0005052Y0023259D01*
X0005023Y0023734D01*
X0005006Y0024209D01*
X0005000Y0024685D01*
X0121524Y0204202D02*
X0122018Y0203938D01*
X0122553Y0203775D01*
X0123110Y0203720D01*
X0123110Y0204705D01*
X0122694Y0204752D01*
X0122299Y0204890D01*
X0121944Y0205113D01*
X0121648Y0205409D01*
X0121425Y0205763D01*
X0121287Y0206159D01*
X0121240Y0206575D01*
X0121287Y0206991D01*
X0121425Y0207386D01*
X0121648Y0207741D01*
X0121944Y0208037D01*
X0122299Y0208260D01*
X0122694Y0208398D01*
X0123110Y0208445D01*
X0123110Y0209429D01*
X0122553Y0209374D01*
X0122018Y0209212D01*
X0121524Y0208948D01*
X0121092Y0208593D01*
X0120737Y0208161D01*
X0120473Y0207667D01*
X0120311Y0207132D01*
X0120256Y0206575D01*
X0120311Y0206018D01*
X0120473Y0205482D01*
X0120737Y0204989D01*
X0121092Y0204556D01*
X0121524Y0204202D01*
X0121504Y0204218D02*
X0123110Y0204218D01*
X0124716Y0204218D01*
X0124696Y0204202D02*
X0125129Y0204556D01*
X0125484Y0204989D01*
X0125747Y0205482D01*
X0125910Y0206018D01*
X0125965Y0206575D01*
X0125910Y0207132D01*
X0125747Y0207667D01*
X0125484Y0208161D01*
X0125129Y0208593D01*
X0124696Y0208948D01*
X0124203Y0209212D01*
X0123667Y0209374D01*
X0123110Y0209429D01*
X0123110Y0208445D01*
X0123526Y0208398D01*
X0123922Y0208260D01*
X0124276Y0208037D01*
X0124572Y0207741D01*
X0125708Y0207741D01*
X0125728Y0207703D02*
X0124596Y0207703D01*
X0124620Y0207665D02*
X0125748Y0207665D01*
X0125759Y0207628D02*
X0124643Y0207628D01*
X0124667Y0207590D02*
X0125771Y0207590D01*
X0125782Y0207552D02*
X0124691Y0207552D01*
X0124715Y0207514D02*
X0125794Y0207514D01*
X0125805Y0207476D02*
X0124739Y0207476D01*
X0124762Y0207438D02*
X0125817Y0207438D01*
X0125828Y0207400D02*
X0124786Y0207400D01*
X0124795Y0207386D02*
X0124933Y0206991D01*
X0124980Y0206575D01*
X0124933Y0206159D01*
X0124795Y0205763D01*
X0124572Y0205409D01*
X0124276Y0205113D01*
X0123922Y0204890D01*
X0123526Y0204752D01*
X0123110Y0204705D01*
X0123110Y0203720D01*
X0123667Y0203775D01*
X0124203Y0203938D01*
X0124696Y0204202D01*
X0124656Y0204180D02*
X0123110Y0204180D01*
X0121564Y0204180D01*
X0121635Y0204143D02*
X0123110Y0204143D01*
X0124586Y0204143D01*
X0124515Y0204105D02*
X0123110Y0204105D01*
X0121706Y0204105D01*
X0121777Y0204067D02*
X0123110Y0204067D01*
X0124444Y0204067D01*
X0124373Y0204029D02*
X0123110Y0204029D01*
X0121847Y0204029D01*
X0121918Y0203991D02*
X0123110Y0203991D01*
X0124302Y0203991D01*
X0124231Y0203953D02*
X0123110Y0203953D01*
X0121989Y0203953D01*
X0122092Y0203915D02*
X0123110Y0203915D01*
X0124128Y0203915D01*
X0124003Y0203877D02*
X0123110Y0203877D01*
X0122217Y0203877D01*
X0122342Y0203839D02*
X0123110Y0203839D01*
X0123879Y0203839D01*
X0123754Y0203802D02*
X0123110Y0203802D01*
X0122467Y0203802D01*
X0122671Y0203764D02*
X0123110Y0203764D01*
X0123549Y0203764D01*
X0123164Y0203726D02*
X0123110Y0203726D01*
X0123056Y0203726D01*
X0123110Y0204256D02*
X0121458Y0204256D01*
X0121412Y0204294D02*
X0123110Y0204294D01*
X0124809Y0204294D01*
X0124855Y0204332D02*
X0123110Y0204332D01*
X0121366Y0204332D01*
X0121319Y0204370D02*
X0123110Y0204370D01*
X0124901Y0204370D01*
X0124947Y0204408D02*
X0123110Y0204408D01*
X0121273Y0204408D01*
X0121227Y0204446D02*
X0123110Y0204446D01*
X0124993Y0204446D01*
X0125040Y0204483D02*
X0123110Y0204483D01*
X0121181Y0204483D01*
X0121135Y0204521D02*
X0123110Y0204521D01*
X0125086Y0204521D01*
X0125131Y0204559D02*
X0123110Y0204559D01*
X0121090Y0204559D01*
X0121059Y0204597D02*
X0123110Y0204597D01*
X0125162Y0204597D01*
X0125193Y0204635D02*
X0123110Y0204635D01*
X0121027Y0204635D01*
X0120996Y0204673D02*
X0123110Y0204673D01*
X0125224Y0204673D01*
X0125255Y0204711D02*
X0123164Y0204711D01*
X0123057Y0204711D02*
X0120965Y0204711D01*
X0120934Y0204749D02*
X0122721Y0204749D01*
X0122594Y0204786D02*
X0120903Y0204786D01*
X0120872Y0204824D02*
X0122486Y0204824D01*
X0122378Y0204862D02*
X0120841Y0204862D01*
X0120810Y0204900D02*
X0122283Y0204900D01*
X0122222Y0204938D02*
X0120779Y0204938D01*
X0120748Y0204976D02*
X0122162Y0204976D01*
X0122102Y0205014D02*
X0120724Y0205014D01*
X0120703Y0205052D02*
X0122041Y0205052D01*
X0121981Y0205090D02*
X0120683Y0205090D01*
X0120663Y0205127D02*
X0121930Y0205127D01*
X0121892Y0205165D02*
X0120643Y0205165D01*
X0120622Y0205203D02*
X0121854Y0205203D01*
X0121816Y0205241D02*
X0120602Y0205241D01*
X0120582Y0205279D02*
X0121778Y0205279D01*
X0121740Y0205317D02*
X0120562Y0205317D01*
X0120541Y0205355D02*
X0121702Y0205355D01*
X0121664Y0205393D02*
X0120521Y0205393D01*
X0120501Y0205430D02*
X0121635Y0205430D01*
X0121611Y0205468D02*
X0120481Y0205468D01*
X0120466Y0205506D02*
X0121587Y0205506D01*
X0121563Y0205544D02*
X0120454Y0205544D01*
X0120443Y0205582D02*
X0121539Y0205582D01*
X0121516Y0205620D02*
X0120431Y0205620D01*
X0120420Y0205658D02*
X0121492Y0205658D01*
X0121468Y0205696D02*
X0120409Y0205696D01*
X0120397Y0205734D02*
X0121444Y0205734D01*
X0121423Y0205771D02*
X0120386Y0205771D01*
X0120374Y0205809D02*
X0121409Y0205809D01*
X0121396Y0205847D02*
X0120363Y0205847D01*
X0120351Y0205885D02*
X0121383Y0205885D01*
X0121370Y0205923D02*
X0120340Y0205923D01*
X0120328Y0205961D02*
X0121356Y0205961D01*
X0121343Y0205999D02*
X0120317Y0205999D01*
X0120309Y0206037D02*
X0121330Y0206037D01*
X0121317Y0206074D02*
X0120305Y0206074D01*
X0120301Y0206112D02*
X0121303Y0206112D01*
X0121290Y0206150D02*
X0120298Y0206150D01*
X0120294Y0206188D02*
X0121284Y0206188D01*
X0121279Y0206226D02*
X0120290Y0206226D01*
X0120287Y0206264D02*
X0121275Y0206264D01*
X0121271Y0206302D02*
X0120283Y0206302D01*
X0120279Y0206340D02*
X0121267Y0206340D01*
X0121262Y0206378D02*
X0120275Y0206378D01*
X0120272Y0206415D02*
X0121258Y0206415D01*
X0121254Y0206453D02*
X0120268Y0206453D01*
X0120264Y0206491D02*
X0121250Y0206491D01*
X0121245Y0206529D02*
X0120260Y0206529D01*
X0120257Y0206567D02*
X0121241Y0206567D01*
X0121244Y0206605D02*
X0120259Y0206605D01*
X0120263Y0206643D02*
X0121248Y0206643D01*
X0121252Y0206681D02*
X0120266Y0206681D01*
X0120270Y0206718D02*
X0121256Y0206718D01*
X0121261Y0206756D02*
X0120274Y0206756D01*
X0120278Y0206794D02*
X0121265Y0206794D01*
X0121269Y0206832D02*
X0120281Y0206832D01*
X0120285Y0206870D02*
X0121273Y0206870D01*
X0121278Y0206908D02*
X0120289Y0206908D01*
X0120292Y0206946D02*
X0121282Y0206946D01*
X0121286Y0206984D02*
X0120296Y0206984D01*
X0120300Y0207021D02*
X0121298Y0207021D01*
X0121311Y0207059D02*
X0120304Y0207059D01*
X0120307Y0207097D02*
X0121324Y0207097D01*
X0121337Y0207135D02*
X0120312Y0207135D01*
X0120323Y0207173D02*
X0121351Y0207173D01*
X0121364Y0207211D02*
X0120335Y0207211D01*
X0120346Y0207249D02*
X0121377Y0207249D01*
X0121391Y0207287D02*
X0120358Y0207287D01*
X0120369Y0207325D02*
X0121404Y0207325D01*
X0121417Y0207362D02*
X0120381Y0207362D01*
X0120392Y0207400D02*
X0121434Y0207400D01*
X0121458Y0207438D02*
X0120404Y0207438D01*
X0120415Y0207476D02*
X0121482Y0207476D01*
X0121506Y0207514D02*
X0120427Y0207514D01*
X0120438Y0207552D02*
X0121529Y0207552D01*
X0121553Y0207590D02*
X0120450Y0207590D01*
X0120461Y0207628D02*
X0121577Y0207628D01*
X0121601Y0207665D02*
X0120473Y0207665D01*
X0120493Y0207703D02*
X0121625Y0207703D01*
X0121649Y0207741D02*
X0120513Y0207741D01*
X0120533Y0207779D02*
X0121687Y0207779D01*
X0121724Y0207817D02*
X0120553Y0207817D01*
X0120574Y0207855D02*
X0121762Y0207855D01*
X0121800Y0207893D02*
X0120594Y0207893D01*
X0120614Y0207931D02*
X0121838Y0207931D01*
X0121876Y0207969D02*
X0120634Y0207969D01*
X0120655Y0208006D02*
X0121914Y0208006D01*
X0121956Y0208044D02*
X0120675Y0208044D01*
X0120695Y0208082D02*
X0122016Y0208082D01*
X0122077Y0208120D02*
X0120715Y0208120D01*
X0120736Y0208158D02*
X0122137Y0208158D01*
X0122197Y0208196D02*
X0120766Y0208196D01*
X0120797Y0208234D02*
X0122257Y0208234D01*
X0122333Y0208272D02*
X0120828Y0208272D01*
X0120859Y0208309D02*
X0122441Y0208309D01*
X0122549Y0208347D02*
X0120890Y0208347D01*
X0120921Y0208385D02*
X0122658Y0208385D01*
X0122917Y0208423D02*
X0120952Y0208423D01*
X0120983Y0208461D02*
X0123110Y0208461D01*
X0125237Y0208461D01*
X0125206Y0208499D02*
X0123110Y0208499D01*
X0121015Y0208499D01*
X0121046Y0208537D02*
X0123110Y0208537D01*
X0125175Y0208537D01*
X0125144Y0208575D02*
X0123110Y0208575D01*
X0121077Y0208575D01*
X0121116Y0208613D02*
X0123110Y0208613D01*
X0125105Y0208613D01*
X0125059Y0208650D02*
X0123110Y0208650D01*
X0121162Y0208650D01*
X0121208Y0208688D02*
X0123110Y0208688D01*
X0125013Y0208688D01*
X0124966Y0208726D02*
X0123110Y0208726D01*
X0121254Y0208726D01*
X0121300Y0208764D02*
X0123110Y0208764D01*
X0124920Y0208764D01*
X0124874Y0208802D02*
X0123110Y0208802D01*
X0121346Y0208802D01*
X0121393Y0208840D02*
X0123110Y0208840D01*
X0124828Y0208840D01*
X0124782Y0208878D02*
X0123110Y0208878D01*
X0121439Y0208878D01*
X0121485Y0208916D02*
X0123110Y0208916D01*
X0124736Y0208916D01*
X0124686Y0208953D02*
X0123110Y0208953D01*
X0121534Y0208953D01*
X0121605Y0208991D02*
X0123110Y0208991D01*
X0124615Y0208991D01*
X0124544Y0209029D02*
X0123110Y0209029D01*
X0121676Y0209029D01*
X0121747Y0209067D02*
X0123110Y0209067D01*
X0124473Y0209067D01*
X0124403Y0209105D02*
X0123110Y0209105D01*
X0121818Y0209105D01*
X0121889Y0209143D02*
X0123110Y0209143D01*
X0124332Y0209143D01*
X0124261Y0209181D02*
X0123110Y0209181D01*
X0121960Y0209181D01*
X0122040Y0209219D02*
X0123110Y0209219D01*
X0124180Y0209219D01*
X0124055Y0209256D02*
X0123110Y0209256D01*
X0122165Y0209256D01*
X0122290Y0209294D02*
X0123110Y0209294D01*
X0123931Y0209294D01*
X0123806Y0209332D02*
X0123110Y0209332D01*
X0122415Y0209332D01*
X0122540Y0209370D02*
X0123110Y0209370D01*
X0123681Y0209370D01*
X0123325Y0209408D02*
X0123110Y0209408D01*
X0122896Y0209408D01*
X0123303Y0208423D02*
X0125268Y0208423D01*
X0125299Y0208385D02*
X0123563Y0208385D01*
X0123671Y0208347D02*
X0125330Y0208347D01*
X0125361Y0208309D02*
X0123779Y0208309D01*
X0123888Y0208272D02*
X0125392Y0208272D01*
X0125424Y0208234D02*
X0123963Y0208234D01*
X0124023Y0208196D02*
X0125455Y0208196D01*
X0125485Y0208158D02*
X0124084Y0208158D01*
X0124144Y0208120D02*
X0125505Y0208120D01*
X0125525Y0208082D02*
X0124204Y0208082D01*
X0124264Y0208044D02*
X0125546Y0208044D01*
X0125566Y0208006D02*
X0124307Y0208006D01*
X0124345Y0207969D02*
X0125586Y0207969D01*
X0125606Y0207931D02*
X0124382Y0207931D01*
X0124420Y0207893D02*
X0125627Y0207893D01*
X0125647Y0207855D02*
X0124458Y0207855D01*
X0124496Y0207817D02*
X0125667Y0207817D01*
X0125687Y0207779D02*
X0124534Y0207779D01*
X0124572Y0207741D02*
X0124795Y0207386D01*
X0124803Y0207362D02*
X0125840Y0207362D01*
X0125851Y0207325D02*
X0124817Y0207325D01*
X0124830Y0207287D02*
X0125863Y0207287D01*
X0125874Y0207249D02*
X0124843Y0207249D01*
X0124856Y0207211D02*
X0125886Y0207211D01*
X0125897Y0207173D02*
X0124870Y0207173D01*
X0124883Y0207135D02*
X0125909Y0207135D01*
X0125913Y0207097D02*
X0124896Y0207097D01*
X0124909Y0207059D02*
X0125917Y0207059D01*
X0125921Y0207021D02*
X0124923Y0207021D01*
X0124934Y0206984D02*
X0125924Y0206984D01*
X0125928Y0206946D02*
X0124939Y0206946D01*
X0124943Y0206908D02*
X0125932Y0206908D01*
X0125935Y0206870D02*
X0124947Y0206870D01*
X0124951Y0206832D02*
X0125939Y0206832D01*
X0125943Y0206794D02*
X0124956Y0206794D01*
X0124960Y0206756D02*
X0125947Y0206756D01*
X0125950Y0206718D02*
X0124964Y0206718D01*
X0124968Y0206681D02*
X0125954Y0206681D01*
X0125958Y0206643D02*
X0124973Y0206643D01*
X0124977Y0206605D02*
X0125962Y0206605D01*
X0125964Y0206567D02*
X0124979Y0206567D01*
X0124975Y0206529D02*
X0125960Y0206529D01*
X0125956Y0206491D02*
X0124971Y0206491D01*
X0124967Y0206453D02*
X0125953Y0206453D01*
X0125949Y0206415D02*
X0124962Y0206415D01*
X0124958Y0206378D02*
X0125945Y0206378D01*
X0125941Y0206340D02*
X0124954Y0206340D01*
X0124950Y0206302D02*
X0125938Y0206302D01*
X0125934Y0206264D02*
X0124945Y0206264D01*
X0124941Y0206226D02*
X0125930Y0206226D01*
X0125926Y0206188D02*
X0124937Y0206188D01*
X0124930Y0206150D02*
X0125923Y0206150D01*
X0125919Y0206112D02*
X0124917Y0206112D01*
X0124904Y0206074D02*
X0125915Y0206074D01*
X0125912Y0206037D02*
X0124891Y0206037D01*
X0124877Y0205999D02*
X0125904Y0205999D01*
X0125892Y0205961D02*
X0124864Y0205961D01*
X0124851Y0205923D02*
X0125881Y0205923D01*
X0125869Y0205885D02*
X0124838Y0205885D01*
X0124824Y0205847D02*
X0125858Y0205847D01*
X0125846Y0205809D02*
X0124811Y0205809D01*
X0124798Y0205771D02*
X0125835Y0205771D01*
X0125823Y0205734D02*
X0124776Y0205734D01*
X0124753Y0205696D02*
X0125812Y0205696D01*
X0125800Y0205658D02*
X0124729Y0205658D01*
X0124705Y0205620D02*
X0125789Y0205620D01*
X0125777Y0205582D02*
X0124681Y0205582D01*
X0124657Y0205544D02*
X0125766Y0205544D01*
X0125754Y0205506D02*
X0124634Y0205506D01*
X0124610Y0205468D02*
X0125740Y0205468D01*
X0125719Y0205430D02*
X0124586Y0205430D01*
X0124556Y0205393D02*
X0125699Y0205393D01*
X0125679Y0205355D02*
X0124518Y0205355D01*
X0124480Y0205317D02*
X0125659Y0205317D01*
X0125638Y0205279D02*
X0124442Y0205279D01*
X0124405Y0205241D02*
X0125618Y0205241D01*
X0125598Y0205203D02*
X0124367Y0205203D01*
X0124329Y0205165D02*
X0125578Y0205165D01*
X0125557Y0205127D02*
X0124291Y0205127D01*
X0124239Y0205090D02*
X0125537Y0205090D01*
X0125517Y0205052D02*
X0124179Y0205052D01*
X0124119Y0205014D02*
X0125497Y0205014D01*
X0125473Y0204976D02*
X0124058Y0204976D01*
X0123998Y0204938D02*
X0125442Y0204938D01*
X0125411Y0204900D02*
X0123938Y0204900D01*
X0123843Y0204862D02*
X0125379Y0204862D01*
X0125348Y0204824D02*
X0123734Y0204824D01*
X0123626Y0204786D02*
X0125317Y0204786D01*
X0125286Y0204749D02*
X0123500Y0204749D01*
X0123110Y0204256D02*
X0124763Y0204256D01*
D11*
X0121830Y0206575D02*
X0121832Y0206646D01*
X0121838Y0206717D01*
X0121848Y0206788D01*
X0121862Y0206857D01*
X0121879Y0206926D01*
X0121901Y0206994D01*
X0121926Y0207061D01*
X0121955Y0207126D01*
X0121987Y0207189D01*
X0122023Y0207251D01*
X0122062Y0207310D01*
X0122105Y0207367D01*
X0122150Y0207422D01*
X0122199Y0207474D01*
X0122250Y0207523D01*
X0122304Y0207569D01*
X0122361Y0207613D01*
X0122419Y0207653D01*
X0122480Y0207689D01*
X0122543Y0207723D01*
X0122608Y0207752D01*
X0122674Y0207778D01*
X0122742Y0207801D01*
X0122810Y0207819D01*
X0122880Y0207834D01*
X0122950Y0207845D01*
X0123021Y0207852D01*
X0123092Y0207855D01*
X0123163Y0207854D01*
X0123234Y0207849D01*
X0123305Y0207840D01*
X0123375Y0207827D01*
X0123444Y0207811D01*
X0123512Y0207790D01*
X0123579Y0207766D01*
X0123645Y0207738D01*
X0123708Y0207706D01*
X0123770Y0207671D01*
X0123830Y0207633D01*
X0123888Y0207591D01*
X0123943Y0207547D01*
X0123996Y0207499D01*
X0124046Y0207448D01*
X0124093Y0207395D01*
X0124137Y0207339D01*
X0124178Y0207281D01*
X0124216Y0207220D01*
X0124250Y0207158D01*
X0124280Y0207093D01*
X0124307Y0207028D01*
X0124331Y0206960D01*
X0124350Y0206892D01*
X0124366Y0206823D01*
X0124378Y0206752D01*
X0124386Y0206682D01*
X0124390Y0206611D01*
X0124390Y0206539D01*
X0124386Y0206468D01*
X0124378Y0206398D01*
X0124366Y0206327D01*
X0124350Y0206258D01*
X0124331Y0206190D01*
X0124307Y0206122D01*
X0124280Y0206057D01*
X0124250Y0205992D01*
X0124216Y0205930D01*
X0124178Y0205869D01*
X0124137Y0205811D01*
X0124093Y0205755D01*
X0124046Y0205702D01*
X0123996Y0205651D01*
X0123943Y0205603D01*
X0123888Y0205559D01*
X0123830Y0205517D01*
X0123770Y0205479D01*
X0123708Y0205444D01*
X0123645Y0205412D01*
X0123579Y0205384D01*
X0123512Y0205360D01*
X0123444Y0205339D01*
X0123375Y0205323D01*
X0123305Y0205310D01*
X0123234Y0205301D01*
X0123163Y0205296D01*
X0123092Y0205295D01*
X0123021Y0205298D01*
X0122950Y0205305D01*
X0122880Y0205316D01*
X0122810Y0205331D01*
X0122742Y0205349D01*
X0122674Y0205372D01*
X0122608Y0205398D01*
X0122543Y0205427D01*
X0122480Y0205461D01*
X0122419Y0205497D01*
X0122361Y0205537D01*
X0122304Y0205581D01*
X0122250Y0205627D01*
X0122199Y0205676D01*
X0122150Y0205728D01*
X0122105Y0205783D01*
X0122062Y0205840D01*
X0122023Y0205899D01*
X0121987Y0205961D01*
X0121955Y0206024D01*
X0121926Y0206089D01*
X0121901Y0206156D01*
X0121879Y0206224D01*
X0121862Y0206293D01*
X0121848Y0206362D01*
X0121838Y0206433D01*
X0121832Y0206504D01*
X0121830Y0206575D01*
X0192007Y0197913D02*
X0192009Y0198066D01*
X0192015Y0198220D01*
X0192025Y0198373D01*
X0192039Y0198525D01*
X0192057Y0198678D01*
X0192079Y0198829D01*
X0192104Y0198980D01*
X0192134Y0199131D01*
X0192168Y0199281D01*
X0192205Y0199429D01*
X0192246Y0199577D01*
X0192291Y0199723D01*
X0192340Y0199869D01*
X0192393Y0200013D01*
X0192449Y0200155D01*
X0192509Y0200296D01*
X0192573Y0200436D01*
X0192640Y0200574D01*
X0192711Y0200710D01*
X0192786Y0200844D01*
X0192863Y0200976D01*
X0192945Y0201106D01*
X0193029Y0201234D01*
X0193117Y0201360D01*
X0193208Y0201483D01*
X0193302Y0201604D01*
X0193400Y0201722D01*
X0193500Y0201838D01*
X0193604Y0201951D01*
X0193710Y0202062D01*
X0193819Y0202170D01*
X0193931Y0202275D01*
X0194045Y0202376D01*
X0194163Y0202475D01*
X0194282Y0202571D01*
X0194404Y0202664D01*
X0194529Y0202753D01*
X0194656Y0202840D01*
X0194785Y0202922D01*
X0194916Y0203002D01*
X0195049Y0203078D01*
X0195184Y0203151D01*
X0195321Y0203220D01*
X0195460Y0203285D01*
X0195600Y0203347D01*
X0195742Y0203405D01*
X0195885Y0203460D01*
X0196030Y0203511D01*
X0196176Y0203558D01*
X0196323Y0203601D01*
X0196471Y0203640D01*
X0196620Y0203676D01*
X0196770Y0203707D01*
X0196921Y0203735D01*
X0197072Y0203759D01*
X0197225Y0203779D01*
X0197377Y0203795D01*
X0197530Y0203807D01*
X0197683Y0203815D01*
X0197836Y0203819D01*
X0197990Y0203819D01*
X0198143Y0203815D01*
X0198296Y0203807D01*
X0198449Y0203795D01*
X0198601Y0203779D01*
X0198754Y0203759D01*
X0198905Y0203735D01*
X0199056Y0203707D01*
X0199206Y0203676D01*
X0199355Y0203640D01*
X0199503Y0203601D01*
X0199650Y0203558D01*
X0199796Y0203511D01*
X0199941Y0203460D01*
X0200084Y0203405D01*
X0200226Y0203347D01*
X0200366Y0203285D01*
X0200505Y0203220D01*
X0200642Y0203151D01*
X0200777Y0203078D01*
X0200910Y0203002D01*
X0201041Y0202922D01*
X0201170Y0202840D01*
X0201297Y0202753D01*
X0201422Y0202664D01*
X0201544Y0202571D01*
X0201663Y0202475D01*
X0201781Y0202376D01*
X0201895Y0202275D01*
X0202007Y0202170D01*
X0202116Y0202062D01*
X0202222Y0201951D01*
X0202326Y0201838D01*
X0202426Y0201722D01*
X0202524Y0201604D01*
X0202618Y0201483D01*
X0202709Y0201360D01*
X0202797Y0201234D01*
X0202881Y0201106D01*
X0202963Y0200976D01*
X0203040Y0200844D01*
X0203115Y0200710D01*
X0203186Y0200574D01*
X0203253Y0200436D01*
X0203317Y0200296D01*
X0203377Y0200155D01*
X0203433Y0200013D01*
X0203486Y0199869D01*
X0203535Y0199723D01*
X0203580Y0199577D01*
X0203621Y0199429D01*
X0203658Y0199281D01*
X0203692Y0199131D01*
X0203722Y0198980D01*
X0203747Y0198829D01*
X0203769Y0198678D01*
X0203787Y0198525D01*
X0203801Y0198373D01*
X0203811Y0198220D01*
X0203817Y0198066D01*
X0203819Y0197913D01*
X0203817Y0197760D01*
X0203811Y0197606D01*
X0203801Y0197453D01*
X0203787Y0197301D01*
X0203769Y0197148D01*
X0203747Y0196997D01*
X0203722Y0196846D01*
X0203692Y0196695D01*
X0203658Y0196545D01*
X0203621Y0196397D01*
X0203580Y0196249D01*
X0203535Y0196103D01*
X0203486Y0195957D01*
X0203433Y0195813D01*
X0203377Y0195671D01*
X0203317Y0195530D01*
X0203253Y0195390D01*
X0203186Y0195252D01*
X0203115Y0195116D01*
X0203040Y0194982D01*
X0202963Y0194850D01*
X0202881Y0194720D01*
X0202797Y0194592D01*
X0202709Y0194466D01*
X0202618Y0194343D01*
X0202524Y0194222D01*
X0202426Y0194104D01*
X0202326Y0193988D01*
X0202222Y0193875D01*
X0202116Y0193764D01*
X0202007Y0193656D01*
X0201895Y0193551D01*
X0201781Y0193450D01*
X0201663Y0193351D01*
X0201544Y0193255D01*
X0201422Y0193162D01*
X0201297Y0193073D01*
X0201170Y0192986D01*
X0201041Y0192904D01*
X0200910Y0192824D01*
X0200777Y0192748D01*
X0200642Y0192675D01*
X0200505Y0192606D01*
X0200366Y0192541D01*
X0200226Y0192479D01*
X0200084Y0192421D01*
X0199941Y0192366D01*
X0199796Y0192315D01*
X0199650Y0192268D01*
X0199503Y0192225D01*
X0199355Y0192186D01*
X0199206Y0192150D01*
X0199056Y0192119D01*
X0198905Y0192091D01*
X0198754Y0192067D01*
X0198601Y0192047D01*
X0198449Y0192031D01*
X0198296Y0192019D01*
X0198143Y0192011D01*
X0197990Y0192007D01*
X0197836Y0192007D01*
X0197683Y0192011D01*
X0197530Y0192019D01*
X0197377Y0192031D01*
X0197225Y0192047D01*
X0197072Y0192067D01*
X0196921Y0192091D01*
X0196770Y0192119D01*
X0196620Y0192150D01*
X0196471Y0192186D01*
X0196323Y0192225D01*
X0196176Y0192268D01*
X0196030Y0192315D01*
X0195885Y0192366D01*
X0195742Y0192421D01*
X0195600Y0192479D01*
X0195460Y0192541D01*
X0195321Y0192606D01*
X0195184Y0192675D01*
X0195049Y0192748D01*
X0194916Y0192824D01*
X0194785Y0192904D01*
X0194656Y0192986D01*
X0194529Y0193073D01*
X0194404Y0193162D01*
X0194282Y0193255D01*
X0194163Y0193351D01*
X0194045Y0193450D01*
X0193931Y0193551D01*
X0193819Y0193656D01*
X0193710Y0193764D01*
X0193604Y0193875D01*
X0193500Y0193988D01*
X0193400Y0194104D01*
X0193302Y0194222D01*
X0193208Y0194343D01*
X0193117Y0194466D01*
X0193029Y0194592D01*
X0192945Y0194720D01*
X0192863Y0194850D01*
X0192786Y0194982D01*
X0192711Y0195116D01*
X0192640Y0195252D01*
X0192573Y0195390D01*
X0192509Y0195530D01*
X0192449Y0195671D01*
X0192393Y0195813D01*
X0192340Y0195957D01*
X0192291Y0196103D01*
X0192246Y0196249D01*
X0192205Y0196397D01*
X0192168Y0196545D01*
X0192134Y0196695D01*
X0192104Y0196846D01*
X0192079Y0196997D01*
X0192057Y0197148D01*
X0192039Y0197301D01*
X0192025Y0197453D01*
X0192015Y0197606D01*
X0192009Y0197760D01*
X0192007Y0197913D01*
X0136102Y0054213D02*
X0136104Y0054318D01*
X0136110Y0054423D01*
X0136120Y0054527D01*
X0136134Y0054631D01*
X0136152Y0054735D01*
X0136174Y0054837D01*
X0136199Y0054939D01*
X0136229Y0055040D01*
X0136262Y0055139D01*
X0136299Y0055237D01*
X0136340Y0055334D01*
X0136385Y0055429D01*
X0136433Y0055522D01*
X0136484Y0055614D01*
X0136540Y0055703D01*
X0136598Y0055790D01*
X0136660Y0055875D01*
X0136724Y0055958D01*
X0136792Y0056038D01*
X0136863Y0056115D01*
X0136937Y0056189D01*
X0137014Y0056261D01*
X0137093Y0056330D01*
X0137175Y0056395D01*
X0137259Y0056458D01*
X0137346Y0056517D01*
X0137435Y0056573D01*
X0137526Y0056626D01*
X0137619Y0056675D01*
X0137713Y0056720D01*
X0137809Y0056762D01*
X0137907Y0056800D01*
X0138006Y0056834D01*
X0138107Y0056865D01*
X0138208Y0056891D01*
X0138311Y0056914D01*
X0138414Y0056933D01*
X0138518Y0056948D01*
X0138622Y0056959D01*
X0138727Y0056966D01*
X0138832Y0056969D01*
X0138937Y0056968D01*
X0139042Y0056963D01*
X0139146Y0056954D01*
X0139250Y0056941D01*
X0139354Y0056924D01*
X0139457Y0056903D01*
X0139559Y0056878D01*
X0139660Y0056850D01*
X0139759Y0056817D01*
X0139858Y0056781D01*
X0139955Y0056741D01*
X0140050Y0056698D01*
X0140144Y0056650D01*
X0140236Y0056600D01*
X0140326Y0056546D01*
X0140414Y0056488D01*
X0140499Y0056427D01*
X0140582Y0056363D01*
X0140663Y0056296D01*
X0140741Y0056226D01*
X0140816Y0056152D01*
X0140888Y0056077D01*
X0140958Y0055998D01*
X0141024Y0055917D01*
X0141088Y0055833D01*
X0141148Y0055747D01*
X0141204Y0055659D01*
X0141258Y0055568D01*
X0141308Y0055476D01*
X0141354Y0055382D01*
X0141397Y0055286D01*
X0141436Y0055188D01*
X0141471Y0055090D01*
X0141502Y0054989D01*
X0141530Y0054888D01*
X0141554Y0054786D01*
X0141574Y0054683D01*
X0141590Y0054579D01*
X0141602Y0054475D01*
X0141610Y0054370D01*
X0141614Y0054265D01*
X0141614Y0054161D01*
X0141610Y0054056D01*
X0141602Y0053951D01*
X0141590Y0053847D01*
X0141574Y0053743D01*
X0141554Y0053640D01*
X0141530Y0053538D01*
X0141502Y0053437D01*
X0141471Y0053336D01*
X0141436Y0053238D01*
X0141397Y0053140D01*
X0141354Y0053044D01*
X0141308Y0052950D01*
X0141258Y0052858D01*
X0141204Y0052767D01*
X0141148Y0052679D01*
X0141088Y0052593D01*
X0141024Y0052509D01*
X0140958Y0052428D01*
X0140888Y0052349D01*
X0140816Y0052274D01*
X0140741Y0052200D01*
X0140663Y0052130D01*
X0140582Y0052063D01*
X0140499Y0051999D01*
X0140414Y0051938D01*
X0140326Y0051880D01*
X0140236Y0051826D01*
X0140144Y0051776D01*
X0140050Y0051728D01*
X0139955Y0051685D01*
X0139858Y0051645D01*
X0139759Y0051609D01*
X0139660Y0051576D01*
X0139559Y0051548D01*
X0139457Y0051523D01*
X0139354Y0051502D01*
X0139250Y0051485D01*
X0139146Y0051472D01*
X0139042Y0051463D01*
X0138937Y0051458D01*
X0138832Y0051457D01*
X0138727Y0051460D01*
X0138622Y0051467D01*
X0138518Y0051478D01*
X0138414Y0051493D01*
X0138311Y0051512D01*
X0138208Y0051535D01*
X0138107Y0051561D01*
X0138006Y0051592D01*
X0137907Y0051626D01*
X0137809Y0051664D01*
X0137713Y0051706D01*
X0137619Y0051751D01*
X0137526Y0051800D01*
X0137435Y0051853D01*
X0137346Y0051909D01*
X0137259Y0051968D01*
X0137175Y0052031D01*
X0137093Y0052096D01*
X0137014Y0052165D01*
X0136937Y0052237D01*
X0136863Y0052311D01*
X0136792Y0052388D01*
X0136724Y0052468D01*
X0136660Y0052551D01*
X0136598Y0052636D01*
X0136540Y0052723D01*
X0136484Y0052812D01*
X0136433Y0052904D01*
X0136385Y0052997D01*
X0136340Y0053092D01*
X0136299Y0053189D01*
X0136262Y0053287D01*
X0136229Y0053386D01*
X0136199Y0053487D01*
X0136174Y0053589D01*
X0136152Y0053691D01*
X0136134Y0053795D01*
X0136120Y0053899D01*
X0136110Y0054003D01*
X0136104Y0054108D01*
X0136102Y0054213D01*
X0132362Y0017598D02*
X0132362Y0012874D01*
X0145354Y0012874D01*
X0145354Y0017598D01*
X0132362Y0017598D01*
X0192007Y0024685D02*
X0192009Y0024838D01*
X0192015Y0024992D01*
X0192025Y0025145D01*
X0192039Y0025297D01*
X0192057Y0025450D01*
X0192079Y0025601D01*
X0192104Y0025752D01*
X0192134Y0025903D01*
X0192168Y0026053D01*
X0192205Y0026201D01*
X0192246Y0026349D01*
X0192291Y0026495D01*
X0192340Y0026641D01*
X0192393Y0026785D01*
X0192449Y0026927D01*
X0192509Y0027068D01*
X0192573Y0027208D01*
X0192640Y0027346D01*
X0192711Y0027482D01*
X0192786Y0027616D01*
X0192863Y0027748D01*
X0192945Y0027878D01*
X0193029Y0028006D01*
X0193117Y0028132D01*
X0193208Y0028255D01*
X0193302Y0028376D01*
X0193400Y0028494D01*
X0193500Y0028610D01*
X0193604Y0028723D01*
X0193710Y0028834D01*
X0193819Y0028942D01*
X0193931Y0029047D01*
X0194045Y0029148D01*
X0194163Y0029247D01*
X0194282Y0029343D01*
X0194404Y0029436D01*
X0194529Y0029525D01*
X0194656Y0029612D01*
X0194785Y0029694D01*
X0194916Y0029774D01*
X0195049Y0029850D01*
X0195184Y0029923D01*
X0195321Y0029992D01*
X0195460Y0030057D01*
X0195600Y0030119D01*
X0195742Y0030177D01*
X0195885Y0030232D01*
X0196030Y0030283D01*
X0196176Y0030330D01*
X0196323Y0030373D01*
X0196471Y0030412D01*
X0196620Y0030448D01*
X0196770Y0030479D01*
X0196921Y0030507D01*
X0197072Y0030531D01*
X0197225Y0030551D01*
X0197377Y0030567D01*
X0197530Y0030579D01*
X0197683Y0030587D01*
X0197836Y0030591D01*
X0197990Y0030591D01*
X0198143Y0030587D01*
X0198296Y0030579D01*
X0198449Y0030567D01*
X0198601Y0030551D01*
X0198754Y0030531D01*
X0198905Y0030507D01*
X0199056Y0030479D01*
X0199206Y0030448D01*
X0199355Y0030412D01*
X0199503Y0030373D01*
X0199650Y0030330D01*
X0199796Y0030283D01*
X0199941Y0030232D01*
X0200084Y0030177D01*
X0200226Y0030119D01*
X0200366Y0030057D01*
X0200505Y0029992D01*
X0200642Y0029923D01*
X0200777Y0029850D01*
X0200910Y0029774D01*
X0201041Y0029694D01*
X0201170Y0029612D01*
X0201297Y0029525D01*
X0201422Y0029436D01*
X0201544Y0029343D01*
X0201663Y0029247D01*
X0201781Y0029148D01*
X0201895Y0029047D01*
X0202007Y0028942D01*
X0202116Y0028834D01*
X0202222Y0028723D01*
X0202326Y0028610D01*
X0202426Y0028494D01*
X0202524Y0028376D01*
X0202618Y0028255D01*
X0202709Y0028132D01*
X0202797Y0028006D01*
X0202881Y0027878D01*
X0202963Y0027748D01*
X0203040Y0027616D01*
X0203115Y0027482D01*
X0203186Y0027346D01*
X0203253Y0027208D01*
X0203317Y0027068D01*
X0203377Y0026927D01*
X0203433Y0026785D01*
X0203486Y0026641D01*
X0203535Y0026495D01*
X0203580Y0026349D01*
X0203621Y0026201D01*
X0203658Y0026053D01*
X0203692Y0025903D01*
X0203722Y0025752D01*
X0203747Y0025601D01*
X0203769Y0025450D01*
X0203787Y0025297D01*
X0203801Y0025145D01*
X0203811Y0024992D01*
X0203817Y0024838D01*
X0203819Y0024685D01*
X0203817Y0024532D01*
X0203811Y0024378D01*
X0203801Y0024225D01*
X0203787Y0024073D01*
X0203769Y0023920D01*
X0203747Y0023769D01*
X0203722Y0023618D01*
X0203692Y0023467D01*
X0203658Y0023317D01*
X0203621Y0023169D01*
X0203580Y0023021D01*
X0203535Y0022875D01*
X0203486Y0022729D01*
X0203433Y0022585D01*
X0203377Y0022443D01*
X0203317Y0022302D01*
X0203253Y0022162D01*
X0203186Y0022024D01*
X0203115Y0021888D01*
X0203040Y0021754D01*
X0202963Y0021622D01*
X0202881Y0021492D01*
X0202797Y0021364D01*
X0202709Y0021238D01*
X0202618Y0021115D01*
X0202524Y0020994D01*
X0202426Y0020876D01*
X0202326Y0020760D01*
X0202222Y0020647D01*
X0202116Y0020536D01*
X0202007Y0020428D01*
X0201895Y0020323D01*
X0201781Y0020222D01*
X0201663Y0020123D01*
X0201544Y0020027D01*
X0201422Y0019934D01*
X0201297Y0019845D01*
X0201170Y0019758D01*
X0201041Y0019676D01*
X0200910Y0019596D01*
X0200777Y0019520D01*
X0200642Y0019447D01*
X0200505Y0019378D01*
X0200366Y0019313D01*
X0200226Y0019251D01*
X0200084Y0019193D01*
X0199941Y0019138D01*
X0199796Y0019087D01*
X0199650Y0019040D01*
X0199503Y0018997D01*
X0199355Y0018958D01*
X0199206Y0018922D01*
X0199056Y0018891D01*
X0198905Y0018863D01*
X0198754Y0018839D01*
X0198601Y0018819D01*
X0198449Y0018803D01*
X0198296Y0018791D01*
X0198143Y0018783D01*
X0197990Y0018779D01*
X0197836Y0018779D01*
X0197683Y0018783D01*
X0197530Y0018791D01*
X0197377Y0018803D01*
X0197225Y0018819D01*
X0197072Y0018839D01*
X0196921Y0018863D01*
X0196770Y0018891D01*
X0196620Y0018922D01*
X0196471Y0018958D01*
X0196323Y0018997D01*
X0196176Y0019040D01*
X0196030Y0019087D01*
X0195885Y0019138D01*
X0195742Y0019193D01*
X0195600Y0019251D01*
X0195460Y0019313D01*
X0195321Y0019378D01*
X0195184Y0019447D01*
X0195049Y0019520D01*
X0194916Y0019596D01*
X0194785Y0019676D01*
X0194656Y0019758D01*
X0194529Y0019845D01*
X0194404Y0019934D01*
X0194282Y0020027D01*
X0194163Y0020123D01*
X0194045Y0020222D01*
X0193931Y0020323D01*
X0193819Y0020428D01*
X0193710Y0020536D01*
X0193604Y0020647D01*
X0193500Y0020760D01*
X0193400Y0020876D01*
X0193302Y0020994D01*
X0193208Y0021115D01*
X0193117Y0021238D01*
X0193029Y0021364D01*
X0192945Y0021492D01*
X0192863Y0021622D01*
X0192786Y0021754D01*
X0192711Y0021888D01*
X0192640Y0022024D01*
X0192573Y0022162D01*
X0192509Y0022302D01*
X0192449Y0022443D01*
X0192393Y0022585D01*
X0192340Y0022729D01*
X0192291Y0022875D01*
X0192246Y0023021D01*
X0192205Y0023169D01*
X0192168Y0023317D01*
X0192134Y0023467D01*
X0192104Y0023618D01*
X0192079Y0023769D01*
X0192057Y0023920D01*
X0192039Y0024073D01*
X0192025Y0024225D01*
X0192015Y0024378D01*
X0192009Y0024532D01*
X0192007Y0024685D01*
X0018779Y0024685D02*
X0018781Y0024838D01*
X0018787Y0024992D01*
X0018797Y0025145D01*
X0018811Y0025297D01*
X0018829Y0025450D01*
X0018851Y0025601D01*
X0018876Y0025752D01*
X0018906Y0025903D01*
X0018940Y0026053D01*
X0018977Y0026201D01*
X0019018Y0026349D01*
X0019063Y0026495D01*
X0019112Y0026641D01*
X0019165Y0026785D01*
X0019221Y0026927D01*
X0019281Y0027068D01*
X0019345Y0027208D01*
X0019412Y0027346D01*
X0019483Y0027482D01*
X0019558Y0027616D01*
X0019635Y0027748D01*
X0019717Y0027878D01*
X0019801Y0028006D01*
X0019889Y0028132D01*
X0019980Y0028255D01*
X0020074Y0028376D01*
X0020172Y0028494D01*
X0020272Y0028610D01*
X0020376Y0028723D01*
X0020482Y0028834D01*
X0020591Y0028942D01*
X0020703Y0029047D01*
X0020817Y0029148D01*
X0020935Y0029247D01*
X0021054Y0029343D01*
X0021176Y0029436D01*
X0021301Y0029525D01*
X0021428Y0029612D01*
X0021557Y0029694D01*
X0021688Y0029774D01*
X0021821Y0029850D01*
X0021956Y0029923D01*
X0022093Y0029992D01*
X0022232Y0030057D01*
X0022372Y0030119D01*
X0022514Y0030177D01*
X0022657Y0030232D01*
X0022802Y0030283D01*
X0022948Y0030330D01*
X0023095Y0030373D01*
X0023243Y0030412D01*
X0023392Y0030448D01*
X0023542Y0030479D01*
X0023693Y0030507D01*
X0023844Y0030531D01*
X0023997Y0030551D01*
X0024149Y0030567D01*
X0024302Y0030579D01*
X0024455Y0030587D01*
X0024608Y0030591D01*
X0024762Y0030591D01*
X0024915Y0030587D01*
X0025068Y0030579D01*
X0025221Y0030567D01*
X0025373Y0030551D01*
X0025526Y0030531D01*
X0025677Y0030507D01*
X0025828Y0030479D01*
X0025978Y0030448D01*
X0026127Y0030412D01*
X0026275Y0030373D01*
X0026422Y0030330D01*
X0026568Y0030283D01*
X0026713Y0030232D01*
X0026856Y0030177D01*
X0026998Y0030119D01*
X0027138Y0030057D01*
X0027277Y0029992D01*
X0027414Y0029923D01*
X0027549Y0029850D01*
X0027682Y0029774D01*
X0027813Y0029694D01*
X0027942Y0029612D01*
X0028069Y0029525D01*
X0028194Y0029436D01*
X0028316Y0029343D01*
X0028435Y0029247D01*
X0028553Y0029148D01*
X0028667Y0029047D01*
X0028779Y0028942D01*
X0028888Y0028834D01*
X0028994Y0028723D01*
X0029098Y0028610D01*
X0029198Y0028494D01*
X0029296Y0028376D01*
X0029390Y0028255D01*
X0029481Y0028132D01*
X0029569Y0028006D01*
X0029653Y0027878D01*
X0029735Y0027748D01*
X0029812Y0027616D01*
X0029887Y0027482D01*
X0029958Y0027346D01*
X0030025Y0027208D01*
X0030089Y0027068D01*
X0030149Y0026927D01*
X0030205Y0026785D01*
X0030258Y0026641D01*
X0030307Y0026495D01*
X0030352Y0026349D01*
X0030393Y0026201D01*
X0030430Y0026053D01*
X0030464Y0025903D01*
X0030494Y0025752D01*
X0030519Y0025601D01*
X0030541Y0025450D01*
X0030559Y0025297D01*
X0030573Y0025145D01*
X0030583Y0024992D01*
X0030589Y0024838D01*
X0030591Y0024685D01*
X0030589Y0024532D01*
X0030583Y0024378D01*
X0030573Y0024225D01*
X0030559Y0024073D01*
X0030541Y0023920D01*
X0030519Y0023769D01*
X0030494Y0023618D01*
X0030464Y0023467D01*
X0030430Y0023317D01*
X0030393Y0023169D01*
X0030352Y0023021D01*
X0030307Y0022875D01*
X0030258Y0022729D01*
X0030205Y0022585D01*
X0030149Y0022443D01*
X0030089Y0022302D01*
X0030025Y0022162D01*
X0029958Y0022024D01*
X0029887Y0021888D01*
X0029812Y0021754D01*
X0029735Y0021622D01*
X0029653Y0021492D01*
X0029569Y0021364D01*
X0029481Y0021238D01*
X0029390Y0021115D01*
X0029296Y0020994D01*
X0029198Y0020876D01*
X0029098Y0020760D01*
X0028994Y0020647D01*
X0028888Y0020536D01*
X0028779Y0020428D01*
X0028667Y0020323D01*
X0028553Y0020222D01*
X0028435Y0020123D01*
X0028316Y0020027D01*
X0028194Y0019934D01*
X0028069Y0019845D01*
X0027942Y0019758D01*
X0027813Y0019676D01*
X0027682Y0019596D01*
X0027549Y0019520D01*
X0027414Y0019447D01*
X0027277Y0019378D01*
X0027138Y0019313D01*
X0026998Y0019251D01*
X0026856Y0019193D01*
X0026713Y0019138D01*
X0026568Y0019087D01*
X0026422Y0019040D01*
X0026275Y0018997D01*
X0026127Y0018958D01*
X0025978Y0018922D01*
X0025828Y0018891D01*
X0025677Y0018863D01*
X0025526Y0018839D01*
X0025373Y0018819D01*
X0025221Y0018803D01*
X0025068Y0018791D01*
X0024915Y0018783D01*
X0024762Y0018779D01*
X0024608Y0018779D01*
X0024455Y0018783D01*
X0024302Y0018791D01*
X0024149Y0018803D01*
X0023997Y0018819D01*
X0023844Y0018839D01*
X0023693Y0018863D01*
X0023542Y0018891D01*
X0023392Y0018922D01*
X0023243Y0018958D01*
X0023095Y0018997D01*
X0022948Y0019040D01*
X0022802Y0019087D01*
X0022657Y0019138D01*
X0022514Y0019193D01*
X0022372Y0019251D01*
X0022232Y0019313D01*
X0022093Y0019378D01*
X0021956Y0019447D01*
X0021821Y0019520D01*
X0021688Y0019596D01*
X0021557Y0019676D01*
X0021428Y0019758D01*
X0021301Y0019845D01*
X0021176Y0019934D01*
X0021054Y0020027D01*
X0020935Y0020123D01*
X0020817Y0020222D01*
X0020703Y0020323D01*
X0020591Y0020428D01*
X0020482Y0020536D01*
X0020376Y0020647D01*
X0020272Y0020760D01*
X0020172Y0020876D01*
X0020074Y0020994D01*
X0019980Y0021115D01*
X0019889Y0021238D01*
X0019801Y0021364D01*
X0019717Y0021492D01*
X0019635Y0021622D01*
X0019558Y0021754D01*
X0019483Y0021888D01*
X0019412Y0022024D01*
X0019345Y0022162D01*
X0019281Y0022302D01*
X0019221Y0022443D01*
X0019165Y0022585D01*
X0019112Y0022729D01*
X0019063Y0022875D01*
X0019018Y0023021D01*
X0018977Y0023169D01*
X0018940Y0023317D01*
X0018906Y0023467D01*
X0018876Y0023618D01*
X0018851Y0023769D01*
X0018829Y0023920D01*
X0018811Y0024073D01*
X0018797Y0024225D01*
X0018787Y0024378D01*
X0018781Y0024532D01*
X0018779Y0024685D01*
X0018779Y0197913D02*
X0018781Y0198066D01*
X0018787Y0198220D01*
X0018797Y0198373D01*
X0018811Y0198525D01*
X0018829Y0198678D01*
X0018851Y0198829D01*
X0018876Y0198980D01*
X0018906Y0199131D01*
X0018940Y0199281D01*
X0018977Y0199429D01*
X0019018Y0199577D01*
X0019063Y0199723D01*
X0019112Y0199869D01*
X0019165Y0200013D01*
X0019221Y0200155D01*
X0019281Y0200296D01*
X0019345Y0200436D01*
X0019412Y0200574D01*
X0019483Y0200710D01*
X0019558Y0200844D01*
X0019635Y0200976D01*
X0019717Y0201106D01*
X0019801Y0201234D01*
X0019889Y0201360D01*
X0019980Y0201483D01*
X0020074Y0201604D01*
X0020172Y0201722D01*
X0020272Y0201838D01*
X0020376Y0201951D01*
X0020482Y0202062D01*
X0020591Y0202170D01*
X0020703Y0202275D01*
X0020817Y0202376D01*
X0020935Y0202475D01*
X0021054Y0202571D01*
X0021176Y0202664D01*
X0021301Y0202753D01*
X0021428Y0202840D01*
X0021557Y0202922D01*
X0021688Y0203002D01*
X0021821Y0203078D01*
X0021956Y0203151D01*
X0022093Y0203220D01*
X0022232Y0203285D01*
X0022372Y0203347D01*
X0022514Y0203405D01*
X0022657Y0203460D01*
X0022802Y0203511D01*
X0022948Y0203558D01*
X0023095Y0203601D01*
X0023243Y0203640D01*
X0023392Y0203676D01*
X0023542Y0203707D01*
X0023693Y0203735D01*
X0023844Y0203759D01*
X0023997Y0203779D01*
X0024149Y0203795D01*
X0024302Y0203807D01*
X0024455Y0203815D01*
X0024608Y0203819D01*
X0024762Y0203819D01*
X0024915Y0203815D01*
X0025068Y0203807D01*
X0025221Y0203795D01*
X0025373Y0203779D01*
X0025526Y0203759D01*
X0025677Y0203735D01*
X0025828Y0203707D01*
X0025978Y0203676D01*
X0026127Y0203640D01*
X0026275Y0203601D01*
X0026422Y0203558D01*
X0026568Y0203511D01*
X0026713Y0203460D01*
X0026856Y0203405D01*
X0026998Y0203347D01*
X0027138Y0203285D01*
X0027277Y0203220D01*
X0027414Y0203151D01*
X0027549Y0203078D01*
X0027682Y0203002D01*
X0027813Y0202922D01*
X0027942Y0202840D01*
X0028069Y0202753D01*
X0028194Y0202664D01*
X0028316Y0202571D01*
X0028435Y0202475D01*
X0028553Y0202376D01*
X0028667Y0202275D01*
X0028779Y0202170D01*
X0028888Y0202062D01*
X0028994Y0201951D01*
X0029098Y0201838D01*
X0029198Y0201722D01*
X0029296Y0201604D01*
X0029390Y0201483D01*
X0029481Y0201360D01*
X0029569Y0201234D01*
X0029653Y0201106D01*
X0029735Y0200976D01*
X0029812Y0200844D01*
X0029887Y0200710D01*
X0029958Y0200574D01*
X0030025Y0200436D01*
X0030089Y0200296D01*
X0030149Y0200155D01*
X0030205Y0200013D01*
X0030258Y0199869D01*
X0030307Y0199723D01*
X0030352Y0199577D01*
X0030393Y0199429D01*
X0030430Y0199281D01*
X0030464Y0199131D01*
X0030494Y0198980D01*
X0030519Y0198829D01*
X0030541Y0198678D01*
X0030559Y0198525D01*
X0030573Y0198373D01*
X0030583Y0198220D01*
X0030589Y0198066D01*
X0030591Y0197913D01*
X0030589Y0197760D01*
X0030583Y0197606D01*
X0030573Y0197453D01*
X0030559Y0197301D01*
X0030541Y0197148D01*
X0030519Y0196997D01*
X0030494Y0196846D01*
X0030464Y0196695D01*
X0030430Y0196545D01*
X0030393Y0196397D01*
X0030352Y0196249D01*
X0030307Y0196103D01*
X0030258Y0195957D01*
X0030205Y0195813D01*
X0030149Y0195671D01*
X0030089Y0195530D01*
X0030025Y0195390D01*
X0029958Y0195252D01*
X0029887Y0195116D01*
X0029812Y0194982D01*
X0029735Y0194850D01*
X0029653Y0194720D01*
X0029569Y0194592D01*
X0029481Y0194466D01*
X0029390Y0194343D01*
X0029296Y0194222D01*
X0029198Y0194104D01*
X0029098Y0193988D01*
X0028994Y0193875D01*
X0028888Y0193764D01*
X0028779Y0193656D01*
X0028667Y0193551D01*
X0028553Y0193450D01*
X0028435Y0193351D01*
X0028316Y0193255D01*
X0028194Y0193162D01*
X0028069Y0193073D01*
X0027942Y0192986D01*
X0027813Y0192904D01*
X0027682Y0192824D01*
X0027549Y0192748D01*
X0027414Y0192675D01*
X0027277Y0192606D01*
X0027138Y0192541D01*
X0026998Y0192479D01*
X0026856Y0192421D01*
X0026713Y0192366D01*
X0026568Y0192315D01*
X0026422Y0192268D01*
X0026275Y0192225D01*
X0026127Y0192186D01*
X0025978Y0192150D01*
X0025828Y0192119D01*
X0025677Y0192091D01*
X0025526Y0192067D01*
X0025373Y0192047D01*
X0025221Y0192031D01*
X0025068Y0192019D01*
X0024915Y0192011D01*
X0024762Y0192007D01*
X0024608Y0192007D01*
X0024455Y0192011D01*
X0024302Y0192019D01*
X0024149Y0192031D01*
X0023997Y0192047D01*
X0023844Y0192067D01*
X0023693Y0192091D01*
X0023542Y0192119D01*
X0023392Y0192150D01*
X0023243Y0192186D01*
X0023095Y0192225D01*
X0022948Y0192268D01*
X0022802Y0192315D01*
X0022657Y0192366D01*
X0022514Y0192421D01*
X0022372Y0192479D01*
X0022232Y0192541D01*
X0022093Y0192606D01*
X0021956Y0192675D01*
X0021821Y0192748D01*
X0021688Y0192824D01*
X0021557Y0192904D01*
X0021428Y0192986D01*
X0021301Y0193073D01*
X0021176Y0193162D01*
X0021054Y0193255D01*
X0020935Y0193351D01*
X0020817Y0193450D01*
X0020703Y0193551D01*
X0020591Y0193656D01*
X0020482Y0193764D01*
X0020376Y0193875D01*
X0020272Y0193988D01*
X0020172Y0194104D01*
X0020074Y0194222D01*
X0019980Y0194343D01*
X0019889Y0194466D01*
X0019801Y0194592D01*
X0019717Y0194720D01*
X0019635Y0194850D01*
X0019558Y0194982D01*
X0019483Y0195116D01*
X0019412Y0195252D01*
X0019345Y0195390D01*
X0019281Y0195530D01*
X0019221Y0195671D01*
X0019165Y0195813D01*
X0019112Y0195957D01*
X0019063Y0196103D01*
X0019018Y0196249D01*
X0018977Y0196397D01*
X0018940Y0196545D01*
X0018906Y0196695D01*
X0018876Y0196846D01*
X0018851Y0196997D01*
X0018829Y0197148D01*
X0018811Y0197301D01*
X0018797Y0197453D01*
X0018787Y0197606D01*
X0018781Y0197760D01*
X0018779Y0197913D01*
D12*
X0175709Y0181299D03*
X0175709Y0171299D03*
X0175709Y0161299D03*
X0175709Y0151299D03*
X0175709Y0141299D03*
X0175709Y0131299D03*
X0175709Y0121299D03*
X0175709Y0111299D03*
X0175709Y0101299D03*
X0175709Y0091299D03*
X0175709Y0081299D03*
X0175709Y0071299D03*
X0175709Y0061299D03*
X0175709Y0051299D03*
X0175709Y0041299D03*
X0195709Y0041299D03*
X0195709Y0051299D03*
X0195709Y0061299D03*
X0195709Y0071299D03*
X0195709Y0081299D03*
X0195709Y0091299D03*
X0195709Y0101299D03*
X0195709Y0111299D03*
X0195709Y0121299D03*
X0195709Y0131299D03*
X0195709Y0141299D03*
X0195709Y0151299D03*
X0195709Y0161299D03*
X0195709Y0171299D03*
X0195709Y0181299D03*
D13*
X0141023Y0167028D02*
X0141023Y0163130D01*
X0141023Y0167028D02*
X0141811Y0167028D01*
X0141811Y0163130D01*
X0141023Y0163130D01*
X0141023Y0163916D02*
X0141811Y0163916D01*
X0141811Y0164702D02*
X0141023Y0164702D01*
X0141023Y0165488D02*
X0141811Y0165488D01*
X0141811Y0166274D02*
X0141023Y0166274D01*
X0138464Y0167028D02*
X0138464Y0163130D01*
X0138464Y0167028D02*
X0139252Y0167028D01*
X0139252Y0163130D01*
X0138464Y0163130D01*
X0138464Y0163916D02*
X0139252Y0163916D01*
X0139252Y0164702D02*
X0138464Y0164702D01*
X0138464Y0165488D02*
X0139252Y0165488D01*
X0139252Y0166274D02*
X0138464Y0166274D01*
X0135905Y0167028D02*
X0135905Y0163130D01*
X0135905Y0167028D02*
X0136693Y0167028D01*
X0136693Y0163130D01*
X0135905Y0163130D01*
X0135905Y0163916D02*
X0136693Y0163916D01*
X0136693Y0164702D02*
X0135905Y0164702D01*
X0135905Y0165488D02*
X0136693Y0165488D01*
X0136693Y0166274D02*
X0135905Y0166274D01*
X0135905Y0159469D02*
X0135905Y0155571D01*
X0135905Y0159469D02*
X0136693Y0159469D01*
X0136693Y0155571D01*
X0135905Y0155571D01*
X0135905Y0156357D02*
X0136693Y0156357D01*
X0136693Y0157143D02*
X0135905Y0157143D01*
X0135905Y0157929D02*
X0136693Y0157929D01*
X0136693Y0158715D02*
X0135905Y0158715D01*
X0141023Y0159469D02*
X0141023Y0155571D01*
X0141023Y0159469D02*
X0141811Y0159469D01*
X0141811Y0155571D01*
X0141023Y0155571D01*
X0141023Y0156357D02*
X0141811Y0156357D01*
X0141811Y0157143D02*
X0141023Y0157143D01*
X0141023Y0157929D02*
X0141811Y0157929D01*
X0141811Y0158715D02*
X0141023Y0158715D01*
X0140433Y0102639D02*
X0140433Y0100275D01*
X0140433Y0100275D01*
X0140433Y0102639D01*
X0140433Y0102639D01*
X0140433Y0101061D02*
X0140433Y0101061D01*
X0140433Y0101847D02*
X0140433Y0101847D01*
X0140433Y0102633D02*
X0140433Y0102633D01*
X0138858Y0102639D02*
X0138858Y0100275D01*
X0138858Y0100275D01*
X0138858Y0102639D01*
X0138858Y0102639D01*
X0138858Y0101061D02*
X0138858Y0101061D01*
X0138858Y0101847D02*
X0138858Y0101847D01*
X0138858Y0102633D02*
X0138858Y0102633D01*
X0137283Y0102639D02*
X0137283Y0100275D01*
X0137283Y0100275D01*
X0137283Y0102639D01*
X0137283Y0102639D01*
X0137283Y0101061D02*
X0137283Y0101061D01*
X0137283Y0101847D02*
X0137283Y0101847D01*
X0137283Y0102633D02*
X0137283Y0102633D01*
X0135709Y0102639D02*
X0135709Y0100275D01*
X0135709Y0100275D01*
X0135709Y0102639D01*
X0135709Y0102639D01*
X0135709Y0101061D02*
X0135709Y0101061D01*
X0135709Y0101847D02*
X0135709Y0101847D01*
X0135709Y0102633D02*
X0135709Y0102633D01*
X0134135Y0098701D02*
X0134135Y0098701D01*
X0131771Y0098701D01*
X0131771Y0098701D01*
X0134135Y0098701D01*
X0134135Y0097126D02*
X0134135Y0097126D01*
X0131771Y0097126D01*
X0131771Y0097126D01*
X0134135Y0097126D01*
X0134135Y0095551D02*
X0134135Y0095551D01*
X0131771Y0095551D01*
X0131771Y0095551D01*
X0134135Y0095551D01*
X0134135Y0093976D02*
X0134135Y0093976D01*
X0131771Y0093976D01*
X0131771Y0093976D01*
X0134135Y0093976D01*
X0134135Y0092402D02*
X0134135Y0092402D01*
X0131771Y0092402D01*
X0131771Y0092402D01*
X0134135Y0092402D01*
X0135709Y0090828D02*
X0135709Y0088464D01*
X0135709Y0088464D01*
X0135709Y0090828D01*
X0135709Y0090828D01*
X0135709Y0089250D02*
X0135709Y0089250D01*
X0135709Y0090036D02*
X0135709Y0090036D01*
X0135709Y0090822D02*
X0135709Y0090822D01*
X0137283Y0090828D02*
X0137283Y0088464D01*
X0137283Y0088464D01*
X0137283Y0090828D01*
X0137283Y0090828D01*
X0137283Y0089250D02*
X0137283Y0089250D01*
X0137283Y0090036D02*
X0137283Y0090036D01*
X0137283Y0090822D02*
X0137283Y0090822D01*
X0138858Y0090828D02*
X0138858Y0088464D01*
X0138858Y0088464D01*
X0138858Y0090828D01*
X0138858Y0090828D01*
X0138858Y0089250D02*
X0138858Y0089250D01*
X0138858Y0090036D02*
X0138858Y0090036D01*
X0138858Y0090822D02*
X0138858Y0090822D01*
X0140433Y0090828D02*
X0140433Y0088464D01*
X0140433Y0088464D01*
X0140433Y0090828D01*
X0140433Y0090828D01*
X0140433Y0089250D02*
X0140433Y0089250D01*
X0140433Y0090036D02*
X0140433Y0090036D01*
X0140433Y0090822D02*
X0140433Y0090822D01*
X0142008Y0090828D02*
X0142008Y0088464D01*
X0142008Y0088464D01*
X0142008Y0090828D01*
X0142008Y0090828D01*
X0142008Y0089250D02*
X0142008Y0089250D01*
X0142008Y0090036D02*
X0142008Y0090036D01*
X0142008Y0090822D02*
X0142008Y0090822D01*
X0145946Y0092402D02*
X0145946Y0092402D01*
X0143582Y0092402D01*
X0143582Y0092402D01*
X0145946Y0092402D01*
X0145946Y0093976D02*
X0145946Y0093976D01*
X0143582Y0093976D01*
X0143582Y0093976D01*
X0145946Y0093976D01*
X0145946Y0095551D02*
X0145946Y0095551D01*
X0143582Y0095551D01*
X0143582Y0095551D01*
X0145946Y0095551D01*
X0145946Y0097126D02*
X0145946Y0097126D01*
X0143582Y0097126D01*
X0143582Y0097126D01*
X0145946Y0097126D01*
X0145946Y0098701D02*
X0145946Y0098701D01*
X0143582Y0098701D01*
X0143582Y0098701D01*
X0145946Y0098701D01*
X0142008Y0100275D02*
X0142008Y0102639D01*
X0142008Y0100275D02*
X0142008Y0100275D01*
X0142008Y0102639D01*
X0142008Y0102639D01*
X0142008Y0101061D02*
X0142008Y0101061D01*
X0142008Y0101847D02*
X0142008Y0101847D01*
X0142008Y0102633D02*
X0142008Y0102633D01*
D14*
X0138858Y0095551D03*
D15*
X0131772Y0058150D03*
X0128819Y0049488D03*
X0130197Y0024291D03*
X0150276Y0024291D03*
X0149094Y0034528D03*
X0149094Y0054213D03*
D16*
X0146929Y0201850D03*
X0154409Y0201850D03*
D17*
X0124291Y0118583D03*
X0124291Y0111102D03*
X0132559Y0114843D03*
D18*
X0142205Y0112480D03*
X0148898Y0112480D03*
X0130000Y0125079D03*
X0123307Y0125079D03*
X0152047Y0158150D03*
X0158740Y0158150D03*
X0158740Y0166024D03*
X0152047Y0166024D03*
X0152047Y0173898D03*
X0158740Y0173898D03*
X0158740Y0181772D03*
X0152047Y0181772D03*
X0146142Y0181772D03*
X0139449Y0181772D03*
X0135906Y0189646D03*
X0129213Y0189646D03*
X0130000Y0180591D03*
X0123307Y0180591D03*
X0123307Y0172717D03*
X0130000Y0172717D03*
X0148898Y0086496D03*
X0155591Y0086496D03*
X0148110Y0077047D03*
X0148110Y0069173D03*
X0141417Y0069173D03*
X0141417Y0077047D03*
X0172126Y0030984D03*
X0178819Y0030984D03*
X0178819Y0023110D03*
X0172126Y0023110D03*
X0165039Y0023110D03*
X0158346Y0023110D03*
X0158346Y0014843D03*
X0165039Y0014843D03*
X0172126Y0014843D03*
X0178819Y0014843D03*
D19*
X0158543Y0029606D03*
X0158543Y0036299D03*
X0121535Y0037283D03*
X0121535Y0030591D03*
X0128228Y0083543D03*
X0128228Y0090236D03*
X0130984Y0134724D03*
X0130984Y0141417D03*
X0142795Y0144173D03*
X0142795Y0150866D03*
X0151850Y0150866D03*
X0151850Y0144173D03*
X0130591Y0157953D03*
X0130591Y0164646D03*
X0122717Y0164646D03*
X0122717Y0157953D03*
X0119173Y0188268D03*
X0119173Y0194961D03*
D20*
X0121240Y0200758D03*
X0124980Y0200758D03*
D21*
X0125472Y0206575D03*
X0120748Y0206575D03*
D22*
X0104823Y0208541D02*
X0104823Y0209916D01*
X0104823Y0208541D02*
X0102073Y0205791D01*
X0102073Y0201666D01*
X0102073Y0205791D02*
X0099323Y0208541D01*
X0099323Y0209916D01*
X0095760Y0201666D02*
X0090260Y0201666D01*
X0090260Y0209916D01*
X0086697Y0209916D02*
X0081198Y0209916D01*
X0081198Y0201666D01*
X0081198Y0205791D02*
X0083947Y0205791D01*
X0077634Y0205791D02*
X0072135Y0205791D01*
X0068572Y0209916D02*
X0063072Y0209916D01*
X0063072Y0201666D01*
X0068572Y0201666D01*
X0065822Y0205791D02*
X0063072Y0205791D01*
X0059509Y0205791D02*
X0054009Y0205791D01*
X0054009Y0201666D02*
X0054009Y0209916D01*
X0050446Y0209916D02*
X0044946Y0209916D01*
X0047696Y0209916D02*
X0047696Y0201666D01*
X0059509Y0201666D02*
X0059509Y0209916D01*
X0123307Y0125079D02*
X0124291Y0125079D01*
X0124291Y0118583D01*
X0124094Y0118386D01*
X0120354Y0118386D01*
X0142795Y0132480D02*
X0142795Y0144173D01*
X0142795Y0132480D02*
X0175709Y0132480D01*
X0175709Y0131299D01*
X0141417Y0077047D02*
X0141417Y0069173D01*
X0148110Y0069173D02*
X0149882Y0067402D01*
X0149882Y0064843D01*
D23*
X0130962Y0012985D02*
X0010800Y0012985D01*
X0011437Y0012187D02*
X0131070Y0012187D01*
X0130962Y0012294D02*
X0131782Y0011474D01*
X0132942Y0011474D01*
X0145934Y0011474D01*
X0146754Y0012294D01*
X0146754Y0018178D01*
X0145934Y0018998D01*
X0131782Y0018998D01*
X0130962Y0018178D01*
X0130962Y0012294D01*
X0130962Y0013784D02*
X0010163Y0013784D01*
X0009526Y0014582D02*
X0130962Y0014582D01*
X0130962Y0015381D02*
X0009020Y0015381D01*
X0009219Y0014967D02*
X0007445Y0018652D01*
X0006535Y0022640D01*
X0006420Y0024685D01*
X0006420Y0197913D01*
X0006535Y0199958D01*
X0007445Y0203946D01*
X0009219Y0207631D01*
X0011769Y0210829D01*
X0014967Y0213379D01*
X0018652Y0215154D01*
X0022640Y0216064D01*
X0024685Y0216179D01*
X0113636Y0216179D01*
X0113636Y0139521D01*
X0113636Y0138196D01*
X0114573Y0137258D01*
X0127665Y0137258D01*
X0127616Y0137074D01*
X0127616Y0135124D01*
X0130584Y0135124D01*
X0130584Y0134324D01*
X0131384Y0134324D01*
X0131384Y0131159D01*
X0133137Y0131159D01*
X0133493Y0131254D01*
X0133812Y0131439D01*
X0134073Y0131699D01*
X0134257Y0132019D01*
X0134353Y0132375D01*
X0134353Y0134324D01*
X0131384Y0134324D01*
X0131384Y0135124D01*
X0134353Y0135124D01*
X0134353Y0137074D01*
X0134303Y0137258D01*
X0140795Y0137258D01*
X0140795Y0133861D01*
X0140405Y0133470D01*
X0140405Y0131490D01*
X0141805Y0130090D01*
X0143785Y0130090D01*
X0144176Y0130480D01*
X0168509Y0130480D01*
X0168509Y0128552D01*
X0169212Y0127849D01*
X0182206Y0127849D01*
X0182909Y0128552D01*
X0182909Y0134046D01*
X0182206Y0134749D01*
X0169212Y0134749D01*
X0168943Y0134480D01*
X0144795Y0134480D01*
X0144795Y0137258D01*
X0164324Y0137258D01*
X0165261Y0138196D01*
X0165261Y0216179D01*
X0197913Y0216179D01*
X0199958Y0216064D01*
X0203946Y0215154D01*
X0207631Y0213379D01*
X0210829Y0210829D01*
X0213379Y0207631D01*
X0215154Y0203946D01*
X0216064Y0199958D01*
X0216179Y0197913D01*
X0216179Y0024685D01*
X0216064Y0022640D01*
X0215154Y0018652D01*
X0213379Y0014967D01*
X0210829Y0011769D01*
X0207631Y0009219D01*
X0203946Y0007445D01*
X0199958Y0006535D01*
X0197913Y0006420D01*
X0024685Y0006420D01*
X0022640Y0006535D01*
X0018652Y0007445D01*
X0014967Y0009219D01*
X0011769Y0011769D01*
X0009219Y0014967D01*
X0008636Y0016179D02*
X0130962Y0016179D01*
X0130962Y0016978D02*
X0008251Y0016978D01*
X0007867Y0017776D02*
X0022274Y0017776D01*
X0023232Y0017380D02*
X0026138Y0017380D01*
X0028823Y0018492D01*
X0030878Y0020547D01*
X0031991Y0023232D01*
X0031991Y0026138D01*
X0030878Y0028823D01*
X0028823Y0030878D01*
X0026138Y0031991D01*
X0023232Y0031991D01*
X0020547Y0030878D01*
X0018492Y0028823D01*
X0017380Y0026138D01*
X0017380Y0023232D01*
X0018492Y0020547D01*
X0020547Y0018492D01*
X0023232Y0017380D01*
X0020464Y0018575D02*
X0007482Y0018575D01*
X0007280Y0019373D02*
X0019665Y0019373D01*
X0018867Y0020172D02*
X0007098Y0020172D01*
X0006916Y0020970D02*
X0018316Y0020970D01*
X0017986Y0021769D02*
X0006733Y0021769D01*
X0006551Y0022567D02*
X0017655Y0022567D01*
X0017380Y0023366D02*
X0006494Y0023366D01*
X0006449Y0024164D02*
X0017380Y0024164D01*
X0017380Y0024963D02*
X0006420Y0024963D01*
X0006420Y0025761D02*
X0017380Y0025761D01*
X0017554Y0026560D02*
X0006420Y0026560D01*
X0006420Y0027358D02*
X0017885Y0027358D01*
X0018216Y0028157D02*
X0006420Y0028157D01*
X0006420Y0028955D02*
X0018624Y0028955D01*
X0019422Y0029754D02*
X0006420Y0029754D01*
X0006420Y0030552D02*
X0020221Y0030552D01*
X0021688Y0031351D02*
X0006420Y0031351D01*
X0006420Y0032149D02*
X0117714Y0032149D01*
X0117329Y0032534D02*
X0118367Y0031496D01*
X0118367Y0027928D01*
X0119070Y0027225D01*
X0124001Y0027225D01*
X0124704Y0027928D01*
X0124704Y0033253D01*
X0124020Y0033937D01*
X0124704Y0034621D01*
X0124704Y0037258D01*
X0128497Y0037258D01*
X0129435Y0038196D01*
X0135340Y0044101D01*
X0135340Y0051853D01*
X0136504Y0050689D01*
X0138032Y0050057D01*
X0139685Y0050057D01*
X0141212Y0050689D01*
X0141589Y0051066D01*
X0141589Y0037946D01*
X0131787Y0028144D01*
X0131026Y0028460D01*
X0129368Y0028460D01*
X0127836Y0027825D01*
X0126663Y0026653D01*
X0126028Y0025120D01*
X0126028Y0023462D01*
X0126663Y0021930D01*
X0127836Y0020757D01*
X0129368Y0020123D01*
X0131026Y0020123D01*
X0132558Y0020757D01*
X0133731Y0021930D01*
X0134365Y0023462D01*
X0134365Y0025120D01*
X0134050Y0025882D01*
X0144789Y0036621D01*
X0144789Y0057238D01*
X0143852Y0058175D01*
X0137702Y0064324D01*
X0137702Y0083224D01*
X0139817Y0081109D01*
X0139817Y0080216D01*
X0138755Y0080216D01*
X0138052Y0079513D01*
X0138052Y0074582D01*
X0138755Y0073879D01*
X0139417Y0073879D01*
X0139417Y0072342D01*
X0138755Y0072342D01*
X0138052Y0071639D01*
X0138052Y0066708D01*
X0138755Y0066005D01*
X0144080Y0066005D01*
X0144764Y0066689D01*
X0145448Y0066005D01*
X0147663Y0066005D01*
X0147491Y0065833D01*
X0147491Y0063852D01*
X0148892Y0062452D01*
X0150872Y0062452D01*
X0152272Y0063852D01*
X0152272Y0065833D01*
X0151882Y0066223D01*
X0151882Y0068230D01*
X0151476Y0068636D01*
X0151476Y0071639D01*
X0150773Y0072342D01*
X0145448Y0072342D01*
X0144764Y0071658D01*
X0144080Y0072342D01*
X0143417Y0072342D01*
X0143417Y0073879D01*
X0144080Y0073879D01*
X0144677Y0074476D01*
X0144825Y0074219D01*
X0145085Y0073958D01*
X0145404Y0073774D01*
X0145761Y0073679D01*
X0147710Y0073679D01*
X0147710Y0076647D01*
X0148510Y0076647D01*
X0148510Y0073679D01*
X0150460Y0073679D01*
X0150816Y0073774D01*
X0151135Y0073958D01*
X0151396Y0074219D01*
X0151580Y0074538D01*
X0151676Y0074894D01*
X0151676Y0076647D01*
X0148510Y0076647D01*
X0148510Y0077447D01*
X0151676Y0077447D01*
X0151676Y0079200D01*
X0151580Y0079556D01*
X0151396Y0079875D01*
X0151135Y0080136D01*
X0151073Y0080172D01*
X0152762Y0080172D01*
X0154975Y0077959D01*
X0154975Y0049757D01*
X0147494Y0042277D01*
X0147494Y0038377D01*
X0146733Y0038061D01*
X0145561Y0036889D01*
X0144926Y0035357D01*
X0144926Y0033698D01*
X0145561Y0032166D01*
X0146733Y0030994D01*
X0148265Y0030359D01*
X0149924Y0030359D01*
X0151456Y0030994D01*
X0152628Y0032166D01*
X0153263Y0033698D01*
X0153263Y0035357D01*
X0152628Y0036889D01*
X0151456Y0038061D01*
X0150694Y0038377D01*
X0150694Y0040951D01*
X0158175Y0048432D01*
X0158175Y0079285D01*
X0154332Y0083128D01*
X0155191Y0083128D01*
X0155191Y0086096D01*
X0155991Y0086096D01*
X0155991Y0083128D01*
X0157731Y0083128D01*
X0157731Y0082684D01*
X0158668Y0081746D01*
X0158912Y0081503D01*
X0158912Y0039665D01*
X0156078Y0039665D01*
X0155375Y0038962D01*
X0155375Y0033637D01*
X0156059Y0032953D01*
X0155375Y0032269D01*
X0155375Y0026944D01*
X0156040Y0026279D01*
X0155684Y0026279D01*
X0155497Y0026091D01*
X0154042Y0026091D01*
X0153809Y0026653D01*
X0152637Y0027825D01*
X0151105Y0028460D01*
X0149446Y0028460D01*
X0147914Y0027825D01*
X0146742Y0026653D01*
X0146107Y0025120D01*
X0146107Y0023462D01*
X0146742Y0021930D01*
X0147914Y0020757D01*
X0149446Y0020123D01*
X0151105Y0020123D01*
X0152637Y0020757D01*
X0153809Y0021930D01*
X0154042Y0022491D01*
X0154981Y0022491D01*
X0154981Y0020645D01*
X0155684Y0019942D01*
X0161009Y0019942D01*
X0161693Y0020626D01*
X0162377Y0019942D01*
X0163239Y0019942D01*
X0163239Y0018011D01*
X0162377Y0018011D01*
X0161780Y0017414D01*
X0161632Y0017671D01*
X0161371Y0017931D01*
X0161052Y0018116D01*
X0160696Y0018211D01*
X0158746Y0018211D01*
X0158746Y0015243D01*
X0157946Y0015243D01*
X0157946Y0018211D01*
X0155997Y0018211D01*
X0155641Y0018116D01*
X0155321Y0017931D01*
X0155061Y0017671D01*
X0154877Y0017351D01*
X0154781Y0016995D01*
X0154781Y0015242D01*
X0157946Y0015242D01*
X0157946Y0014443D01*
X0154781Y0014443D01*
X0154781Y0012690D01*
X0154877Y0012334D01*
X0155061Y0012014D01*
X0155321Y0011754D01*
X0155641Y0011569D01*
X0155997Y0011474D01*
X0157946Y0011474D01*
X0157946Y0014442D01*
X0158746Y0014442D01*
X0158746Y0011474D01*
X0160696Y0011474D01*
X0161052Y0011569D01*
X0161371Y0011754D01*
X0161632Y0012014D01*
X0161780Y0012271D01*
X0162377Y0011674D01*
X0167702Y0011674D01*
X0168405Y0012377D01*
X0168405Y0017308D01*
X0167702Y0018011D01*
X0166839Y0018011D01*
X0166839Y0019942D01*
X0167702Y0019942D01*
X0168405Y0020645D01*
X0168405Y0024521D01*
X0168761Y0024876D01*
X0168761Y0020645D01*
X0169464Y0019942D01*
X0170326Y0019942D01*
X0170326Y0018011D01*
X0169464Y0018011D01*
X0168761Y0017308D01*
X0168761Y0012377D01*
X0169464Y0011674D01*
X0174788Y0011674D01*
X0175385Y0012271D01*
X0175533Y0012014D01*
X0175794Y0011754D01*
X0176113Y0011569D01*
X0176469Y0011474D01*
X0178419Y0011474D01*
X0178419Y0014442D01*
X0179219Y0014442D01*
X0179219Y0011474D01*
X0181169Y0011474D01*
X0181525Y0011569D01*
X0181844Y0011754D01*
X0182105Y0012014D01*
X0182289Y0012334D01*
X0182384Y0012690D01*
X0182384Y0014443D01*
X0179219Y0014443D01*
X0179219Y0015242D01*
X0182384Y0015242D01*
X0182384Y0016995D01*
X0182289Y0017351D01*
X0182105Y0017671D01*
X0181844Y0017931D01*
X0181525Y0018116D01*
X0181169Y0018211D01*
X0179219Y0018211D01*
X0179219Y0015243D01*
X0178419Y0015243D01*
X0178419Y0018211D01*
X0176469Y0018211D01*
X0176113Y0018116D01*
X0175794Y0017931D01*
X0175533Y0017671D01*
X0175385Y0017414D01*
X0174788Y0018011D01*
X0173926Y0018011D01*
X0173926Y0019942D01*
X0174788Y0019942D01*
X0175472Y0020626D01*
X0176156Y0019942D01*
X0181481Y0019942D01*
X0182184Y0020645D01*
X0182184Y0020892D01*
X0182356Y0020720D01*
X0184337Y0020720D01*
X0185737Y0022120D01*
X0185737Y0024100D01*
X0184337Y0025501D01*
X0182356Y0025501D01*
X0182184Y0025329D01*
X0182184Y0025576D01*
X0181481Y0026279D01*
X0177249Y0026279D01*
X0178787Y0027816D01*
X0181481Y0027816D01*
X0182184Y0028519D01*
X0182184Y0033450D01*
X0181481Y0034153D01*
X0176156Y0034153D01*
X0175472Y0033469D01*
X0174788Y0034153D01*
X0171954Y0034153D01*
X0171954Y0034797D01*
X0171017Y0035734D01*
X0165655Y0041096D01*
X0165655Y0084009D01*
X0164718Y0084946D01*
X0164474Y0085190D01*
X0164474Y0102513D01*
X0163537Y0103450D01*
X0159993Y0106994D01*
X0149219Y0106994D01*
X0148282Y0106056D01*
X0145282Y0103057D01*
X0143602Y0103057D01*
X0143602Y0103298D01*
X0142668Y0104231D01*
X0142033Y0104231D01*
X0142033Y0105759D01*
X0143785Y0105759D01*
X0145186Y0107159D01*
X0145186Y0109140D01*
X0144940Y0109385D01*
X0145464Y0109909D01*
X0145612Y0109652D01*
X0145873Y0109392D01*
X0146192Y0109207D01*
X0146548Y0109112D01*
X0148498Y0109112D01*
X0148498Y0112080D01*
X0149298Y0112080D01*
X0149298Y0112880D01*
X0152463Y0112880D01*
X0152463Y0114633D01*
X0152368Y0114989D01*
X0152183Y0115308D01*
X0151923Y0115569D01*
X0151688Y0115705D01*
X0152016Y0115705D01*
X0157043Y0110678D01*
X0157922Y0109799D01*
X0168509Y0109799D01*
X0168509Y0108552D01*
X0169212Y0107849D01*
X0182206Y0107849D01*
X0182909Y0108552D01*
X0182909Y0114046D01*
X0182206Y0114749D01*
X0169212Y0114749D01*
X0168509Y0114046D01*
X0168509Y0112799D01*
X0159165Y0112799D01*
X0154291Y0117673D01*
X0157922Y0117673D01*
X0160776Y0114819D01*
X0182272Y0114819D01*
X0184209Y0112882D01*
X0184209Y0078062D01*
X0180896Y0074749D01*
X0169212Y0074749D01*
X0169198Y0074736D01*
X0169198Y0077862D01*
X0169212Y0077849D01*
X0182206Y0077849D01*
X0182909Y0078552D01*
X0182909Y0084046D01*
X0182206Y0084749D01*
X0169989Y0084749D01*
X0169989Y0086699D01*
X0168589Y0088099D01*
X0166608Y0088099D01*
X0165208Y0086699D01*
X0165208Y0084718D01*
X0165998Y0083928D01*
X0165998Y0064747D01*
X0166936Y0063810D01*
X0168509Y0062237D01*
X0168509Y0058552D01*
X0169212Y0057849D01*
X0182206Y0057849D01*
X0182909Y0058552D01*
X0182909Y0064046D01*
X0182206Y0064749D01*
X0170522Y0064749D01*
X0169198Y0066072D01*
X0169198Y0067862D01*
X0169212Y0067849D01*
X0182206Y0067849D01*
X0182909Y0068552D01*
X0182909Y0072520D01*
X0187209Y0076820D01*
X0187209Y0114125D01*
X0184393Y0116940D01*
X0183514Y0117819D01*
X0162019Y0117819D01*
X0160043Y0119795D01*
X0159165Y0120673D01*
X0138631Y0120673D01*
X0137752Y0119795D01*
X0137209Y0119251D01*
X0137209Y0120520D01*
X0141448Y0124760D01*
X0183906Y0124760D01*
X0185390Y0123276D01*
X0185390Y0116190D01*
X0188509Y0113071D01*
X0188509Y0108552D01*
X0189212Y0107849D01*
X0202206Y0107849D01*
X0202909Y0108552D01*
X0202909Y0114046D01*
X0202206Y0114749D01*
X0191073Y0114749D01*
X0188390Y0117432D01*
X0188390Y0124519D01*
X0187511Y0125398D01*
X0185149Y0127760D01*
X0140205Y0127760D01*
X0139327Y0126881D01*
X0134209Y0121763D01*
X0134209Y0117817D01*
X0132946Y0117817D01*
X0132946Y0115230D01*
X0132172Y0115230D01*
X0132172Y0117817D01*
X0130603Y0117817D01*
X0130247Y0117722D01*
X0129928Y0117538D01*
X0129667Y0117277D01*
X0129483Y0116958D01*
X0129387Y0116602D01*
X0129387Y0115230D01*
X0132172Y0115230D01*
X0132172Y0114455D01*
X0132946Y0114455D01*
X0132946Y0111868D01*
X0134209Y0111868D01*
X0134209Y0103392D01*
X0134115Y0103298D01*
X0134115Y0100294D01*
X0133622Y0100294D01*
X0133615Y0100301D01*
X0133209Y0100301D01*
X0133375Y0100466D01*
X0133375Y0102447D01*
X0131974Y0103847D01*
X0129994Y0103847D01*
X0128594Y0102447D01*
X0128594Y0100992D01*
X0127076Y0102510D01*
X0127076Y0103628D01*
X0125675Y0105028D01*
X0123695Y0105028D01*
X0122294Y0103628D01*
X0122294Y0101648D01*
X0123695Y0100247D01*
X0124813Y0100247D01*
X0125153Y0099907D01*
X0122922Y0099907D01*
X0122132Y0100698D01*
X0120152Y0100698D01*
X0118751Y0099297D01*
X0118751Y0097317D01*
X0120152Y0095917D01*
X0122132Y0095917D01*
X0122922Y0096707D01*
X0123248Y0096707D01*
X0122294Y0095754D01*
X0122294Y0093774D01*
X0122460Y0093608D01*
X0120623Y0093608D01*
X0116443Y0097789D01*
X0116443Y0100991D01*
X0123779Y0108328D01*
X0126560Y0108328D01*
X0127263Y0109030D01*
X0127263Y0113174D01*
X0126560Y0113877D01*
X0122023Y0113877D01*
X0121320Y0113174D01*
X0121320Y0110393D01*
X0114180Y0103254D01*
X0113243Y0102316D01*
X0113243Y0096463D01*
X0118361Y0091345D01*
X0119298Y0090408D01*
X0125060Y0090408D01*
X0125060Y0087574D01*
X0125657Y0086977D01*
X0125400Y0086829D01*
X0125140Y0086568D01*
X0124955Y0086249D01*
X0124860Y0085893D01*
X0124860Y0083943D01*
X0127828Y0083943D01*
X0127828Y0083143D01*
X0128628Y0083143D01*
X0128628Y0079978D01*
X0130381Y0079978D01*
X0130737Y0080073D01*
X0131056Y0080258D01*
X0131317Y0080518D01*
X0131501Y0080838D01*
X0131597Y0081194D01*
X0131597Y0083143D01*
X0128628Y0083143D01*
X0128628Y0083943D01*
X0131597Y0083943D01*
X0131597Y0085893D01*
X0131501Y0086249D01*
X0131317Y0086568D01*
X0131056Y0086829D01*
X0130800Y0086977D01*
X0131397Y0087574D01*
X0131397Y0090802D01*
X0133615Y0090802D01*
X0133622Y0090808D01*
X0134115Y0090808D01*
X0134115Y0090315D01*
X0134109Y0090308D01*
X0134109Y0087946D01*
X0133471Y0087309D01*
X0132534Y0086371D01*
X0132534Y0067474D01*
X0131503Y0066443D01*
X0128353Y0066443D01*
X0125991Y0064080D01*
X0125054Y0063143D01*
X0125054Y0053866D01*
X0124929Y0053467D01*
X0125054Y0053228D01*
X0125054Y0052959D01*
X0125350Y0052663D01*
X0125607Y0052172D01*
X0125285Y0051849D01*
X0124650Y0050317D01*
X0124650Y0048659D01*
X0125285Y0047127D01*
X0126458Y0045954D01*
X0127990Y0045320D01*
X0129648Y0045320D01*
X0131180Y0045954D01*
X0132140Y0046914D01*
X0132140Y0045427D01*
X0127172Y0040458D01*
X0124192Y0040458D01*
X0124001Y0040649D01*
X0119592Y0040649D01*
X0119592Y0063062D01*
X0120383Y0063852D01*
X0120383Y0065833D01*
X0118982Y0067233D01*
X0117002Y0067233D01*
X0115602Y0065833D01*
X0115602Y0063852D01*
X0116392Y0063062D01*
X0116392Y0033471D01*
X0117329Y0032534D01*
X0117329Y0032534D01*
X0116915Y0032948D02*
X0006420Y0032948D01*
X0006420Y0033746D02*
X0116392Y0033746D01*
X0116392Y0034545D02*
X0006420Y0034545D01*
X0006420Y0035343D02*
X0116392Y0035343D01*
X0116392Y0036142D02*
X0006420Y0036142D01*
X0006420Y0036940D02*
X0116392Y0036940D01*
X0116392Y0037739D02*
X0006420Y0037739D01*
X0006420Y0038537D02*
X0116392Y0038537D01*
X0116392Y0039336D02*
X0006420Y0039336D01*
X0006420Y0040134D02*
X0116392Y0040134D01*
X0116392Y0040933D02*
X0006420Y0040933D01*
X0006420Y0041732D02*
X0116392Y0041732D01*
X0116392Y0042530D02*
X0006420Y0042530D01*
X0006420Y0043329D02*
X0116392Y0043329D01*
X0116392Y0044127D02*
X0006420Y0044127D01*
X0006420Y0044926D02*
X0116392Y0044926D01*
X0116392Y0045724D02*
X0006420Y0045724D01*
X0006420Y0046523D02*
X0116392Y0046523D01*
X0116392Y0047321D02*
X0006420Y0047321D01*
X0006420Y0048120D02*
X0116392Y0048120D01*
X0116392Y0048918D02*
X0006420Y0048918D01*
X0006420Y0049717D02*
X0116392Y0049717D01*
X0116392Y0050515D02*
X0006420Y0050515D01*
X0006420Y0051314D02*
X0116392Y0051314D01*
X0116392Y0052112D02*
X0006420Y0052112D01*
X0006420Y0052911D02*
X0116392Y0052911D01*
X0116392Y0053709D02*
X0006420Y0053709D01*
X0006420Y0054508D02*
X0116392Y0054508D01*
X0116392Y0055306D02*
X0006420Y0055306D01*
X0006420Y0056105D02*
X0116392Y0056105D01*
X0116392Y0056903D02*
X0006420Y0056903D01*
X0006420Y0057702D02*
X0116392Y0057702D01*
X0116392Y0058500D02*
X0006420Y0058500D01*
X0006420Y0059299D02*
X0116392Y0059299D01*
X0116392Y0060097D02*
X0006420Y0060097D01*
X0006420Y0060896D02*
X0116392Y0060896D01*
X0116392Y0061694D02*
X0006420Y0061694D01*
X0006420Y0062493D02*
X0116392Y0062493D01*
X0116163Y0063291D02*
X0006420Y0063291D01*
X0006420Y0064090D02*
X0115602Y0064090D01*
X0115602Y0064888D02*
X0006420Y0064888D01*
X0006420Y0065687D02*
X0115602Y0065687D01*
X0116254Y0066485D02*
X0006420Y0066485D01*
X0006420Y0067284D02*
X0132344Y0067284D01*
X0132534Y0068082D02*
X0006420Y0068082D01*
X0006420Y0068881D02*
X0132534Y0068881D01*
X0132534Y0069679D02*
X0006420Y0069679D01*
X0006420Y0070478D02*
X0132534Y0070478D01*
X0132534Y0071276D02*
X0006420Y0071276D01*
X0006420Y0072075D02*
X0132534Y0072075D01*
X0132534Y0072873D02*
X0006420Y0072873D01*
X0006420Y0073672D02*
X0132534Y0073672D01*
X0132534Y0074470D02*
X0006420Y0074470D01*
X0006420Y0075269D02*
X0132534Y0075269D01*
X0132534Y0076068D02*
X0006420Y0076068D01*
X0006420Y0076866D02*
X0132534Y0076866D01*
X0132534Y0077665D02*
X0006420Y0077665D01*
X0006420Y0078463D02*
X0132534Y0078463D01*
X0132534Y0079262D02*
X0006420Y0079262D01*
X0006420Y0080060D02*
X0125769Y0080060D01*
X0125719Y0080073D02*
X0126076Y0079978D01*
X0127828Y0079978D01*
X0127828Y0083143D01*
X0124860Y0083143D01*
X0124860Y0081194D01*
X0124955Y0080838D01*
X0125140Y0080518D01*
X0125400Y0080258D01*
X0125719Y0080073D01*
X0124950Y0080859D02*
X0006420Y0080859D01*
X0006420Y0081657D02*
X0124860Y0081657D01*
X0124860Y0082456D02*
X0006420Y0082456D01*
X0006420Y0083254D02*
X0127828Y0083254D01*
X0127828Y0082456D02*
X0128628Y0082456D01*
X0128628Y0083254D02*
X0132534Y0083254D01*
X0132534Y0082456D02*
X0131597Y0082456D01*
X0131597Y0081657D02*
X0132534Y0081657D01*
X0132534Y0080859D02*
X0131507Y0080859D01*
X0130688Y0080060D02*
X0132534Y0080060D01*
X0132534Y0084053D02*
X0131597Y0084053D01*
X0131597Y0084851D02*
X0132534Y0084851D01*
X0132534Y0085650D02*
X0131597Y0085650D01*
X0131386Y0086448D02*
X0132611Y0086448D01*
X0133409Y0087247D02*
X0131070Y0087247D01*
X0131397Y0088045D02*
X0134109Y0088045D01*
X0134109Y0088844D02*
X0131397Y0088844D01*
X0131397Y0089642D02*
X0134109Y0089642D01*
X0134115Y0090441D02*
X0131397Y0090441D01*
X0130394Y0092402D02*
X0128228Y0090236D01*
X0128228Y0092008D01*
X0119961Y0092008D01*
X0114843Y0097126D01*
X0114843Y0101654D01*
X0124291Y0111102D01*
X0121320Y0111202D02*
X0006420Y0111202D01*
X0006420Y0110403D02*
X0121320Y0110403D01*
X0120531Y0109605D02*
X0006420Y0109605D01*
X0006420Y0108806D02*
X0119733Y0108806D01*
X0118934Y0108008D02*
X0006420Y0108008D01*
X0006420Y0107209D02*
X0118136Y0107209D01*
X0117337Y0106411D02*
X0006420Y0106411D01*
X0006420Y0105612D02*
X0116539Y0105612D01*
X0115740Y0104814D02*
X0006420Y0104814D01*
X0006420Y0104015D02*
X0114942Y0104015D01*
X0114143Y0103217D02*
X0006420Y0103217D01*
X0006420Y0102418D02*
X0113345Y0102418D01*
X0113243Y0101620D02*
X0006420Y0101620D01*
X0006420Y0100821D02*
X0113243Y0100821D01*
X0113243Y0100023D02*
X0006420Y0100023D01*
X0006420Y0099224D02*
X0113243Y0099224D01*
X0113243Y0098426D02*
X0006420Y0098426D01*
X0006420Y0097627D02*
X0113243Y0097627D01*
X0113243Y0096829D02*
X0006420Y0096829D01*
X0006420Y0096030D02*
X0113675Y0096030D01*
X0114474Y0095232D02*
X0006420Y0095232D01*
X0006420Y0094433D02*
X0115272Y0094433D01*
X0116071Y0093635D02*
X0006420Y0093635D01*
X0006420Y0092836D02*
X0116870Y0092836D01*
X0117668Y0092038D02*
X0006420Y0092038D01*
X0006420Y0091239D02*
X0118467Y0091239D01*
X0119265Y0090441D02*
X0006420Y0090441D01*
X0006420Y0089642D02*
X0125060Y0089642D01*
X0125060Y0088844D02*
X0006420Y0088844D01*
X0006420Y0088045D02*
X0125060Y0088045D01*
X0125387Y0087247D02*
X0006420Y0087247D01*
X0006420Y0086448D02*
X0125070Y0086448D01*
X0124860Y0085650D02*
X0006420Y0085650D01*
X0006420Y0084851D02*
X0124860Y0084851D01*
X0124860Y0084053D02*
X0006420Y0084053D01*
X0006420Y0112001D02*
X0121320Y0112001D01*
X0121320Y0112799D02*
X0006420Y0112799D01*
X0006420Y0113598D02*
X0121743Y0113598D01*
X0122023Y0115808D02*
X0126560Y0115808D01*
X0127263Y0116511D01*
X0127263Y0120655D01*
X0126560Y0121357D01*
X0126291Y0121357D01*
X0126291Y0122232D01*
X0126566Y0122507D01*
X0126714Y0122251D01*
X0126975Y0121990D01*
X0127294Y0121806D01*
X0127650Y0121710D01*
X0129600Y0121710D01*
X0129600Y0124679D01*
X0130400Y0124679D01*
X0130400Y0125479D01*
X0129600Y0125479D01*
X0129600Y0128447D01*
X0127650Y0128447D01*
X0127294Y0128352D01*
X0126975Y0128168D01*
X0126714Y0127907D01*
X0126566Y0127650D01*
X0125969Y0128247D01*
X0120645Y0128247D01*
X0119942Y0127544D01*
X0119942Y0122613D01*
X0120645Y0121910D01*
X0122291Y0121910D01*
X0122291Y0121357D01*
X0122023Y0121357D01*
X0121393Y0120728D01*
X0121345Y0120776D01*
X0119364Y0120776D01*
X0117964Y0119376D01*
X0117964Y0117396D01*
X0119364Y0115995D01*
X0121345Y0115995D01*
X0121590Y0116241D01*
X0122023Y0115808D01*
X0121837Y0115993D02*
X0006420Y0115993D01*
X0006420Y0115195D02*
X0132172Y0115195D01*
X0132172Y0114455D02*
X0129387Y0114455D01*
X0129387Y0113083D01*
X0129483Y0112727D01*
X0129667Y0112408D01*
X0129928Y0112147D01*
X0130247Y0111963D01*
X0130603Y0111868D01*
X0132172Y0111868D01*
X0132172Y0114455D01*
X0132172Y0114396D02*
X0132946Y0114396D01*
X0132946Y0113598D02*
X0132172Y0113598D01*
X0132172Y0112799D02*
X0132946Y0112799D01*
X0132946Y0112001D02*
X0132172Y0112001D01*
X0130182Y0112001D02*
X0127263Y0112001D01*
X0127263Y0112799D02*
X0129464Y0112799D01*
X0129387Y0113598D02*
X0126840Y0113598D01*
X0126745Y0115993D02*
X0129387Y0115993D01*
X0129438Y0116792D02*
X0127263Y0116792D01*
X0127263Y0117590D02*
X0130019Y0117590D01*
X0132172Y0117590D02*
X0132946Y0117590D01*
X0132946Y0116792D02*
X0132172Y0116792D01*
X0132172Y0115993D02*
X0132946Y0115993D01*
X0134209Y0118389D02*
X0127263Y0118389D01*
X0127263Y0119187D02*
X0134209Y0119187D01*
X0134209Y0119986D02*
X0127263Y0119986D01*
X0127133Y0120784D02*
X0134209Y0120784D01*
X0134209Y0121583D02*
X0126291Y0121583D01*
X0126440Y0122381D02*
X0126639Y0122381D01*
X0129600Y0122381D02*
X0130400Y0122381D01*
X0130400Y0121710D02*
X0130400Y0124679D01*
X0133565Y0124679D01*
X0133565Y0122926D01*
X0133470Y0122570D01*
X0133286Y0122251D01*
X0133025Y0121990D01*
X0132706Y0121806D01*
X0132350Y0121710D01*
X0130400Y0121710D01*
X0130400Y0123180D02*
X0129600Y0123180D01*
X0129600Y0123978D02*
X0130400Y0123978D01*
X0130400Y0124777D02*
X0137222Y0124777D01*
X0136424Y0123978D02*
X0133565Y0123978D01*
X0133565Y0123180D02*
X0135625Y0123180D01*
X0134827Y0122381D02*
X0133361Y0122381D01*
X0133565Y0125479D02*
X0130400Y0125479D01*
X0130400Y0128447D01*
X0132350Y0128447D01*
X0132706Y0128352D01*
X0133025Y0128168D01*
X0133286Y0127907D01*
X0133470Y0127588D01*
X0133565Y0127232D01*
X0133565Y0125479D01*
X0133565Y0125575D02*
X0138021Y0125575D01*
X0138819Y0126374D02*
X0133565Y0126374D01*
X0133565Y0127172D02*
X0139618Y0127172D01*
X0140666Y0123978D02*
X0168509Y0123978D01*
X0168509Y0124046D02*
X0168509Y0118552D01*
X0169212Y0117849D01*
X0182206Y0117849D01*
X0182909Y0118552D01*
X0182909Y0124046D01*
X0182206Y0124749D01*
X0169212Y0124749D01*
X0168509Y0124046D01*
X0168509Y0123180D02*
X0139868Y0123180D01*
X0139069Y0122381D02*
X0168509Y0122381D01*
X0168509Y0121583D02*
X0138271Y0121583D01*
X0137472Y0120784D02*
X0168509Y0120784D01*
X0168509Y0119986D02*
X0159852Y0119986D01*
X0160651Y0119187D02*
X0168509Y0119187D01*
X0168672Y0118389D02*
X0161449Y0118389D01*
X0159602Y0115993D02*
X0155971Y0115993D01*
X0156769Y0115195D02*
X0160401Y0115195D01*
X0158804Y0116792D02*
X0155172Y0116792D01*
X0154374Y0117590D02*
X0158005Y0117590D01*
X0157568Y0114396D02*
X0168858Y0114396D01*
X0168509Y0113598D02*
X0158366Y0113598D01*
X0156519Y0111202D02*
X0152463Y0111202D01*
X0152463Y0110403D02*
X0157318Y0110403D01*
X0155721Y0112001D02*
X0152463Y0112001D01*
X0152463Y0112080D02*
X0149298Y0112080D01*
X0149298Y0109112D01*
X0151247Y0109112D01*
X0151603Y0109207D01*
X0151923Y0109392D01*
X0152183Y0109652D01*
X0152368Y0109971D01*
X0152463Y0110327D01*
X0152463Y0112080D01*
X0152463Y0113598D02*
X0154124Y0113598D01*
X0153325Y0114396D02*
X0152463Y0114396D01*
X0152527Y0115195D02*
X0152249Y0115195D01*
X0154922Y0112799D02*
X0149298Y0112799D01*
X0149298Y0112001D02*
X0148498Y0112001D01*
X0148498Y0111202D02*
X0149298Y0111202D01*
X0149298Y0110403D02*
X0148498Y0110403D01*
X0148498Y0109605D02*
X0149298Y0109605D01*
X0152136Y0109605D02*
X0168509Y0109605D01*
X0168509Y0108806D02*
X0145186Y0108806D01*
X0145186Y0108008D02*
X0169053Y0108008D01*
X0169212Y0104749D02*
X0168509Y0104046D01*
X0168509Y0098552D01*
X0169212Y0097849D01*
X0182206Y0097849D01*
X0182909Y0098552D01*
X0182909Y0104046D01*
X0182206Y0104749D01*
X0169212Y0104749D01*
X0168509Y0104015D02*
X0162972Y0104015D01*
X0163770Y0103217D02*
X0168509Y0103217D01*
X0168509Y0102418D02*
X0164474Y0102418D01*
X0164474Y0101620D02*
X0168509Y0101620D01*
X0168509Y0100821D02*
X0164474Y0100821D01*
X0164474Y0100023D02*
X0168509Y0100023D01*
X0168509Y0099224D02*
X0164474Y0099224D01*
X0164474Y0098426D02*
X0168635Y0098426D01*
X0169212Y0094749D02*
X0168509Y0094046D01*
X0168509Y0088552D01*
X0169212Y0087849D01*
X0182206Y0087849D01*
X0182909Y0088552D01*
X0182909Y0094046D01*
X0182206Y0094749D01*
X0169212Y0094749D01*
X0168896Y0094433D02*
X0164474Y0094433D01*
X0164474Y0093635D02*
X0168509Y0093635D01*
X0168509Y0092836D02*
X0164474Y0092836D01*
X0164474Y0092038D02*
X0168509Y0092038D01*
X0168509Y0091239D02*
X0164474Y0091239D01*
X0164474Y0090441D02*
X0168509Y0090441D01*
X0168509Y0089642D02*
X0164474Y0089642D01*
X0164474Y0088844D02*
X0168509Y0088844D01*
X0168643Y0088045D02*
X0169016Y0088045D01*
X0169441Y0087247D02*
X0184209Y0087247D01*
X0184209Y0088045D02*
X0182402Y0088045D01*
X0182909Y0088844D02*
X0184209Y0088844D01*
X0184209Y0089642D02*
X0182909Y0089642D01*
X0182909Y0090441D02*
X0184209Y0090441D01*
X0184209Y0091239D02*
X0182909Y0091239D01*
X0182909Y0092038D02*
X0184209Y0092038D01*
X0184209Y0092836D02*
X0182909Y0092836D01*
X0182909Y0093635D02*
X0184209Y0093635D01*
X0184209Y0094433D02*
X0182522Y0094433D01*
X0184209Y0095232D02*
X0164474Y0095232D01*
X0164474Y0096030D02*
X0184209Y0096030D01*
X0184209Y0096829D02*
X0164474Y0096829D01*
X0164474Y0097627D02*
X0184209Y0097627D01*
X0184209Y0098426D02*
X0182782Y0098426D01*
X0182909Y0099224D02*
X0184209Y0099224D01*
X0184209Y0100023D02*
X0182909Y0100023D01*
X0182909Y0100821D02*
X0184209Y0100821D01*
X0184209Y0101620D02*
X0182909Y0101620D01*
X0182909Y0102418D02*
X0184209Y0102418D01*
X0184209Y0103217D02*
X0182909Y0103217D01*
X0182909Y0104015D02*
X0184209Y0104015D01*
X0184209Y0104814D02*
X0162173Y0104814D01*
X0161375Y0105612D02*
X0184209Y0105612D01*
X0184209Y0106411D02*
X0160576Y0106411D01*
X0159331Y0105394D02*
X0162874Y0101850D01*
X0162874Y0084528D01*
X0164055Y0083346D01*
X0164055Y0040433D01*
X0170354Y0034134D01*
X0170354Y0032756D01*
X0172126Y0030984D01*
X0168761Y0031351D02*
X0165265Y0031351D01*
X0165265Y0030781D02*
X0165265Y0032762D01*
X0163864Y0034162D01*
X0161884Y0034162D01*
X0161712Y0033990D01*
X0161712Y0037205D01*
X0162112Y0037605D01*
X0162112Y0082828D01*
X0161175Y0083765D01*
X0161175Y0083765D01*
X0160931Y0084009D01*
X0160931Y0097664D01*
X0159993Y0098601D01*
X0154801Y0103794D01*
X0158668Y0103794D01*
X0161274Y0101188D01*
X0161274Y0083865D01*
X0162455Y0082684D01*
X0162455Y0039770D01*
X0168754Y0033471D01*
X0168754Y0032093D01*
X0168761Y0032087D01*
X0168761Y0029968D01*
X0165072Y0026279D01*
X0162377Y0026279D01*
X0161693Y0025595D01*
X0161028Y0026260D01*
X0161712Y0026944D01*
X0161712Y0029553D01*
X0161884Y0029381D01*
X0163864Y0029381D01*
X0165265Y0030781D01*
X0165035Y0030552D02*
X0168761Y0030552D01*
X0168547Y0029754D02*
X0164237Y0029754D01*
X0165265Y0032149D02*
X0168754Y0032149D01*
X0168754Y0032948D02*
X0165078Y0032948D01*
X0164280Y0033746D02*
X0168479Y0033746D01*
X0167681Y0034545D02*
X0161712Y0034545D01*
X0161712Y0035343D02*
X0166882Y0035343D01*
X0166084Y0036142D02*
X0161712Y0036142D01*
X0161712Y0036940D02*
X0165285Y0036940D01*
X0164486Y0037739D02*
X0162112Y0037739D01*
X0162112Y0038537D02*
X0163688Y0038537D01*
X0162889Y0039336D02*
X0162112Y0039336D01*
X0162112Y0040134D02*
X0162455Y0040134D01*
X0162455Y0040933D02*
X0162112Y0040933D01*
X0162112Y0041732D02*
X0162455Y0041732D01*
X0162455Y0042530D02*
X0162112Y0042530D01*
X0162112Y0043329D02*
X0162455Y0043329D01*
X0162455Y0044127D02*
X0162112Y0044127D01*
X0162112Y0044926D02*
X0162455Y0044926D01*
X0162455Y0045724D02*
X0162112Y0045724D01*
X0162112Y0046523D02*
X0162455Y0046523D01*
X0162455Y0047321D02*
X0162112Y0047321D01*
X0162112Y0048120D02*
X0162455Y0048120D01*
X0162455Y0048918D02*
X0162112Y0048918D01*
X0162112Y0049717D02*
X0162455Y0049717D01*
X0162455Y0050515D02*
X0162112Y0050515D01*
X0162112Y0051314D02*
X0162455Y0051314D01*
X0162455Y0052112D02*
X0162112Y0052112D01*
X0162112Y0052911D02*
X0162455Y0052911D01*
X0162455Y0053709D02*
X0162112Y0053709D01*
X0162112Y0054508D02*
X0162455Y0054508D01*
X0162455Y0055306D02*
X0162112Y0055306D01*
X0162112Y0056105D02*
X0162455Y0056105D01*
X0162455Y0056903D02*
X0162112Y0056903D01*
X0162112Y0057702D02*
X0162455Y0057702D01*
X0162455Y0058500D02*
X0162112Y0058500D01*
X0162112Y0059299D02*
X0162455Y0059299D01*
X0162455Y0060097D02*
X0162112Y0060097D01*
X0162112Y0060896D02*
X0162455Y0060896D01*
X0162455Y0061694D02*
X0162112Y0061694D01*
X0162112Y0062493D02*
X0162455Y0062493D01*
X0162455Y0063291D02*
X0162112Y0063291D01*
X0162112Y0064090D02*
X0162455Y0064090D01*
X0162455Y0064888D02*
X0162112Y0064888D01*
X0162112Y0065687D02*
X0162455Y0065687D01*
X0162455Y0066485D02*
X0162112Y0066485D01*
X0162112Y0067284D02*
X0162455Y0067284D01*
X0162455Y0068082D02*
X0162112Y0068082D01*
X0162112Y0068881D02*
X0162455Y0068881D01*
X0162455Y0069679D02*
X0162112Y0069679D01*
X0162112Y0070478D02*
X0162455Y0070478D01*
X0162455Y0071276D02*
X0162112Y0071276D01*
X0162112Y0072075D02*
X0162455Y0072075D01*
X0162455Y0072873D02*
X0162112Y0072873D01*
X0162112Y0073672D02*
X0162455Y0073672D01*
X0162455Y0074470D02*
X0162112Y0074470D01*
X0162112Y0075269D02*
X0162455Y0075269D01*
X0162455Y0076068D02*
X0162112Y0076068D01*
X0162112Y0076866D02*
X0162455Y0076866D01*
X0162455Y0077665D02*
X0162112Y0077665D01*
X0162112Y0078463D02*
X0162455Y0078463D01*
X0162455Y0079262D02*
X0162112Y0079262D01*
X0162112Y0080060D02*
X0162455Y0080060D01*
X0162455Y0080859D02*
X0162112Y0080859D01*
X0162112Y0081657D02*
X0162455Y0081657D01*
X0162455Y0082456D02*
X0162112Y0082456D01*
X0161885Y0083254D02*
X0161686Y0083254D01*
X0161274Y0084053D02*
X0160931Y0084053D01*
X0160931Y0084851D02*
X0161274Y0084851D01*
X0161274Y0085650D02*
X0160931Y0085650D01*
X0160931Y0086448D02*
X0161274Y0086448D01*
X0161274Y0087247D02*
X0160931Y0087247D01*
X0160931Y0088045D02*
X0161274Y0088045D01*
X0161274Y0088844D02*
X0160931Y0088844D01*
X0160931Y0089642D02*
X0161274Y0089642D01*
X0161274Y0090441D02*
X0160931Y0090441D01*
X0160931Y0091239D02*
X0161274Y0091239D01*
X0161274Y0092038D02*
X0160931Y0092038D01*
X0160931Y0092836D02*
X0161274Y0092836D01*
X0161274Y0093635D02*
X0160931Y0093635D01*
X0160931Y0094433D02*
X0161274Y0094433D01*
X0161274Y0095232D02*
X0160931Y0095232D01*
X0160931Y0096030D02*
X0161274Y0096030D01*
X0161274Y0096829D02*
X0160931Y0096829D01*
X0160931Y0097627D02*
X0161274Y0097627D01*
X0161274Y0098426D02*
X0160168Y0098426D01*
X0159370Y0099224D02*
X0161274Y0099224D01*
X0161274Y0100023D02*
X0158571Y0100023D01*
X0157773Y0100821D02*
X0161274Y0100821D01*
X0160842Y0101620D02*
X0156974Y0101620D01*
X0156176Y0102418D02*
X0160043Y0102418D01*
X0159245Y0103217D02*
X0155377Y0103217D01*
X0153694Y0102638D02*
X0159331Y0097001D01*
X0159331Y0083346D01*
X0160512Y0082165D01*
X0160512Y0038268D01*
X0158543Y0036299D01*
X0155749Y0039336D02*
X0150694Y0039336D01*
X0150694Y0040134D02*
X0158912Y0040134D01*
X0158912Y0040933D02*
X0150694Y0040933D01*
X0151475Y0041732D02*
X0158912Y0041732D01*
X0158912Y0042530D02*
X0152273Y0042530D01*
X0153072Y0043329D02*
X0158912Y0043329D01*
X0158912Y0044127D02*
X0153870Y0044127D01*
X0154669Y0044926D02*
X0158912Y0044926D01*
X0158912Y0045724D02*
X0155467Y0045724D01*
X0156266Y0046523D02*
X0158912Y0046523D01*
X0158912Y0047321D02*
X0157064Y0047321D01*
X0157863Y0048120D02*
X0158912Y0048120D01*
X0158912Y0048918D02*
X0158175Y0048918D01*
X0158175Y0049717D02*
X0158912Y0049717D01*
X0158912Y0050515D02*
X0158175Y0050515D01*
X0158175Y0051314D02*
X0158912Y0051314D01*
X0158912Y0052112D02*
X0158175Y0052112D01*
X0158175Y0052911D02*
X0158912Y0052911D01*
X0158912Y0053709D02*
X0158175Y0053709D01*
X0158175Y0054508D02*
X0158912Y0054508D01*
X0158912Y0055306D02*
X0158175Y0055306D01*
X0158175Y0056105D02*
X0158912Y0056105D01*
X0158912Y0056903D02*
X0158175Y0056903D01*
X0158175Y0057702D02*
X0158912Y0057702D01*
X0158912Y0058500D02*
X0158175Y0058500D01*
X0158175Y0059299D02*
X0158912Y0059299D01*
X0158912Y0060097D02*
X0158175Y0060097D01*
X0158175Y0060896D02*
X0158912Y0060896D01*
X0158912Y0061694D02*
X0158175Y0061694D01*
X0158175Y0062493D02*
X0158912Y0062493D01*
X0158912Y0063291D02*
X0158175Y0063291D01*
X0158175Y0064090D02*
X0158912Y0064090D01*
X0158912Y0064888D02*
X0158175Y0064888D01*
X0158175Y0065687D02*
X0158912Y0065687D01*
X0158912Y0066485D02*
X0158175Y0066485D01*
X0158175Y0067284D02*
X0158912Y0067284D01*
X0158912Y0068082D02*
X0158175Y0068082D01*
X0158175Y0068881D02*
X0158912Y0068881D01*
X0158912Y0069679D02*
X0158175Y0069679D01*
X0158175Y0070478D02*
X0158912Y0070478D01*
X0158912Y0071276D02*
X0158175Y0071276D01*
X0158175Y0072075D02*
X0158912Y0072075D01*
X0158912Y0072873D02*
X0158175Y0072873D01*
X0158175Y0073672D02*
X0158912Y0073672D01*
X0158912Y0074470D02*
X0158175Y0074470D01*
X0158175Y0075269D02*
X0158912Y0075269D01*
X0158912Y0076068D02*
X0158175Y0076068D01*
X0158175Y0076866D02*
X0158912Y0076866D01*
X0158912Y0077665D02*
X0158175Y0077665D01*
X0158175Y0078463D02*
X0158912Y0078463D01*
X0158912Y0079262D02*
X0158175Y0079262D01*
X0158912Y0080060D02*
X0157400Y0080060D01*
X0156601Y0080859D02*
X0158912Y0080859D01*
X0158757Y0081657D02*
X0155802Y0081657D01*
X0155004Y0082456D02*
X0157959Y0082456D01*
X0158668Y0081746D02*
X0158668Y0081746D01*
X0155991Y0083254D02*
X0155191Y0083254D01*
X0155191Y0084053D02*
X0155991Y0084053D01*
X0155991Y0084851D02*
X0155191Y0084851D01*
X0155191Y0085650D02*
X0155991Y0085650D01*
X0155991Y0086896D02*
X0155191Y0086896D01*
X0155191Y0089865D01*
X0153241Y0089865D01*
X0152885Y0089769D01*
X0152566Y0089585D01*
X0152305Y0089324D01*
X0152157Y0089068D01*
X0151560Y0089665D01*
X0146235Y0089665D01*
X0145532Y0088962D01*
X0145532Y0088096D01*
X0143608Y0088096D01*
X0143608Y0090308D01*
X0143602Y0090315D01*
X0143602Y0090808D01*
X0146605Y0090808D01*
X0147539Y0091741D01*
X0147539Y0093062D01*
X0147411Y0093189D01*
X0147539Y0093316D01*
X0147539Y0093951D01*
X0149757Y0093951D01*
X0150938Y0095132D01*
X0151876Y0096070D01*
X0151876Y0097707D01*
X0152666Y0098498D01*
X0152666Y0100478D01*
X0152107Y0101038D01*
X0153031Y0101038D01*
X0157731Y0096338D01*
X0157731Y0089865D01*
X0155991Y0089865D01*
X0155991Y0086896D01*
X0155991Y0087247D02*
X0155191Y0087247D01*
X0155191Y0088045D02*
X0155991Y0088045D01*
X0155991Y0088844D02*
X0155191Y0088844D01*
X0155191Y0089642D02*
X0155991Y0089642D01*
X0157731Y0090441D02*
X0143602Y0090441D01*
X0143608Y0089642D02*
X0146213Y0089642D01*
X0145532Y0088844D02*
X0143608Y0088844D01*
X0142008Y0089646D02*
X0142008Y0087283D01*
X0142795Y0086496D01*
X0148898Y0086496D01*
X0151582Y0089642D02*
X0152665Y0089642D01*
X0157731Y0091239D02*
X0147036Y0091239D01*
X0147539Y0092038D02*
X0157731Y0092038D01*
X0157731Y0092836D02*
X0147539Y0092836D01*
X0147539Y0093635D02*
X0157731Y0093635D01*
X0157731Y0094433D02*
X0150239Y0094433D01*
X0151038Y0095232D02*
X0157731Y0095232D01*
X0157731Y0096030D02*
X0151836Y0096030D01*
X0151876Y0096829D02*
X0157240Y0096829D01*
X0156442Y0097627D02*
X0151876Y0097627D01*
X0152594Y0098426D02*
X0155643Y0098426D01*
X0154844Y0099224D02*
X0152666Y0099224D01*
X0152666Y0100023D02*
X0154046Y0100023D01*
X0153247Y0100821D02*
X0152323Y0100821D01*
X0153694Y0102638D02*
X0149882Y0102638D01*
X0145945Y0098701D01*
X0144764Y0098701D01*
X0145945Y0101457D02*
X0149882Y0105394D01*
X0159331Y0105394D01*
X0150276Y0099488D02*
X0150276Y0096732D01*
X0149094Y0095551D01*
X0144764Y0095551D01*
X0141989Y0095232D02*
X0139258Y0095232D01*
X0139258Y0095151D02*
X0139258Y0095951D01*
X0141989Y0095951D01*
X0141989Y0095151D01*
X0139258Y0095151D01*
X0138858Y0095551D02*
X0141122Y0095551D01*
X0141122Y0093209D01*
X0140433Y0089646D02*
X0140433Y0086102D01*
X0144764Y0081772D01*
X0153425Y0081772D01*
X0156575Y0078622D01*
X0156575Y0049094D01*
X0149094Y0041614D01*
X0149094Y0034528D01*
X0152938Y0036142D02*
X0155375Y0036142D01*
X0155375Y0036940D02*
X0152577Y0036940D01*
X0151778Y0037739D02*
X0155375Y0037739D01*
X0155375Y0038537D02*
X0150694Y0038537D01*
X0147494Y0038537D02*
X0144789Y0038537D01*
X0144789Y0037739D02*
X0146411Y0037739D01*
X0145612Y0036940D02*
X0144789Y0036940D01*
X0145251Y0036142D02*
X0144310Y0036142D01*
X0144926Y0035343D02*
X0143512Y0035343D01*
X0142713Y0034545D02*
X0144926Y0034545D01*
X0144926Y0033746D02*
X0141915Y0033746D01*
X0141116Y0032948D02*
X0145237Y0032948D01*
X0145578Y0032149D02*
X0140318Y0032149D01*
X0139519Y0031351D02*
X0146376Y0031351D01*
X0147799Y0030552D02*
X0138721Y0030552D01*
X0137922Y0029754D02*
X0155375Y0029754D01*
X0155375Y0030552D02*
X0150390Y0030552D01*
X0151813Y0031351D02*
X0155375Y0031351D01*
X0155375Y0032149D02*
X0152611Y0032149D01*
X0152952Y0032948D02*
X0156054Y0032948D01*
X0155375Y0033746D02*
X0153263Y0033746D01*
X0153263Y0034545D02*
X0155375Y0034545D01*
X0155375Y0035343D02*
X0153263Y0035343D01*
X0147494Y0039336D02*
X0144789Y0039336D01*
X0144789Y0040134D02*
X0147494Y0040134D01*
X0147494Y0040933D02*
X0144789Y0040933D01*
X0144789Y0041732D02*
X0147494Y0041732D01*
X0147748Y0042530D02*
X0144789Y0042530D01*
X0144789Y0043329D02*
X0148546Y0043329D01*
X0149345Y0044127D02*
X0144789Y0044127D01*
X0144789Y0044926D02*
X0150143Y0044926D01*
X0150942Y0045724D02*
X0144789Y0045724D01*
X0144789Y0046523D02*
X0151740Y0046523D01*
X0152539Y0047321D02*
X0144789Y0047321D01*
X0144789Y0048120D02*
X0153337Y0048120D01*
X0154136Y0048918D02*
X0144789Y0048918D01*
X0144789Y0049717D02*
X0154934Y0049717D01*
X0154975Y0050515D02*
X0151061Y0050515D01*
X0151456Y0050679D02*
X0149924Y0050044D01*
X0148265Y0050044D01*
X0146733Y0050679D01*
X0145561Y0051851D01*
X0144926Y0053383D01*
X0144926Y0055042D01*
X0145561Y0056574D01*
X0146733Y0057746D01*
X0148265Y0058381D01*
X0149924Y0058381D01*
X0151456Y0057746D01*
X0152628Y0056574D01*
X0153263Y0055042D01*
X0153263Y0053383D01*
X0152628Y0051851D01*
X0151456Y0050679D01*
X0152091Y0051314D02*
X0154975Y0051314D01*
X0154975Y0052112D02*
X0152736Y0052112D01*
X0153067Y0052911D02*
X0154975Y0052911D01*
X0154975Y0053709D02*
X0153263Y0053709D01*
X0153263Y0054508D02*
X0154975Y0054508D01*
X0154975Y0055306D02*
X0153153Y0055306D01*
X0152823Y0056105D02*
X0154975Y0056105D01*
X0154975Y0056903D02*
X0152299Y0056903D01*
X0151500Y0057702D02*
X0154975Y0057702D01*
X0154975Y0058500D02*
X0143526Y0058500D01*
X0144325Y0057702D02*
X0146688Y0057702D01*
X0145890Y0056903D02*
X0144789Y0056903D01*
X0144789Y0056105D02*
X0145366Y0056105D01*
X0145036Y0055306D02*
X0144789Y0055306D01*
X0144789Y0054508D02*
X0144926Y0054508D01*
X0144926Y0053709D02*
X0144789Y0053709D01*
X0144789Y0052911D02*
X0145122Y0052911D01*
X0145453Y0052112D02*
X0144789Y0052112D01*
X0144789Y0051314D02*
X0146098Y0051314D01*
X0147128Y0050515D02*
X0144789Y0050515D01*
X0141589Y0050515D02*
X0140792Y0050515D01*
X0141589Y0049717D02*
X0135340Y0049717D01*
X0135340Y0050515D02*
X0136925Y0050515D01*
X0135880Y0051314D02*
X0135340Y0051314D01*
X0135340Y0048918D02*
X0141589Y0048918D01*
X0141589Y0048120D02*
X0135340Y0048120D01*
X0135340Y0047321D02*
X0141589Y0047321D01*
X0141589Y0046523D02*
X0135340Y0046523D01*
X0135340Y0045724D02*
X0141589Y0045724D01*
X0141589Y0044926D02*
X0135340Y0044926D01*
X0135340Y0044127D02*
X0141589Y0044127D01*
X0141589Y0043329D02*
X0134568Y0043329D01*
X0133769Y0042530D02*
X0141589Y0042530D01*
X0141589Y0041732D02*
X0132971Y0041732D01*
X0132172Y0040933D02*
X0141589Y0040933D01*
X0141589Y0040134D02*
X0131374Y0040134D01*
X0130575Y0039336D02*
X0141589Y0039336D01*
X0141589Y0038537D02*
X0129777Y0038537D01*
X0128978Y0037739D02*
X0141382Y0037739D01*
X0140583Y0036940D02*
X0124704Y0036940D01*
X0124704Y0036142D02*
X0139785Y0036142D01*
X0138986Y0035343D02*
X0124704Y0035343D01*
X0124628Y0034545D02*
X0138188Y0034545D01*
X0137389Y0033746D02*
X0124210Y0033746D01*
X0124704Y0032948D02*
X0136591Y0032948D01*
X0135792Y0032149D02*
X0124704Y0032149D01*
X0124704Y0031351D02*
X0134994Y0031351D01*
X0134195Y0030552D02*
X0124704Y0030552D01*
X0124704Y0029754D02*
X0133397Y0029754D01*
X0132598Y0028955D02*
X0124704Y0028955D01*
X0124704Y0028157D02*
X0128636Y0028157D01*
X0127369Y0027358D02*
X0124134Y0027358D01*
X0126625Y0026560D02*
X0031816Y0026560D01*
X0031991Y0025761D02*
X0126294Y0025761D01*
X0126028Y0024963D02*
X0031991Y0024963D01*
X0031991Y0024164D02*
X0126028Y0024164D01*
X0126068Y0023366D02*
X0031991Y0023366D01*
X0031715Y0022567D02*
X0126399Y0022567D01*
X0126824Y0021769D02*
X0031384Y0021769D01*
X0031054Y0020970D02*
X0127623Y0020970D01*
X0129250Y0020172D02*
X0030503Y0020172D01*
X0029705Y0019373D02*
X0163239Y0019373D01*
X0163239Y0018575D02*
X0146358Y0018575D01*
X0146754Y0017776D02*
X0155166Y0017776D01*
X0154781Y0016978D02*
X0146754Y0016978D01*
X0146754Y0016179D02*
X0154781Y0016179D01*
X0154781Y0015381D02*
X0146754Y0015381D01*
X0146754Y0014582D02*
X0157946Y0014582D01*
X0157946Y0013784D02*
X0158746Y0013784D01*
X0158746Y0012985D02*
X0157946Y0012985D01*
X0157946Y0012187D02*
X0158746Y0012187D01*
X0161731Y0012187D02*
X0161864Y0012187D01*
X0158746Y0015381D02*
X0157946Y0015381D01*
X0157946Y0016179D02*
X0158746Y0016179D01*
X0158746Y0016978D02*
X0157946Y0016978D01*
X0157946Y0017776D02*
X0158746Y0017776D01*
X0161527Y0017776D02*
X0162142Y0017776D01*
X0162147Y0020172D02*
X0161239Y0020172D01*
X0161526Y0025761D02*
X0161860Y0025761D01*
X0161328Y0026560D02*
X0165353Y0026560D01*
X0166151Y0027358D02*
X0161712Y0027358D01*
X0161712Y0028157D02*
X0166950Y0028157D01*
X0167748Y0028955D02*
X0161712Y0028955D01*
X0158543Y0029606D02*
X0158346Y0029606D01*
X0155375Y0028955D02*
X0137124Y0028955D01*
X0136325Y0028157D02*
X0148715Y0028157D01*
X0147447Y0027358D02*
X0135527Y0027358D01*
X0134728Y0026560D02*
X0146703Y0026560D01*
X0146373Y0025761D02*
X0134100Y0025761D01*
X0134365Y0024963D02*
X0146107Y0024963D01*
X0146107Y0024164D02*
X0134365Y0024164D01*
X0134325Y0023366D02*
X0146147Y0023366D01*
X0146478Y0022567D02*
X0133995Y0022567D01*
X0133569Y0021769D02*
X0146903Y0021769D01*
X0147702Y0020970D02*
X0132771Y0020970D01*
X0131144Y0020172D02*
X0149328Y0020172D01*
X0151223Y0020172D02*
X0155454Y0020172D01*
X0154981Y0020970D02*
X0152850Y0020970D01*
X0153648Y0021769D02*
X0154981Y0021769D01*
X0155759Y0026560D02*
X0153848Y0026560D01*
X0153104Y0027358D02*
X0155375Y0027358D01*
X0155375Y0028157D02*
X0151836Y0028157D01*
X0143189Y0037283D02*
X0130197Y0024291D01*
X0131757Y0028157D02*
X0131800Y0028157D01*
X0131359Y0018575D02*
X0028906Y0018575D01*
X0027096Y0017776D02*
X0130962Y0017776D01*
X0118937Y0027358D02*
X0031485Y0027358D01*
X0031154Y0028157D02*
X0118367Y0028157D01*
X0118367Y0028955D02*
X0030746Y0028955D01*
X0029948Y0029754D02*
X0118367Y0029754D01*
X0118367Y0030552D02*
X0029149Y0030552D01*
X0027682Y0031351D02*
X0118367Y0031351D01*
X0117992Y0034134D02*
X0117992Y0064843D01*
X0120383Y0064888D02*
X0126799Y0064888D01*
X0126000Y0064090D02*
X0120383Y0064090D01*
X0119822Y0063291D02*
X0125202Y0063291D01*
X0125054Y0062493D02*
X0119592Y0062493D01*
X0119592Y0061694D02*
X0125054Y0061694D01*
X0125054Y0060896D02*
X0119592Y0060896D01*
X0119592Y0060097D02*
X0125054Y0060097D01*
X0125054Y0059299D02*
X0119592Y0059299D01*
X0119592Y0058500D02*
X0125054Y0058500D01*
X0125054Y0057702D02*
X0119592Y0057702D01*
X0119592Y0056903D02*
X0125054Y0056903D01*
X0125054Y0056105D02*
X0119592Y0056105D01*
X0119592Y0055306D02*
X0125054Y0055306D01*
X0125054Y0054508D02*
X0119592Y0054508D01*
X0119592Y0053709D02*
X0125004Y0053709D01*
X0125102Y0052911D02*
X0119592Y0052911D01*
X0119592Y0052112D02*
X0125548Y0052112D01*
X0125063Y0051314D02*
X0119592Y0051314D01*
X0119592Y0050515D02*
X0124732Y0050515D01*
X0124650Y0049717D02*
X0119592Y0049717D01*
X0119592Y0048918D02*
X0124650Y0048918D01*
X0124874Y0048120D02*
X0119592Y0048120D01*
X0119592Y0047321D02*
X0125205Y0047321D01*
X0125889Y0046523D02*
X0119592Y0046523D01*
X0119592Y0045724D02*
X0127013Y0045724D01*
X0128819Y0049488D02*
X0126654Y0053622D01*
X0126654Y0062480D01*
X0129016Y0064843D01*
X0132165Y0064843D01*
X0134134Y0066811D01*
X0134134Y0085709D01*
X0135709Y0087283D01*
X0135709Y0089646D01*
X0137283Y0089646D02*
X0137283Y0086102D01*
X0136102Y0084921D01*
X0136102Y0063661D01*
X0143189Y0056575D01*
X0143189Y0037283D01*
X0133740Y0044764D02*
X0127835Y0038858D01*
X0123110Y0038858D01*
X0121535Y0037283D01*
X0119592Y0040933D02*
X0127647Y0040933D01*
X0128445Y0041732D02*
X0119592Y0041732D01*
X0119592Y0042530D02*
X0129244Y0042530D01*
X0130042Y0043329D02*
X0119592Y0043329D01*
X0119592Y0044127D02*
X0130841Y0044127D01*
X0131639Y0044926D02*
X0119592Y0044926D01*
X0117992Y0034134D02*
X0121535Y0030591D01*
X0130624Y0045724D02*
X0132140Y0045724D01*
X0132140Y0046523D02*
X0131748Y0046523D01*
X0133740Y0044764D02*
X0133740Y0054213D01*
X0131772Y0058150D01*
X0137937Y0064090D02*
X0147491Y0064090D01*
X0147491Y0064888D02*
X0137702Y0064888D01*
X0137702Y0065687D02*
X0147491Y0065687D01*
X0148052Y0063291D02*
X0138735Y0063291D01*
X0139534Y0062493D02*
X0148851Y0062493D01*
X0150913Y0062493D02*
X0154975Y0062493D01*
X0154975Y0063291D02*
X0151711Y0063291D01*
X0152272Y0064090D02*
X0154975Y0064090D01*
X0154975Y0064888D02*
X0152272Y0064888D01*
X0152272Y0065687D02*
X0154975Y0065687D01*
X0154975Y0066485D02*
X0151882Y0066485D01*
X0151882Y0067284D02*
X0154975Y0067284D01*
X0154975Y0068082D02*
X0151882Y0068082D01*
X0151476Y0068881D02*
X0154975Y0068881D01*
X0154975Y0069679D02*
X0151476Y0069679D01*
X0151476Y0070478D02*
X0154975Y0070478D01*
X0154975Y0071276D02*
X0151476Y0071276D01*
X0151039Y0072075D02*
X0154975Y0072075D01*
X0154975Y0072873D02*
X0143417Y0072873D01*
X0143417Y0073672D02*
X0154975Y0073672D01*
X0154975Y0074470D02*
X0151541Y0074470D01*
X0151676Y0075269D02*
X0154975Y0075269D01*
X0154975Y0076068D02*
X0151676Y0076068D01*
X0151676Y0077665D02*
X0154975Y0077665D01*
X0154975Y0076866D02*
X0148510Y0076866D01*
X0148510Y0076068D02*
X0147710Y0076068D01*
X0147710Y0075269D02*
X0148510Y0075269D01*
X0148510Y0074470D02*
X0147710Y0074470D01*
X0144679Y0074470D02*
X0144671Y0074470D01*
X0144346Y0072075D02*
X0145181Y0072075D01*
X0144967Y0066485D02*
X0144560Y0066485D01*
X0140332Y0061694D02*
X0154975Y0061694D01*
X0154975Y0060896D02*
X0141131Y0060896D01*
X0141929Y0060097D02*
X0154975Y0060097D01*
X0154975Y0059299D02*
X0142728Y0059299D01*
X0138274Y0066485D02*
X0137702Y0066485D01*
X0137702Y0067284D02*
X0138052Y0067284D01*
X0138052Y0068082D02*
X0137702Y0068082D01*
X0137702Y0068881D02*
X0138052Y0068881D01*
X0138052Y0069679D02*
X0137702Y0069679D01*
X0137702Y0070478D02*
X0138052Y0070478D01*
X0138052Y0071276D02*
X0137702Y0071276D01*
X0137702Y0072075D02*
X0138488Y0072075D01*
X0137702Y0072873D02*
X0139417Y0072873D01*
X0139417Y0073672D02*
X0137702Y0073672D01*
X0137702Y0074470D02*
X0138163Y0074470D01*
X0138052Y0075269D02*
X0137702Y0075269D01*
X0137702Y0076068D02*
X0138052Y0076068D01*
X0138052Y0076866D02*
X0137702Y0076866D01*
X0137702Y0077665D02*
X0138052Y0077665D01*
X0138052Y0078463D02*
X0137702Y0078463D01*
X0137702Y0079262D02*
X0138052Y0079262D01*
X0137702Y0080060D02*
X0138599Y0080060D01*
X0137702Y0080859D02*
X0139817Y0080859D01*
X0139269Y0081657D02*
X0137702Y0081657D01*
X0137702Y0082456D02*
X0138471Y0082456D01*
X0138858Y0084331D02*
X0141417Y0081772D01*
X0141417Y0077047D01*
X0138858Y0084331D02*
X0138858Y0089646D01*
X0132953Y0092402D02*
X0130394Y0092402D01*
X0132953Y0093976D02*
X0125472Y0093976D01*
X0124685Y0094764D01*
X0122294Y0094433D02*
X0119798Y0094433D01*
X0120596Y0093635D02*
X0122433Y0093635D01*
X0122294Y0095232D02*
X0118999Y0095232D01*
X0118201Y0096030D02*
X0120038Y0096030D01*
X0119239Y0096829D02*
X0117402Y0096829D01*
X0116604Y0097627D02*
X0118751Y0097627D01*
X0118751Y0098426D02*
X0116443Y0098426D01*
X0116443Y0099224D02*
X0118751Y0099224D01*
X0119477Y0100023D02*
X0116443Y0100023D01*
X0116443Y0100821D02*
X0123121Y0100821D01*
X0122807Y0100023D02*
X0125037Y0100023D01*
X0124685Y0098307D02*
X0121142Y0098307D01*
X0122246Y0096030D02*
X0122571Y0096030D01*
X0124685Y0098307D02*
X0127441Y0095551D01*
X0132953Y0095551D01*
X0132953Y0097126D02*
X0130197Y0097126D01*
X0124685Y0102638D01*
X0122294Y0102418D02*
X0117870Y0102418D01*
X0117072Y0101620D02*
X0122322Y0101620D01*
X0122294Y0103217D02*
X0118669Y0103217D01*
X0119467Y0104015D02*
X0122682Y0104015D01*
X0123480Y0104814D02*
X0120266Y0104814D01*
X0121064Y0105612D02*
X0134209Y0105612D01*
X0134209Y0104814D02*
X0125890Y0104814D01*
X0126688Y0104015D02*
X0134209Y0104015D01*
X0134115Y0103217D02*
X0132605Y0103217D01*
X0133375Y0102418D02*
X0134115Y0102418D01*
X0134115Y0101620D02*
X0133375Y0101620D01*
X0133375Y0100821D02*
X0134115Y0100821D01*
X0132953Y0098701D02*
X0130984Y0098701D01*
X0130984Y0101457D01*
X0129364Y0103217D02*
X0127076Y0103217D01*
X0127167Y0102418D02*
X0128594Y0102418D01*
X0128594Y0101620D02*
X0127966Y0101620D01*
X0127039Y0108806D02*
X0134209Y0108806D01*
X0134209Y0108008D02*
X0123460Y0108008D01*
X0122661Y0107209D02*
X0134209Y0107209D01*
X0134209Y0106411D02*
X0121863Y0106411D01*
X0127263Y0109605D02*
X0134209Y0109605D01*
X0134209Y0110403D02*
X0127263Y0110403D01*
X0127263Y0111202D02*
X0134209Y0111202D01*
X0129387Y0114396D02*
X0006420Y0114396D01*
X0006420Y0116792D02*
X0118568Y0116792D01*
X0117964Y0117590D02*
X0006420Y0117590D01*
X0006420Y0118389D02*
X0117964Y0118389D01*
X0117964Y0119187D02*
X0006420Y0119187D01*
X0006420Y0119986D02*
X0118573Y0119986D01*
X0120174Y0122381D02*
X0006420Y0122381D01*
X0006420Y0121583D02*
X0122291Y0121583D01*
X0121449Y0120784D02*
X0006420Y0120784D01*
X0006420Y0123180D02*
X0119942Y0123180D01*
X0119942Y0123978D02*
X0006420Y0123978D01*
X0006420Y0124777D02*
X0119942Y0124777D01*
X0119942Y0125575D02*
X0006420Y0125575D01*
X0006420Y0126374D02*
X0119942Y0126374D01*
X0119942Y0127172D02*
X0006420Y0127172D01*
X0006420Y0127971D02*
X0120368Y0127971D01*
X0126246Y0127971D02*
X0126778Y0127971D01*
X0128475Y0131254D02*
X0128831Y0131159D01*
X0130584Y0131159D01*
X0130584Y0134324D01*
X0127616Y0134324D01*
X0127616Y0132375D01*
X0127711Y0132019D01*
X0127895Y0131699D01*
X0128156Y0131439D01*
X0128475Y0131254D01*
X0128810Y0131165D02*
X0006420Y0131165D01*
X0006420Y0131963D02*
X0127743Y0131963D01*
X0127616Y0132762D02*
X0006420Y0132762D01*
X0006420Y0133560D02*
X0127616Y0133560D01*
X0127616Y0135157D02*
X0006420Y0135157D01*
X0006420Y0134359D02*
X0130584Y0134359D01*
X0130584Y0133560D02*
X0131384Y0133560D01*
X0131384Y0132762D02*
X0130584Y0132762D01*
X0130584Y0131963D02*
X0131384Y0131963D01*
X0131384Y0131165D02*
X0130584Y0131165D01*
X0133158Y0131165D02*
X0140730Y0131165D01*
X0140405Y0131963D02*
X0134225Y0131963D01*
X0134353Y0132762D02*
X0140405Y0132762D01*
X0140495Y0133560D02*
X0134353Y0133560D01*
X0134353Y0135157D02*
X0140795Y0135157D01*
X0140795Y0134359D02*
X0131384Y0134359D01*
X0127616Y0135956D02*
X0006420Y0135956D01*
X0006420Y0136754D02*
X0127616Y0136754D01*
X0127672Y0138858D02*
X0115236Y0138858D01*
X0115236Y0216179D01*
X0163661Y0216179D01*
X0163661Y0138858D01*
X0144795Y0138858D01*
X0144795Y0140808D01*
X0145261Y0140808D01*
X0145964Y0141511D01*
X0145964Y0146836D01*
X0145280Y0147520D01*
X0145964Y0148204D01*
X0145964Y0149066D01*
X0148682Y0149066D01*
X0148682Y0148204D01*
X0149279Y0147607D01*
X0149022Y0147459D01*
X0148762Y0147198D01*
X0148577Y0146879D01*
X0148482Y0146523D01*
X0148482Y0144573D01*
X0151450Y0144573D01*
X0151450Y0143773D01*
X0148482Y0143773D01*
X0148482Y0141824D01*
X0148577Y0141467D01*
X0148762Y0141148D01*
X0149022Y0140888D01*
X0149341Y0140703D01*
X0149698Y0140608D01*
X0151450Y0140608D01*
X0151450Y0143773D01*
X0152250Y0143773D01*
X0152250Y0140608D01*
X0154003Y0140608D01*
X0154359Y0140703D01*
X0154679Y0140888D01*
X0154939Y0141148D01*
X0155123Y0141467D01*
X0155219Y0141824D01*
X0155219Y0143773D01*
X0152250Y0143773D01*
X0152250Y0144573D01*
X0155219Y0144573D01*
X0155219Y0146523D01*
X0155123Y0146879D01*
X0154939Y0147198D01*
X0154679Y0147459D01*
X0154422Y0147607D01*
X0155019Y0148204D01*
X0155019Y0149066D01*
X0158094Y0149066D01*
X0159148Y0150121D01*
X0160540Y0151512D01*
X0160540Y0154981D01*
X0161403Y0154981D01*
X0162105Y0155684D01*
X0162105Y0160615D01*
X0161403Y0161318D01*
X0156078Y0161318D01*
X0155394Y0160634D01*
X0154710Y0161318D01*
X0153847Y0161318D01*
X0153847Y0162855D01*
X0154710Y0162855D01*
X0155306Y0163452D01*
X0155455Y0163195D01*
X0155715Y0162935D01*
X0156034Y0162751D01*
X0156390Y0162655D01*
X0158340Y0162655D01*
X0158340Y0165624D01*
X0159140Y0165624D01*
X0159140Y0166424D01*
X0158340Y0166424D01*
X0158340Y0169392D01*
X0156390Y0169392D01*
X0156034Y0169297D01*
X0155715Y0169112D01*
X0155455Y0168852D01*
X0155306Y0168595D01*
X0154710Y0169192D01*
X0153847Y0169192D01*
X0153847Y0170729D01*
X0154710Y0170729D01*
X0155394Y0171413D01*
X0156078Y0170729D01*
X0161403Y0170729D01*
X0162105Y0171432D01*
X0162105Y0176363D01*
X0161403Y0177066D01*
X0160540Y0177066D01*
X0160540Y0178603D01*
X0161403Y0178603D01*
X0162105Y0179306D01*
X0162105Y0184237D01*
X0161403Y0184940D01*
X0160540Y0184940D01*
X0160540Y0188459D01*
X0161131Y0189049D01*
X0161131Y0191030D01*
X0159730Y0192430D01*
X0157750Y0192430D01*
X0156350Y0191030D01*
X0156350Y0189049D01*
X0156940Y0188459D01*
X0156940Y0184940D01*
X0156078Y0184940D01*
X0155394Y0184256D01*
X0154710Y0184940D01*
X0149385Y0184940D01*
X0149094Y0184650D01*
X0148804Y0184940D01*
X0146564Y0184940D01*
X0146564Y0186061D01*
X0145509Y0187115D01*
X0141966Y0190658D01*
X0139271Y0190658D01*
X0139271Y0192111D01*
X0138568Y0192814D01*
X0133243Y0192814D01*
X0132646Y0192217D01*
X0132498Y0192474D01*
X0132238Y0192734D01*
X0131918Y0192919D01*
X0131562Y0193014D01*
X0129613Y0193014D01*
X0129613Y0190046D01*
X0128813Y0190046D01*
X0128813Y0193014D01*
X0126863Y0193014D01*
X0126507Y0192919D01*
X0126188Y0192734D01*
X0125927Y0192474D01*
X0125743Y0192155D01*
X0125647Y0191798D01*
X0125647Y0190046D01*
X0128813Y0190046D01*
X0128813Y0189246D01*
X0129613Y0189246D01*
X0129613Y0186277D01*
X0131562Y0186277D01*
X0131918Y0186373D01*
X0132238Y0186557D01*
X0132498Y0186818D01*
X0132646Y0187074D01*
X0133243Y0186477D01*
X0138568Y0186477D01*
X0139149Y0187058D01*
X0140475Y0187058D01*
X0142964Y0184569D01*
X0142964Y0184425D01*
X0142795Y0184256D01*
X0142111Y0184940D01*
X0136786Y0184940D01*
X0136083Y0184237D01*
X0136083Y0179306D01*
X0136786Y0178603D01*
X0137427Y0178603D01*
X0137255Y0178431D01*
X0137255Y0176451D01*
X0138655Y0175050D01*
X0140636Y0175050D01*
X0142036Y0176451D01*
X0142036Y0178431D01*
X0141864Y0178603D01*
X0142111Y0178603D01*
X0142795Y0179287D01*
X0143479Y0178603D01*
X0148804Y0178603D01*
X0149094Y0178894D01*
X0149385Y0178603D01*
X0154710Y0178603D01*
X0155394Y0179287D01*
X0156078Y0178603D01*
X0156940Y0178603D01*
X0156940Y0177066D01*
X0156078Y0177066D01*
X0155394Y0176382D01*
X0154710Y0177066D01*
X0149385Y0177066D01*
X0148682Y0176363D01*
X0148682Y0171432D01*
X0149385Y0170729D01*
X0150247Y0170729D01*
X0150247Y0169192D01*
X0149385Y0169192D01*
X0149197Y0169005D01*
X0140672Y0169005D01*
X0140212Y0168545D01*
X0139944Y0168699D01*
X0139488Y0168821D01*
X0138858Y0168821D01*
X0138228Y0168821D01*
X0137772Y0168699D01*
X0137457Y0168517D01*
X0137353Y0168621D01*
X0135245Y0168621D01*
X0134312Y0167688D01*
X0134312Y0166879D01*
X0133759Y0166879D01*
X0133759Y0167308D01*
X0133056Y0168011D01*
X0131800Y0168011D01*
X0131800Y0169548D01*
X0132662Y0169548D01*
X0133365Y0170251D01*
X0133365Y0175182D01*
X0132662Y0175885D01*
X0127338Y0175885D01*
X0126654Y0175201D01*
X0125969Y0175885D01*
X0125107Y0175885D01*
X0125107Y0177422D01*
X0125969Y0177422D01*
X0126566Y0178019D01*
X0126714Y0177762D01*
X0126975Y0177502D01*
X0127294Y0177317D01*
X0127650Y0177222D01*
X0129600Y0177222D01*
X0129600Y0180191D01*
X0130400Y0180191D01*
X0130400Y0180991D01*
X0129600Y0180991D01*
X0129600Y0183959D01*
X0127650Y0183959D01*
X0127294Y0183864D01*
X0126975Y0183679D01*
X0126714Y0183419D01*
X0126566Y0183162D01*
X0125969Y0183759D01*
X0120645Y0183759D01*
X0119942Y0183056D01*
X0119942Y0178125D01*
X0120645Y0177422D01*
X0121507Y0177422D01*
X0121507Y0175885D01*
X0120645Y0175885D01*
X0119942Y0175182D01*
X0119942Y0170251D01*
X0120645Y0169548D01*
X0125969Y0169548D01*
X0126654Y0170232D01*
X0127338Y0169548D01*
X0128200Y0169548D01*
X0128200Y0168011D01*
X0128125Y0168011D01*
X0127422Y0167308D01*
X0127422Y0166446D01*
X0125885Y0166446D01*
X0125885Y0167308D01*
X0125182Y0168011D01*
X0120251Y0168011D01*
X0119548Y0167308D01*
X0119548Y0161983D01*
X0120232Y0161299D01*
X0119548Y0160615D01*
X0119548Y0155290D01*
X0120251Y0154587D01*
X0125182Y0154587D01*
X0125885Y0155290D01*
X0125885Y0156153D01*
X0127422Y0156153D01*
X0127422Y0155290D01*
X0128125Y0154587D01*
X0133056Y0154587D01*
X0133759Y0155290D01*
X0133759Y0155720D01*
X0134302Y0155720D01*
X0134302Y0153431D01*
X0133712Y0152841D01*
X0133712Y0150860D01*
X0135112Y0149460D01*
X0137093Y0149460D01*
X0138493Y0150860D01*
X0138493Y0152841D01*
X0137902Y0153431D01*
X0137902Y0154526D01*
X0138287Y0154911D01*
X0138287Y0160129D01*
X0137353Y0161062D01*
X0135245Y0161062D01*
X0134312Y0160129D01*
X0134312Y0159320D01*
X0133759Y0159320D01*
X0133759Y0160615D01*
X0133075Y0161299D01*
X0133759Y0161983D01*
X0133759Y0163279D01*
X0134312Y0163279D01*
X0134312Y0162470D01*
X0135245Y0161536D01*
X0137353Y0161536D01*
X0137457Y0161640D01*
X0137772Y0161458D01*
X0138228Y0161336D01*
X0138858Y0161336D01*
X0138858Y0165079D01*
X0138858Y0168821D01*
X0138858Y0165079D01*
X0138858Y0165079D01*
X0138858Y0165079D01*
X0138858Y0161336D01*
X0139488Y0161336D01*
X0139944Y0161458D01*
X0140259Y0161640D01*
X0140363Y0161536D01*
X0142471Y0161536D01*
X0143405Y0162470D01*
X0143405Y0165405D01*
X0148682Y0165405D01*
X0148682Y0163558D01*
X0149385Y0162855D01*
X0150247Y0162855D01*
X0150247Y0161318D01*
X0149385Y0161318D01*
X0148682Y0160615D01*
X0148682Y0155684D01*
X0149385Y0154981D01*
X0154710Y0154981D01*
X0155394Y0155665D01*
X0156078Y0154981D01*
X0156940Y0154981D01*
X0156940Y0153004D01*
X0156603Y0152666D01*
X0155019Y0152666D01*
X0155019Y0153529D01*
X0154316Y0154231D01*
X0149385Y0154231D01*
X0148682Y0153529D01*
X0148682Y0152666D01*
X0145964Y0152666D01*
X0145964Y0153529D01*
X0145308Y0154184D01*
X0145360Y0154184D01*
X0146761Y0155585D01*
X0146761Y0157565D01*
X0145360Y0158965D01*
X0143405Y0158965D01*
X0143405Y0160129D01*
X0142471Y0161062D01*
X0140363Y0161062D01*
X0139430Y0160129D01*
X0139430Y0154911D01*
X0139617Y0154723D01*
X0139617Y0151498D01*
X0139627Y0151489D01*
X0139627Y0148204D01*
X0140311Y0147520D01*
X0139627Y0146836D01*
X0139627Y0141511D01*
X0140330Y0140808D01*
X0140795Y0140808D01*
X0140795Y0138858D01*
X0134297Y0138858D01*
X0134353Y0139068D01*
X0134353Y0141017D01*
X0131384Y0141017D01*
X0131384Y0141817D01*
X0134353Y0141817D01*
X0134353Y0143767D01*
X0134257Y0144123D01*
X0134073Y0144442D01*
X0133812Y0144703D01*
X0133493Y0144887D01*
X0133137Y0144983D01*
X0131384Y0144983D01*
X0131384Y0141817D01*
X0130584Y0141817D01*
X0130584Y0141017D01*
X0127616Y0141017D01*
X0127616Y0139068D01*
X0127672Y0138858D01*
X0127616Y0139150D02*
X0115236Y0139150D01*
X0115236Y0139948D02*
X0127616Y0139948D01*
X0127616Y0140747D02*
X0115236Y0140747D01*
X0115236Y0141545D02*
X0130584Y0141545D01*
X0130584Y0141817D02*
X0127616Y0141817D01*
X0127616Y0143767D01*
X0127711Y0144123D01*
X0127895Y0144442D01*
X0128156Y0144703D01*
X0128475Y0144887D01*
X0128831Y0144983D01*
X0130584Y0144983D01*
X0130584Y0141817D01*
X0130584Y0142344D02*
X0131384Y0142344D01*
X0131384Y0143142D02*
X0130584Y0143142D01*
X0130584Y0143941D02*
X0131384Y0143941D01*
X0131384Y0144739D02*
X0130584Y0144739D01*
X0128219Y0144739D02*
X0115236Y0144739D01*
X0115236Y0143941D02*
X0127662Y0143941D01*
X0127616Y0143142D02*
X0115236Y0143142D01*
X0115236Y0142344D02*
X0127616Y0142344D01*
X0131384Y0141545D02*
X0139627Y0141545D01*
X0139627Y0142344D02*
X0134353Y0142344D01*
X0134353Y0143142D02*
X0139627Y0143142D01*
X0139627Y0143941D02*
X0134306Y0143941D01*
X0133749Y0144739D02*
X0139627Y0144739D01*
X0139627Y0145538D02*
X0115236Y0145538D01*
X0115236Y0146337D02*
X0139627Y0146337D01*
X0139926Y0147135D02*
X0115236Y0147135D01*
X0115236Y0147934D02*
X0139897Y0147934D01*
X0139627Y0148732D02*
X0115236Y0148732D01*
X0115236Y0149531D02*
X0135041Y0149531D01*
X0134243Y0150329D02*
X0115236Y0150329D01*
X0115236Y0151128D02*
X0133712Y0151128D01*
X0133712Y0151926D02*
X0115236Y0151926D01*
X0115236Y0152725D02*
X0133712Y0152725D01*
X0134302Y0153523D02*
X0115236Y0153523D01*
X0115236Y0154322D02*
X0134302Y0154322D01*
X0134302Y0155120D02*
X0133589Y0155120D01*
X0136102Y0157520D02*
X0136299Y0157520D01*
X0138287Y0157516D02*
X0139430Y0157516D01*
X0139430Y0158314D02*
X0138287Y0158314D01*
X0138287Y0159113D02*
X0139430Y0159113D01*
X0139430Y0159911D02*
X0138287Y0159911D01*
X0137706Y0160710D02*
X0140011Y0160710D01*
X0140030Y0161508D02*
X0150247Y0161508D01*
X0150247Y0162307D02*
X0143242Y0162307D01*
X0143405Y0163105D02*
X0149135Y0163105D01*
X0148682Y0163904D02*
X0143405Y0163904D01*
X0143405Y0164702D02*
X0148682Y0164702D01*
X0148776Y0160710D02*
X0142824Y0160710D01*
X0143405Y0159911D02*
X0148682Y0159911D01*
X0148682Y0159113D02*
X0143405Y0159113D01*
X0141417Y0157520D02*
X0141417Y0156575D01*
X0139430Y0156717D02*
X0138287Y0156717D01*
X0138287Y0155919D02*
X0139430Y0155919D01*
X0139430Y0155120D02*
X0138287Y0155120D01*
X0137902Y0154322D02*
X0139617Y0154322D01*
X0139617Y0153523D02*
X0137902Y0153523D01*
X0138493Y0152725D02*
X0139617Y0152725D01*
X0139617Y0151926D02*
X0138493Y0151926D01*
X0138493Y0151128D02*
X0139627Y0151128D01*
X0139627Y0150329D02*
X0137962Y0150329D01*
X0137163Y0149531D02*
X0139627Y0149531D01*
X0141417Y0152244D02*
X0142795Y0150866D01*
X0145964Y0152725D02*
X0148682Y0152725D01*
X0148682Y0153523D02*
X0145964Y0153523D01*
X0145498Y0154322D02*
X0156940Y0154322D01*
X0156940Y0153523D02*
X0155019Y0153523D01*
X0155019Y0152725D02*
X0156661Y0152725D01*
X0155939Y0155120D02*
X0154849Y0155120D01*
X0149246Y0155120D02*
X0146296Y0155120D01*
X0146761Y0155919D02*
X0148682Y0155919D01*
X0148682Y0156717D02*
X0146761Y0156717D01*
X0146761Y0157516D02*
X0148682Y0157516D01*
X0148682Y0158314D02*
X0146011Y0158314D01*
X0138858Y0161508D02*
X0138858Y0161508D01*
X0138858Y0162307D02*
X0138858Y0162307D01*
X0138858Y0163105D02*
X0138858Y0163105D01*
X0138858Y0163904D02*
X0138858Y0163904D01*
X0138858Y0164702D02*
X0138858Y0164702D01*
X0138858Y0165501D02*
X0138858Y0165501D01*
X0138858Y0166299D02*
X0138858Y0166299D01*
X0138858Y0167098D02*
X0138858Y0167098D01*
X0138858Y0167896D02*
X0138858Y0167896D01*
X0138858Y0168695D02*
X0138858Y0168695D01*
X0137765Y0168695D02*
X0131800Y0168695D01*
X0131800Y0169493D02*
X0150247Y0169493D01*
X0150247Y0170292D02*
X0133365Y0170292D01*
X0133365Y0171090D02*
X0149024Y0171090D01*
X0148682Y0171889D02*
X0133365Y0171889D01*
X0133365Y0172687D02*
X0148682Y0172687D01*
X0148682Y0173486D02*
X0133365Y0173486D01*
X0133365Y0174284D02*
X0148682Y0174284D01*
X0148682Y0175083D02*
X0140668Y0175083D01*
X0141467Y0175881D02*
X0148682Y0175881D01*
X0148999Y0176680D02*
X0142036Y0176680D01*
X0142036Y0177478D02*
X0156940Y0177478D01*
X0156940Y0178277D02*
X0142036Y0178277D01*
X0142584Y0179075D02*
X0143007Y0179075D01*
X0144764Y0181772D02*
X0146142Y0181772D01*
X0146564Y0185464D02*
X0156940Y0185464D01*
X0156940Y0186262D02*
X0146362Y0186262D01*
X0145564Y0187061D02*
X0156940Y0187061D01*
X0156940Y0187859D02*
X0144765Y0187859D01*
X0143967Y0188658D02*
X0156741Y0188658D01*
X0156350Y0189456D02*
X0143168Y0189456D01*
X0142370Y0190255D02*
X0156350Y0190255D01*
X0156373Y0191053D02*
X0139271Y0191053D01*
X0139271Y0191852D02*
X0157172Y0191852D01*
X0160309Y0191852D02*
X0163661Y0191852D01*
X0163661Y0192650D02*
X0138732Y0192650D01*
X0137480Y0188858D02*
X0135906Y0189646D01*
X0133079Y0192650D02*
X0132322Y0192650D01*
X0129613Y0192650D02*
X0128813Y0192650D01*
X0128813Y0191852D02*
X0129613Y0191852D01*
X0129613Y0191053D02*
X0128813Y0191053D01*
X0128813Y0190255D02*
X0129613Y0190255D01*
X0128813Y0189456D02*
X0122542Y0189456D01*
X0122542Y0188668D02*
X0122542Y0190617D01*
X0122446Y0190973D01*
X0122262Y0191293D01*
X0122001Y0191553D01*
X0121745Y0191701D01*
X0122342Y0192298D01*
X0122342Y0194735D01*
X0124100Y0194735D01*
X0125501Y0196136D01*
X0125501Y0198116D01*
X0125132Y0198485D01*
X0126757Y0198485D01*
X0127230Y0198958D01*
X0127394Y0198958D01*
X0128594Y0197758D01*
X0128594Y0196923D01*
X0129994Y0195523D01*
X0131974Y0195523D01*
X0133375Y0196923D01*
X0133375Y0198904D01*
X0131974Y0200304D01*
X0131139Y0200304D01*
X0128885Y0202558D01*
X0127230Y0202558D01*
X0126757Y0203031D01*
X0125224Y0203031D01*
X0143329Y0203031D01*
X0143296Y0202952D02*
X0143151Y0202222D01*
X0143151Y0202139D01*
X0146640Y0202139D01*
X0146640Y0201561D01*
X0147218Y0201561D01*
X0147218Y0198072D01*
X0147301Y0198072D01*
X0148031Y0198218D01*
X0148719Y0198502D01*
X0149337Y0198916D01*
X0149864Y0199442D01*
X0150277Y0200061D01*
X0150562Y0200748D01*
X0150707Y0201478D01*
X0150707Y0201561D01*
X0147218Y0201561D01*
X0147218Y0202139D01*
X0150707Y0202139D01*
X0150707Y0202222D01*
X0150562Y0202952D01*
X0150277Y0203640D01*
X0149864Y0204259D01*
X0149337Y0204785D01*
X0148719Y0205198D01*
X0148031Y0205483D01*
X0147301Y0205628D01*
X0147218Y0205628D01*
X0147218Y0202139D01*
X0146640Y0202139D01*
X0146640Y0205628D01*
X0146557Y0205628D01*
X0145827Y0205483D01*
X0145140Y0205198D01*
X0144521Y0204785D01*
X0143995Y0204259D01*
X0143581Y0203640D01*
X0143296Y0202952D01*
X0143153Y0202232D02*
X0129211Y0202232D01*
X0130009Y0201434D02*
X0143160Y0201434D01*
X0143151Y0201478D02*
X0143296Y0200748D01*
X0143581Y0200061D01*
X0143995Y0199442D01*
X0144521Y0198916D01*
X0145140Y0198502D01*
X0145827Y0198218D01*
X0146557Y0198072D01*
X0146640Y0198072D01*
X0146640Y0201561D01*
X0143151Y0201561D01*
X0143151Y0201478D01*
X0143343Y0200635D02*
X0130808Y0200635D01*
X0132442Y0199837D02*
X0143731Y0199837D01*
X0144398Y0199038D02*
X0133240Y0199038D01*
X0133375Y0198240D02*
X0145774Y0198240D01*
X0146640Y0198240D02*
X0147218Y0198240D01*
X0147218Y0199038D02*
X0146640Y0199038D01*
X0146640Y0199837D02*
X0147218Y0199837D01*
X0147218Y0200635D02*
X0146640Y0200635D01*
X0146640Y0201434D02*
X0147218Y0201434D01*
X0147218Y0202232D02*
X0146640Y0202232D01*
X0146640Y0203031D02*
X0147218Y0203031D01*
X0147218Y0203829D02*
X0146640Y0203829D01*
X0146640Y0204628D02*
X0147218Y0204628D01*
X0147218Y0205426D02*
X0146640Y0205426D01*
X0145690Y0205426D02*
X0127007Y0205426D01*
X0126772Y0204628D02*
X0144364Y0204628D01*
X0143708Y0203829D02*
X0126145Y0203829D01*
X0126672Y0204286D02*
X0126672Y0204286D01*
X0127344Y0206575D01*
X0126672Y0208864D01*
X0124869Y0210426D01*
X0122508Y0210766D01*
X0120338Y0209775D01*
X0120338Y0209775D01*
X0120338Y0209775D01*
X0119048Y0207768D01*
X0119048Y0205382D01*
X0119585Y0204547D01*
X0119494Y0204510D01*
X0118956Y0203209D01*
X0119156Y0202724D01*
X0118761Y0202328D01*
X0118761Y0199188D01*
X0119440Y0198508D01*
X0119440Y0198326D01*
X0116708Y0198326D01*
X0116005Y0197623D01*
X0116005Y0192298D01*
X0116602Y0191701D01*
X0116345Y0191553D01*
X0116084Y0191293D01*
X0115900Y0190973D01*
X0115805Y0190617D01*
X0115805Y0188668D01*
X0118773Y0188668D01*
X0118773Y0187868D01*
X0115805Y0187868D01*
X0115805Y0185918D01*
X0115900Y0185562D01*
X0116084Y0185243D01*
X0116345Y0184982D01*
X0116664Y0184798D01*
X0117020Y0184702D01*
X0118773Y0184702D01*
X0118773Y0187868D01*
X0119573Y0187868D01*
X0119573Y0188668D01*
X0122542Y0188668D01*
X0122542Y0187868D02*
X0119573Y0187868D01*
X0119573Y0184702D01*
X0121326Y0184702D01*
X0121682Y0184798D01*
X0122001Y0184982D01*
X0122262Y0185243D01*
X0122446Y0185562D01*
X0122542Y0185918D01*
X0122542Y0187868D01*
X0122542Y0187859D02*
X0125647Y0187859D01*
X0125647Y0187493D02*
X0125743Y0187137D01*
X0125927Y0186818D01*
X0126188Y0186557D01*
X0126507Y0186373D01*
X0126863Y0186277D01*
X0128813Y0186277D01*
X0128813Y0189246D01*
X0125647Y0189246D01*
X0125647Y0187493D01*
X0125787Y0187061D02*
X0122542Y0187061D01*
X0122542Y0186262D02*
X0141271Y0186262D01*
X0142070Y0185464D02*
X0122389Y0185464D01*
X0119573Y0185464D02*
X0118773Y0185464D01*
X0118773Y0186262D02*
X0119573Y0186262D01*
X0119573Y0187061D02*
X0118773Y0187061D01*
X0118773Y0187859D02*
X0119573Y0187859D01*
X0119573Y0188658D02*
X0125647Y0188658D01*
X0125647Y0190255D02*
X0122542Y0190255D01*
X0122400Y0191053D02*
X0125647Y0191053D01*
X0125661Y0191852D02*
X0121895Y0191852D01*
X0122342Y0192650D02*
X0126103Y0192650D01*
X0124411Y0195046D02*
X0163661Y0195046D01*
X0163661Y0195844D02*
X0132296Y0195844D01*
X0133094Y0196643D02*
X0163661Y0196643D01*
X0163661Y0197441D02*
X0133375Y0197441D01*
X0129673Y0195844D02*
X0125209Y0195844D01*
X0125501Y0196643D02*
X0128874Y0196643D01*
X0128594Y0197441D02*
X0125501Y0197441D01*
X0125377Y0198240D02*
X0128112Y0198240D01*
X0125224Y0203031D02*
X0126672Y0204286D01*
X0127241Y0206225D02*
X0163661Y0206225D01*
X0163661Y0207023D02*
X0127212Y0207023D01*
X0127344Y0206575D02*
X0127344Y0206575D01*
X0127441Y0206575D02*
X0125472Y0206575D01*
X0126978Y0207822D02*
X0163661Y0207822D01*
X0163661Y0208620D02*
X0126743Y0208620D01*
X0126672Y0208864D02*
X0126672Y0208864D01*
X0126031Y0209419D02*
X0163661Y0209419D01*
X0163661Y0210217D02*
X0125110Y0210217D01*
X0124869Y0210426D02*
X0124869Y0210426D01*
X0122508Y0210766D02*
X0122508Y0210766D01*
X0121307Y0210217D02*
X0115236Y0210217D01*
X0115236Y0209419D02*
X0120109Y0209419D01*
X0119596Y0208620D02*
X0115236Y0208620D01*
X0115236Y0207822D02*
X0119083Y0207822D01*
X0119048Y0207023D02*
X0115236Y0207023D01*
X0115236Y0206225D02*
X0119048Y0206225D01*
X0118740Y0206575D02*
X0120748Y0206575D01*
X0119048Y0205426D02*
X0115236Y0205426D01*
X0115236Y0204628D02*
X0119533Y0204628D01*
X0119213Y0203829D02*
X0115236Y0203829D01*
X0115236Y0203031D02*
X0119029Y0203031D01*
X0118761Y0202232D02*
X0115236Y0202232D01*
X0115236Y0201434D02*
X0118761Y0201434D01*
X0118761Y0200635D02*
X0115236Y0200635D01*
X0115236Y0199837D02*
X0118761Y0199837D01*
X0118910Y0199038D02*
X0115236Y0199038D01*
X0115236Y0198240D02*
X0116621Y0198240D01*
X0116005Y0197441D02*
X0115236Y0197441D01*
X0115236Y0196643D02*
X0116005Y0196643D01*
X0116005Y0195844D02*
X0115236Y0195844D01*
X0115236Y0195046D02*
X0116005Y0195046D01*
X0116005Y0194247D02*
X0115236Y0194247D01*
X0115236Y0193449D02*
X0116005Y0193449D01*
X0116005Y0192650D02*
X0115236Y0192650D01*
X0115236Y0191852D02*
X0116451Y0191852D01*
X0115946Y0191053D02*
X0115236Y0191053D01*
X0115236Y0190255D02*
X0115805Y0190255D01*
X0115805Y0189456D02*
X0115236Y0189456D01*
X0115236Y0188658D02*
X0118773Y0188658D01*
X0115805Y0187859D02*
X0115236Y0187859D01*
X0115236Y0187061D02*
X0115805Y0187061D01*
X0115805Y0186262D02*
X0115236Y0186262D01*
X0115236Y0185464D02*
X0115957Y0185464D01*
X0115236Y0184665D02*
X0136511Y0184665D01*
X0136083Y0183867D02*
X0132695Y0183867D01*
X0132706Y0183864D02*
X0132350Y0183959D01*
X0130400Y0183959D01*
X0130400Y0180991D01*
X0133565Y0180991D01*
X0133565Y0182743D01*
X0133470Y0183099D01*
X0133286Y0183419D01*
X0133025Y0183679D01*
X0132706Y0183864D01*
X0133478Y0183068D02*
X0136083Y0183068D01*
X0136083Y0182270D02*
X0133565Y0182270D01*
X0133565Y0181471D02*
X0136083Y0181471D01*
X0136083Y0180672D02*
X0130400Y0180672D01*
X0130400Y0180191D02*
X0133565Y0180191D01*
X0133565Y0178438D01*
X0133470Y0178082D01*
X0133286Y0177762D01*
X0133025Y0177502D01*
X0132706Y0177317D01*
X0132350Y0177222D01*
X0130400Y0177222D01*
X0130400Y0180191D01*
X0130400Y0179874D02*
X0129600Y0179874D01*
X0129600Y0179075D02*
X0130400Y0179075D01*
X0130400Y0178277D02*
X0129600Y0178277D01*
X0129600Y0177478D02*
X0130400Y0177478D01*
X0132985Y0177478D02*
X0137255Y0177478D01*
X0137255Y0176680D02*
X0125107Y0176680D01*
X0125973Y0175881D02*
X0127334Y0175881D01*
X0127015Y0177478D02*
X0126026Y0177478D01*
X0121507Y0176680D02*
X0115236Y0176680D01*
X0115236Y0177478D02*
X0120588Y0177478D01*
X0119942Y0178277D02*
X0115236Y0178277D01*
X0115236Y0179075D02*
X0119942Y0179075D01*
X0119942Y0179874D02*
X0115236Y0179874D01*
X0115236Y0180672D02*
X0119942Y0180672D01*
X0119942Y0181471D02*
X0115236Y0181471D01*
X0115236Y0182270D02*
X0119942Y0182270D01*
X0119954Y0183068D02*
X0115236Y0183068D01*
X0115236Y0183867D02*
X0127305Y0183867D01*
X0129600Y0183867D02*
X0130400Y0183867D01*
X0130400Y0183068D02*
X0129600Y0183068D01*
X0129600Y0182270D02*
X0130400Y0182270D01*
X0130400Y0181471D02*
X0129600Y0181471D01*
X0133565Y0179874D02*
X0136083Y0179874D01*
X0136314Y0179075D02*
X0133565Y0179075D01*
X0133522Y0178277D02*
X0137255Y0178277D01*
X0137824Y0175881D02*
X0132666Y0175881D01*
X0133365Y0175083D02*
X0138623Y0175083D01*
X0139952Y0168695D02*
X0140362Y0168695D01*
X0134520Y0167896D02*
X0133171Y0167896D01*
X0133759Y0167098D02*
X0134312Y0167098D01*
X0134312Y0163105D02*
X0133759Y0163105D01*
X0133759Y0162307D02*
X0134475Y0162307D01*
X0133284Y0161508D02*
X0137686Y0161508D01*
X0134893Y0160710D02*
X0133664Y0160710D01*
X0133759Y0159911D02*
X0134312Y0159911D01*
X0131024Y0157520D02*
X0130591Y0157953D01*
X0127422Y0155919D02*
X0125885Y0155919D01*
X0125715Y0155120D02*
X0127592Y0155120D01*
X0130591Y0164646D02*
X0130000Y0165236D01*
X0130591Y0164646D02*
X0131024Y0165079D01*
X0128010Y0167896D02*
X0125297Y0167896D01*
X0125885Y0167098D02*
X0127422Y0167098D01*
X0128200Y0168695D02*
X0115236Y0168695D01*
X0115236Y0169493D02*
X0128200Y0169493D01*
X0120641Y0175881D02*
X0115236Y0175881D01*
X0115236Y0175083D02*
X0119942Y0175083D01*
X0119942Y0174284D02*
X0115236Y0174284D01*
X0115236Y0173486D02*
X0119942Y0173486D01*
X0119942Y0172687D02*
X0115236Y0172687D01*
X0115236Y0171889D02*
X0119942Y0171889D01*
X0119942Y0171090D02*
X0115236Y0171090D01*
X0115236Y0170292D02*
X0119942Y0170292D01*
X0120136Y0167896D02*
X0115236Y0167896D01*
X0115236Y0167098D02*
X0119548Y0167098D01*
X0119548Y0166299D02*
X0115236Y0166299D01*
X0115236Y0165501D02*
X0119548Y0165501D01*
X0119548Y0164702D02*
X0115236Y0164702D01*
X0115236Y0163904D02*
X0119548Y0163904D01*
X0119548Y0163105D02*
X0115236Y0163105D01*
X0115236Y0162307D02*
X0119548Y0162307D01*
X0120023Y0161508D02*
X0115236Y0161508D01*
X0115236Y0160710D02*
X0119643Y0160710D01*
X0119548Y0159911D02*
X0115236Y0159911D01*
X0115236Y0159113D02*
X0119548Y0159113D01*
X0119548Y0158314D02*
X0115236Y0158314D01*
X0115236Y0157516D02*
X0119548Y0157516D01*
X0119548Y0156717D02*
X0115236Y0156717D01*
X0115236Y0155919D02*
X0119548Y0155919D01*
X0119718Y0155120D02*
X0115236Y0155120D01*
X0113636Y0155120D02*
X0006420Y0155120D01*
X0006420Y0154322D02*
X0113636Y0154322D01*
X0113636Y0153523D02*
X0006420Y0153523D01*
X0006420Y0152725D02*
X0113636Y0152725D01*
X0113636Y0151926D02*
X0006420Y0151926D01*
X0006420Y0151128D02*
X0113636Y0151128D01*
X0113636Y0150329D02*
X0006420Y0150329D01*
X0006420Y0149531D02*
X0113636Y0149531D01*
X0113636Y0148732D02*
X0006420Y0148732D01*
X0006420Y0147934D02*
X0113636Y0147934D01*
X0113636Y0147135D02*
X0006420Y0147135D01*
X0006420Y0146337D02*
X0113636Y0146337D01*
X0113636Y0145538D02*
X0006420Y0145538D01*
X0006420Y0144739D02*
X0113636Y0144739D01*
X0113636Y0143941D02*
X0006420Y0143941D01*
X0006420Y0143142D02*
X0113636Y0143142D01*
X0113636Y0142344D02*
X0006420Y0142344D01*
X0006420Y0141545D02*
X0113636Y0141545D01*
X0113636Y0140747D02*
X0006420Y0140747D01*
X0006420Y0139948D02*
X0113636Y0139948D01*
X0113636Y0139150D02*
X0006420Y0139150D01*
X0006420Y0138351D02*
X0113636Y0138351D01*
X0114279Y0137553D02*
X0006420Y0137553D01*
X0006420Y0130366D02*
X0141529Y0130366D01*
X0144062Y0130366D02*
X0168509Y0130366D01*
X0168509Y0129568D02*
X0006420Y0129568D01*
X0006420Y0128769D02*
X0168509Y0128769D01*
X0169090Y0127971D02*
X0133222Y0127971D01*
X0130400Y0127971D02*
X0129600Y0127971D01*
X0129600Y0127172D02*
X0130400Y0127172D01*
X0130400Y0126374D02*
X0129600Y0126374D01*
X0129600Y0125575D02*
X0130400Y0125575D01*
X0137209Y0119986D02*
X0137943Y0119986D01*
X0142205Y0112480D02*
X0140433Y0110709D01*
X0140433Y0108150D01*
X0142795Y0108150D01*
X0140433Y0108150D02*
X0140433Y0101457D01*
X0142008Y0101457D02*
X0145945Y0101457D01*
X0145442Y0103217D02*
X0143602Y0103217D01*
X0142884Y0104015D02*
X0146241Y0104015D01*
X0147039Y0104814D02*
X0142033Y0104814D01*
X0142033Y0105612D02*
X0147838Y0105612D01*
X0148636Y0106411D02*
X0144437Y0106411D01*
X0145186Y0107209D02*
X0184209Y0107209D01*
X0184209Y0108008D02*
X0182364Y0108008D01*
X0182909Y0108806D02*
X0184209Y0108806D01*
X0184209Y0109605D02*
X0182909Y0109605D01*
X0182909Y0110403D02*
X0184209Y0110403D01*
X0184209Y0111202D02*
X0182909Y0111202D01*
X0182909Y0112001D02*
X0184209Y0112001D01*
X0184209Y0112799D02*
X0182909Y0112799D01*
X0182909Y0113598D02*
X0183493Y0113598D01*
X0182695Y0114396D02*
X0182559Y0114396D01*
X0184542Y0116792D02*
X0185390Y0116792D01*
X0185390Y0117590D02*
X0183743Y0117590D01*
X0182745Y0118389D02*
X0185390Y0118389D01*
X0185390Y0119187D02*
X0182909Y0119187D01*
X0182909Y0119986D02*
X0185390Y0119986D01*
X0185390Y0120784D02*
X0182909Y0120784D01*
X0182909Y0121583D02*
X0185390Y0121583D01*
X0185390Y0122381D02*
X0182909Y0122381D01*
X0182909Y0123180D02*
X0185390Y0123180D01*
X0184688Y0123978D02*
X0182909Y0123978D01*
X0185736Y0127172D02*
X0216179Y0127172D01*
X0216179Y0126374D02*
X0186535Y0126374D01*
X0187334Y0125575D02*
X0216179Y0125575D01*
X0216179Y0124777D02*
X0188132Y0124777D01*
X0188509Y0124046D02*
X0188509Y0118552D01*
X0189212Y0117849D01*
X0202206Y0117849D01*
X0202909Y0118552D01*
X0202909Y0124046D01*
X0202206Y0124749D01*
X0189212Y0124749D01*
X0188509Y0124046D01*
X0188509Y0123978D02*
X0188390Y0123978D01*
X0188390Y0123180D02*
X0188509Y0123180D01*
X0188509Y0122381D02*
X0188390Y0122381D01*
X0188390Y0121583D02*
X0188509Y0121583D01*
X0188509Y0120784D02*
X0188390Y0120784D01*
X0188390Y0119986D02*
X0188509Y0119986D01*
X0188509Y0119187D02*
X0188390Y0119187D01*
X0188390Y0118389D02*
X0188672Y0118389D01*
X0188390Y0117590D02*
X0216179Y0117590D01*
X0216179Y0116792D02*
X0189031Y0116792D01*
X0189829Y0115993D02*
X0216179Y0115993D01*
X0216179Y0115195D02*
X0190628Y0115195D01*
X0188509Y0112799D02*
X0187209Y0112799D01*
X0187209Y0112001D02*
X0188509Y0112001D01*
X0188509Y0111202D02*
X0187209Y0111202D01*
X0187209Y0110403D02*
X0188509Y0110403D01*
X0188509Y0109605D02*
X0187209Y0109605D01*
X0187209Y0108806D02*
X0188509Y0108806D01*
X0189053Y0108008D02*
X0187209Y0108008D01*
X0187209Y0107209D02*
X0216179Y0107209D01*
X0216179Y0106411D02*
X0187209Y0106411D01*
X0187209Y0105612D02*
X0216179Y0105612D01*
X0216179Y0104814D02*
X0187209Y0104814D01*
X0187209Y0104015D02*
X0188509Y0104015D01*
X0188509Y0104046D02*
X0188509Y0098552D01*
X0189212Y0097849D01*
X0202206Y0097849D01*
X0202909Y0098552D01*
X0202909Y0104046D01*
X0202206Y0104749D01*
X0189212Y0104749D01*
X0188509Y0104046D01*
X0188509Y0103217D02*
X0187209Y0103217D01*
X0187209Y0102418D02*
X0188509Y0102418D01*
X0188509Y0101620D02*
X0187209Y0101620D01*
X0187209Y0100821D02*
X0188509Y0100821D01*
X0188509Y0100023D02*
X0187209Y0100023D01*
X0187209Y0099224D02*
X0188509Y0099224D01*
X0188635Y0098426D02*
X0187209Y0098426D01*
X0187209Y0097627D02*
X0216179Y0097627D01*
X0216179Y0096829D02*
X0187209Y0096829D01*
X0187209Y0096030D02*
X0216179Y0096030D01*
X0216179Y0095232D02*
X0187209Y0095232D01*
X0187209Y0094433D02*
X0188896Y0094433D01*
X0189212Y0094749D02*
X0188509Y0094046D01*
X0188509Y0088552D01*
X0189212Y0087849D01*
X0202206Y0087849D01*
X0202909Y0088552D01*
X0202909Y0094046D01*
X0202206Y0094749D01*
X0189212Y0094749D01*
X0188509Y0093635D02*
X0187209Y0093635D01*
X0187209Y0092836D02*
X0188509Y0092836D01*
X0188509Y0092038D02*
X0187209Y0092038D01*
X0187209Y0091239D02*
X0188509Y0091239D01*
X0188509Y0090441D02*
X0187209Y0090441D01*
X0187209Y0089642D02*
X0188509Y0089642D01*
X0188509Y0088844D02*
X0187209Y0088844D01*
X0187209Y0088045D02*
X0189016Y0088045D01*
X0187209Y0087247D02*
X0216179Y0087247D01*
X0216179Y0088045D02*
X0202402Y0088045D01*
X0202909Y0088844D02*
X0216179Y0088844D01*
X0216179Y0089642D02*
X0202909Y0089642D01*
X0202909Y0090441D02*
X0216179Y0090441D01*
X0216179Y0091239D02*
X0202909Y0091239D01*
X0202909Y0092038D02*
X0216179Y0092038D01*
X0216179Y0092836D02*
X0202909Y0092836D01*
X0202909Y0093635D02*
X0216179Y0093635D01*
X0216179Y0094433D02*
X0202522Y0094433D01*
X0202782Y0098426D02*
X0216179Y0098426D01*
X0216179Y0099224D02*
X0202909Y0099224D01*
X0202909Y0100023D02*
X0216179Y0100023D01*
X0216179Y0100821D02*
X0202909Y0100821D01*
X0202909Y0101620D02*
X0216179Y0101620D01*
X0216179Y0102418D02*
X0202909Y0102418D01*
X0202909Y0103217D02*
X0216179Y0103217D01*
X0216179Y0104015D02*
X0202909Y0104015D01*
X0202364Y0108008D02*
X0216179Y0108008D01*
X0216179Y0108806D02*
X0202909Y0108806D01*
X0202909Y0109605D02*
X0216179Y0109605D01*
X0216179Y0110403D02*
X0202909Y0110403D01*
X0202909Y0111202D02*
X0216179Y0111202D01*
X0216179Y0112001D02*
X0202909Y0112001D01*
X0202909Y0112799D02*
X0216179Y0112799D01*
X0216179Y0113598D02*
X0202909Y0113598D01*
X0202559Y0114396D02*
X0216179Y0114396D01*
X0216179Y0118389D02*
X0202745Y0118389D01*
X0202909Y0119187D02*
X0216179Y0119187D01*
X0216179Y0119986D02*
X0202909Y0119986D01*
X0202909Y0120784D02*
X0216179Y0120784D01*
X0216179Y0121583D02*
X0202909Y0121583D01*
X0202909Y0122381D02*
X0216179Y0122381D01*
X0216179Y0123180D02*
X0202909Y0123180D01*
X0202909Y0123978D02*
X0216179Y0123978D01*
X0216179Y0127971D02*
X0202327Y0127971D01*
X0202206Y0127849D02*
X0202909Y0128552D01*
X0202909Y0134046D01*
X0202206Y0134749D01*
X0189212Y0134749D01*
X0188509Y0134046D01*
X0188509Y0128552D01*
X0189212Y0127849D01*
X0202206Y0127849D01*
X0202909Y0128769D02*
X0216179Y0128769D01*
X0216179Y0129568D02*
X0202909Y0129568D01*
X0202909Y0130366D02*
X0216179Y0130366D01*
X0216179Y0131165D02*
X0202909Y0131165D01*
X0202909Y0131963D02*
X0216179Y0131963D01*
X0216179Y0132762D02*
X0202909Y0132762D01*
X0202909Y0133560D02*
X0216179Y0133560D01*
X0216179Y0134359D02*
X0202596Y0134359D01*
X0202206Y0137849D02*
X0202909Y0138552D01*
X0202909Y0144046D01*
X0202206Y0144749D01*
X0189212Y0144749D01*
X0188509Y0144046D01*
X0188509Y0138552D01*
X0189212Y0137849D01*
X0202206Y0137849D01*
X0202708Y0138351D02*
X0216179Y0138351D01*
X0216179Y0137553D02*
X0164619Y0137553D01*
X0165261Y0138351D02*
X0168709Y0138351D01*
X0168509Y0138552D02*
X0169212Y0137849D01*
X0182206Y0137849D01*
X0182909Y0138552D01*
X0182909Y0144046D01*
X0182206Y0144749D01*
X0169212Y0144749D01*
X0168509Y0144046D01*
X0168509Y0138552D01*
X0168509Y0139150D02*
X0165261Y0139150D01*
X0165261Y0139948D02*
X0168509Y0139948D01*
X0168509Y0140747D02*
X0165261Y0140747D01*
X0165261Y0141545D02*
X0168509Y0141545D01*
X0168509Y0142344D02*
X0165261Y0142344D01*
X0165261Y0143142D02*
X0168509Y0143142D01*
X0168509Y0143941D02*
X0165261Y0143941D01*
X0165261Y0144739D02*
X0169202Y0144739D01*
X0169212Y0147849D02*
X0168509Y0148552D01*
X0168509Y0154046D01*
X0169212Y0154749D01*
X0182206Y0154749D01*
X0182909Y0154046D01*
X0182909Y0148552D01*
X0182206Y0147849D01*
X0169212Y0147849D01*
X0169127Y0147934D02*
X0165261Y0147934D01*
X0165261Y0148732D02*
X0168509Y0148732D01*
X0168509Y0149531D02*
X0165261Y0149531D01*
X0165261Y0150329D02*
X0168509Y0150329D01*
X0168509Y0151128D02*
X0165261Y0151128D01*
X0165261Y0151926D02*
X0168509Y0151926D01*
X0168509Y0152725D02*
X0165261Y0152725D01*
X0165261Y0153523D02*
X0168509Y0153523D01*
X0168784Y0154322D02*
X0165261Y0154322D01*
X0165261Y0155120D02*
X0216179Y0155120D01*
X0216179Y0154322D02*
X0202633Y0154322D01*
X0202909Y0154046D02*
X0202206Y0154749D01*
X0189212Y0154749D01*
X0188509Y0154046D01*
X0188509Y0148552D01*
X0189212Y0147849D01*
X0202206Y0147849D01*
X0202909Y0148552D01*
X0202909Y0154046D01*
X0202909Y0153523D02*
X0216179Y0153523D01*
X0216179Y0152725D02*
X0202909Y0152725D01*
X0202909Y0151926D02*
X0216179Y0151926D01*
X0216179Y0151128D02*
X0202909Y0151128D01*
X0202909Y0150329D02*
X0216179Y0150329D01*
X0216179Y0149531D02*
X0202909Y0149531D01*
X0202909Y0148732D02*
X0216179Y0148732D01*
X0216179Y0147934D02*
X0202290Y0147934D01*
X0202215Y0144739D02*
X0216179Y0144739D01*
X0216179Y0143941D02*
X0202909Y0143941D01*
X0202909Y0143142D02*
X0216179Y0143142D01*
X0216179Y0142344D02*
X0202909Y0142344D01*
X0202909Y0141545D02*
X0216179Y0141545D01*
X0216179Y0140747D02*
X0202909Y0140747D01*
X0202909Y0139948D02*
X0216179Y0139948D01*
X0216179Y0139150D02*
X0202909Y0139150D01*
X0216179Y0136754D02*
X0144795Y0136754D01*
X0144795Y0135956D02*
X0216179Y0135956D01*
X0216179Y0135157D02*
X0144795Y0135157D01*
X0144795Y0139150D02*
X0163661Y0139150D01*
X0163661Y0139948D02*
X0144795Y0139948D01*
X0144795Y0140747D02*
X0149266Y0140747D01*
X0148556Y0141545D02*
X0145964Y0141545D01*
X0145964Y0142344D02*
X0148482Y0142344D01*
X0148482Y0143142D02*
X0145964Y0143142D01*
X0145964Y0143941D02*
X0151450Y0143941D01*
X0151450Y0143142D02*
X0152250Y0143142D01*
X0152250Y0142344D02*
X0151450Y0142344D01*
X0151450Y0141545D02*
X0152250Y0141545D01*
X0152250Y0140747D02*
X0151450Y0140747D01*
X0154435Y0140747D02*
X0163661Y0140747D01*
X0163661Y0141545D02*
X0155144Y0141545D01*
X0155219Y0142344D02*
X0163661Y0142344D01*
X0163661Y0143142D02*
X0155219Y0143142D01*
X0155219Y0144739D02*
X0163661Y0144739D01*
X0163661Y0143941D02*
X0152250Y0143941D01*
X0155219Y0145538D02*
X0163661Y0145538D01*
X0163661Y0146337D02*
X0155219Y0146337D01*
X0154976Y0147135D02*
X0163661Y0147135D01*
X0163661Y0147934D02*
X0154749Y0147934D01*
X0155019Y0148732D02*
X0163661Y0148732D01*
X0163661Y0149531D02*
X0158558Y0149531D01*
X0159357Y0150329D02*
X0163661Y0150329D01*
X0163661Y0151128D02*
X0160155Y0151128D01*
X0160540Y0151926D02*
X0163661Y0151926D01*
X0163661Y0152725D02*
X0160540Y0152725D01*
X0160540Y0153523D02*
X0163661Y0153523D01*
X0163661Y0154322D02*
X0160540Y0154322D01*
X0161542Y0155120D02*
X0163661Y0155120D01*
X0163661Y0155919D02*
X0162105Y0155919D01*
X0162105Y0156717D02*
X0163661Y0156717D01*
X0163661Y0157516D02*
X0162105Y0157516D01*
X0162105Y0158314D02*
X0163661Y0158314D01*
X0163661Y0159113D02*
X0162105Y0159113D01*
X0162105Y0159911D02*
X0163661Y0159911D01*
X0163661Y0160710D02*
X0162011Y0160710D01*
X0163661Y0161508D02*
X0153847Y0161508D01*
X0153847Y0162307D02*
X0163661Y0162307D01*
X0163661Y0163105D02*
X0161936Y0163105D01*
X0162026Y0163195D02*
X0162210Y0163515D01*
X0162305Y0163871D01*
X0162305Y0165624D01*
X0159140Y0165624D01*
X0159140Y0162655D01*
X0161090Y0162655D01*
X0161446Y0162751D01*
X0161765Y0162935D01*
X0162026Y0163195D01*
X0162305Y0163904D02*
X0163661Y0163904D01*
X0163661Y0164702D02*
X0162305Y0164702D01*
X0162305Y0165501D02*
X0163661Y0165501D01*
X0163661Y0166299D02*
X0159140Y0166299D01*
X0159140Y0166424D02*
X0162305Y0166424D01*
X0162305Y0168176D01*
X0162210Y0168533D01*
X0162026Y0168852D01*
X0161765Y0169112D01*
X0161446Y0169297D01*
X0161090Y0169392D01*
X0159140Y0169392D01*
X0159140Y0166424D01*
X0159140Y0167098D02*
X0158340Y0167098D01*
X0158340Y0167896D02*
X0159140Y0167896D01*
X0159140Y0168695D02*
X0158340Y0168695D01*
X0158340Y0165501D02*
X0159140Y0165501D01*
X0159140Y0164702D02*
X0158340Y0164702D01*
X0158340Y0163904D02*
X0159140Y0163904D01*
X0159140Y0163105D02*
X0158340Y0163105D01*
X0155545Y0163105D02*
X0154960Y0163105D01*
X0155318Y0160710D02*
X0155469Y0160710D01*
X0152047Y0166024D02*
X0152047Y0167205D01*
X0153847Y0169493D02*
X0163661Y0169493D01*
X0163661Y0168695D02*
X0162116Y0168695D01*
X0162305Y0167896D02*
X0163661Y0167896D01*
X0163661Y0167098D02*
X0162305Y0167098D01*
X0165261Y0167098D02*
X0216179Y0167098D01*
X0216179Y0167896D02*
X0202512Y0167896D01*
X0202568Y0167929D02*
X0202829Y0168190D01*
X0203013Y0168509D01*
X0203109Y0168865D01*
X0203109Y0170899D01*
X0196109Y0170899D01*
X0196109Y0171699D01*
X0203109Y0171699D01*
X0203109Y0173734D01*
X0203013Y0174090D01*
X0202829Y0174409D01*
X0202568Y0174669D01*
X0202249Y0174854D01*
X0201893Y0174949D01*
X0196109Y0174949D01*
X0196109Y0171699D01*
X0195309Y0171699D01*
X0195309Y0174949D01*
X0189524Y0174949D01*
X0189168Y0174854D01*
X0188849Y0174669D01*
X0188588Y0174409D01*
X0188404Y0174090D01*
X0188309Y0173734D01*
X0188309Y0171699D01*
X0195309Y0171699D01*
X0195309Y0170899D01*
X0196109Y0170899D01*
X0196109Y0167649D01*
X0201893Y0167649D01*
X0202249Y0167745D01*
X0202568Y0167929D01*
X0203063Y0168695D02*
X0216179Y0168695D01*
X0216179Y0169493D02*
X0203109Y0169493D01*
X0203109Y0170292D02*
X0216179Y0170292D01*
X0216179Y0171090D02*
X0196109Y0171090D01*
X0196109Y0170292D02*
X0195309Y0170292D01*
X0195309Y0170899D02*
X0195309Y0167649D01*
X0189524Y0167649D01*
X0189168Y0167745D01*
X0188849Y0167929D01*
X0188588Y0168190D01*
X0188404Y0168509D01*
X0188309Y0168865D01*
X0188309Y0170899D01*
X0195309Y0170899D01*
X0195309Y0171090D02*
X0182909Y0171090D01*
X0182909Y0170292D02*
X0188309Y0170292D01*
X0188309Y0169493D02*
X0182909Y0169493D01*
X0182909Y0168695D02*
X0188354Y0168695D01*
X0188906Y0167896D02*
X0182253Y0167896D01*
X0182206Y0167849D02*
X0182909Y0168552D01*
X0182909Y0174046D01*
X0182206Y0174749D01*
X0169212Y0174749D01*
X0168509Y0174046D01*
X0168509Y0168552D01*
X0169212Y0167849D01*
X0182206Y0167849D01*
X0182909Y0171889D02*
X0188309Y0171889D01*
X0188309Y0172687D02*
X0182909Y0172687D01*
X0182909Y0173486D02*
X0188309Y0173486D01*
X0188517Y0174284D02*
X0182671Y0174284D01*
X0182206Y0177849D02*
X0182909Y0178552D01*
X0182909Y0184046D01*
X0182206Y0184749D01*
X0169212Y0184749D01*
X0168509Y0184046D01*
X0168509Y0178552D01*
X0169212Y0177849D01*
X0182206Y0177849D01*
X0182633Y0178277D02*
X0188538Y0178277D01*
X0188588Y0178190D02*
X0188849Y0177929D01*
X0189168Y0177745D01*
X0189524Y0177649D01*
X0195309Y0177649D01*
X0195309Y0180899D01*
X0196109Y0180899D01*
X0196109Y0181699D01*
X0203109Y0181699D01*
X0203109Y0183734D01*
X0203013Y0184090D01*
X0202829Y0184409D01*
X0202568Y0184669D01*
X0202249Y0184854D01*
X0201893Y0184949D01*
X0196109Y0184949D01*
X0196109Y0181699D01*
X0195309Y0181699D01*
X0195309Y0184949D01*
X0189524Y0184949D01*
X0189168Y0184854D01*
X0188849Y0184669D01*
X0188588Y0184409D01*
X0188404Y0184090D01*
X0188309Y0183734D01*
X0188309Y0181699D01*
X0195309Y0181699D01*
X0195309Y0180899D01*
X0188309Y0180899D01*
X0188309Y0178865D01*
X0188404Y0178509D01*
X0188588Y0178190D01*
X0188309Y0179075D02*
X0182909Y0179075D01*
X0182909Y0179874D02*
X0188309Y0179874D01*
X0188309Y0180672D02*
X0182909Y0180672D01*
X0182909Y0181471D02*
X0195309Y0181471D01*
X0195309Y0182270D02*
X0196109Y0182270D01*
X0196109Y0183068D02*
X0195309Y0183068D01*
X0195309Y0183867D02*
X0196109Y0183867D01*
X0196109Y0184665D02*
X0195309Y0184665D01*
X0196109Y0181471D02*
X0216179Y0181471D01*
X0216179Y0182270D02*
X0203109Y0182270D01*
X0203109Y0183068D02*
X0216179Y0183068D01*
X0216179Y0183867D02*
X0203073Y0183867D01*
X0202573Y0184665D02*
X0216179Y0184665D01*
X0216179Y0185464D02*
X0165261Y0185464D01*
X0165261Y0186262D02*
X0216179Y0186262D01*
X0216179Y0187061D02*
X0165261Y0187061D01*
X0165261Y0187859D02*
X0216179Y0187859D01*
X0216179Y0188658D02*
X0165261Y0188658D01*
X0165261Y0189456D02*
X0216179Y0189456D01*
X0216179Y0190255D02*
X0165261Y0190255D01*
X0165261Y0191053D02*
X0195385Y0191053D01*
X0196460Y0190608D02*
X0199367Y0190608D01*
X0202052Y0191720D01*
X0204107Y0193775D01*
X0205219Y0196460D01*
X0205219Y0199367D01*
X0204107Y0202052D01*
X0202052Y0204107D01*
X0199367Y0205219D01*
X0196460Y0205219D01*
X0193775Y0204107D01*
X0191720Y0202052D01*
X0190608Y0199367D01*
X0190608Y0196460D01*
X0191720Y0193775D01*
X0193775Y0191720D01*
X0196460Y0190608D01*
X0193644Y0191852D02*
X0165261Y0191852D01*
X0165261Y0192650D02*
X0192845Y0192650D01*
X0192047Y0193449D02*
X0165261Y0193449D01*
X0165261Y0194247D02*
X0191525Y0194247D01*
X0191194Y0195046D02*
X0165261Y0195046D01*
X0165261Y0195844D02*
X0190863Y0195844D01*
X0190608Y0196643D02*
X0165261Y0196643D01*
X0165261Y0197441D02*
X0190608Y0197441D01*
X0190608Y0198240D02*
X0165261Y0198240D01*
X0165261Y0199038D02*
X0190608Y0199038D01*
X0190803Y0199837D02*
X0165261Y0199837D01*
X0165261Y0200635D02*
X0191133Y0200635D01*
X0191464Y0201434D02*
X0165261Y0201434D01*
X0165261Y0202232D02*
X0191901Y0202232D01*
X0192699Y0203031D02*
X0165261Y0203031D01*
X0165261Y0203829D02*
X0193498Y0203829D01*
X0195033Y0204628D02*
X0165261Y0204628D01*
X0165261Y0205426D02*
X0214441Y0205426D01*
X0214825Y0204628D02*
X0200793Y0204628D01*
X0202329Y0203829D02*
X0215180Y0203829D01*
X0215363Y0203031D02*
X0203128Y0203031D01*
X0203926Y0202232D02*
X0215545Y0202232D01*
X0215727Y0201434D02*
X0204363Y0201434D01*
X0204693Y0200635D02*
X0215909Y0200635D01*
X0216071Y0199837D02*
X0205024Y0199837D01*
X0205219Y0199038D02*
X0216116Y0199038D01*
X0216160Y0198240D02*
X0205219Y0198240D01*
X0205219Y0197441D02*
X0216179Y0197441D01*
X0216179Y0196643D02*
X0205219Y0196643D01*
X0204964Y0195844D02*
X0216179Y0195844D01*
X0216179Y0195046D02*
X0204633Y0195046D01*
X0204302Y0194247D02*
X0216179Y0194247D01*
X0216179Y0193449D02*
X0203780Y0193449D01*
X0202982Y0192650D02*
X0216179Y0192650D01*
X0216179Y0191852D02*
X0202183Y0191852D01*
X0200441Y0191053D02*
X0216179Y0191053D01*
X0216179Y0180672D02*
X0203109Y0180672D01*
X0203109Y0180899D02*
X0203109Y0178865D01*
X0203013Y0178509D01*
X0202829Y0178190D01*
X0202568Y0177929D01*
X0202249Y0177745D01*
X0201893Y0177649D01*
X0196109Y0177649D01*
X0196109Y0180899D01*
X0203109Y0180899D01*
X0203109Y0179874D02*
X0216179Y0179874D01*
X0216179Y0179075D02*
X0203109Y0179075D01*
X0202879Y0178277D02*
X0216179Y0178277D01*
X0216179Y0177478D02*
X0165261Y0177478D01*
X0165261Y0176680D02*
X0216179Y0176680D01*
X0216179Y0175881D02*
X0165261Y0175881D01*
X0165261Y0175083D02*
X0216179Y0175083D01*
X0216179Y0174284D02*
X0202901Y0174284D01*
X0203109Y0173486D02*
X0216179Y0173486D01*
X0216179Y0172687D02*
X0203109Y0172687D01*
X0203109Y0171889D02*
X0216179Y0171889D01*
X0216179Y0166299D02*
X0165261Y0166299D01*
X0165261Y0165501D02*
X0216179Y0165501D01*
X0216179Y0164702D02*
X0202511Y0164702D01*
X0202568Y0164669D02*
X0202249Y0164854D01*
X0201893Y0164949D01*
X0196109Y0164949D01*
X0196109Y0161699D01*
X0203109Y0161699D01*
X0203109Y0163734D01*
X0203013Y0164090D01*
X0202829Y0164409D01*
X0202568Y0164669D01*
X0203063Y0163904D02*
X0216179Y0163904D01*
X0216179Y0163105D02*
X0203109Y0163105D01*
X0203109Y0162307D02*
X0216179Y0162307D01*
X0216179Y0161508D02*
X0196109Y0161508D01*
X0196109Y0161699D02*
X0196109Y0160899D01*
X0203109Y0160899D01*
X0203109Y0158865D01*
X0203013Y0158509D01*
X0202829Y0158190D01*
X0202568Y0157929D01*
X0202249Y0157745D01*
X0201893Y0157649D01*
X0196109Y0157649D01*
X0196109Y0160899D01*
X0195309Y0160899D01*
X0195309Y0157649D01*
X0189524Y0157649D01*
X0189168Y0157745D01*
X0188849Y0157929D01*
X0188588Y0158190D01*
X0188404Y0158509D01*
X0188309Y0158865D01*
X0188309Y0160899D01*
X0195309Y0160899D01*
X0195309Y0161699D01*
X0195309Y0164949D01*
X0189524Y0164949D01*
X0189168Y0164854D01*
X0188849Y0164669D01*
X0188588Y0164409D01*
X0188404Y0164090D01*
X0188309Y0163734D01*
X0188309Y0161699D01*
X0195309Y0161699D01*
X0196109Y0161699D01*
X0196109Y0162307D02*
X0195309Y0162307D01*
X0195309Y0163105D02*
X0196109Y0163105D01*
X0196109Y0163904D02*
X0195309Y0163904D01*
X0195309Y0164702D02*
X0196109Y0164702D01*
X0195309Y0161508D02*
X0182909Y0161508D01*
X0182909Y0160710D02*
X0188309Y0160710D01*
X0188309Y0159911D02*
X0182909Y0159911D01*
X0182909Y0159113D02*
X0188309Y0159113D01*
X0188516Y0158314D02*
X0182671Y0158314D01*
X0182909Y0158552D02*
X0182206Y0157849D01*
X0169212Y0157849D01*
X0168509Y0158552D01*
X0168509Y0164046D01*
X0169212Y0164749D01*
X0182206Y0164749D01*
X0182909Y0164046D01*
X0182909Y0158552D01*
X0182633Y0154322D02*
X0188784Y0154322D01*
X0188509Y0153523D02*
X0182909Y0153523D01*
X0182909Y0152725D02*
X0188509Y0152725D01*
X0188509Y0151926D02*
X0182909Y0151926D01*
X0182909Y0151128D02*
X0188509Y0151128D01*
X0188509Y0150329D02*
X0182909Y0150329D01*
X0182909Y0149531D02*
X0188509Y0149531D01*
X0188509Y0148732D02*
X0182909Y0148732D01*
X0182290Y0147934D02*
X0189127Y0147934D01*
X0189202Y0144739D02*
X0182215Y0144739D01*
X0182909Y0143941D02*
X0188509Y0143941D01*
X0188509Y0143142D02*
X0182909Y0143142D01*
X0182909Y0142344D02*
X0188509Y0142344D01*
X0188509Y0141545D02*
X0182909Y0141545D01*
X0182909Y0140747D02*
X0188509Y0140747D01*
X0188509Y0139948D02*
X0182909Y0139948D01*
X0182909Y0139150D02*
X0188509Y0139150D01*
X0188709Y0138351D02*
X0182708Y0138351D01*
X0182596Y0134359D02*
X0188821Y0134359D01*
X0188509Y0133560D02*
X0182909Y0133560D01*
X0182909Y0132762D02*
X0188509Y0132762D01*
X0188509Y0131963D02*
X0182909Y0131963D01*
X0182909Y0131165D02*
X0188509Y0131165D01*
X0188509Y0130366D02*
X0182909Y0130366D01*
X0182909Y0129568D02*
X0188509Y0129568D01*
X0188509Y0128769D02*
X0182909Y0128769D01*
X0182327Y0127971D02*
X0189090Y0127971D01*
X0185586Y0115993D02*
X0185340Y0115993D01*
X0186139Y0115195D02*
X0186385Y0115195D01*
X0186937Y0114396D02*
X0187183Y0114396D01*
X0187209Y0113598D02*
X0187982Y0113598D01*
X0193976Y0101299D02*
X0195709Y0101299D01*
X0187209Y0086448D02*
X0216179Y0086448D01*
X0216179Y0085650D02*
X0187209Y0085650D01*
X0187209Y0084851D02*
X0216179Y0084851D01*
X0216179Y0084053D02*
X0202902Y0084053D01*
X0202909Y0084046D02*
X0202206Y0084749D01*
X0189212Y0084749D01*
X0188509Y0084046D01*
X0188509Y0078552D01*
X0189212Y0077849D01*
X0202206Y0077849D01*
X0202909Y0078552D01*
X0202909Y0084046D01*
X0202909Y0083254D02*
X0216179Y0083254D01*
X0216179Y0082456D02*
X0202909Y0082456D01*
X0202909Y0081657D02*
X0216179Y0081657D01*
X0216179Y0080859D02*
X0202909Y0080859D01*
X0202909Y0080060D02*
X0216179Y0080060D01*
X0216179Y0079262D02*
X0202909Y0079262D01*
X0202820Y0078463D02*
X0216179Y0078463D01*
X0216179Y0077665D02*
X0187209Y0077665D01*
X0187209Y0078463D02*
X0188598Y0078463D01*
X0188509Y0079262D02*
X0187209Y0079262D01*
X0187209Y0080060D02*
X0188509Y0080060D01*
X0188509Y0080859D02*
X0187209Y0080859D01*
X0187209Y0081657D02*
X0188509Y0081657D01*
X0188509Y0082456D02*
X0187209Y0082456D01*
X0187209Y0083254D02*
X0188509Y0083254D01*
X0188515Y0084053D02*
X0187209Y0084053D01*
X0184209Y0084053D02*
X0182902Y0084053D01*
X0182909Y0083254D02*
X0184209Y0083254D01*
X0184209Y0082456D02*
X0182909Y0082456D01*
X0182909Y0081657D02*
X0184209Y0081657D01*
X0184209Y0080859D02*
X0182909Y0080859D01*
X0182909Y0080060D02*
X0184209Y0080060D01*
X0184209Y0079262D02*
X0182909Y0079262D01*
X0182820Y0078463D02*
X0184209Y0078463D01*
X0183811Y0077665D02*
X0169198Y0077665D01*
X0169198Y0076866D02*
X0183012Y0076866D01*
X0182214Y0076068D02*
X0169198Y0076068D01*
X0169198Y0075269D02*
X0181415Y0075269D01*
X0183262Y0072873D02*
X0188509Y0072873D01*
X0188509Y0072075D02*
X0182909Y0072075D01*
X0182909Y0071276D02*
X0188509Y0071276D01*
X0188509Y0070478D02*
X0182909Y0070478D01*
X0182909Y0069679D02*
X0188509Y0069679D01*
X0188509Y0068881D02*
X0182909Y0068881D01*
X0182439Y0068082D02*
X0188978Y0068082D01*
X0189212Y0067849D02*
X0202206Y0067849D01*
X0202909Y0068552D01*
X0202909Y0074046D01*
X0202206Y0074749D01*
X0189212Y0074749D01*
X0188509Y0074046D01*
X0188509Y0068552D01*
X0189212Y0067849D01*
X0189212Y0064749D02*
X0188509Y0064046D01*
X0188509Y0058552D01*
X0189212Y0057849D01*
X0202206Y0057849D01*
X0202909Y0058552D01*
X0202909Y0064046D01*
X0202206Y0064749D01*
X0189212Y0064749D01*
X0188552Y0064090D02*
X0182865Y0064090D01*
X0182909Y0063291D02*
X0188509Y0063291D01*
X0188509Y0062493D02*
X0182909Y0062493D01*
X0182909Y0061694D02*
X0188509Y0061694D01*
X0188509Y0060896D02*
X0182909Y0060896D01*
X0182909Y0060097D02*
X0188509Y0060097D01*
X0188509Y0059299D02*
X0182909Y0059299D01*
X0182857Y0058500D02*
X0188561Y0058500D01*
X0189212Y0054749D02*
X0188509Y0054046D01*
X0188509Y0048552D01*
X0189212Y0047849D01*
X0202206Y0047849D01*
X0202909Y0048552D01*
X0202909Y0054046D01*
X0202206Y0054749D01*
X0189212Y0054749D01*
X0188970Y0054508D02*
X0182447Y0054508D01*
X0182206Y0054749D02*
X0169212Y0054749D01*
X0168509Y0054046D01*
X0168509Y0048552D01*
X0169212Y0047849D01*
X0182206Y0047849D01*
X0182909Y0048552D01*
X0182909Y0054046D01*
X0182206Y0054749D01*
X0182909Y0053709D02*
X0188509Y0053709D01*
X0188509Y0052911D02*
X0182909Y0052911D01*
X0182909Y0052112D02*
X0188509Y0052112D01*
X0188509Y0051314D02*
X0182909Y0051314D01*
X0182909Y0050515D02*
X0188509Y0050515D01*
X0188509Y0049717D02*
X0182909Y0049717D01*
X0182909Y0048918D02*
X0188509Y0048918D01*
X0188941Y0048120D02*
X0182476Y0048120D01*
X0182206Y0044749D02*
X0169212Y0044749D01*
X0168509Y0044046D01*
X0168509Y0038552D01*
X0169212Y0037849D01*
X0182206Y0037849D01*
X0182909Y0038552D01*
X0182909Y0044046D01*
X0182206Y0044749D01*
X0182828Y0044127D02*
X0188589Y0044127D01*
X0188509Y0044046D02*
X0188509Y0038552D01*
X0189212Y0037849D01*
X0202206Y0037849D01*
X0202909Y0038552D01*
X0202909Y0044046D01*
X0202206Y0044749D01*
X0189212Y0044749D01*
X0188509Y0044046D01*
X0188509Y0043329D02*
X0182909Y0043329D01*
X0182909Y0042530D02*
X0188509Y0042530D01*
X0188509Y0041732D02*
X0182909Y0041732D01*
X0182909Y0040933D02*
X0188509Y0040933D01*
X0188509Y0040134D02*
X0182909Y0040134D01*
X0182909Y0039336D02*
X0188509Y0039336D01*
X0188523Y0038537D02*
X0182894Y0038537D01*
X0181888Y0033746D02*
X0216179Y0033746D01*
X0216179Y0032948D02*
X0182184Y0032948D01*
X0182184Y0032149D02*
X0216179Y0032149D01*
X0216179Y0031351D02*
X0200911Y0031351D01*
X0202052Y0030878D02*
X0199367Y0031991D01*
X0196460Y0031991D01*
X0193775Y0030878D01*
X0191720Y0028823D01*
X0190608Y0026138D01*
X0190608Y0023232D01*
X0191720Y0020547D01*
X0193775Y0018492D01*
X0196460Y0017380D01*
X0199367Y0017380D01*
X0202052Y0018492D01*
X0204107Y0020547D01*
X0205219Y0023232D01*
X0205219Y0026138D01*
X0204107Y0028823D01*
X0202052Y0030878D01*
X0202378Y0030552D02*
X0216179Y0030552D01*
X0216179Y0029754D02*
X0203176Y0029754D01*
X0203975Y0028955D02*
X0216179Y0028955D01*
X0216179Y0028157D02*
X0204383Y0028157D01*
X0204713Y0027358D02*
X0216179Y0027358D01*
X0216179Y0026560D02*
X0205044Y0026560D01*
X0205219Y0025761D02*
X0216179Y0025761D01*
X0216179Y0024963D02*
X0205219Y0024963D01*
X0205219Y0024164D02*
X0216149Y0024164D01*
X0216105Y0023366D02*
X0205219Y0023366D01*
X0204944Y0022567D02*
X0216047Y0022567D01*
X0215865Y0021769D02*
X0204613Y0021769D01*
X0204282Y0020970D02*
X0215683Y0020970D01*
X0215501Y0020172D02*
X0203732Y0020172D01*
X0202933Y0019373D02*
X0215318Y0019373D01*
X0215116Y0018575D02*
X0202135Y0018575D01*
X0200324Y0017776D02*
X0214732Y0017776D01*
X0214347Y0016978D02*
X0182384Y0016978D01*
X0182384Y0016179D02*
X0213963Y0016179D01*
X0213578Y0015381D02*
X0182384Y0015381D01*
X0182384Y0013784D02*
X0212435Y0013784D01*
X0213072Y0014582D02*
X0179219Y0014582D01*
X0179219Y0013784D02*
X0178419Y0013784D01*
X0178419Y0012985D02*
X0179219Y0012985D01*
X0179219Y0012187D02*
X0178419Y0012187D01*
X0175434Y0012187D02*
X0175301Y0012187D01*
X0178419Y0015381D02*
X0179219Y0015381D01*
X0179219Y0016179D02*
X0178419Y0016179D01*
X0178419Y0016978D02*
X0179219Y0016978D01*
X0179219Y0017776D02*
X0178419Y0017776D01*
X0175639Y0017776D02*
X0175023Y0017776D01*
X0173926Y0018575D02*
X0193692Y0018575D01*
X0192894Y0019373D02*
X0173926Y0019373D01*
X0175018Y0020172D02*
X0175927Y0020172D01*
X0178819Y0023110D02*
X0183346Y0023110D01*
X0184875Y0024963D02*
X0190608Y0024963D01*
X0190608Y0025761D02*
X0181999Y0025761D01*
X0181822Y0028157D02*
X0191444Y0028157D01*
X0191113Y0027358D02*
X0178329Y0027358D01*
X0177531Y0026560D02*
X0190783Y0026560D01*
X0190608Y0024164D02*
X0185673Y0024164D01*
X0185737Y0023366D02*
X0190608Y0023366D01*
X0190883Y0022567D02*
X0185737Y0022567D01*
X0185386Y0021769D02*
X0191214Y0021769D01*
X0191545Y0020970D02*
X0184587Y0020970D01*
X0181999Y0017776D02*
X0195503Y0017776D01*
X0192095Y0020172D02*
X0181711Y0020172D01*
X0182384Y0012985D02*
X0211798Y0012985D01*
X0211162Y0012187D02*
X0182204Y0012187D01*
X0168951Y0012187D02*
X0168214Y0012187D01*
X0168405Y0012985D02*
X0168761Y0012985D01*
X0168761Y0013784D02*
X0168405Y0013784D01*
X0168405Y0014582D02*
X0168761Y0014582D01*
X0168761Y0015381D02*
X0168405Y0015381D01*
X0168405Y0016179D02*
X0168761Y0016179D01*
X0168761Y0016978D02*
X0168405Y0016978D01*
X0167937Y0017776D02*
X0169229Y0017776D01*
X0170326Y0018575D02*
X0166839Y0018575D01*
X0166839Y0019373D02*
X0170326Y0019373D01*
X0169234Y0020172D02*
X0167932Y0020172D01*
X0168405Y0020970D02*
X0168761Y0020970D01*
X0168761Y0021769D02*
X0168405Y0021769D01*
X0168405Y0022567D02*
X0168761Y0022567D01*
X0168761Y0023366D02*
X0168405Y0023366D01*
X0168405Y0024164D02*
X0168761Y0024164D01*
X0171954Y0034545D02*
X0216179Y0034545D01*
X0216179Y0035343D02*
X0171407Y0035343D01*
X0170609Y0036142D02*
X0216179Y0036142D01*
X0216179Y0036940D02*
X0169810Y0036940D01*
X0169012Y0037739D02*
X0216179Y0037739D01*
X0216179Y0038537D02*
X0202894Y0038537D01*
X0202909Y0039336D02*
X0216179Y0039336D01*
X0216179Y0040134D02*
X0202909Y0040134D01*
X0202909Y0040933D02*
X0216179Y0040933D01*
X0216179Y0041732D02*
X0202909Y0041732D01*
X0202909Y0042530D02*
X0216179Y0042530D01*
X0216179Y0043329D02*
X0202909Y0043329D01*
X0202828Y0044127D02*
X0216179Y0044127D01*
X0216179Y0044926D02*
X0165655Y0044926D01*
X0165655Y0045724D02*
X0216179Y0045724D01*
X0216179Y0046523D02*
X0165655Y0046523D01*
X0165655Y0047321D02*
X0216179Y0047321D01*
X0216179Y0048120D02*
X0202476Y0048120D01*
X0202909Y0048918D02*
X0216179Y0048918D01*
X0216179Y0049717D02*
X0202909Y0049717D01*
X0202909Y0050515D02*
X0216179Y0050515D01*
X0216179Y0051314D02*
X0202909Y0051314D01*
X0202909Y0052112D02*
X0216179Y0052112D01*
X0216179Y0052911D02*
X0202909Y0052911D01*
X0202909Y0053709D02*
X0216179Y0053709D01*
X0216179Y0054508D02*
X0202447Y0054508D01*
X0202857Y0058500D02*
X0216179Y0058500D01*
X0216179Y0057702D02*
X0165655Y0057702D01*
X0165655Y0058500D02*
X0168561Y0058500D01*
X0168509Y0059299D02*
X0165655Y0059299D01*
X0165655Y0060097D02*
X0168509Y0060097D01*
X0168509Y0060896D02*
X0165655Y0060896D01*
X0165655Y0061694D02*
X0168509Y0061694D01*
X0168252Y0062493D02*
X0165655Y0062493D01*
X0165655Y0063291D02*
X0167454Y0063291D01*
X0166655Y0064090D02*
X0165655Y0064090D01*
X0165655Y0064888D02*
X0165998Y0064888D01*
X0165998Y0065687D02*
X0165655Y0065687D01*
X0165655Y0066485D02*
X0165998Y0066485D01*
X0165998Y0067284D02*
X0165655Y0067284D01*
X0165655Y0068082D02*
X0165998Y0068082D01*
X0165998Y0068881D02*
X0165655Y0068881D01*
X0165655Y0069679D02*
X0165998Y0069679D01*
X0165998Y0070478D02*
X0165655Y0070478D01*
X0165655Y0071276D02*
X0165998Y0071276D01*
X0165998Y0072075D02*
X0165655Y0072075D01*
X0165655Y0072873D02*
X0165998Y0072873D01*
X0165998Y0073672D02*
X0165655Y0073672D01*
X0165655Y0074470D02*
X0165998Y0074470D01*
X0165998Y0075269D02*
X0165655Y0075269D01*
X0165655Y0076068D02*
X0165998Y0076068D01*
X0165998Y0076866D02*
X0165655Y0076866D01*
X0165655Y0077665D02*
X0165998Y0077665D01*
X0165998Y0078463D02*
X0165655Y0078463D01*
X0165655Y0079262D02*
X0165998Y0079262D01*
X0165998Y0080060D02*
X0165655Y0080060D01*
X0165655Y0080859D02*
X0165998Y0080859D01*
X0165998Y0081657D02*
X0165655Y0081657D01*
X0165655Y0082456D02*
X0165998Y0082456D01*
X0165998Y0083254D02*
X0165655Y0083254D01*
X0165612Y0084053D02*
X0165874Y0084053D01*
X0165208Y0084851D02*
X0164813Y0084851D01*
X0164474Y0085650D02*
X0165208Y0085650D01*
X0165208Y0086448D02*
X0164474Y0086448D01*
X0164474Y0087247D02*
X0165756Y0087247D01*
X0166554Y0088045D02*
X0164474Y0088045D01*
X0167598Y0085709D02*
X0167598Y0065410D01*
X0171709Y0061299D01*
X0175709Y0061299D01*
X0170382Y0064888D02*
X0216179Y0064888D01*
X0216179Y0064090D02*
X0202865Y0064090D01*
X0202909Y0063291D02*
X0216179Y0063291D01*
X0216179Y0062493D02*
X0202909Y0062493D01*
X0202909Y0061694D02*
X0216179Y0061694D01*
X0216179Y0060896D02*
X0202909Y0060896D01*
X0202909Y0060097D02*
X0216179Y0060097D01*
X0216179Y0059299D02*
X0202909Y0059299D01*
X0202439Y0068082D02*
X0216179Y0068082D01*
X0216179Y0067284D02*
X0169198Y0067284D01*
X0169198Y0066485D02*
X0216179Y0066485D01*
X0216179Y0065687D02*
X0169584Y0065687D01*
X0175709Y0071299D02*
X0179567Y0071299D01*
X0184061Y0073672D02*
X0188509Y0073672D01*
X0188933Y0074470D02*
X0184860Y0074470D01*
X0185658Y0075269D02*
X0216179Y0075269D01*
X0216179Y0076068D02*
X0186457Y0076068D01*
X0187209Y0076866D02*
X0216179Y0076866D01*
X0216179Y0074470D02*
X0202484Y0074470D01*
X0202909Y0073672D02*
X0216179Y0073672D01*
X0216179Y0072873D02*
X0202909Y0072873D01*
X0202909Y0072075D02*
X0216179Y0072075D01*
X0216179Y0071276D02*
X0202909Y0071276D01*
X0202909Y0070478D02*
X0216179Y0070478D01*
X0216179Y0069679D02*
X0202909Y0069679D01*
X0202909Y0068881D02*
X0216179Y0068881D01*
X0216179Y0056903D02*
X0165655Y0056903D01*
X0165655Y0056105D02*
X0216179Y0056105D01*
X0216179Y0055306D02*
X0165655Y0055306D01*
X0165655Y0054508D02*
X0168970Y0054508D01*
X0168509Y0053709D02*
X0165655Y0053709D01*
X0165655Y0052911D02*
X0168509Y0052911D01*
X0168509Y0052112D02*
X0165655Y0052112D01*
X0165655Y0051314D02*
X0168509Y0051314D01*
X0168509Y0050515D02*
X0165655Y0050515D01*
X0165655Y0049717D02*
X0168509Y0049717D01*
X0168509Y0048918D02*
X0165655Y0048918D01*
X0165655Y0048120D02*
X0168941Y0048120D01*
X0168589Y0044127D02*
X0165655Y0044127D01*
X0165655Y0043329D02*
X0168509Y0043329D01*
X0168509Y0042530D02*
X0165655Y0042530D01*
X0165655Y0041732D02*
X0168509Y0041732D01*
X0168509Y0040933D02*
X0165818Y0040933D01*
X0166616Y0040134D02*
X0168509Y0040134D01*
X0168509Y0039336D02*
X0167415Y0039336D01*
X0168213Y0038537D02*
X0168523Y0038537D01*
X0175195Y0033746D02*
X0175750Y0033746D01*
X0182184Y0031351D02*
X0194916Y0031351D01*
X0193449Y0030552D02*
X0182184Y0030552D01*
X0182184Y0029754D02*
X0192651Y0029754D01*
X0191852Y0028955D02*
X0182184Y0028955D01*
X0200232Y0006597D02*
X0022366Y0006597D01*
X0018868Y0007396D02*
X0203731Y0007396D01*
X0205502Y0008194D02*
X0017096Y0008194D01*
X0015438Y0008993D02*
X0207160Y0008993D01*
X0208348Y0009791D02*
X0014250Y0009791D01*
X0013249Y0010590D02*
X0209349Y0010590D01*
X0210351Y0011388D02*
X0012248Y0011388D01*
X0119730Y0066485D02*
X0131545Y0066485D01*
X0127597Y0065687D02*
X0120383Y0065687D01*
X0127828Y0080060D02*
X0128628Y0080060D01*
X0128628Y0080859D02*
X0127828Y0080859D01*
X0127828Y0081657D02*
X0128628Y0081657D01*
X0128031Y0090039D02*
X0128228Y0090236D01*
X0145160Y0109605D02*
X0145659Y0109605D01*
X0140795Y0135956D02*
X0134353Y0135956D01*
X0134353Y0136754D02*
X0140795Y0136754D01*
X0140795Y0139150D02*
X0134353Y0139150D01*
X0134353Y0139948D02*
X0140795Y0139948D01*
X0140795Y0140747D02*
X0134353Y0140747D01*
X0145964Y0144739D02*
X0148482Y0144739D01*
X0148482Y0145538D02*
X0145964Y0145538D01*
X0145964Y0146337D02*
X0148482Y0146337D01*
X0148725Y0147135D02*
X0145664Y0147135D01*
X0145694Y0147934D02*
X0148952Y0147934D01*
X0148682Y0148732D02*
X0145964Y0148732D01*
X0155207Y0168695D02*
X0155364Y0168695D01*
X0153847Y0170292D02*
X0163661Y0170292D01*
X0163661Y0171090D02*
X0161764Y0171090D01*
X0162105Y0171889D02*
X0163661Y0171889D01*
X0163661Y0172687D02*
X0162105Y0172687D01*
X0162105Y0173486D02*
X0163661Y0173486D01*
X0163661Y0174284D02*
X0162105Y0174284D01*
X0162105Y0175083D02*
X0163661Y0175083D01*
X0163661Y0175881D02*
X0162105Y0175881D01*
X0161789Y0176680D02*
X0163661Y0176680D01*
X0163661Y0177478D02*
X0160540Y0177478D01*
X0160540Y0178277D02*
X0163661Y0178277D01*
X0163661Y0179075D02*
X0161875Y0179075D01*
X0162105Y0179874D02*
X0163661Y0179874D01*
X0163661Y0180672D02*
X0162105Y0180672D01*
X0162105Y0181471D02*
X0163661Y0181471D01*
X0163661Y0182270D02*
X0162105Y0182270D01*
X0162105Y0183068D02*
X0163661Y0183068D01*
X0163661Y0183867D02*
X0162105Y0183867D01*
X0161678Y0184665D02*
X0163661Y0184665D01*
X0163661Y0185464D02*
X0160540Y0185464D01*
X0160540Y0186262D02*
X0163661Y0186262D01*
X0163661Y0187061D02*
X0160540Y0187061D01*
X0160540Y0187859D02*
X0163661Y0187859D01*
X0163661Y0188658D02*
X0160739Y0188658D01*
X0161131Y0189456D02*
X0163661Y0189456D01*
X0163661Y0190255D02*
X0161131Y0190255D01*
X0161107Y0191053D02*
X0163661Y0191053D01*
X0163661Y0193449D02*
X0122342Y0193449D01*
X0122342Y0194247D02*
X0163661Y0194247D01*
X0163661Y0198240D02*
X0148084Y0198240D01*
X0149460Y0199038D02*
X0152162Y0199038D01*
X0152383Y0198817D02*
X0153698Y0198272D01*
X0155121Y0198272D01*
X0156436Y0198817D01*
X0157443Y0199824D01*
X0157987Y0201139D01*
X0157987Y0202562D01*
X0157443Y0203877D01*
X0156436Y0204884D01*
X0155121Y0205428D01*
X0153698Y0205428D01*
X0152383Y0204884D01*
X0151376Y0203877D01*
X0150831Y0202562D01*
X0150831Y0201139D01*
X0151376Y0199824D01*
X0152383Y0198817D01*
X0151371Y0199837D02*
X0150127Y0199837D01*
X0150515Y0200635D02*
X0151040Y0200635D01*
X0150831Y0201434D02*
X0150698Y0201434D01*
X0150705Y0202232D02*
X0150831Y0202232D01*
X0151026Y0203031D02*
X0150529Y0203031D01*
X0150151Y0203829D02*
X0151356Y0203829D01*
X0152127Y0204628D02*
X0149495Y0204628D01*
X0148168Y0205426D02*
X0153693Y0205426D01*
X0155126Y0205426D02*
X0163661Y0205426D01*
X0163661Y0204628D02*
X0156692Y0204628D01*
X0157462Y0203829D02*
X0163661Y0203829D01*
X0163661Y0203031D02*
X0157793Y0203031D01*
X0157987Y0202232D02*
X0163661Y0202232D01*
X0163661Y0201434D02*
X0157987Y0201434D01*
X0157779Y0200635D02*
X0163661Y0200635D01*
X0163661Y0199837D02*
X0157448Y0199837D01*
X0156657Y0199038D02*
X0163661Y0199038D01*
X0165261Y0206225D02*
X0214056Y0206225D01*
X0213672Y0207023D02*
X0165261Y0207023D01*
X0165261Y0207822D02*
X0213227Y0207822D01*
X0212590Y0208620D02*
X0165261Y0208620D01*
X0165261Y0209419D02*
X0211953Y0209419D01*
X0211317Y0210217D02*
X0165261Y0210217D01*
X0165261Y0211016D02*
X0210594Y0211016D01*
X0209593Y0211814D02*
X0165261Y0211814D01*
X0165261Y0212613D02*
X0208592Y0212613D01*
X0207564Y0213411D02*
X0165261Y0213411D01*
X0165261Y0214210D02*
X0205906Y0214210D01*
X0204248Y0215008D02*
X0165261Y0215008D01*
X0165261Y0215807D02*
X0201084Y0215807D01*
X0188845Y0184665D02*
X0182290Y0184665D01*
X0182909Y0183867D02*
X0188344Y0183867D01*
X0188309Y0183068D02*
X0182909Y0183068D01*
X0182909Y0182270D02*
X0188309Y0182270D01*
X0195309Y0180672D02*
X0196109Y0180672D01*
X0196109Y0179874D02*
X0195309Y0179874D01*
X0195309Y0179075D02*
X0196109Y0179075D01*
X0196109Y0178277D02*
X0195309Y0178277D01*
X0195309Y0174284D02*
X0196109Y0174284D01*
X0196109Y0173486D02*
X0195309Y0173486D01*
X0195309Y0172687D02*
X0196109Y0172687D01*
X0196109Y0171889D02*
X0195309Y0171889D01*
X0195309Y0169493D02*
X0196109Y0169493D01*
X0196109Y0168695D02*
X0195309Y0168695D01*
X0195309Y0167896D02*
X0196109Y0167896D01*
X0196109Y0160710D02*
X0195309Y0160710D01*
X0195309Y0159911D02*
X0196109Y0159911D01*
X0196109Y0159113D02*
X0195309Y0159113D01*
X0195309Y0158314D02*
X0196109Y0158314D01*
X0202901Y0158314D02*
X0216179Y0158314D01*
X0216179Y0157516D02*
X0165261Y0157516D01*
X0165261Y0158314D02*
X0168747Y0158314D01*
X0168509Y0159113D02*
X0165261Y0159113D01*
X0165261Y0159911D02*
X0168509Y0159911D01*
X0168509Y0160710D02*
X0165261Y0160710D01*
X0165261Y0161508D02*
X0168509Y0161508D01*
X0168509Y0162307D02*
X0165261Y0162307D01*
X0165261Y0163105D02*
X0168509Y0163105D01*
X0168509Y0163904D02*
X0165261Y0163904D01*
X0165261Y0164702D02*
X0169165Y0164702D01*
X0169165Y0167896D02*
X0165261Y0167896D01*
X0165261Y0168695D02*
X0168509Y0168695D01*
X0168509Y0169493D02*
X0165261Y0169493D01*
X0165261Y0170292D02*
X0168509Y0170292D01*
X0168509Y0171090D02*
X0165261Y0171090D01*
X0165261Y0171889D02*
X0168509Y0171889D01*
X0168509Y0172687D02*
X0165261Y0172687D01*
X0165261Y0173486D02*
X0168509Y0173486D01*
X0168747Y0174284D02*
X0165261Y0174284D01*
X0165261Y0178277D02*
X0168784Y0178277D01*
X0168509Y0179075D02*
X0165261Y0179075D01*
X0165261Y0179874D02*
X0168509Y0179874D01*
X0168509Y0180672D02*
X0165261Y0180672D01*
X0165261Y0181471D02*
X0168509Y0181471D01*
X0168509Y0182270D02*
X0165261Y0182270D01*
X0165261Y0183068D02*
X0168509Y0183068D01*
X0168509Y0183867D02*
X0165261Y0183867D01*
X0165261Y0184665D02*
X0169127Y0184665D01*
X0155803Y0184665D02*
X0154985Y0184665D01*
X0155182Y0179075D02*
X0155605Y0179075D01*
X0155692Y0176680D02*
X0155096Y0176680D01*
X0155071Y0171090D02*
X0155717Y0171090D01*
X0149110Y0184665D02*
X0149079Y0184665D01*
X0142868Y0184665D02*
X0142386Y0184665D01*
X0139646Y0181772D02*
X0139449Y0181772D01*
X0132660Y0187061D02*
X0132639Y0187061D01*
X0129613Y0187061D02*
X0128813Y0187061D01*
X0128813Y0187859D02*
X0129613Y0187859D01*
X0129613Y0188658D02*
X0128813Y0188658D01*
X0113636Y0188658D02*
X0006420Y0188658D01*
X0006420Y0189456D02*
X0113636Y0189456D01*
X0113636Y0190255D02*
X0006420Y0190255D01*
X0006420Y0191053D02*
X0022157Y0191053D01*
X0023232Y0190608D02*
X0026138Y0190608D01*
X0028823Y0191720D01*
X0030878Y0193775D01*
X0031991Y0196460D01*
X0031991Y0199367D01*
X0030878Y0202052D01*
X0028823Y0204107D01*
X0026138Y0205219D01*
X0023232Y0205219D01*
X0020547Y0204107D01*
X0018492Y0202052D01*
X0017380Y0199367D01*
X0017380Y0196460D01*
X0018492Y0193775D01*
X0020547Y0191720D01*
X0023232Y0190608D01*
X0020415Y0191852D02*
X0006420Y0191852D01*
X0006420Y0192650D02*
X0019617Y0192650D01*
X0018818Y0193449D02*
X0006420Y0193449D01*
X0006420Y0194247D02*
X0018296Y0194247D01*
X0017965Y0195046D02*
X0006420Y0195046D01*
X0006420Y0195844D02*
X0017635Y0195844D01*
X0017380Y0196643D02*
X0006420Y0196643D01*
X0006420Y0197441D02*
X0017380Y0197441D01*
X0017380Y0198240D02*
X0006438Y0198240D01*
X0006483Y0199038D02*
X0017380Y0199038D01*
X0017574Y0199837D02*
X0006528Y0199837D01*
X0006689Y0200635D02*
X0017905Y0200635D01*
X0018236Y0201434D02*
X0006871Y0201434D01*
X0007054Y0202232D02*
X0018672Y0202232D01*
X0019471Y0203031D02*
X0007236Y0203031D01*
X0007418Y0203829D02*
X0020269Y0203829D01*
X0021805Y0204628D02*
X0007773Y0204628D01*
X0008158Y0205426D02*
X0039213Y0205426D01*
X0039213Y0204628D02*
X0027565Y0204628D01*
X0029101Y0203829D02*
X0039213Y0203829D01*
X0039213Y0203031D02*
X0029899Y0203031D01*
X0030698Y0202232D02*
X0039213Y0202232D01*
X0039213Y0201434D02*
X0031134Y0201434D01*
X0031465Y0200635D02*
X0039213Y0200635D01*
X0039213Y0199837D02*
X0031796Y0199837D01*
X0031991Y0199038D02*
X0039213Y0199038D01*
X0039213Y0198240D02*
X0031991Y0198240D01*
X0031991Y0197441D02*
X0039213Y0197441D01*
X0039213Y0197408D02*
X0039928Y0196694D01*
X0040938Y0196694D01*
X0109836Y0196694D01*
X0110550Y0197408D01*
X0110550Y0214167D01*
X0109836Y0214881D01*
X0039928Y0214881D01*
X0039213Y0214167D01*
X0039213Y0197408D01*
X0031991Y0196643D02*
X0113636Y0196643D01*
X0113636Y0197441D02*
X0110550Y0197441D01*
X0110550Y0198240D02*
X0113636Y0198240D01*
X0113636Y0199038D02*
X0110550Y0199038D01*
X0110550Y0199837D02*
X0113636Y0199837D01*
X0113636Y0200635D02*
X0110550Y0200635D01*
X0110550Y0201434D02*
X0113636Y0201434D01*
X0113636Y0202232D02*
X0110550Y0202232D01*
X0110550Y0203031D02*
X0113636Y0203031D01*
X0113636Y0203829D02*
X0110550Y0203829D01*
X0110550Y0204628D02*
X0113636Y0204628D01*
X0113636Y0205426D02*
X0110550Y0205426D01*
X0110550Y0206225D02*
X0113636Y0206225D01*
X0113636Y0207023D02*
X0110550Y0207023D01*
X0110550Y0207822D02*
X0113636Y0207822D01*
X0113636Y0208620D02*
X0110550Y0208620D01*
X0110550Y0209419D02*
X0113636Y0209419D01*
X0113636Y0210217D02*
X0110550Y0210217D01*
X0110550Y0211016D02*
X0113636Y0211016D01*
X0113636Y0211814D02*
X0110550Y0211814D01*
X0110550Y0212613D02*
X0113636Y0212613D01*
X0113636Y0213411D02*
X0110550Y0213411D01*
X0110507Y0214210D02*
X0113636Y0214210D01*
X0113636Y0215008D02*
X0018351Y0215008D01*
X0016693Y0214210D02*
X0039257Y0214210D01*
X0039213Y0213411D02*
X0015034Y0213411D01*
X0014967Y0213379D02*
X0014967Y0213379D01*
X0014007Y0212613D02*
X0039213Y0212613D01*
X0039213Y0211814D02*
X0013005Y0211814D01*
X0012004Y0211016D02*
X0039213Y0211016D01*
X0039213Y0210217D02*
X0011282Y0210217D01*
X0010645Y0209419D02*
X0039213Y0209419D01*
X0039213Y0208620D02*
X0010008Y0208620D01*
X0009371Y0207822D02*
X0039213Y0207822D01*
X0039213Y0207023D02*
X0008927Y0207023D01*
X0008542Y0206225D02*
X0039213Y0206225D01*
X0031735Y0195844D02*
X0113636Y0195844D01*
X0113636Y0195046D02*
X0031405Y0195046D01*
X0031074Y0194247D02*
X0113636Y0194247D01*
X0113636Y0193449D02*
X0030552Y0193449D01*
X0029753Y0192650D02*
X0113636Y0192650D01*
X0113636Y0191852D02*
X0028955Y0191852D01*
X0027213Y0191053D02*
X0113636Y0191053D01*
X0113636Y0187859D02*
X0006420Y0187859D01*
X0006420Y0187061D02*
X0113636Y0187061D01*
X0113636Y0186262D02*
X0006420Y0186262D01*
X0006420Y0185464D02*
X0113636Y0185464D01*
X0113636Y0184665D02*
X0006420Y0184665D01*
X0006420Y0183867D02*
X0113636Y0183867D01*
X0113636Y0183068D02*
X0006420Y0183068D01*
X0006420Y0182270D02*
X0113636Y0182270D01*
X0113636Y0181471D02*
X0006420Y0181471D01*
X0006420Y0180672D02*
X0113636Y0180672D01*
X0113636Y0179874D02*
X0006420Y0179874D01*
X0006420Y0179075D02*
X0113636Y0179075D01*
X0113636Y0178277D02*
X0006420Y0178277D01*
X0006420Y0177478D02*
X0113636Y0177478D01*
X0113636Y0176680D02*
X0006420Y0176680D01*
X0006420Y0175881D02*
X0113636Y0175881D01*
X0113636Y0175083D02*
X0006420Y0175083D01*
X0006420Y0174284D02*
X0113636Y0174284D01*
X0113636Y0173486D02*
X0006420Y0173486D01*
X0006420Y0172687D02*
X0113636Y0172687D01*
X0113636Y0171889D02*
X0006420Y0171889D01*
X0006420Y0171090D02*
X0113636Y0171090D01*
X0113636Y0170292D02*
X0006420Y0170292D01*
X0006420Y0169493D02*
X0113636Y0169493D01*
X0113636Y0168695D02*
X0006420Y0168695D01*
X0006420Y0167896D02*
X0113636Y0167896D01*
X0113636Y0167098D02*
X0006420Y0167098D01*
X0006420Y0166299D02*
X0113636Y0166299D01*
X0113636Y0165501D02*
X0006420Y0165501D01*
X0006420Y0164702D02*
X0113636Y0164702D01*
X0113636Y0163904D02*
X0006420Y0163904D01*
X0006420Y0163105D02*
X0113636Y0163105D01*
X0113636Y0162307D02*
X0006420Y0162307D01*
X0006420Y0161508D02*
X0113636Y0161508D01*
X0113636Y0160710D02*
X0006420Y0160710D01*
X0006420Y0159911D02*
X0113636Y0159911D01*
X0113636Y0159113D02*
X0006420Y0159113D01*
X0006420Y0158314D02*
X0113636Y0158314D01*
X0113636Y0157516D02*
X0006420Y0157516D01*
X0006420Y0156717D02*
X0113636Y0156717D01*
X0113636Y0155919D02*
X0006420Y0155919D01*
X0021514Y0215807D02*
X0113636Y0215807D01*
X0115236Y0215807D02*
X0163661Y0215807D01*
X0163661Y0215008D02*
X0115236Y0215008D01*
X0115236Y0214210D02*
X0163661Y0214210D01*
X0163661Y0213411D02*
X0115236Y0213411D01*
X0115236Y0212613D02*
X0163661Y0212613D01*
X0163661Y0211814D02*
X0115236Y0211814D01*
X0115236Y0211016D02*
X0163661Y0211016D01*
X0182253Y0164702D02*
X0188906Y0164702D01*
X0188354Y0163904D02*
X0182909Y0163904D01*
X0182909Y0163105D02*
X0188309Y0163105D01*
X0188309Y0162307D02*
X0182909Y0162307D01*
X0165261Y0156717D02*
X0216179Y0156717D01*
X0216179Y0155919D02*
X0165261Y0155919D01*
X0165261Y0147135D02*
X0216179Y0147135D01*
X0216179Y0146337D02*
X0165261Y0146337D01*
X0165261Y0145538D02*
X0216179Y0145538D01*
X0216179Y0159113D02*
X0203109Y0159113D01*
X0203109Y0159911D02*
X0216179Y0159911D01*
X0216179Y0160710D02*
X0203109Y0160710D01*
X0178228Y0101299D02*
X0175709Y0101299D01*
X0169989Y0086448D02*
X0184209Y0086448D01*
X0184209Y0085650D02*
X0169989Y0085650D01*
X0169989Y0084851D02*
X0184209Y0084851D01*
X0191614Y0071299D02*
X0195709Y0071299D01*
X0154471Y0078463D02*
X0151676Y0078463D01*
X0151659Y0079262D02*
X0153673Y0079262D01*
X0152874Y0080060D02*
X0151211Y0080060D01*
X0154781Y0013784D02*
X0146754Y0013784D01*
X0146754Y0012985D02*
X0154781Y0012985D01*
X0154961Y0012187D02*
X0146647Y0012187D01*
D24*
X0153819Y0014843D03*
X0161693Y0019370D03*
X0162874Y0027441D03*
X0162874Y0031772D03*
X0167598Y0032165D03*
X0163661Y0036890D03*
X0167205Y0041220D03*
X0172717Y0046339D03*
X0181772Y0046339D03*
X0191220Y0046339D03*
X0192008Y0056181D03*
X0186102Y0060118D03*
X0192008Y0066417D03*
X0191614Y0071299D03*
X0194764Y0076260D03*
X0201063Y0076260D03*
X0206575Y0076260D03*
X0206575Y0066417D03*
X0201063Y0066417D03*
X0201063Y0056181D03*
X0190433Y0034528D03*
X0183346Y0027047D03*
X0183346Y0023110D03*
X0184528Y0013268D03*
X0157756Y0045551D03*
X0145945Y0047913D03*
X0138858Y0049094D03*
X0136496Y0042795D03*
X0140433Y0038858D03*
X0143583Y0033346D03*
X0135709Y0025472D03*
X0127441Y0030591D03*
X0130984Y0037677D03*
X0127047Y0042795D03*
X0120157Y0025866D03*
X0126654Y0013661D03*
X0123110Y0009724D03*
X0153819Y0030197D03*
X0145945Y0061693D03*
X0149882Y0064843D03*
X0153819Y0066417D03*
X0152638Y0079016D03*
X0156969Y0081772D03*
X0156181Y0090827D03*
X0153425Y0097913D03*
X0150276Y0099488D03*
X0143976Y0104606D03*
X0142795Y0108150D03*
X0141122Y0097894D03*
X0141122Y0093209D03*
X0136594Y0093209D03*
X0136594Y0097894D03*
X0130984Y0101457D03*
X0128228Y0103425D03*
X0124685Y0102638D03*
X0122717Y0105394D03*
X0120354Y0110906D03*
X0120354Y0118386D03*
X0118780Y0121929D03*
X0129016Y0118780D03*
X0134528Y0125079D03*
X0130984Y0129803D03*
X0139646Y0129016D03*
X0142795Y0132480D03*
X0139646Y0136102D03*
X0139646Y0139843D03*
X0147520Y0139843D03*
X0147520Y0136299D03*
X0153031Y0136102D03*
X0153031Y0139843D03*
X0147520Y0145157D03*
X0147520Y0154213D03*
X0144370Y0156575D03*
X0147126Y0161693D03*
X0147126Y0169961D03*
X0147126Y0177441D03*
X0139646Y0177441D03*
X0133740Y0176654D03*
X0133740Y0168780D03*
X0138858Y0169961D03*
X0138858Y0154213D03*
X0136102Y0151850D03*
X0138661Y0149488D03*
X0132559Y0153425D03*
X0130984Y0146339D03*
X0126260Y0141614D03*
X0116417Y0140433D03*
X0139646Y0121535D03*
X0146732Y0122717D03*
X0146732Y0129016D03*
X0153031Y0129016D03*
X0153031Y0122717D03*
X0156575Y0116811D03*
X0153425Y0110906D03*
X0157756Y0102638D03*
X0167205Y0106575D03*
X0167205Y0113661D03*
X0167205Y0121142D03*
X0167205Y0129016D03*
X0167205Y0136102D03*
X0162480Y0140039D03*
X0155984Y0153819D03*
X0162480Y0162087D03*
X0162480Y0169961D03*
X0175709Y0171299D03*
X0175709Y0181299D03*
X0161693Y0186102D03*
X0158740Y0190039D03*
X0155787Y0186102D03*
X0147913Y0186102D03*
X0147126Y0193189D03*
X0139646Y0186102D03*
X0134921Y0197913D03*
X0130984Y0197913D03*
X0129016Y0193976D03*
X0126654Y0197126D03*
X0123110Y0197126D03*
X0123504Y0189252D03*
X0126654Y0184921D03*
X0126654Y0168386D03*
X0117992Y0206575D03*
X0116417Y0215236D03*
X0162480Y0215236D03*
X0195551Y0186102D03*
X0195551Y0176260D03*
X0195551Y0166417D03*
X0201063Y0166417D03*
X0206575Y0166417D03*
X0206575Y0156181D03*
X0201063Y0156181D03*
X0195551Y0156181D03*
X0204213Y0181378D03*
X0185709Y0129409D03*
X0184134Y0121535D03*
X0191614Y0116417D03*
X0191614Y0106181D03*
X0193976Y0101299D03*
X0194764Y0096339D03*
X0201063Y0096339D03*
X0206575Y0096339D03*
X0182953Y0106575D03*
X0178228Y0101299D03*
X0167205Y0096339D03*
X0167598Y0085709D03*
X0175472Y0086496D03*
X0180984Y0086496D03*
X0180197Y0076260D03*
X0170748Y0066417D03*
X0166811Y0062283D03*
X0144764Y0089646D03*
X0138504Y0081063D03*
X0132953Y0089646D03*
X0124685Y0094764D03*
X0121142Y0094764D03*
X0121142Y0098307D03*
X0117598Y0098701D03*
X0113740Y0094764D03*
X0112087Y0101457D03*
X0104213Y0101850D03*
X0121142Y0089252D03*
X0128228Y0079016D03*
X0124291Y0075472D03*
X0120354Y0071929D03*
X0116417Y0068386D03*
X0117992Y0064843D03*
X0113268Y0062874D03*
X0104213Y0074291D03*
X0123504Y0061693D03*
X0133150Y0104213D03*
D25*
X0142795Y0150866D02*
X0151850Y0150866D01*
X0157348Y0150866D01*
X0158740Y0152258D01*
X0158740Y0158150D01*
X0152047Y0158150D02*
X0152047Y0166024D01*
X0152047Y0173898D01*
X0158740Y0173898D02*
X0158740Y0181772D01*
X0158740Y0190039D01*
X0152047Y0181772D02*
X0146142Y0181772D01*
X0144764Y0181772D02*
X0144764Y0185315D01*
X0141220Y0188858D01*
X0137480Y0188858D01*
X0139646Y0181772D02*
X0139646Y0177441D01*
X0141417Y0167205D02*
X0152047Y0167205D01*
X0144370Y0156575D02*
X0141417Y0156575D01*
X0141417Y0157520D02*
X0141417Y0152244D01*
X0136102Y0151850D02*
X0136102Y0157520D01*
X0136299Y0157520D02*
X0131024Y0157520D01*
X0130591Y0157953D02*
X0122717Y0157953D01*
X0122717Y0164646D02*
X0130591Y0164646D01*
X0131024Y0165079D02*
X0136299Y0165079D01*
X0141417Y0165079D02*
X0141417Y0167205D01*
X0130000Y0165236D02*
X0130000Y0172717D01*
X0123307Y0172717D02*
X0123307Y0180591D01*
X0119173Y0194961D02*
X0119173Y0195157D01*
X0121142Y0197126D01*
X0123110Y0197126D01*
X0121240Y0197126D01*
X0121240Y0200758D01*
X0124980Y0200758D02*
X0128140Y0200758D01*
X0130984Y0197913D01*
X0160709Y0031772D02*
X0158543Y0029606D01*
X0158346Y0029606D02*
X0158346Y0023110D01*
X0157165Y0024291D01*
X0150276Y0024291D01*
X0160709Y0031772D02*
X0162874Y0031772D01*
X0165039Y0023701D02*
X0172126Y0030787D01*
X0172126Y0030984D01*
X0178819Y0030984D02*
X0178819Y0030394D01*
X0172126Y0023701D01*
X0172126Y0023110D01*
X0172126Y0014843D01*
X0165039Y0014843D02*
X0165039Y0023110D01*
X0165039Y0023701D01*
D26*
X0179567Y0071299D02*
X0185709Y0077441D01*
X0185709Y0113503D01*
X0182893Y0116319D01*
X0161398Y0116319D01*
X0158543Y0119173D01*
X0139252Y0119173D01*
X0137283Y0117205D01*
X0137283Y0101457D01*
X0135709Y0101457D02*
X0135709Y0121142D01*
X0140827Y0126260D01*
X0184528Y0126260D01*
X0186890Y0123898D01*
X0186890Y0116811D01*
X0192402Y0111299D01*
X0195709Y0111299D01*
X0175709Y0111299D02*
X0158543Y0111299D01*
X0152638Y0117205D01*
X0140433Y0117205D01*
X0138858Y0115630D01*
X0138858Y0101457D01*
M02*
