G75*
%MOIN*%
%OFA0B0*%
%FSLAX25Y25*%
%IPPOS*%
%LPD*%
%AMOC8*
5,1,8,0,0,1.08239X$1,22.5*
%
%ADD10C,0.00039*%
%ADD11C,0.00000*%
%ADD12C,0.05937*%
%ADD13C,0.04756*%
%ADD14C,0.00800*%
%ADD15OC8,0.02381*%
%ADD16C,0.01600*%
%ADD17C,0.01000*%
%ADD18C,0.00600*%
%ADD19C,0.01200*%
D10*
X0005000Y0024685D02*
X0005000Y0197913D01*
X0005006Y0198389D01*
X0005023Y0198864D01*
X0005052Y0199339D01*
X0005092Y0199813D01*
X0005144Y0200286D01*
X0005207Y0200757D01*
X0005281Y0201227D01*
X0005367Y0201695D01*
X0005464Y0202161D01*
X0005572Y0202624D01*
X0005691Y0203084D01*
X0005822Y0203542D01*
X0005963Y0203996D01*
X0006116Y0204447D01*
X0006279Y0204893D01*
X0006453Y0205336D01*
X0006638Y0205774D01*
X0006833Y0206208D01*
X0007039Y0206637D01*
X0007255Y0207061D01*
X0007481Y0207480D01*
X0007717Y0207893D01*
X0007963Y0208300D01*
X0008219Y0208701D01*
X0008485Y0209095D01*
X0008760Y0209484D01*
X0009044Y0209865D01*
X0009337Y0210239D01*
X0009639Y0210607D01*
X0009951Y0210967D01*
X0010270Y0211319D01*
X0010598Y0211663D01*
X0010935Y0212000D01*
X0011279Y0212328D01*
X0011631Y0212647D01*
X0011991Y0212959D01*
X0012359Y0213261D01*
X0012733Y0213554D01*
X0013114Y0213838D01*
X0013503Y0214113D01*
X0013897Y0214379D01*
X0014298Y0214635D01*
X0014705Y0214881D01*
X0015118Y0215117D01*
X0015537Y0215343D01*
X0015961Y0215559D01*
X0016390Y0215765D01*
X0016824Y0215960D01*
X0017262Y0216145D01*
X0017705Y0216319D01*
X0018151Y0216482D01*
X0018602Y0216635D01*
X0019056Y0216776D01*
X0019514Y0216907D01*
X0019974Y0217026D01*
X0020437Y0217134D01*
X0020903Y0217231D01*
X0021371Y0217317D01*
X0021841Y0217391D01*
X0022312Y0217454D01*
X0022785Y0217506D01*
X0023259Y0217546D01*
X0023734Y0217575D01*
X0024209Y0217592D01*
X0024685Y0217598D01*
X0197913Y0217598D01*
X0198389Y0217592D01*
X0198864Y0217575D01*
X0199339Y0217546D01*
X0199813Y0217506D01*
X0200286Y0217454D01*
X0200757Y0217391D01*
X0201227Y0217317D01*
X0201695Y0217231D01*
X0202161Y0217134D01*
X0202624Y0217026D01*
X0203084Y0216907D01*
X0203542Y0216776D01*
X0203996Y0216635D01*
X0204447Y0216482D01*
X0204893Y0216319D01*
X0205336Y0216145D01*
X0205774Y0215960D01*
X0206208Y0215765D01*
X0206637Y0215559D01*
X0207061Y0215343D01*
X0207480Y0215117D01*
X0207893Y0214881D01*
X0208300Y0214635D01*
X0208701Y0214379D01*
X0209095Y0214113D01*
X0209484Y0213838D01*
X0209865Y0213554D01*
X0210239Y0213261D01*
X0210607Y0212959D01*
X0210967Y0212647D01*
X0211319Y0212328D01*
X0211663Y0212000D01*
X0212000Y0211663D01*
X0212328Y0211319D01*
X0212647Y0210967D01*
X0212959Y0210607D01*
X0213261Y0210239D01*
X0213554Y0209865D01*
X0213838Y0209484D01*
X0214113Y0209095D01*
X0214379Y0208701D01*
X0214635Y0208300D01*
X0214881Y0207893D01*
X0215117Y0207480D01*
X0215343Y0207061D01*
X0215559Y0206637D01*
X0215765Y0206208D01*
X0215960Y0205774D01*
X0216145Y0205336D01*
X0216319Y0204893D01*
X0216482Y0204447D01*
X0216635Y0203996D01*
X0216776Y0203542D01*
X0216907Y0203084D01*
X0217026Y0202624D01*
X0217134Y0202161D01*
X0217231Y0201695D01*
X0217317Y0201227D01*
X0217391Y0200757D01*
X0217454Y0200286D01*
X0217506Y0199813D01*
X0217546Y0199339D01*
X0217575Y0198864D01*
X0217592Y0198389D01*
X0217598Y0197913D01*
X0217598Y0024685D01*
X0217592Y0024209D01*
X0217575Y0023734D01*
X0217546Y0023259D01*
X0217506Y0022785D01*
X0217454Y0022312D01*
X0217391Y0021841D01*
X0217317Y0021371D01*
X0217231Y0020903D01*
X0217134Y0020437D01*
X0217026Y0019974D01*
X0216907Y0019514D01*
X0216776Y0019056D01*
X0216635Y0018602D01*
X0216482Y0018151D01*
X0216319Y0017705D01*
X0216145Y0017262D01*
X0215960Y0016824D01*
X0215765Y0016390D01*
X0215559Y0015961D01*
X0215343Y0015537D01*
X0215117Y0015118D01*
X0214881Y0014705D01*
X0214635Y0014298D01*
X0214379Y0013897D01*
X0214113Y0013503D01*
X0213838Y0013114D01*
X0213554Y0012733D01*
X0213261Y0012359D01*
X0212959Y0011991D01*
X0212647Y0011631D01*
X0212328Y0011279D01*
X0212000Y0010935D01*
X0211663Y0010598D01*
X0211319Y0010270D01*
X0210967Y0009951D01*
X0210607Y0009639D01*
X0210239Y0009337D01*
X0209865Y0009044D01*
X0209484Y0008760D01*
X0209095Y0008485D01*
X0208701Y0008219D01*
X0208300Y0007963D01*
X0207893Y0007717D01*
X0207480Y0007481D01*
X0207061Y0007255D01*
X0206637Y0007039D01*
X0206208Y0006833D01*
X0205774Y0006638D01*
X0205336Y0006453D01*
X0204893Y0006279D01*
X0204447Y0006116D01*
X0203996Y0005963D01*
X0203542Y0005822D01*
X0203084Y0005691D01*
X0202624Y0005572D01*
X0202161Y0005464D01*
X0201695Y0005367D01*
X0201227Y0005281D01*
X0200757Y0005207D01*
X0200286Y0005144D01*
X0199813Y0005092D01*
X0199339Y0005052D01*
X0198864Y0005023D01*
X0198389Y0005006D01*
X0197913Y0005000D01*
X0024685Y0005000D01*
X0024209Y0005006D01*
X0023734Y0005023D01*
X0023259Y0005052D01*
X0022785Y0005092D01*
X0022312Y0005144D01*
X0021841Y0005207D01*
X0021371Y0005281D01*
X0020903Y0005367D01*
X0020437Y0005464D01*
X0019974Y0005572D01*
X0019514Y0005691D01*
X0019056Y0005822D01*
X0018602Y0005963D01*
X0018151Y0006116D01*
X0017705Y0006279D01*
X0017262Y0006453D01*
X0016824Y0006638D01*
X0016390Y0006833D01*
X0015961Y0007039D01*
X0015537Y0007255D01*
X0015118Y0007481D01*
X0014705Y0007717D01*
X0014298Y0007963D01*
X0013897Y0008219D01*
X0013503Y0008485D01*
X0013114Y0008760D01*
X0012733Y0009044D01*
X0012359Y0009337D01*
X0011991Y0009639D01*
X0011631Y0009951D01*
X0011279Y0010270D01*
X0010935Y0010598D01*
X0010598Y0010935D01*
X0010270Y0011279D01*
X0009951Y0011631D01*
X0009639Y0011991D01*
X0009337Y0012359D01*
X0009044Y0012733D01*
X0008760Y0013114D01*
X0008485Y0013503D01*
X0008219Y0013897D01*
X0007963Y0014298D01*
X0007717Y0014705D01*
X0007481Y0015118D01*
X0007255Y0015537D01*
X0007039Y0015961D01*
X0006833Y0016390D01*
X0006638Y0016824D01*
X0006453Y0017262D01*
X0006279Y0017705D01*
X0006116Y0018151D01*
X0005963Y0018602D01*
X0005822Y0019056D01*
X0005691Y0019514D01*
X0005572Y0019974D01*
X0005464Y0020437D01*
X0005367Y0020903D01*
X0005281Y0021371D01*
X0005207Y0021841D01*
X0005144Y0022312D01*
X0005092Y0022785D01*
X0005052Y0023259D01*
X0005023Y0023734D01*
X0005006Y0024209D01*
X0005000Y0024685D01*
D11*
X0018779Y0024685D02*
X0018781Y0024838D01*
X0018787Y0024992D01*
X0018797Y0025145D01*
X0018811Y0025297D01*
X0018829Y0025450D01*
X0018851Y0025601D01*
X0018876Y0025752D01*
X0018906Y0025903D01*
X0018940Y0026053D01*
X0018977Y0026201D01*
X0019018Y0026349D01*
X0019063Y0026495D01*
X0019112Y0026641D01*
X0019165Y0026785D01*
X0019221Y0026927D01*
X0019281Y0027068D01*
X0019345Y0027208D01*
X0019412Y0027346D01*
X0019483Y0027482D01*
X0019558Y0027616D01*
X0019635Y0027748D01*
X0019717Y0027878D01*
X0019801Y0028006D01*
X0019889Y0028132D01*
X0019980Y0028255D01*
X0020074Y0028376D01*
X0020172Y0028494D01*
X0020272Y0028610D01*
X0020376Y0028723D01*
X0020482Y0028834D01*
X0020591Y0028942D01*
X0020703Y0029047D01*
X0020817Y0029148D01*
X0020935Y0029247D01*
X0021054Y0029343D01*
X0021176Y0029436D01*
X0021301Y0029525D01*
X0021428Y0029612D01*
X0021557Y0029694D01*
X0021688Y0029774D01*
X0021821Y0029850D01*
X0021956Y0029923D01*
X0022093Y0029992D01*
X0022232Y0030057D01*
X0022372Y0030119D01*
X0022514Y0030177D01*
X0022657Y0030232D01*
X0022802Y0030283D01*
X0022948Y0030330D01*
X0023095Y0030373D01*
X0023243Y0030412D01*
X0023392Y0030448D01*
X0023542Y0030479D01*
X0023693Y0030507D01*
X0023844Y0030531D01*
X0023997Y0030551D01*
X0024149Y0030567D01*
X0024302Y0030579D01*
X0024455Y0030587D01*
X0024608Y0030591D01*
X0024762Y0030591D01*
X0024915Y0030587D01*
X0025068Y0030579D01*
X0025221Y0030567D01*
X0025373Y0030551D01*
X0025526Y0030531D01*
X0025677Y0030507D01*
X0025828Y0030479D01*
X0025978Y0030448D01*
X0026127Y0030412D01*
X0026275Y0030373D01*
X0026422Y0030330D01*
X0026568Y0030283D01*
X0026713Y0030232D01*
X0026856Y0030177D01*
X0026998Y0030119D01*
X0027138Y0030057D01*
X0027277Y0029992D01*
X0027414Y0029923D01*
X0027549Y0029850D01*
X0027682Y0029774D01*
X0027813Y0029694D01*
X0027942Y0029612D01*
X0028069Y0029525D01*
X0028194Y0029436D01*
X0028316Y0029343D01*
X0028435Y0029247D01*
X0028553Y0029148D01*
X0028667Y0029047D01*
X0028779Y0028942D01*
X0028888Y0028834D01*
X0028994Y0028723D01*
X0029098Y0028610D01*
X0029198Y0028494D01*
X0029296Y0028376D01*
X0029390Y0028255D01*
X0029481Y0028132D01*
X0029569Y0028006D01*
X0029653Y0027878D01*
X0029735Y0027748D01*
X0029812Y0027616D01*
X0029887Y0027482D01*
X0029958Y0027346D01*
X0030025Y0027208D01*
X0030089Y0027068D01*
X0030149Y0026927D01*
X0030205Y0026785D01*
X0030258Y0026641D01*
X0030307Y0026495D01*
X0030352Y0026349D01*
X0030393Y0026201D01*
X0030430Y0026053D01*
X0030464Y0025903D01*
X0030494Y0025752D01*
X0030519Y0025601D01*
X0030541Y0025450D01*
X0030559Y0025297D01*
X0030573Y0025145D01*
X0030583Y0024992D01*
X0030589Y0024838D01*
X0030591Y0024685D01*
X0030589Y0024532D01*
X0030583Y0024378D01*
X0030573Y0024225D01*
X0030559Y0024073D01*
X0030541Y0023920D01*
X0030519Y0023769D01*
X0030494Y0023618D01*
X0030464Y0023467D01*
X0030430Y0023317D01*
X0030393Y0023169D01*
X0030352Y0023021D01*
X0030307Y0022875D01*
X0030258Y0022729D01*
X0030205Y0022585D01*
X0030149Y0022443D01*
X0030089Y0022302D01*
X0030025Y0022162D01*
X0029958Y0022024D01*
X0029887Y0021888D01*
X0029812Y0021754D01*
X0029735Y0021622D01*
X0029653Y0021492D01*
X0029569Y0021364D01*
X0029481Y0021238D01*
X0029390Y0021115D01*
X0029296Y0020994D01*
X0029198Y0020876D01*
X0029098Y0020760D01*
X0028994Y0020647D01*
X0028888Y0020536D01*
X0028779Y0020428D01*
X0028667Y0020323D01*
X0028553Y0020222D01*
X0028435Y0020123D01*
X0028316Y0020027D01*
X0028194Y0019934D01*
X0028069Y0019845D01*
X0027942Y0019758D01*
X0027813Y0019676D01*
X0027682Y0019596D01*
X0027549Y0019520D01*
X0027414Y0019447D01*
X0027277Y0019378D01*
X0027138Y0019313D01*
X0026998Y0019251D01*
X0026856Y0019193D01*
X0026713Y0019138D01*
X0026568Y0019087D01*
X0026422Y0019040D01*
X0026275Y0018997D01*
X0026127Y0018958D01*
X0025978Y0018922D01*
X0025828Y0018891D01*
X0025677Y0018863D01*
X0025526Y0018839D01*
X0025373Y0018819D01*
X0025221Y0018803D01*
X0025068Y0018791D01*
X0024915Y0018783D01*
X0024762Y0018779D01*
X0024608Y0018779D01*
X0024455Y0018783D01*
X0024302Y0018791D01*
X0024149Y0018803D01*
X0023997Y0018819D01*
X0023844Y0018839D01*
X0023693Y0018863D01*
X0023542Y0018891D01*
X0023392Y0018922D01*
X0023243Y0018958D01*
X0023095Y0018997D01*
X0022948Y0019040D01*
X0022802Y0019087D01*
X0022657Y0019138D01*
X0022514Y0019193D01*
X0022372Y0019251D01*
X0022232Y0019313D01*
X0022093Y0019378D01*
X0021956Y0019447D01*
X0021821Y0019520D01*
X0021688Y0019596D01*
X0021557Y0019676D01*
X0021428Y0019758D01*
X0021301Y0019845D01*
X0021176Y0019934D01*
X0021054Y0020027D01*
X0020935Y0020123D01*
X0020817Y0020222D01*
X0020703Y0020323D01*
X0020591Y0020428D01*
X0020482Y0020536D01*
X0020376Y0020647D01*
X0020272Y0020760D01*
X0020172Y0020876D01*
X0020074Y0020994D01*
X0019980Y0021115D01*
X0019889Y0021238D01*
X0019801Y0021364D01*
X0019717Y0021492D01*
X0019635Y0021622D01*
X0019558Y0021754D01*
X0019483Y0021888D01*
X0019412Y0022024D01*
X0019345Y0022162D01*
X0019281Y0022302D01*
X0019221Y0022443D01*
X0019165Y0022585D01*
X0019112Y0022729D01*
X0019063Y0022875D01*
X0019018Y0023021D01*
X0018977Y0023169D01*
X0018940Y0023317D01*
X0018906Y0023467D01*
X0018876Y0023618D01*
X0018851Y0023769D01*
X0018829Y0023920D01*
X0018811Y0024073D01*
X0018797Y0024225D01*
X0018787Y0024378D01*
X0018781Y0024532D01*
X0018779Y0024685D01*
X0132362Y0017598D02*
X0132362Y0012874D01*
X0145354Y0012874D01*
X0145354Y0017598D01*
X0132362Y0017598D01*
X0136102Y0054213D02*
X0136104Y0054318D01*
X0136110Y0054423D01*
X0136120Y0054527D01*
X0136134Y0054631D01*
X0136152Y0054735D01*
X0136174Y0054837D01*
X0136199Y0054939D01*
X0136229Y0055040D01*
X0136262Y0055139D01*
X0136299Y0055237D01*
X0136340Y0055334D01*
X0136385Y0055429D01*
X0136433Y0055522D01*
X0136484Y0055614D01*
X0136540Y0055703D01*
X0136598Y0055790D01*
X0136660Y0055875D01*
X0136724Y0055958D01*
X0136792Y0056038D01*
X0136863Y0056115D01*
X0136937Y0056189D01*
X0137014Y0056261D01*
X0137093Y0056330D01*
X0137175Y0056395D01*
X0137259Y0056458D01*
X0137346Y0056517D01*
X0137435Y0056573D01*
X0137526Y0056626D01*
X0137619Y0056675D01*
X0137713Y0056720D01*
X0137809Y0056762D01*
X0137907Y0056800D01*
X0138006Y0056834D01*
X0138107Y0056865D01*
X0138208Y0056891D01*
X0138311Y0056914D01*
X0138414Y0056933D01*
X0138518Y0056948D01*
X0138622Y0056959D01*
X0138727Y0056966D01*
X0138832Y0056969D01*
X0138937Y0056968D01*
X0139042Y0056963D01*
X0139146Y0056954D01*
X0139250Y0056941D01*
X0139354Y0056924D01*
X0139457Y0056903D01*
X0139559Y0056878D01*
X0139660Y0056850D01*
X0139759Y0056817D01*
X0139858Y0056781D01*
X0139955Y0056741D01*
X0140050Y0056698D01*
X0140144Y0056650D01*
X0140236Y0056600D01*
X0140326Y0056546D01*
X0140414Y0056488D01*
X0140499Y0056427D01*
X0140582Y0056363D01*
X0140663Y0056296D01*
X0140741Y0056226D01*
X0140816Y0056152D01*
X0140888Y0056077D01*
X0140958Y0055998D01*
X0141024Y0055917D01*
X0141088Y0055833D01*
X0141148Y0055747D01*
X0141204Y0055659D01*
X0141258Y0055568D01*
X0141308Y0055476D01*
X0141354Y0055382D01*
X0141397Y0055286D01*
X0141436Y0055188D01*
X0141471Y0055090D01*
X0141502Y0054989D01*
X0141530Y0054888D01*
X0141554Y0054786D01*
X0141574Y0054683D01*
X0141590Y0054579D01*
X0141602Y0054475D01*
X0141610Y0054370D01*
X0141614Y0054265D01*
X0141614Y0054161D01*
X0141610Y0054056D01*
X0141602Y0053951D01*
X0141590Y0053847D01*
X0141574Y0053743D01*
X0141554Y0053640D01*
X0141530Y0053538D01*
X0141502Y0053437D01*
X0141471Y0053336D01*
X0141436Y0053238D01*
X0141397Y0053140D01*
X0141354Y0053044D01*
X0141308Y0052950D01*
X0141258Y0052858D01*
X0141204Y0052767D01*
X0141148Y0052679D01*
X0141088Y0052593D01*
X0141024Y0052509D01*
X0140958Y0052428D01*
X0140888Y0052349D01*
X0140816Y0052274D01*
X0140741Y0052200D01*
X0140663Y0052130D01*
X0140582Y0052063D01*
X0140499Y0051999D01*
X0140414Y0051938D01*
X0140326Y0051880D01*
X0140236Y0051826D01*
X0140144Y0051776D01*
X0140050Y0051728D01*
X0139955Y0051685D01*
X0139858Y0051645D01*
X0139759Y0051609D01*
X0139660Y0051576D01*
X0139559Y0051548D01*
X0139457Y0051523D01*
X0139354Y0051502D01*
X0139250Y0051485D01*
X0139146Y0051472D01*
X0139042Y0051463D01*
X0138937Y0051458D01*
X0138832Y0051457D01*
X0138727Y0051460D01*
X0138622Y0051467D01*
X0138518Y0051478D01*
X0138414Y0051493D01*
X0138311Y0051512D01*
X0138208Y0051535D01*
X0138107Y0051561D01*
X0138006Y0051592D01*
X0137907Y0051626D01*
X0137809Y0051664D01*
X0137713Y0051706D01*
X0137619Y0051751D01*
X0137526Y0051800D01*
X0137435Y0051853D01*
X0137346Y0051909D01*
X0137259Y0051968D01*
X0137175Y0052031D01*
X0137093Y0052096D01*
X0137014Y0052165D01*
X0136937Y0052237D01*
X0136863Y0052311D01*
X0136792Y0052388D01*
X0136724Y0052468D01*
X0136660Y0052551D01*
X0136598Y0052636D01*
X0136540Y0052723D01*
X0136484Y0052812D01*
X0136433Y0052904D01*
X0136385Y0052997D01*
X0136340Y0053092D01*
X0136299Y0053189D01*
X0136262Y0053287D01*
X0136229Y0053386D01*
X0136199Y0053487D01*
X0136174Y0053589D01*
X0136152Y0053691D01*
X0136134Y0053795D01*
X0136120Y0053899D01*
X0136110Y0054003D01*
X0136104Y0054108D01*
X0136102Y0054213D01*
X0192007Y0024685D02*
X0192009Y0024838D01*
X0192015Y0024992D01*
X0192025Y0025145D01*
X0192039Y0025297D01*
X0192057Y0025450D01*
X0192079Y0025601D01*
X0192104Y0025752D01*
X0192134Y0025903D01*
X0192168Y0026053D01*
X0192205Y0026201D01*
X0192246Y0026349D01*
X0192291Y0026495D01*
X0192340Y0026641D01*
X0192393Y0026785D01*
X0192449Y0026927D01*
X0192509Y0027068D01*
X0192573Y0027208D01*
X0192640Y0027346D01*
X0192711Y0027482D01*
X0192786Y0027616D01*
X0192863Y0027748D01*
X0192945Y0027878D01*
X0193029Y0028006D01*
X0193117Y0028132D01*
X0193208Y0028255D01*
X0193302Y0028376D01*
X0193400Y0028494D01*
X0193500Y0028610D01*
X0193604Y0028723D01*
X0193710Y0028834D01*
X0193819Y0028942D01*
X0193931Y0029047D01*
X0194045Y0029148D01*
X0194163Y0029247D01*
X0194282Y0029343D01*
X0194404Y0029436D01*
X0194529Y0029525D01*
X0194656Y0029612D01*
X0194785Y0029694D01*
X0194916Y0029774D01*
X0195049Y0029850D01*
X0195184Y0029923D01*
X0195321Y0029992D01*
X0195460Y0030057D01*
X0195600Y0030119D01*
X0195742Y0030177D01*
X0195885Y0030232D01*
X0196030Y0030283D01*
X0196176Y0030330D01*
X0196323Y0030373D01*
X0196471Y0030412D01*
X0196620Y0030448D01*
X0196770Y0030479D01*
X0196921Y0030507D01*
X0197072Y0030531D01*
X0197225Y0030551D01*
X0197377Y0030567D01*
X0197530Y0030579D01*
X0197683Y0030587D01*
X0197836Y0030591D01*
X0197990Y0030591D01*
X0198143Y0030587D01*
X0198296Y0030579D01*
X0198449Y0030567D01*
X0198601Y0030551D01*
X0198754Y0030531D01*
X0198905Y0030507D01*
X0199056Y0030479D01*
X0199206Y0030448D01*
X0199355Y0030412D01*
X0199503Y0030373D01*
X0199650Y0030330D01*
X0199796Y0030283D01*
X0199941Y0030232D01*
X0200084Y0030177D01*
X0200226Y0030119D01*
X0200366Y0030057D01*
X0200505Y0029992D01*
X0200642Y0029923D01*
X0200777Y0029850D01*
X0200910Y0029774D01*
X0201041Y0029694D01*
X0201170Y0029612D01*
X0201297Y0029525D01*
X0201422Y0029436D01*
X0201544Y0029343D01*
X0201663Y0029247D01*
X0201781Y0029148D01*
X0201895Y0029047D01*
X0202007Y0028942D01*
X0202116Y0028834D01*
X0202222Y0028723D01*
X0202326Y0028610D01*
X0202426Y0028494D01*
X0202524Y0028376D01*
X0202618Y0028255D01*
X0202709Y0028132D01*
X0202797Y0028006D01*
X0202881Y0027878D01*
X0202963Y0027748D01*
X0203040Y0027616D01*
X0203115Y0027482D01*
X0203186Y0027346D01*
X0203253Y0027208D01*
X0203317Y0027068D01*
X0203377Y0026927D01*
X0203433Y0026785D01*
X0203486Y0026641D01*
X0203535Y0026495D01*
X0203580Y0026349D01*
X0203621Y0026201D01*
X0203658Y0026053D01*
X0203692Y0025903D01*
X0203722Y0025752D01*
X0203747Y0025601D01*
X0203769Y0025450D01*
X0203787Y0025297D01*
X0203801Y0025145D01*
X0203811Y0024992D01*
X0203817Y0024838D01*
X0203819Y0024685D01*
X0203817Y0024532D01*
X0203811Y0024378D01*
X0203801Y0024225D01*
X0203787Y0024073D01*
X0203769Y0023920D01*
X0203747Y0023769D01*
X0203722Y0023618D01*
X0203692Y0023467D01*
X0203658Y0023317D01*
X0203621Y0023169D01*
X0203580Y0023021D01*
X0203535Y0022875D01*
X0203486Y0022729D01*
X0203433Y0022585D01*
X0203377Y0022443D01*
X0203317Y0022302D01*
X0203253Y0022162D01*
X0203186Y0022024D01*
X0203115Y0021888D01*
X0203040Y0021754D01*
X0202963Y0021622D01*
X0202881Y0021492D01*
X0202797Y0021364D01*
X0202709Y0021238D01*
X0202618Y0021115D01*
X0202524Y0020994D01*
X0202426Y0020876D01*
X0202326Y0020760D01*
X0202222Y0020647D01*
X0202116Y0020536D01*
X0202007Y0020428D01*
X0201895Y0020323D01*
X0201781Y0020222D01*
X0201663Y0020123D01*
X0201544Y0020027D01*
X0201422Y0019934D01*
X0201297Y0019845D01*
X0201170Y0019758D01*
X0201041Y0019676D01*
X0200910Y0019596D01*
X0200777Y0019520D01*
X0200642Y0019447D01*
X0200505Y0019378D01*
X0200366Y0019313D01*
X0200226Y0019251D01*
X0200084Y0019193D01*
X0199941Y0019138D01*
X0199796Y0019087D01*
X0199650Y0019040D01*
X0199503Y0018997D01*
X0199355Y0018958D01*
X0199206Y0018922D01*
X0199056Y0018891D01*
X0198905Y0018863D01*
X0198754Y0018839D01*
X0198601Y0018819D01*
X0198449Y0018803D01*
X0198296Y0018791D01*
X0198143Y0018783D01*
X0197990Y0018779D01*
X0197836Y0018779D01*
X0197683Y0018783D01*
X0197530Y0018791D01*
X0197377Y0018803D01*
X0197225Y0018819D01*
X0197072Y0018839D01*
X0196921Y0018863D01*
X0196770Y0018891D01*
X0196620Y0018922D01*
X0196471Y0018958D01*
X0196323Y0018997D01*
X0196176Y0019040D01*
X0196030Y0019087D01*
X0195885Y0019138D01*
X0195742Y0019193D01*
X0195600Y0019251D01*
X0195460Y0019313D01*
X0195321Y0019378D01*
X0195184Y0019447D01*
X0195049Y0019520D01*
X0194916Y0019596D01*
X0194785Y0019676D01*
X0194656Y0019758D01*
X0194529Y0019845D01*
X0194404Y0019934D01*
X0194282Y0020027D01*
X0194163Y0020123D01*
X0194045Y0020222D01*
X0193931Y0020323D01*
X0193819Y0020428D01*
X0193710Y0020536D01*
X0193604Y0020647D01*
X0193500Y0020760D01*
X0193400Y0020876D01*
X0193302Y0020994D01*
X0193208Y0021115D01*
X0193117Y0021238D01*
X0193029Y0021364D01*
X0192945Y0021492D01*
X0192863Y0021622D01*
X0192786Y0021754D01*
X0192711Y0021888D01*
X0192640Y0022024D01*
X0192573Y0022162D01*
X0192509Y0022302D01*
X0192449Y0022443D01*
X0192393Y0022585D01*
X0192340Y0022729D01*
X0192291Y0022875D01*
X0192246Y0023021D01*
X0192205Y0023169D01*
X0192168Y0023317D01*
X0192134Y0023467D01*
X0192104Y0023618D01*
X0192079Y0023769D01*
X0192057Y0023920D01*
X0192039Y0024073D01*
X0192025Y0024225D01*
X0192015Y0024378D01*
X0192009Y0024532D01*
X0192007Y0024685D01*
X0192007Y0197913D02*
X0192009Y0198066D01*
X0192015Y0198220D01*
X0192025Y0198373D01*
X0192039Y0198525D01*
X0192057Y0198678D01*
X0192079Y0198829D01*
X0192104Y0198980D01*
X0192134Y0199131D01*
X0192168Y0199281D01*
X0192205Y0199429D01*
X0192246Y0199577D01*
X0192291Y0199723D01*
X0192340Y0199869D01*
X0192393Y0200013D01*
X0192449Y0200155D01*
X0192509Y0200296D01*
X0192573Y0200436D01*
X0192640Y0200574D01*
X0192711Y0200710D01*
X0192786Y0200844D01*
X0192863Y0200976D01*
X0192945Y0201106D01*
X0193029Y0201234D01*
X0193117Y0201360D01*
X0193208Y0201483D01*
X0193302Y0201604D01*
X0193400Y0201722D01*
X0193500Y0201838D01*
X0193604Y0201951D01*
X0193710Y0202062D01*
X0193819Y0202170D01*
X0193931Y0202275D01*
X0194045Y0202376D01*
X0194163Y0202475D01*
X0194282Y0202571D01*
X0194404Y0202664D01*
X0194529Y0202753D01*
X0194656Y0202840D01*
X0194785Y0202922D01*
X0194916Y0203002D01*
X0195049Y0203078D01*
X0195184Y0203151D01*
X0195321Y0203220D01*
X0195460Y0203285D01*
X0195600Y0203347D01*
X0195742Y0203405D01*
X0195885Y0203460D01*
X0196030Y0203511D01*
X0196176Y0203558D01*
X0196323Y0203601D01*
X0196471Y0203640D01*
X0196620Y0203676D01*
X0196770Y0203707D01*
X0196921Y0203735D01*
X0197072Y0203759D01*
X0197225Y0203779D01*
X0197377Y0203795D01*
X0197530Y0203807D01*
X0197683Y0203815D01*
X0197836Y0203819D01*
X0197990Y0203819D01*
X0198143Y0203815D01*
X0198296Y0203807D01*
X0198449Y0203795D01*
X0198601Y0203779D01*
X0198754Y0203759D01*
X0198905Y0203735D01*
X0199056Y0203707D01*
X0199206Y0203676D01*
X0199355Y0203640D01*
X0199503Y0203601D01*
X0199650Y0203558D01*
X0199796Y0203511D01*
X0199941Y0203460D01*
X0200084Y0203405D01*
X0200226Y0203347D01*
X0200366Y0203285D01*
X0200505Y0203220D01*
X0200642Y0203151D01*
X0200777Y0203078D01*
X0200910Y0203002D01*
X0201041Y0202922D01*
X0201170Y0202840D01*
X0201297Y0202753D01*
X0201422Y0202664D01*
X0201544Y0202571D01*
X0201663Y0202475D01*
X0201781Y0202376D01*
X0201895Y0202275D01*
X0202007Y0202170D01*
X0202116Y0202062D01*
X0202222Y0201951D01*
X0202326Y0201838D01*
X0202426Y0201722D01*
X0202524Y0201604D01*
X0202618Y0201483D01*
X0202709Y0201360D01*
X0202797Y0201234D01*
X0202881Y0201106D01*
X0202963Y0200976D01*
X0203040Y0200844D01*
X0203115Y0200710D01*
X0203186Y0200574D01*
X0203253Y0200436D01*
X0203317Y0200296D01*
X0203377Y0200155D01*
X0203433Y0200013D01*
X0203486Y0199869D01*
X0203535Y0199723D01*
X0203580Y0199577D01*
X0203621Y0199429D01*
X0203658Y0199281D01*
X0203692Y0199131D01*
X0203722Y0198980D01*
X0203747Y0198829D01*
X0203769Y0198678D01*
X0203787Y0198525D01*
X0203801Y0198373D01*
X0203811Y0198220D01*
X0203817Y0198066D01*
X0203819Y0197913D01*
X0203817Y0197760D01*
X0203811Y0197606D01*
X0203801Y0197453D01*
X0203787Y0197301D01*
X0203769Y0197148D01*
X0203747Y0196997D01*
X0203722Y0196846D01*
X0203692Y0196695D01*
X0203658Y0196545D01*
X0203621Y0196397D01*
X0203580Y0196249D01*
X0203535Y0196103D01*
X0203486Y0195957D01*
X0203433Y0195813D01*
X0203377Y0195671D01*
X0203317Y0195530D01*
X0203253Y0195390D01*
X0203186Y0195252D01*
X0203115Y0195116D01*
X0203040Y0194982D01*
X0202963Y0194850D01*
X0202881Y0194720D01*
X0202797Y0194592D01*
X0202709Y0194466D01*
X0202618Y0194343D01*
X0202524Y0194222D01*
X0202426Y0194104D01*
X0202326Y0193988D01*
X0202222Y0193875D01*
X0202116Y0193764D01*
X0202007Y0193656D01*
X0201895Y0193551D01*
X0201781Y0193450D01*
X0201663Y0193351D01*
X0201544Y0193255D01*
X0201422Y0193162D01*
X0201297Y0193073D01*
X0201170Y0192986D01*
X0201041Y0192904D01*
X0200910Y0192824D01*
X0200777Y0192748D01*
X0200642Y0192675D01*
X0200505Y0192606D01*
X0200366Y0192541D01*
X0200226Y0192479D01*
X0200084Y0192421D01*
X0199941Y0192366D01*
X0199796Y0192315D01*
X0199650Y0192268D01*
X0199503Y0192225D01*
X0199355Y0192186D01*
X0199206Y0192150D01*
X0199056Y0192119D01*
X0198905Y0192091D01*
X0198754Y0192067D01*
X0198601Y0192047D01*
X0198449Y0192031D01*
X0198296Y0192019D01*
X0198143Y0192011D01*
X0197990Y0192007D01*
X0197836Y0192007D01*
X0197683Y0192011D01*
X0197530Y0192019D01*
X0197377Y0192031D01*
X0197225Y0192047D01*
X0197072Y0192067D01*
X0196921Y0192091D01*
X0196770Y0192119D01*
X0196620Y0192150D01*
X0196471Y0192186D01*
X0196323Y0192225D01*
X0196176Y0192268D01*
X0196030Y0192315D01*
X0195885Y0192366D01*
X0195742Y0192421D01*
X0195600Y0192479D01*
X0195460Y0192541D01*
X0195321Y0192606D01*
X0195184Y0192675D01*
X0195049Y0192748D01*
X0194916Y0192824D01*
X0194785Y0192904D01*
X0194656Y0192986D01*
X0194529Y0193073D01*
X0194404Y0193162D01*
X0194282Y0193255D01*
X0194163Y0193351D01*
X0194045Y0193450D01*
X0193931Y0193551D01*
X0193819Y0193656D01*
X0193710Y0193764D01*
X0193604Y0193875D01*
X0193500Y0193988D01*
X0193400Y0194104D01*
X0193302Y0194222D01*
X0193208Y0194343D01*
X0193117Y0194466D01*
X0193029Y0194592D01*
X0192945Y0194720D01*
X0192863Y0194850D01*
X0192786Y0194982D01*
X0192711Y0195116D01*
X0192640Y0195252D01*
X0192573Y0195390D01*
X0192509Y0195530D01*
X0192449Y0195671D01*
X0192393Y0195813D01*
X0192340Y0195957D01*
X0192291Y0196103D01*
X0192246Y0196249D01*
X0192205Y0196397D01*
X0192168Y0196545D01*
X0192134Y0196695D01*
X0192104Y0196846D01*
X0192079Y0196997D01*
X0192057Y0197148D01*
X0192039Y0197301D01*
X0192025Y0197453D01*
X0192015Y0197606D01*
X0192009Y0197760D01*
X0192007Y0197913D01*
X0121830Y0206575D02*
X0121832Y0206646D01*
X0121838Y0206717D01*
X0121848Y0206788D01*
X0121862Y0206857D01*
X0121879Y0206926D01*
X0121901Y0206994D01*
X0121926Y0207061D01*
X0121955Y0207126D01*
X0121987Y0207189D01*
X0122023Y0207251D01*
X0122062Y0207310D01*
X0122105Y0207367D01*
X0122150Y0207422D01*
X0122199Y0207474D01*
X0122250Y0207523D01*
X0122304Y0207569D01*
X0122361Y0207613D01*
X0122419Y0207653D01*
X0122480Y0207689D01*
X0122543Y0207723D01*
X0122608Y0207752D01*
X0122674Y0207778D01*
X0122742Y0207801D01*
X0122810Y0207819D01*
X0122880Y0207834D01*
X0122950Y0207845D01*
X0123021Y0207852D01*
X0123092Y0207855D01*
X0123163Y0207854D01*
X0123234Y0207849D01*
X0123305Y0207840D01*
X0123375Y0207827D01*
X0123444Y0207811D01*
X0123512Y0207790D01*
X0123579Y0207766D01*
X0123645Y0207738D01*
X0123708Y0207706D01*
X0123770Y0207671D01*
X0123830Y0207633D01*
X0123888Y0207591D01*
X0123943Y0207547D01*
X0123996Y0207499D01*
X0124046Y0207448D01*
X0124093Y0207395D01*
X0124137Y0207339D01*
X0124178Y0207281D01*
X0124216Y0207220D01*
X0124250Y0207158D01*
X0124280Y0207093D01*
X0124307Y0207028D01*
X0124331Y0206960D01*
X0124350Y0206892D01*
X0124366Y0206823D01*
X0124378Y0206752D01*
X0124386Y0206682D01*
X0124390Y0206611D01*
X0124390Y0206539D01*
X0124386Y0206468D01*
X0124378Y0206398D01*
X0124366Y0206327D01*
X0124350Y0206258D01*
X0124331Y0206190D01*
X0124307Y0206122D01*
X0124280Y0206057D01*
X0124250Y0205992D01*
X0124216Y0205930D01*
X0124178Y0205869D01*
X0124137Y0205811D01*
X0124093Y0205755D01*
X0124046Y0205702D01*
X0123996Y0205651D01*
X0123943Y0205603D01*
X0123888Y0205559D01*
X0123830Y0205517D01*
X0123770Y0205479D01*
X0123708Y0205444D01*
X0123645Y0205412D01*
X0123579Y0205384D01*
X0123512Y0205360D01*
X0123444Y0205339D01*
X0123375Y0205323D01*
X0123305Y0205310D01*
X0123234Y0205301D01*
X0123163Y0205296D01*
X0123092Y0205295D01*
X0123021Y0205298D01*
X0122950Y0205305D01*
X0122880Y0205316D01*
X0122810Y0205331D01*
X0122742Y0205349D01*
X0122674Y0205372D01*
X0122608Y0205398D01*
X0122543Y0205427D01*
X0122480Y0205461D01*
X0122419Y0205497D01*
X0122361Y0205537D01*
X0122304Y0205581D01*
X0122250Y0205627D01*
X0122199Y0205676D01*
X0122150Y0205728D01*
X0122105Y0205783D01*
X0122062Y0205840D01*
X0122023Y0205899D01*
X0121987Y0205961D01*
X0121955Y0206024D01*
X0121926Y0206089D01*
X0121901Y0206156D01*
X0121879Y0206224D01*
X0121862Y0206293D01*
X0121848Y0206362D01*
X0121838Y0206433D01*
X0121832Y0206504D01*
X0121830Y0206575D01*
X0018779Y0197913D02*
X0018781Y0198066D01*
X0018787Y0198220D01*
X0018797Y0198373D01*
X0018811Y0198525D01*
X0018829Y0198678D01*
X0018851Y0198829D01*
X0018876Y0198980D01*
X0018906Y0199131D01*
X0018940Y0199281D01*
X0018977Y0199429D01*
X0019018Y0199577D01*
X0019063Y0199723D01*
X0019112Y0199869D01*
X0019165Y0200013D01*
X0019221Y0200155D01*
X0019281Y0200296D01*
X0019345Y0200436D01*
X0019412Y0200574D01*
X0019483Y0200710D01*
X0019558Y0200844D01*
X0019635Y0200976D01*
X0019717Y0201106D01*
X0019801Y0201234D01*
X0019889Y0201360D01*
X0019980Y0201483D01*
X0020074Y0201604D01*
X0020172Y0201722D01*
X0020272Y0201838D01*
X0020376Y0201951D01*
X0020482Y0202062D01*
X0020591Y0202170D01*
X0020703Y0202275D01*
X0020817Y0202376D01*
X0020935Y0202475D01*
X0021054Y0202571D01*
X0021176Y0202664D01*
X0021301Y0202753D01*
X0021428Y0202840D01*
X0021557Y0202922D01*
X0021688Y0203002D01*
X0021821Y0203078D01*
X0021956Y0203151D01*
X0022093Y0203220D01*
X0022232Y0203285D01*
X0022372Y0203347D01*
X0022514Y0203405D01*
X0022657Y0203460D01*
X0022802Y0203511D01*
X0022948Y0203558D01*
X0023095Y0203601D01*
X0023243Y0203640D01*
X0023392Y0203676D01*
X0023542Y0203707D01*
X0023693Y0203735D01*
X0023844Y0203759D01*
X0023997Y0203779D01*
X0024149Y0203795D01*
X0024302Y0203807D01*
X0024455Y0203815D01*
X0024608Y0203819D01*
X0024762Y0203819D01*
X0024915Y0203815D01*
X0025068Y0203807D01*
X0025221Y0203795D01*
X0025373Y0203779D01*
X0025526Y0203759D01*
X0025677Y0203735D01*
X0025828Y0203707D01*
X0025978Y0203676D01*
X0026127Y0203640D01*
X0026275Y0203601D01*
X0026422Y0203558D01*
X0026568Y0203511D01*
X0026713Y0203460D01*
X0026856Y0203405D01*
X0026998Y0203347D01*
X0027138Y0203285D01*
X0027277Y0203220D01*
X0027414Y0203151D01*
X0027549Y0203078D01*
X0027682Y0203002D01*
X0027813Y0202922D01*
X0027942Y0202840D01*
X0028069Y0202753D01*
X0028194Y0202664D01*
X0028316Y0202571D01*
X0028435Y0202475D01*
X0028553Y0202376D01*
X0028667Y0202275D01*
X0028779Y0202170D01*
X0028888Y0202062D01*
X0028994Y0201951D01*
X0029098Y0201838D01*
X0029198Y0201722D01*
X0029296Y0201604D01*
X0029390Y0201483D01*
X0029481Y0201360D01*
X0029569Y0201234D01*
X0029653Y0201106D01*
X0029735Y0200976D01*
X0029812Y0200844D01*
X0029887Y0200710D01*
X0029958Y0200574D01*
X0030025Y0200436D01*
X0030089Y0200296D01*
X0030149Y0200155D01*
X0030205Y0200013D01*
X0030258Y0199869D01*
X0030307Y0199723D01*
X0030352Y0199577D01*
X0030393Y0199429D01*
X0030430Y0199281D01*
X0030464Y0199131D01*
X0030494Y0198980D01*
X0030519Y0198829D01*
X0030541Y0198678D01*
X0030559Y0198525D01*
X0030573Y0198373D01*
X0030583Y0198220D01*
X0030589Y0198066D01*
X0030591Y0197913D01*
X0030589Y0197760D01*
X0030583Y0197606D01*
X0030573Y0197453D01*
X0030559Y0197301D01*
X0030541Y0197148D01*
X0030519Y0196997D01*
X0030494Y0196846D01*
X0030464Y0196695D01*
X0030430Y0196545D01*
X0030393Y0196397D01*
X0030352Y0196249D01*
X0030307Y0196103D01*
X0030258Y0195957D01*
X0030205Y0195813D01*
X0030149Y0195671D01*
X0030089Y0195530D01*
X0030025Y0195390D01*
X0029958Y0195252D01*
X0029887Y0195116D01*
X0029812Y0194982D01*
X0029735Y0194850D01*
X0029653Y0194720D01*
X0029569Y0194592D01*
X0029481Y0194466D01*
X0029390Y0194343D01*
X0029296Y0194222D01*
X0029198Y0194104D01*
X0029098Y0193988D01*
X0028994Y0193875D01*
X0028888Y0193764D01*
X0028779Y0193656D01*
X0028667Y0193551D01*
X0028553Y0193450D01*
X0028435Y0193351D01*
X0028316Y0193255D01*
X0028194Y0193162D01*
X0028069Y0193073D01*
X0027942Y0192986D01*
X0027813Y0192904D01*
X0027682Y0192824D01*
X0027549Y0192748D01*
X0027414Y0192675D01*
X0027277Y0192606D01*
X0027138Y0192541D01*
X0026998Y0192479D01*
X0026856Y0192421D01*
X0026713Y0192366D01*
X0026568Y0192315D01*
X0026422Y0192268D01*
X0026275Y0192225D01*
X0026127Y0192186D01*
X0025978Y0192150D01*
X0025828Y0192119D01*
X0025677Y0192091D01*
X0025526Y0192067D01*
X0025373Y0192047D01*
X0025221Y0192031D01*
X0025068Y0192019D01*
X0024915Y0192011D01*
X0024762Y0192007D01*
X0024608Y0192007D01*
X0024455Y0192011D01*
X0024302Y0192019D01*
X0024149Y0192031D01*
X0023997Y0192047D01*
X0023844Y0192067D01*
X0023693Y0192091D01*
X0023542Y0192119D01*
X0023392Y0192150D01*
X0023243Y0192186D01*
X0023095Y0192225D01*
X0022948Y0192268D01*
X0022802Y0192315D01*
X0022657Y0192366D01*
X0022514Y0192421D01*
X0022372Y0192479D01*
X0022232Y0192541D01*
X0022093Y0192606D01*
X0021956Y0192675D01*
X0021821Y0192748D01*
X0021688Y0192824D01*
X0021557Y0192904D01*
X0021428Y0192986D01*
X0021301Y0193073D01*
X0021176Y0193162D01*
X0021054Y0193255D01*
X0020935Y0193351D01*
X0020817Y0193450D01*
X0020703Y0193551D01*
X0020591Y0193656D01*
X0020482Y0193764D01*
X0020376Y0193875D01*
X0020272Y0193988D01*
X0020172Y0194104D01*
X0020074Y0194222D01*
X0019980Y0194343D01*
X0019889Y0194466D01*
X0019801Y0194592D01*
X0019717Y0194720D01*
X0019635Y0194850D01*
X0019558Y0194982D01*
X0019483Y0195116D01*
X0019412Y0195252D01*
X0019345Y0195390D01*
X0019281Y0195530D01*
X0019221Y0195671D01*
X0019165Y0195813D01*
X0019112Y0195957D01*
X0019063Y0196103D01*
X0019018Y0196249D01*
X0018977Y0196397D01*
X0018940Y0196545D01*
X0018906Y0196695D01*
X0018876Y0196846D01*
X0018851Y0196997D01*
X0018829Y0197148D01*
X0018811Y0197301D01*
X0018797Y0197453D01*
X0018787Y0197606D01*
X0018781Y0197760D01*
X0018779Y0197913D01*
D12*
X0131772Y0058150D03*
X0128819Y0049488D03*
X0130197Y0024291D03*
X0150276Y0024291D03*
X0149094Y0034528D03*
X0149094Y0054213D03*
D13*
X0146929Y0201850D03*
X0154409Y0201850D03*
D14*
X0121510Y0012985D02*
X0010800Y0012985D01*
X0011437Y0012187D02*
X0121950Y0012187D01*
X0121510Y0012627D02*
X0126013Y0008124D01*
X0177447Y0008124D01*
X0188340Y0019018D01*
X0189277Y0019955D01*
X0189277Y0046857D01*
X0204482Y0062061D01*
X0205419Y0062999D01*
X0205419Y0172977D01*
X0196434Y0181962D01*
X0195497Y0182899D01*
X0177489Y0182899D01*
X0176699Y0183690D01*
X0174718Y0183690D01*
X0173318Y0182289D01*
X0173318Y0180309D01*
X0174718Y0178909D01*
X0176699Y0178909D01*
X0177489Y0179699D01*
X0194171Y0179699D01*
X0202219Y0171651D01*
X0202219Y0064324D01*
X0187014Y0049120D01*
X0186077Y0048182D01*
X0186077Y0021280D01*
X0176121Y0011324D01*
X0127338Y0011324D01*
X0124710Y0013952D01*
X0124710Y0029534D01*
X0126923Y0031746D01*
X0131647Y0031746D01*
X0132584Y0032684D01*
X0134403Y0034502D01*
X0135340Y0035440D01*
X0135340Y0051853D01*
X0136504Y0050689D01*
X0138032Y0050057D01*
X0139685Y0050057D01*
X0141212Y0050689D01*
X0142381Y0051858D01*
X0143014Y0053386D01*
X0143014Y0055039D01*
X0142381Y0056567D01*
X0141212Y0057736D01*
X0139685Y0058368D01*
X0138032Y0058368D01*
X0136504Y0057736D01*
X0135835Y0057067D01*
X0135940Y0057320D01*
X0135940Y0058979D01*
X0135306Y0060511D01*
X0134133Y0061683D01*
X0132601Y0062318D01*
X0130942Y0062318D01*
X0129410Y0061683D01*
X0128238Y0060511D01*
X0127603Y0058979D01*
X0127603Y0057320D01*
X0128238Y0055788D01*
X0129410Y0054616D01*
X0130942Y0053981D01*
X0132067Y0053981D01*
X0132140Y0053835D01*
X0132140Y0052062D01*
X0131180Y0053022D01*
X0129648Y0053657D01*
X0127990Y0053657D01*
X0126458Y0053022D01*
X0125285Y0051849D01*
X0124650Y0050317D01*
X0124650Y0048659D01*
X0125285Y0047127D01*
X0126458Y0045954D01*
X0127990Y0045320D01*
X0129648Y0045320D01*
X0131180Y0045954D01*
X0132140Y0046914D01*
X0132140Y0036765D01*
X0130322Y0034946D01*
X0125597Y0034946D01*
X0122448Y0031797D01*
X0122447Y0031797D01*
X0121510Y0030860D01*
X0121510Y0012627D01*
X0121510Y0013784D02*
X0010163Y0013784D01*
X0009526Y0014582D02*
X0121510Y0014582D01*
X0121510Y0015381D02*
X0009020Y0015381D01*
X0009219Y0014967D02*
X0007445Y0018652D01*
X0006535Y0022640D01*
X0006420Y0024685D01*
X0006420Y0197913D01*
X0006535Y0199958D01*
X0007445Y0203946D01*
X0009219Y0207631D01*
X0011769Y0210829D01*
X0014967Y0213379D01*
X0018652Y0215154D01*
X0022640Y0216064D01*
X0024685Y0216179D01*
X0113636Y0216179D01*
X0113636Y0138196D01*
X0114573Y0137258D01*
X0148676Y0137258D01*
X0148676Y0101269D01*
X0147885Y0100478D01*
X0147885Y0098498D01*
X0149285Y0097098D01*
X0151266Y0097098D01*
X0152666Y0098498D01*
X0152666Y0100478D01*
X0151876Y0101269D01*
X0151876Y0137258D01*
X0164324Y0137258D01*
X0165261Y0138196D01*
X0165261Y0216179D01*
X0197913Y0216179D01*
X0199958Y0216064D01*
X0203946Y0215154D01*
X0207631Y0213379D01*
X0210829Y0210829D01*
X0213379Y0207631D01*
X0215154Y0203946D01*
X0216064Y0199958D01*
X0216179Y0197913D01*
X0216179Y0024685D01*
X0216064Y0022640D01*
X0215154Y0018652D01*
X0213379Y0014967D01*
X0210829Y0011769D01*
X0207631Y0009219D01*
X0203946Y0007445D01*
X0199958Y0006535D01*
X0197913Y0006420D01*
X0024685Y0006420D01*
X0022640Y0006535D01*
X0018652Y0007445D01*
X0014967Y0009219D01*
X0011769Y0011769D01*
X0009219Y0014967D01*
X0008636Y0016179D02*
X0121510Y0016179D01*
X0121510Y0016978D02*
X0008251Y0016978D01*
X0007867Y0017776D02*
X0022274Y0017776D01*
X0023232Y0017380D02*
X0026138Y0017380D01*
X0028823Y0018492D01*
X0030878Y0020547D01*
X0031991Y0023232D01*
X0031991Y0026138D01*
X0030878Y0028823D01*
X0028823Y0030878D01*
X0026138Y0031991D01*
X0023232Y0031991D01*
X0020547Y0030878D01*
X0018492Y0028823D01*
X0017380Y0026138D01*
X0017380Y0023232D01*
X0018492Y0020547D01*
X0020547Y0018492D01*
X0023232Y0017380D01*
X0020464Y0018575D02*
X0007482Y0018575D01*
X0007280Y0019373D02*
X0019665Y0019373D01*
X0018867Y0020172D02*
X0007098Y0020172D01*
X0006916Y0020970D02*
X0018316Y0020970D01*
X0017986Y0021769D02*
X0006733Y0021769D01*
X0006551Y0022567D02*
X0017655Y0022567D01*
X0017380Y0023366D02*
X0006494Y0023366D01*
X0006449Y0024164D02*
X0017380Y0024164D01*
X0017380Y0024963D02*
X0006420Y0024963D01*
X0006420Y0025761D02*
X0017380Y0025761D01*
X0017554Y0026560D02*
X0006420Y0026560D01*
X0006420Y0027358D02*
X0017885Y0027358D01*
X0018216Y0028157D02*
X0006420Y0028157D01*
X0006420Y0028955D02*
X0018624Y0028955D01*
X0019422Y0029754D02*
X0006420Y0029754D01*
X0006420Y0030552D02*
X0020221Y0030552D01*
X0021688Y0031351D02*
X0006420Y0031351D01*
X0006420Y0032149D02*
X0122800Y0032149D01*
X0122002Y0031351D02*
X0027682Y0031351D01*
X0029149Y0030552D02*
X0121510Y0030552D01*
X0121510Y0029754D02*
X0029948Y0029754D01*
X0030746Y0028955D02*
X0121510Y0028955D01*
X0121510Y0028157D02*
X0031154Y0028157D01*
X0031485Y0027358D02*
X0121510Y0027358D01*
X0121510Y0026560D02*
X0031816Y0026560D01*
X0031991Y0025761D02*
X0121510Y0025761D01*
X0121510Y0024963D02*
X0031991Y0024963D01*
X0031991Y0024164D02*
X0121510Y0024164D01*
X0121510Y0023366D02*
X0031991Y0023366D01*
X0031715Y0022567D02*
X0121510Y0022567D01*
X0121510Y0021769D02*
X0031384Y0021769D01*
X0031054Y0020970D02*
X0121510Y0020970D01*
X0121510Y0020172D02*
X0030503Y0020172D01*
X0029705Y0019373D02*
X0121510Y0019373D01*
X0121510Y0018575D02*
X0028906Y0018575D01*
X0027096Y0017776D02*
X0121510Y0017776D01*
X0124710Y0017776D02*
X0130962Y0017776D01*
X0130962Y0018178D02*
X0130962Y0012294D01*
X0131782Y0011474D01*
X0132942Y0011474D01*
X0145934Y0011474D01*
X0146754Y0012294D01*
X0146754Y0018178D01*
X0145934Y0018998D01*
X0131782Y0018998D01*
X0130962Y0018178D01*
X0131359Y0018575D02*
X0124710Y0018575D01*
X0124710Y0019373D02*
X0154875Y0019373D01*
X0154875Y0019256D02*
X0155871Y0018261D01*
X0159020Y0015111D01*
X0177751Y0015111D01*
X0178747Y0016107D01*
X0183360Y0020720D01*
X0184337Y0020720D01*
X0185737Y0022120D01*
X0185737Y0024100D01*
X0184337Y0025501D01*
X0182356Y0025501D01*
X0180956Y0024100D01*
X0180956Y0023124D01*
X0176343Y0018511D01*
X0160429Y0018511D01*
X0158275Y0020665D01*
X0158275Y0041531D01*
X0157094Y0042712D01*
X0157094Y0060035D01*
X0152272Y0064856D01*
X0152272Y0065833D01*
X0150872Y0067233D01*
X0148892Y0067233D01*
X0148501Y0066843D01*
X0119373Y0066843D01*
X0118982Y0067233D01*
X0117002Y0067233D01*
X0116611Y0066843D01*
X0116465Y0066843D01*
X0109362Y0073945D01*
X0109362Y0110471D01*
X0115277Y0116386D01*
X0118974Y0116386D01*
X0119364Y0115995D01*
X0119916Y0115995D01*
X0128591Y0107321D01*
X0129762Y0106150D01*
X0141415Y0106150D01*
X0141805Y0105759D01*
X0143785Y0105759D01*
X0145186Y0107159D01*
X0145186Y0109140D01*
X0144795Y0109530D01*
X0144795Y0131100D01*
X0145186Y0131490D01*
X0145186Y0133470D01*
X0143785Y0134871D01*
X0141805Y0134871D01*
X0140405Y0133470D01*
X0140405Y0131490D01*
X0140795Y0131100D01*
X0140795Y0110150D01*
X0131419Y0110150D01*
X0122745Y0118824D01*
X0122745Y0119376D01*
X0121345Y0120776D01*
X0119364Y0120776D01*
X0118974Y0120386D01*
X0113620Y0120386D01*
X0112449Y0119214D01*
X0105362Y0112128D01*
X0105362Y0072288D01*
X0106534Y0071117D01*
X0114808Y0062843D01*
X0116611Y0062843D01*
X0117002Y0062452D01*
X0118982Y0062452D01*
X0119373Y0062843D01*
X0148501Y0062843D01*
X0148892Y0062452D01*
X0149868Y0062452D01*
X0153694Y0058627D01*
X0153694Y0041304D01*
X0154690Y0040308D01*
X0154875Y0040123D01*
X0154875Y0019256D01*
X0154875Y0020172D02*
X0151223Y0020172D01*
X0151105Y0020123D02*
X0152637Y0020757D01*
X0153809Y0021930D01*
X0154444Y0023462D01*
X0154444Y0025120D01*
X0153809Y0026653D01*
X0152637Y0027825D01*
X0151105Y0028460D01*
X0149446Y0028460D01*
X0147914Y0027825D01*
X0146742Y0026653D01*
X0146107Y0025120D01*
X0146107Y0023462D01*
X0146742Y0021930D01*
X0147914Y0020757D01*
X0149446Y0020123D01*
X0151105Y0020123D01*
X0149328Y0020172D02*
X0131144Y0020172D01*
X0131026Y0020123D02*
X0132558Y0020757D01*
X0133731Y0021930D01*
X0134365Y0023462D01*
X0134365Y0025120D01*
X0133731Y0026653D01*
X0132558Y0027825D01*
X0131026Y0028460D01*
X0129368Y0028460D01*
X0127836Y0027825D01*
X0126663Y0026653D01*
X0126028Y0025120D01*
X0126028Y0023462D01*
X0126663Y0021930D01*
X0127836Y0020757D01*
X0129368Y0020123D01*
X0131026Y0020123D01*
X0129250Y0020172D02*
X0124710Y0020172D01*
X0124710Y0020970D02*
X0127623Y0020970D01*
X0126824Y0021769D02*
X0124710Y0021769D01*
X0124710Y0022567D02*
X0126399Y0022567D01*
X0126068Y0023366D02*
X0124710Y0023366D01*
X0124710Y0024164D02*
X0126028Y0024164D01*
X0126028Y0024963D02*
X0124710Y0024963D01*
X0124710Y0025761D02*
X0126294Y0025761D01*
X0126625Y0026560D02*
X0124710Y0026560D01*
X0124710Y0027358D02*
X0127369Y0027358D01*
X0128636Y0028157D02*
X0124710Y0028157D01*
X0124710Y0028955D02*
X0154875Y0028955D01*
X0154875Y0028157D02*
X0151836Y0028157D01*
X0153104Y0027358D02*
X0154875Y0027358D01*
X0154875Y0026560D02*
X0153848Y0026560D01*
X0154179Y0025761D02*
X0154875Y0025761D01*
X0154875Y0024963D02*
X0154444Y0024963D01*
X0154444Y0024164D02*
X0154875Y0024164D01*
X0154875Y0023366D02*
X0154404Y0023366D01*
X0154073Y0022567D02*
X0154875Y0022567D01*
X0154875Y0021769D02*
X0153648Y0021769D01*
X0152850Y0020970D02*
X0154875Y0020970D01*
X0155557Y0018575D02*
X0146358Y0018575D01*
X0146754Y0017776D02*
X0156355Y0017776D01*
X0157154Y0016978D02*
X0146754Y0016978D01*
X0146754Y0016179D02*
X0157952Y0016179D01*
X0158751Y0015381D02*
X0146754Y0015381D01*
X0146754Y0014582D02*
X0179379Y0014582D01*
X0178581Y0013784D02*
X0146754Y0013784D01*
X0146754Y0012985D02*
X0177782Y0012985D01*
X0176984Y0012187D02*
X0146647Y0012187D01*
X0147702Y0020970D02*
X0132771Y0020970D01*
X0133569Y0021769D02*
X0146903Y0021769D01*
X0146478Y0022567D02*
X0133995Y0022567D01*
X0134325Y0023366D02*
X0146147Y0023366D01*
X0146107Y0024164D02*
X0134365Y0024164D01*
X0134365Y0024963D02*
X0146107Y0024963D01*
X0146373Y0025761D02*
X0134100Y0025761D01*
X0133769Y0026560D02*
X0146703Y0026560D01*
X0147447Y0027358D02*
X0133025Y0027358D01*
X0131758Y0028157D02*
X0148715Y0028157D01*
X0148265Y0030359D02*
X0149924Y0030359D01*
X0151456Y0030994D01*
X0152628Y0032166D01*
X0153263Y0033698D01*
X0153263Y0035357D01*
X0152628Y0036889D01*
X0151456Y0038061D01*
X0149924Y0038696D01*
X0148265Y0038696D01*
X0146733Y0038061D01*
X0145561Y0036889D01*
X0144926Y0035357D01*
X0144926Y0033698D01*
X0145561Y0032166D01*
X0146733Y0030994D01*
X0148265Y0030359D01*
X0147799Y0030552D02*
X0125728Y0030552D01*
X0124930Y0029754D02*
X0154875Y0029754D01*
X0154875Y0030552D02*
X0150390Y0030552D01*
X0151813Y0031351D02*
X0154875Y0031351D01*
X0154875Y0032149D02*
X0152611Y0032149D01*
X0152952Y0032948D02*
X0154875Y0032948D01*
X0154875Y0033746D02*
X0153263Y0033746D01*
X0153263Y0034545D02*
X0154875Y0034545D01*
X0154875Y0035343D02*
X0153263Y0035343D01*
X0152938Y0036142D02*
X0154875Y0036142D01*
X0154875Y0036940D02*
X0152577Y0036940D01*
X0151778Y0037739D02*
X0154875Y0037739D01*
X0154875Y0038537D02*
X0150306Y0038537D01*
X0147882Y0038537D02*
X0135340Y0038537D01*
X0135340Y0037739D02*
X0146411Y0037739D01*
X0145612Y0036940D02*
X0135340Y0036940D01*
X0135340Y0036142D02*
X0145251Y0036142D01*
X0144926Y0035343D02*
X0135244Y0035343D01*
X0134445Y0034545D02*
X0144926Y0034545D01*
X0144926Y0033746D02*
X0133647Y0033746D01*
X0134403Y0034502D02*
X0134403Y0034502D01*
X0133740Y0036102D02*
X0130984Y0033346D01*
X0126260Y0033346D01*
X0123110Y0030197D01*
X0123110Y0013290D01*
X0126675Y0009724D01*
X0176784Y0009724D01*
X0187677Y0020618D01*
X0187677Y0047520D01*
X0203819Y0063661D01*
X0203819Y0172314D01*
X0194834Y0181299D01*
X0175709Y0181299D01*
X0177321Y0183068D02*
X0216179Y0183068D01*
X0216179Y0182270D02*
X0196126Y0182270D01*
X0196925Y0181471D02*
X0216179Y0181471D01*
X0216179Y0180672D02*
X0197723Y0180672D01*
X0198522Y0179874D02*
X0216179Y0179874D01*
X0216179Y0179075D02*
X0199320Y0179075D01*
X0200119Y0178277D02*
X0216179Y0178277D01*
X0216179Y0177478D02*
X0200917Y0177478D01*
X0201716Y0176680D02*
X0216179Y0176680D01*
X0216179Y0175881D02*
X0202514Y0175881D01*
X0203313Y0175083D02*
X0216179Y0175083D01*
X0216179Y0174284D02*
X0204111Y0174284D01*
X0204910Y0173486D02*
X0216179Y0173486D01*
X0216179Y0172687D02*
X0205419Y0172687D01*
X0205419Y0171889D02*
X0216179Y0171889D01*
X0216179Y0171090D02*
X0205419Y0171090D01*
X0205419Y0170292D02*
X0216179Y0170292D01*
X0216179Y0169493D02*
X0205419Y0169493D01*
X0205419Y0168695D02*
X0216179Y0168695D01*
X0216179Y0167896D02*
X0205419Y0167896D01*
X0205419Y0167098D02*
X0216179Y0167098D01*
X0216179Y0166299D02*
X0205419Y0166299D01*
X0205419Y0165501D02*
X0216179Y0165501D01*
X0216179Y0164702D02*
X0205419Y0164702D01*
X0205419Y0163904D02*
X0216179Y0163904D01*
X0216179Y0163105D02*
X0205419Y0163105D01*
X0205419Y0162307D02*
X0216179Y0162307D01*
X0216179Y0161508D02*
X0205419Y0161508D01*
X0205419Y0160710D02*
X0216179Y0160710D01*
X0216179Y0159911D02*
X0205419Y0159911D01*
X0205419Y0159113D02*
X0216179Y0159113D01*
X0216179Y0158314D02*
X0205419Y0158314D01*
X0205419Y0157516D02*
X0216179Y0157516D01*
X0216179Y0156717D02*
X0205419Y0156717D01*
X0205419Y0155919D02*
X0216179Y0155919D01*
X0216179Y0155120D02*
X0205419Y0155120D01*
X0205419Y0154322D02*
X0216179Y0154322D01*
X0216179Y0153523D02*
X0205419Y0153523D01*
X0205419Y0152725D02*
X0216179Y0152725D01*
X0216179Y0151926D02*
X0205419Y0151926D01*
X0205419Y0151128D02*
X0216179Y0151128D01*
X0216179Y0150329D02*
X0205419Y0150329D01*
X0205419Y0149531D02*
X0216179Y0149531D01*
X0216179Y0148732D02*
X0205419Y0148732D01*
X0205419Y0147934D02*
X0216179Y0147934D01*
X0216179Y0147135D02*
X0205419Y0147135D01*
X0205419Y0146337D02*
X0216179Y0146337D01*
X0216179Y0145538D02*
X0205419Y0145538D01*
X0205419Y0144739D02*
X0216179Y0144739D01*
X0216179Y0143941D02*
X0205419Y0143941D01*
X0205419Y0143142D02*
X0216179Y0143142D01*
X0216179Y0142344D02*
X0205419Y0142344D01*
X0205419Y0141545D02*
X0216179Y0141545D01*
X0216179Y0140747D02*
X0205419Y0140747D01*
X0205419Y0139948D02*
X0216179Y0139948D01*
X0216179Y0139150D02*
X0205419Y0139150D01*
X0205419Y0138351D02*
X0216179Y0138351D01*
X0216179Y0137553D02*
X0205419Y0137553D01*
X0205419Y0136754D02*
X0216179Y0136754D01*
X0216179Y0135956D02*
X0205419Y0135956D01*
X0205419Y0135157D02*
X0216179Y0135157D01*
X0216179Y0134359D02*
X0205419Y0134359D01*
X0205419Y0133560D02*
X0216179Y0133560D01*
X0216179Y0132762D02*
X0205419Y0132762D01*
X0205419Y0131963D02*
X0216179Y0131963D01*
X0216179Y0131165D02*
X0205419Y0131165D01*
X0205419Y0130366D02*
X0216179Y0130366D01*
X0216179Y0129568D02*
X0205419Y0129568D01*
X0205419Y0128769D02*
X0216179Y0128769D01*
X0216179Y0127971D02*
X0205419Y0127971D01*
X0205419Y0127172D02*
X0216179Y0127172D01*
X0216179Y0126374D02*
X0205419Y0126374D01*
X0205419Y0125575D02*
X0216179Y0125575D01*
X0216179Y0124777D02*
X0205419Y0124777D01*
X0205419Y0123978D02*
X0216179Y0123978D01*
X0216179Y0123180D02*
X0205419Y0123180D01*
X0205419Y0122381D02*
X0216179Y0122381D01*
X0216179Y0121583D02*
X0205419Y0121583D01*
X0205419Y0120784D02*
X0216179Y0120784D01*
X0216179Y0119986D02*
X0205419Y0119986D01*
X0205419Y0119187D02*
X0216179Y0119187D01*
X0216179Y0118389D02*
X0205419Y0118389D01*
X0205419Y0117590D02*
X0216179Y0117590D01*
X0216179Y0116792D02*
X0205419Y0116792D01*
X0205419Y0115993D02*
X0216179Y0115993D01*
X0216179Y0115195D02*
X0205419Y0115195D01*
X0205419Y0114396D02*
X0216179Y0114396D01*
X0216179Y0113598D02*
X0205419Y0113598D01*
X0205419Y0112799D02*
X0216179Y0112799D01*
X0216179Y0112001D02*
X0205419Y0112001D01*
X0205419Y0111202D02*
X0216179Y0111202D01*
X0216179Y0110403D02*
X0205419Y0110403D01*
X0205419Y0109605D02*
X0216179Y0109605D01*
X0216179Y0108806D02*
X0205419Y0108806D01*
X0205419Y0108008D02*
X0216179Y0108008D01*
X0216179Y0107209D02*
X0205419Y0107209D01*
X0205419Y0106411D02*
X0216179Y0106411D01*
X0216179Y0105612D02*
X0205419Y0105612D01*
X0205419Y0104814D02*
X0216179Y0104814D01*
X0216179Y0104015D02*
X0205419Y0104015D01*
X0205419Y0103217D02*
X0216179Y0103217D01*
X0216179Y0102418D02*
X0205419Y0102418D01*
X0205419Y0101620D02*
X0216179Y0101620D01*
X0216179Y0100821D02*
X0205419Y0100821D01*
X0205419Y0100023D02*
X0216179Y0100023D01*
X0216179Y0099224D02*
X0205419Y0099224D01*
X0205419Y0098426D02*
X0216179Y0098426D01*
X0216179Y0097627D02*
X0205419Y0097627D01*
X0205419Y0096829D02*
X0216179Y0096829D01*
X0216179Y0096030D02*
X0205419Y0096030D01*
X0205419Y0095232D02*
X0216179Y0095232D01*
X0216179Y0094433D02*
X0205419Y0094433D01*
X0205419Y0093635D02*
X0216179Y0093635D01*
X0216179Y0092836D02*
X0205419Y0092836D01*
X0205419Y0092038D02*
X0216179Y0092038D01*
X0216179Y0091239D02*
X0205419Y0091239D01*
X0205419Y0090441D02*
X0216179Y0090441D01*
X0216179Y0089642D02*
X0205419Y0089642D01*
X0205419Y0088844D02*
X0216179Y0088844D01*
X0216179Y0088045D02*
X0205419Y0088045D01*
X0205419Y0087247D02*
X0216179Y0087247D01*
X0216179Y0086448D02*
X0205419Y0086448D01*
X0205419Y0085650D02*
X0216179Y0085650D01*
X0216179Y0084851D02*
X0205419Y0084851D01*
X0205419Y0084053D02*
X0216179Y0084053D01*
X0216179Y0083254D02*
X0205419Y0083254D01*
X0205419Y0082456D02*
X0216179Y0082456D01*
X0216179Y0081657D02*
X0205419Y0081657D01*
X0205419Y0080859D02*
X0216179Y0080859D01*
X0216179Y0080060D02*
X0205419Y0080060D01*
X0205419Y0079262D02*
X0216179Y0079262D01*
X0216179Y0078463D02*
X0205419Y0078463D01*
X0205419Y0077665D02*
X0216179Y0077665D01*
X0216179Y0076866D02*
X0205419Y0076866D01*
X0205419Y0076068D02*
X0216179Y0076068D01*
X0216179Y0075269D02*
X0205419Y0075269D01*
X0205419Y0074470D02*
X0216179Y0074470D01*
X0216179Y0073672D02*
X0205419Y0073672D01*
X0205419Y0072873D02*
X0216179Y0072873D01*
X0216179Y0072075D02*
X0205419Y0072075D01*
X0205419Y0071276D02*
X0216179Y0071276D01*
X0216179Y0070478D02*
X0205419Y0070478D01*
X0205419Y0069679D02*
X0216179Y0069679D01*
X0216179Y0068881D02*
X0205419Y0068881D01*
X0205419Y0068082D02*
X0216179Y0068082D01*
X0216179Y0067284D02*
X0205419Y0067284D01*
X0205419Y0066485D02*
X0216179Y0066485D01*
X0216179Y0065687D02*
X0205419Y0065687D01*
X0205419Y0064888D02*
X0216179Y0064888D01*
X0216179Y0064090D02*
X0205419Y0064090D01*
X0205419Y0063291D02*
X0216179Y0063291D01*
X0216179Y0062493D02*
X0204913Y0062493D01*
X0204115Y0061694D02*
X0216179Y0061694D01*
X0216179Y0060896D02*
X0203316Y0060896D01*
X0202517Y0060097D02*
X0216179Y0060097D01*
X0216179Y0059299D02*
X0201719Y0059299D01*
X0200920Y0058500D02*
X0216179Y0058500D01*
X0216179Y0057702D02*
X0200122Y0057702D01*
X0199323Y0056903D02*
X0216179Y0056903D01*
X0216179Y0056105D02*
X0198525Y0056105D01*
X0197726Y0055306D02*
X0216179Y0055306D01*
X0216179Y0054508D02*
X0196928Y0054508D01*
X0196129Y0053709D02*
X0216179Y0053709D01*
X0216179Y0052911D02*
X0195331Y0052911D01*
X0194532Y0052112D02*
X0216179Y0052112D01*
X0216179Y0051314D02*
X0193734Y0051314D01*
X0192935Y0050515D02*
X0216179Y0050515D01*
X0216179Y0049717D02*
X0192137Y0049717D01*
X0191338Y0048918D02*
X0216179Y0048918D01*
X0216179Y0048120D02*
X0190540Y0048120D01*
X0189741Y0047321D02*
X0216179Y0047321D01*
X0216179Y0046523D02*
X0189277Y0046523D01*
X0189277Y0045724D02*
X0216179Y0045724D01*
X0216179Y0044926D02*
X0189277Y0044926D01*
X0189277Y0044127D02*
X0216179Y0044127D01*
X0216179Y0043329D02*
X0189277Y0043329D01*
X0189277Y0042530D02*
X0216179Y0042530D01*
X0216179Y0041732D02*
X0189277Y0041732D01*
X0189277Y0040933D02*
X0216179Y0040933D01*
X0216179Y0040134D02*
X0189277Y0040134D01*
X0189277Y0039336D02*
X0216179Y0039336D01*
X0216179Y0038537D02*
X0189277Y0038537D01*
X0189277Y0037739D02*
X0216179Y0037739D01*
X0216179Y0036940D02*
X0189277Y0036940D01*
X0189277Y0036142D02*
X0216179Y0036142D01*
X0216179Y0035343D02*
X0189277Y0035343D01*
X0189277Y0034545D02*
X0216179Y0034545D01*
X0216179Y0033746D02*
X0189277Y0033746D01*
X0189277Y0032948D02*
X0216179Y0032948D01*
X0216179Y0032149D02*
X0189277Y0032149D01*
X0189277Y0031351D02*
X0194916Y0031351D01*
X0193775Y0030878D02*
X0196460Y0031991D01*
X0199367Y0031991D01*
X0202052Y0030878D01*
X0204107Y0028823D01*
X0205219Y0026138D01*
X0205219Y0023232D01*
X0204107Y0020547D01*
X0202052Y0018492D01*
X0199367Y0017380D01*
X0196460Y0017380D01*
X0193775Y0018492D01*
X0191720Y0020547D01*
X0190608Y0023232D01*
X0190608Y0026138D01*
X0191720Y0028823D01*
X0193775Y0030878D01*
X0193449Y0030552D02*
X0189277Y0030552D01*
X0189277Y0029754D02*
X0192651Y0029754D01*
X0191852Y0028955D02*
X0189277Y0028955D01*
X0189277Y0028157D02*
X0191444Y0028157D01*
X0191113Y0027358D02*
X0189277Y0027358D01*
X0189277Y0026560D02*
X0190783Y0026560D01*
X0190608Y0025761D02*
X0189277Y0025761D01*
X0189277Y0024963D02*
X0190608Y0024963D01*
X0190608Y0024164D02*
X0189277Y0024164D01*
X0189277Y0023366D02*
X0190608Y0023366D01*
X0190883Y0022567D02*
X0189277Y0022567D01*
X0189277Y0021769D02*
X0191214Y0021769D01*
X0191545Y0020970D02*
X0189277Y0020970D01*
X0189277Y0020172D02*
X0192095Y0020172D01*
X0192894Y0019373D02*
X0188696Y0019373D01*
X0187897Y0018575D02*
X0193692Y0018575D01*
X0195503Y0017776D02*
X0187099Y0017776D01*
X0186300Y0016978D02*
X0214347Y0016978D01*
X0214732Y0017776D02*
X0200324Y0017776D01*
X0202135Y0018575D02*
X0215116Y0018575D01*
X0215318Y0019373D02*
X0202933Y0019373D01*
X0203732Y0020172D02*
X0215501Y0020172D01*
X0215683Y0020970D02*
X0204282Y0020970D01*
X0204613Y0021769D02*
X0215865Y0021769D01*
X0216047Y0022567D02*
X0204944Y0022567D01*
X0205219Y0023366D02*
X0216105Y0023366D01*
X0216149Y0024164D02*
X0205219Y0024164D01*
X0205219Y0024963D02*
X0216179Y0024963D01*
X0216179Y0025761D02*
X0205219Y0025761D01*
X0205044Y0026560D02*
X0216179Y0026560D01*
X0216179Y0027358D02*
X0204713Y0027358D01*
X0204383Y0028157D02*
X0216179Y0028157D01*
X0216179Y0028955D02*
X0203975Y0028955D01*
X0203176Y0029754D02*
X0216179Y0029754D01*
X0216179Y0030552D02*
X0202378Y0030552D01*
X0200911Y0031351D02*
X0216179Y0031351D01*
X0213963Y0016179D02*
X0185502Y0016179D01*
X0184703Y0015381D02*
X0213578Y0015381D01*
X0213072Y0014582D02*
X0183905Y0014582D01*
X0183106Y0013784D02*
X0212435Y0013784D01*
X0211798Y0012985D02*
X0182307Y0012985D01*
X0181509Y0012187D02*
X0211162Y0012187D01*
X0210351Y0011388D02*
X0180710Y0011388D01*
X0179912Y0010590D02*
X0209349Y0010590D01*
X0208348Y0009791D02*
X0179113Y0009791D01*
X0178315Y0008993D02*
X0207160Y0008993D01*
X0205502Y0008194D02*
X0177516Y0008194D01*
X0176185Y0011388D02*
X0127274Y0011388D01*
X0126476Y0012187D02*
X0131070Y0012187D01*
X0130962Y0012985D02*
X0125677Y0012985D01*
X0124879Y0013784D02*
X0130962Y0013784D01*
X0130962Y0014582D02*
X0124710Y0014582D01*
X0124710Y0015381D02*
X0130962Y0015381D01*
X0130962Y0016179D02*
X0124710Y0016179D01*
X0124710Y0016978D02*
X0130962Y0016978D01*
X0124346Y0009791D02*
X0014250Y0009791D01*
X0013249Y0010590D02*
X0123547Y0010590D01*
X0122749Y0011388D02*
X0012248Y0011388D01*
X0015438Y0008993D02*
X0125144Y0008993D01*
X0125943Y0008194D02*
X0017096Y0008194D01*
X0018868Y0007396D02*
X0203731Y0007396D01*
X0200232Y0006597D02*
X0022366Y0006597D01*
X0006420Y0032948D02*
X0123599Y0032948D01*
X0124397Y0033746D02*
X0006420Y0033746D01*
X0006420Y0034545D02*
X0125196Y0034545D01*
X0126527Y0031351D02*
X0146376Y0031351D01*
X0145578Y0032149D02*
X0132050Y0032149D01*
X0132584Y0032684D02*
X0132584Y0032684D01*
X0132848Y0032948D02*
X0145237Y0032948D01*
X0154875Y0039336D02*
X0135340Y0039336D01*
X0135340Y0040134D02*
X0154863Y0040134D01*
X0154064Y0040933D02*
X0135340Y0040933D01*
X0135340Y0041732D02*
X0153694Y0041732D01*
X0153694Y0042530D02*
X0135340Y0042530D01*
X0135340Y0043329D02*
X0153694Y0043329D01*
X0153694Y0044127D02*
X0135340Y0044127D01*
X0135340Y0044926D02*
X0153694Y0044926D01*
X0153694Y0045724D02*
X0135340Y0045724D01*
X0135340Y0046523D02*
X0153694Y0046523D01*
X0153694Y0047321D02*
X0135340Y0047321D01*
X0135340Y0048120D02*
X0153694Y0048120D01*
X0153694Y0048918D02*
X0135340Y0048918D01*
X0135340Y0049717D02*
X0153694Y0049717D01*
X0153694Y0050515D02*
X0151061Y0050515D01*
X0151456Y0050679D02*
X0149924Y0050044D01*
X0148265Y0050044D01*
X0146733Y0050679D01*
X0145561Y0051851D01*
X0144926Y0053383D01*
X0144926Y0055042D01*
X0145561Y0056574D01*
X0146733Y0057746D01*
X0148265Y0058381D01*
X0149924Y0058381D01*
X0151456Y0057746D01*
X0152628Y0056574D01*
X0153263Y0055042D01*
X0153263Y0053383D01*
X0152628Y0051851D01*
X0151456Y0050679D01*
X0152091Y0051314D02*
X0153694Y0051314D01*
X0153694Y0052112D02*
X0152736Y0052112D01*
X0153067Y0052911D02*
X0153694Y0052911D01*
X0153694Y0053709D02*
X0153263Y0053709D01*
X0153263Y0054508D02*
X0153694Y0054508D01*
X0153694Y0055306D02*
X0153153Y0055306D01*
X0152823Y0056105D02*
X0153694Y0056105D01*
X0153694Y0056903D02*
X0152299Y0056903D01*
X0151500Y0057702D02*
X0153694Y0057702D01*
X0153694Y0058500D02*
X0135940Y0058500D01*
X0135940Y0057702D02*
X0136470Y0057702D01*
X0135808Y0059299D02*
X0153021Y0059299D01*
X0152223Y0060097D02*
X0135477Y0060097D01*
X0134921Y0060896D02*
X0151424Y0060896D01*
X0150626Y0061694D02*
X0134107Y0061694D01*
X0131772Y0058150D02*
X0133740Y0054213D01*
X0133740Y0036102D01*
X0132140Y0036940D02*
X0006420Y0036940D01*
X0006420Y0036142D02*
X0131517Y0036142D01*
X0130719Y0035343D02*
X0006420Y0035343D01*
X0006420Y0037739D02*
X0132140Y0037739D01*
X0132140Y0038537D02*
X0006420Y0038537D01*
X0006420Y0039336D02*
X0132140Y0039336D01*
X0132140Y0040134D02*
X0006420Y0040134D01*
X0006420Y0040933D02*
X0132140Y0040933D01*
X0132140Y0041732D02*
X0006420Y0041732D01*
X0006420Y0042530D02*
X0132140Y0042530D01*
X0132140Y0043329D02*
X0006420Y0043329D01*
X0006420Y0044127D02*
X0132140Y0044127D01*
X0132140Y0044926D02*
X0006420Y0044926D01*
X0006420Y0045724D02*
X0127013Y0045724D01*
X0125889Y0046523D02*
X0006420Y0046523D01*
X0006420Y0047321D02*
X0125205Y0047321D01*
X0124874Y0048120D02*
X0006420Y0048120D01*
X0006420Y0048918D02*
X0124650Y0048918D01*
X0124650Y0049717D02*
X0006420Y0049717D01*
X0006420Y0050515D02*
X0124732Y0050515D01*
X0125063Y0051314D02*
X0006420Y0051314D01*
X0006420Y0052112D02*
X0125548Y0052112D01*
X0126346Y0052911D02*
X0006420Y0052911D01*
X0006420Y0053709D02*
X0132140Y0053709D01*
X0132140Y0052911D02*
X0131292Y0052911D01*
X0132090Y0052112D02*
X0132140Y0052112D01*
X0135340Y0051314D02*
X0135880Y0051314D01*
X0135340Y0050515D02*
X0136925Y0050515D01*
X0140792Y0050515D02*
X0147128Y0050515D01*
X0146098Y0051314D02*
X0141837Y0051314D01*
X0142487Y0052112D02*
X0145453Y0052112D01*
X0145122Y0052911D02*
X0142817Y0052911D01*
X0143014Y0053709D02*
X0144926Y0053709D01*
X0144926Y0054508D02*
X0143014Y0054508D01*
X0142904Y0055306D02*
X0145036Y0055306D01*
X0145366Y0056105D02*
X0142573Y0056105D01*
X0142045Y0056903D02*
X0145890Y0056903D01*
X0146688Y0057702D02*
X0141246Y0057702D01*
X0143189Y0064843D02*
X0145551Y0064843D01*
X0148851Y0062493D02*
X0119023Y0062493D01*
X0116961Y0062493D02*
X0006420Y0062493D01*
X0006420Y0063291D02*
X0114359Y0063291D01*
X0113561Y0064090D02*
X0006420Y0064090D01*
X0006420Y0064888D02*
X0112762Y0064888D01*
X0111964Y0065687D02*
X0006420Y0065687D01*
X0006420Y0066485D02*
X0111165Y0066485D01*
X0110367Y0067284D02*
X0006420Y0067284D01*
X0006420Y0068082D02*
X0109568Y0068082D01*
X0108770Y0068881D02*
X0006420Y0068881D01*
X0006420Y0069679D02*
X0107971Y0069679D01*
X0107173Y0070478D02*
X0006420Y0070478D01*
X0006420Y0071276D02*
X0106374Y0071276D01*
X0105576Y0072075D02*
X0006420Y0072075D01*
X0006420Y0072873D02*
X0105362Y0072873D01*
X0105362Y0073672D02*
X0006420Y0073672D01*
X0006420Y0074470D02*
X0105362Y0074470D01*
X0105362Y0075269D02*
X0006420Y0075269D01*
X0006420Y0076068D02*
X0105362Y0076068D01*
X0105362Y0076866D02*
X0006420Y0076866D01*
X0006420Y0077665D02*
X0105362Y0077665D01*
X0105362Y0078463D02*
X0006420Y0078463D01*
X0006420Y0079262D02*
X0105362Y0079262D01*
X0105362Y0080060D02*
X0006420Y0080060D01*
X0006420Y0080859D02*
X0105362Y0080859D01*
X0105362Y0081657D02*
X0006420Y0081657D01*
X0006420Y0082456D02*
X0105362Y0082456D01*
X0105362Y0083254D02*
X0006420Y0083254D01*
X0006420Y0084053D02*
X0105362Y0084053D01*
X0105362Y0084851D02*
X0006420Y0084851D01*
X0006420Y0085650D02*
X0105362Y0085650D01*
X0105362Y0086448D02*
X0006420Y0086448D01*
X0006420Y0087247D02*
X0105362Y0087247D01*
X0105362Y0088045D02*
X0006420Y0088045D01*
X0006420Y0088844D02*
X0105362Y0088844D01*
X0105362Y0089642D02*
X0006420Y0089642D01*
X0006420Y0090441D02*
X0105362Y0090441D01*
X0105362Y0091239D02*
X0006420Y0091239D01*
X0006420Y0092038D02*
X0105362Y0092038D01*
X0105362Y0092836D02*
X0006420Y0092836D01*
X0006420Y0093635D02*
X0105362Y0093635D01*
X0105362Y0094433D02*
X0006420Y0094433D01*
X0006420Y0095232D02*
X0105362Y0095232D01*
X0105362Y0096030D02*
X0006420Y0096030D01*
X0006420Y0096829D02*
X0105362Y0096829D01*
X0105362Y0097627D02*
X0006420Y0097627D01*
X0006420Y0098426D02*
X0105362Y0098426D01*
X0105362Y0099224D02*
X0006420Y0099224D01*
X0006420Y0100023D02*
X0105362Y0100023D01*
X0105362Y0100821D02*
X0006420Y0100821D01*
X0006420Y0101620D02*
X0105362Y0101620D01*
X0105362Y0102418D02*
X0006420Y0102418D01*
X0006420Y0103217D02*
X0105362Y0103217D01*
X0105362Y0104015D02*
X0006420Y0104015D01*
X0006420Y0104814D02*
X0105362Y0104814D01*
X0105362Y0105612D02*
X0006420Y0105612D01*
X0006420Y0106411D02*
X0105362Y0106411D01*
X0105362Y0107209D02*
X0006420Y0107209D01*
X0006420Y0108008D02*
X0105362Y0108008D01*
X0105362Y0108806D02*
X0006420Y0108806D01*
X0006420Y0109605D02*
X0105362Y0109605D01*
X0105362Y0110403D02*
X0006420Y0110403D01*
X0006420Y0111202D02*
X0105362Y0111202D01*
X0105362Y0112001D02*
X0006420Y0112001D01*
X0006420Y0112799D02*
X0106034Y0112799D01*
X0106832Y0113598D02*
X0006420Y0113598D01*
X0006420Y0114396D02*
X0107631Y0114396D01*
X0108429Y0115195D02*
X0006420Y0115195D01*
X0006420Y0115993D02*
X0109228Y0115993D01*
X0110026Y0116792D02*
X0006420Y0116792D01*
X0006420Y0117590D02*
X0110825Y0117590D01*
X0111623Y0118389D02*
X0006420Y0118389D01*
X0006420Y0119187D02*
X0112422Y0119187D01*
X0113220Y0119986D02*
X0006420Y0119986D01*
X0006420Y0120784D02*
X0140795Y0120784D01*
X0140795Y0119986D02*
X0122135Y0119986D01*
X0122745Y0119187D02*
X0140795Y0119187D01*
X0140795Y0118389D02*
X0123180Y0118389D01*
X0123978Y0117590D02*
X0140795Y0117590D01*
X0140795Y0116792D02*
X0124777Y0116792D01*
X0125575Y0115993D02*
X0140795Y0115993D01*
X0140795Y0115195D02*
X0126374Y0115195D01*
X0127173Y0114396D02*
X0140795Y0114396D01*
X0140795Y0113598D02*
X0127971Y0113598D01*
X0128770Y0112799D02*
X0140795Y0112799D01*
X0140795Y0112001D02*
X0129568Y0112001D01*
X0130367Y0111202D02*
X0140795Y0111202D01*
X0140795Y0110403D02*
X0131165Y0110403D01*
X0128702Y0107209D02*
X0109362Y0107209D01*
X0109362Y0106411D02*
X0129501Y0106411D01*
X0127904Y0108008D02*
X0109362Y0108008D01*
X0109362Y0108806D02*
X0127105Y0108806D01*
X0126307Y0109605D02*
X0109362Y0109605D01*
X0109362Y0110403D02*
X0125508Y0110403D01*
X0124710Y0111202D02*
X0110093Y0111202D01*
X0110892Y0112001D02*
X0123911Y0112001D01*
X0123113Y0112799D02*
X0111690Y0112799D01*
X0112489Y0113598D02*
X0122314Y0113598D01*
X0121516Y0114396D02*
X0113287Y0114396D01*
X0114086Y0115195D02*
X0120717Y0115195D01*
X0119919Y0115993D02*
X0114884Y0115993D01*
X0109362Y0105612D02*
X0148676Y0105612D01*
X0148676Y0104814D02*
X0125890Y0104814D01*
X0125675Y0105028D02*
X0123695Y0105028D01*
X0122904Y0104238D01*
X0116542Y0104238D01*
X0110636Y0098332D01*
X0109699Y0097395D01*
X0109699Y0076393D01*
X0117582Y0068510D01*
X0118519Y0067573D01*
X0190151Y0067573D01*
X0191486Y0068909D01*
X0192604Y0068909D01*
X0194005Y0070309D01*
X0194005Y0072289D01*
X0192604Y0073690D01*
X0190624Y0073690D01*
X0189224Y0072289D01*
X0189224Y0071171D01*
X0188825Y0070773D01*
X0119845Y0070773D01*
X0112899Y0077719D01*
X0112899Y0096070D01*
X0117867Y0101038D01*
X0122904Y0101038D01*
X0123695Y0100247D01*
X0125675Y0100247D01*
X0127076Y0101648D01*
X0127076Y0103628D01*
X0125675Y0105028D01*
X0126688Y0104015D02*
X0148676Y0104015D01*
X0148676Y0103217D02*
X0132605Y0103217D01*
X0131974Y0103847D02*
X0133375Y0102447D01*
X0133375Y0100466D01*
X0132484Y0099576D01*
X0132484Y0097747D01*
X0133180Y0097051D01*
X0158377Y0097051D01*
X0159256Y0096173D01*
X0167329Y0088099D01*
X0168589Y0088099D01*
X0169989Y0086699D01*
X0169989Y0084718D01*
X0168589Y0083318D01*
X0166608Y0083318D01*
X0165208Y0084718D01*
X0165208Y0085978D01*
X0157135Y0094051D01*
X0131938Y0094051D01*
X0130363Y0095626D01*
X0129484Y0096505D01*
X0129484Y0099576D01*
X0128594Y0100466D01*
X0128594Y0102447D01*
X0129994Y0103847D01*
X0131974Y0103847D01*
X0133375Y0102418D02*
X0148676Y0102418D01*
X0148676Y0101620D02*
X0133375Y0101620D01*
X0133375Y0100821D02*
X0148228Y0100821D01*
X0147885Y0100023D02*
X0132931Y0100023D01*
X0132484Y0099224D02*
X0147885Y0099224D01*
X0147957Y0098426D02*
X0132484Y0098426D01*
X0132604Y0097627D02*
X0148756Y0097627D01*
X0150276Y0099488D02*
X0150276Y0140778D01*
X0148652Y0142402D01*
X0137677Y0142402D01*
X0136102Y0143976D01*
X0136102Y0151850D01*
X0134394Y0153523D02*
X0115236Y0153523D01*
X0115236Y0152725D02*
X0133712Y0152725D01*
X0133712Y0152841D02*
X0133712Y0150860D01*
X0134502Y0150070D01*
X0134502Y0143314D01*
X0135440Y0142376D01*
X0137014Y0140802D01*
X0147990Y0140802D01*
X0148676Y0140116D01*
X0148676Y0138858D01*
X0115236Y0138858D01*
X0115236Y0216179D01*
X0163661Y0216179D01*
X0163661Y0138858D01*
X0151876Y0138858D01*
X0151876Y0141441D01*
X0150252Y0143064D01*
X0149315Y0144002D01*
X0138340Y0144002D01*
X0137702Y0144639D01*
X0137702Y0150070D01*
X0138493Y0150860D01*
X0138493Y0152841D01*
X0137093Y0154241D01*
X0135112Y0154241D01*
X0133712Y0152841D01*
X0133712Y0151926D02*
X0115236Y0151926D01*
X0115236Y0151128D02*
X0133712Y0151128D01*
X0134243Y0150329D02*
X0115236Y0150329D01*
X0115236Y0149531D02*
X0134502Y0149531D01*
X0134502Y0148732D02*
X0115236Y0148732D01*
X0115236Y0147934D02*
X0134502Y0147934D01*
X0134502Y0147135D02*
X0115236Y0147135D01*
X0115236Y0146337D02*
X0134502Y0146337D01*
X0134502Y0145538D02*
X0115236Y0145538D01*
X0115236Y0144739D02*
X0134502Y0144739D01*
X0134502Y0143941D02*
X0115236Y0143941D01*
X0115236Y0143142D02*
X0134674Y0143142D01*
X0135472Y0142344D02*
X0115236Y0142344D01*
X0115236Y0141545D02*
X0136271Y0141545D01*
X0137702Y0144739D02*
X0163661Y0144739D01*
X0163661Y0143941D02*
X0149376Y0143941D01*
X0150174Y0143142D02*
X0163661Y0143142D01*
X0163661Y0142344D02*
X0150973Y0142344D01*
X0151771Y0141545D02*
X0163661Y0141545D01*
X0163661Y0140747D02*
X0151876Y0140747D01*
X0151876Y0139948D02*
X0163661Y0139948D01*
X0163661Y0139150D02*
X0151876Y0139150D01*
X0151876Y0136754D02*
X0196707Y0136754D01*
X0196707Y0135956D02*
X0151876Y0135956D01*
X0151876Y0135157D02*
X0196707Y0135157D01*
X0196707Y0134359D02*
X0151876Y0134359D01*
X0151876Y0133560D02*
X0196707Y0133560D01*
X0196707Y0132762D02*
X0151876Y0132762D01*
X0151876Y0131963D02*
X0196707Y0131963D01*
X0196707Y0131165D02*
X0151876Y0131165D01*
X0151876Y0130366D02*
X0196707Y0130366D01*
X0196707Y0129568D02*
X0151876Y0129568D01*
X0151876Y0128769D02*
X0196707Y0128769D01*
X0196707Y0127971D02*
X0151876Y0127971D01*
X0151876Y0127172D02*
X0196707Y0127172D01*
X0196707Y0126374D02*
X0151876Y0126374D01*
X0151876Y0125575D02*
X0196707Y0125575D01*
X0196707Y0124777D02*
X0151876Y0124777D01*
X0151876Y0123978D02*
X0196707Y0123978D01*
X0196707Y0123180D02*
X0151876Y0123180D01*
X0151876Y0122381D02*
X0196707Y0122381D01*
X0196707Y0121583D02*
X0151876Y0121583D01*
X0151876Y0120784D02*
X0196707Y0120784D01*
X0196707Y0119986D02*
X0151876Y0119986D01*
X0151876Y0119187D02*
X0196707Y0119187D01*
X0196707Y0118389D02*
X0151876Y0118389D01*
X0151876Y0117590D02*
X0196707Y0117590D01*
X0196707Y0116792D02*
X0151876Y0116792D01*
X0151876Y0115993D02*
X0196707Y0115993D01*
X0196707Y0115195D02*
X0151876Y0115195D01*
X0151876Y0114396D02*
X0196707Y0114396D01*
X0196707Y0113598D02*
X0151876Y0113598D01*
X0151876Y0112799D02*
X0196707Y0112799D01*
X0196707Y0112001D02*
X0151876Y0112001D01*
X0151876Y0111202D02*
X0196707Y0111202D01*
X0196707Y0110403D02*
X0151876Y0110403D01*
X0151876Y0109605D02*
X0196707Y0109605D01*
X0196707Y0108806D02*
X0151876Y0108806D01*
X0151876Y0108008D02*
X0196707Y0108008D01*
X0196707Y0107209D02*
X0151876Y0107209D01*
X0151876Y0106411D02*
X0196707Y0106411D01*
X0196707Y0105612D02*
X0151876Y0105612D01*
X0151876Y0104814D02*
X0196707Y0104814D01*
X0196707Y0104015D02*
X0151876Y0104015D01*
X0151876Y0103217D02*
X0176765Y0103217D01*
X0177238Y0103690D02*
X0175838Y0102289D01*
X0175838Y0100309D01*
X0176628Y0099518D01*
X0176628Y0079442D01*
X0175046Y0077860D01*
X0127743Y0077860D01*
X0126285Y0079317D01*
X0126285Y0092983D01*
X0127076Y0093774D01*
X0127076Y0095754D01*
X0125675Y0097154D01*
X0123695Y0097154D01*
X0122294Y0095754D01*
X0122294Y0093774D01*
X0123085Y0092983D01*
X0123085Y0077992D01*
X0125480Y0075597D01*
X0126417Y0074660D01*
X0176371Y0074660D01*
X0178891Y0077180D01*
X0179828Y0078117D01*
X0179828Y0099518D01*
X0180619Y0100309D01*
X0180619Y0102289D01*
X0179219Y0103690D01*
X0177238Y0103690D01*
X0175967Y0102418D02*
X0151876Y0102418D01*
X0151876Y0101620D02*
X0175838Y0101620D01*
X0175838Y0100821D02*
X0152323Y0100821D01*
X0152666Y0100023D02*
X0176124Y0100023D01*
X0176628Y0099224D02*
X0152666Y0099224D01*
X0152594Y0098426D02*
X0176628Y0098426D01*
X0176628Y0097627D02*
X0151795Y0097627D01*
X0157551Y0093635D02*
X0126937Y0093635D01*
X0127076Y0094433D02*
X0131556Y0094433D01*
X0130757Y0095232D02*
X0127076Y0095232D01*
X0126799Y0096030D02*
X0129959Y0096030D01*
X0129484Y0096829D02*
X0126001Y0096829D01*
X0124685Y0094764D02*
X0124685Y0078655D01*
X0127080Y0076260D01*
X0175709Y0076260D01*
X0178228Y0078780D01*
X0178228Y0101299D01*
X0180619Y0101620D02*
X0191586Y0101620D01*
X0191586Y0101171D02*
X0188439Y0098025D01*
X0188439Y0076529D01*
X0186227Y0074317D01*
X0123814Y0074317D01*
X0117230Y0080901D01*
X0117230Y0092133D01*
X0121014Y0095917D01*
X0122132Y0095917D01*
X0123532Y0097317D01*
X0123532Y0099297D01*
X0122132Y0100698D01*
X0120152Y0100698D01*
X0118751Y0099297D01*
X0118751Y0098179D01*
X0114030Y0093458D01*
X0114030Y0079575D01*
X0121552Y0072054D01*
X0122489Y0071117D01*
X0187552Y0071117D01*
X0190702Y0074266D01*
X0191639Y0075203D01*
X0191639Y0096699D01*
X0193849Y0098909D01*
X0194967Y0098909D01*
X0196367Y0100309D01*
X0196367Y0102289D01*
X0194967Y0103690D01*
X0192986Y0103690D01*
X0191586Y0102289D01*
X0191586Y0101171D01*
X0191236Y0100821D02*
X0180619Y0100821D01*
X0180333Y0100023D02*
X0190437Y0100023D01*
X0189639Y0099224D02*
X0179828Y0099224D01*
X0179828Y0098426D02*
X0188840Y0098426D01*
X0188439Y0097627D02*
X0179828Y0097627D01*
X0179828Y0096829D02*
X0188439Y0096829D01*
X0188439Y0096030D02*
X0179828Y0096030D01*
X0179828Y0095232D02*
X0188439Y0095232D01*
X0188439Y0094433D02*
X0179828Y0094433D01*
X0179828Y0093635D02*
X0188439Y0093635D01*
X0188439Y0092836D02*
X0179828Y0092836D01*
X0179828Y0092038D02*
X0188439Y0092038D01*
X0188439Y0091239D02*
X0179828Y0091239D01*
X0179828Y0090441D02*
X0188439Y0090441D01*
X0188439Y0089642D02*
X0179828Y0089642D01*
X0179828Y0088844D02*
X0188439Y0088844D01*
X0188439Y0088045D02*
X0179828Y0088045D01*
X0179828Y0087247D02*
X0188439Y0087247D01*
X0188439Y0086448D02*
X0179828Y0086448D01*
X0179828Y0085650D02*
X0188439Y0085650D01*
X0188439Y0084851D02*
X0179828Y0084851D01*
X0179828Y0084053D02*
X0188439Y0084053D01*
X0188439Y0083254D02*
X0179828Y0083254D01*
X0179828Y0082456D02*
X0188439Y0082456D01*
X0188439Y0081657D02*
X0179828Y0081657D01*
X0179828Y0080859D02*
X0188439Y0080859D01*
X0188439Y0080060D02*
X0179828Y0080060D01*
X0179828Y0079262D02*
X0188439Y0079262D01*
X0188439Y0078463D02*
X0179828Y0078463D01*
X0179376Y0077665D02*
X0188439Y0077665D01*
X0188439Y0076866D02*
X0178578Y0076866D01*
X0177779Y0076068D02*
X0187978Y0076068D01*
X0187179Y0075269D02*
X0176981Y0075269D01*
X0175649Y0078463D02*
X0127139Y0078463D01*
X0126341Y0079262D02*
X0176448Y0079262D01*
X0176628Y0080060D02*
X0126285Y0080060D01*
X0126285Y0080859D02*
X0176628Y0080859D01*
X0176628Y0081657D02*
X0126285Y0081657D01*
X0126285Y0082456D02*
X0176628Y0082456D01*
X0176628Y0083254D02*
X0126285Y0083254D01*
X0126285Y0084053D02*
X0165874Y0084053D01*
X0165208Y0084851D02*
X0126285Y0084851D01*
X0126285Y0085650D02*
X0165208Y0085650D01*
X0164738Y0086448D02*
X0126285Y0086448D01*
X0126285Y0087247D02*
X0163939Y0087247D01*
X0163141Y0088045D02*
X0126285Y0088045D01*
X0126285Y0088844D02*
X0162342Y0088844D01*
X0161544Y0089642D02*
X0126285Y0089642D01*
X0126285Y0090441D02*
X0160745Y0090441D01*
X0159947Y0091239D02*
X0126285Y0091239D01*
X0126285Y0092038D02*
X0159148Y0092038D01*
X0158350Y0092836D02*
X0126285Y0092836D01*
X0123085Y0092836D02*
X0117934Y0092836D01*
X0117230Y0092038D02*
X0123085Y0092038D01*
X0123085Y0091239D02*
X0117230Y0091239D01*
X0117230Y0090441D02*
X0123085Y0090441D01*
X0123085Y0089642D02*
X0117230Y0089642D01*
X0117230Y0088844D02*
X0123085Y0088844D01*
X0123085Y0088045D02*
X0117230Y0088045D01*
X0117230Y0087247D02*
X0123085Y0087247D01*
X0123085Y0086448D02*
X0117230Y0086448D01*
X0117230Y0085650D02*
X0123085Y0085650D01*
X0123085Y0084851D02*
X0117230Y0084851D01*
X0117230Y0084053D02*
X0123085Y0084053D01*
X0123085Y0083254D02*
X0117230Y0083254D01*
X0117230Y0082456D02*
X0123085Y0082456D01*
X0123085Y0081657D02*
X0117230Y0081657D01*
X0117272Y0080859D02*
X0123085Y0080859D01*
X0123085Y0080060D02*
X0118071Y0080060D01*
X0118869Y0079262D02*
X0123085Y0079262D01*
X0123085Y0078463D02*
X0119668Y0078463D01*
X0120466Y0077665D02*
X0123412Y0077665D01*
X0124211Y0076866D02*
X0121265Y0076866D01*
X0122063Y0076068D02*
X0125009Y0076068D01*
X0125808Y0075269D02*
X0122862Y0075269D01*
X0123660Y0074470D02*
X0186381Y0074470D01*
X0186890Y0072717D02*
X0190039Y0075866D01*
X0190039Y0097362D01*
X0193976Y0101299D01*
X0192513Y0103217D02*
X0179691Y0103217D01*
X0180490Y0102418D02*
X0191715Y0102418D01*
X0193366Y0098426D02*
X0196707Y0098426D01*
X0196707Y0099224D02*
X0195282Y0099224D01*
X0196081Y0100023D02*
X0196707Y0100023D01*
X0196707Y0100821D02*
X0196367Y0100821D01*
X0196367Y0101620D02*
X0196707Y0101620D01*
X0196707Y0102418D02*
X0196238Y0102418D01*
X0196707Y0103217D02*
X0195439Y0103217D01*
X0199907Y0103217D02*
X0202219Y0103217D01*
X0202219Y0104015D02*
X0199907Y0104015D01*
X0199907Y0104814D02*
X0202219Y0104814D01*
X0202219Y0105612D02*
X0199907Y0105612D01*
X0199907Y0106411D02*
X0202219Y0106411D01*
X0202219Y0107209D02*
X0199907Y0107209D01*
X0199907Y0108008D02*
X0202219Y0108008D01*
X0202219Y0108806D02*
X0199907Y0108806D01*
X0199907Y0109605D02*
X0202219Y0109605D01*
X0202219Y0110403D02*
X0199907Y0110403D01*
X0199907Y0111202D02*
X0202219Y0111202D01*
X0202219Y0112001D02*
X0199907Y0112001D01*
X0199907Y0112799D02*
X0202219Y0112799D01*
X0202219Y0113598D02*
X0199907Y0113598D01*
X0199907Y0114396D02*
X0202219Y0114396D01*
X0202219Y0115195D02*
X0199907Y0115195D01*
X0199907Y0115993D02*
X0202219Y0115993D01*
X0202219Y0116792D02*
X0199907Y0116792D01*
X0199907Y0117590D02*
X0202219Y0117590D01*
X0202219Y0118389D02*
X0199907Y0118389D01*
X0199907Y0119187D02*
X0202219Y0119187D01*
X0202219Y0119986D02*
X0199907Y0119986D01*
X0199907Y0120784D02*
X0202219Y0120784D01*
X0202219Y0121583D02*
X0199907Y0121583D01*
X0199907Y0122381D02*
X0202219Y0122381D01*
X0202219Y0123180D02*
X0199907Y0123180D01*
X0199907Y0123978D02*
X0202219Y0123978D01*
X0202219Y0124777D02*
X0199907Y0124777D01*
X0199907Y0125575D02*
X0202219Y0125575D01*
X0202219Y0126374D02*
X0199907Y0126374D01*
X0199907Y0127172D02*
X0202219Y0127172D01*
X0202219Y0127971D02*
X0199907Y0127971D01*
X0199907Y0128769D02*
X0202219Y0128769D01*
X0202219Y0129568D02*
X0199907Y0129568D01*
X0199907Y0130366D02*
X0202219Y0130366D01*
X0202219Y0131165D02*
X0199907Y0131165D01*
X0199907Y0131963D02*
X0202219Y0131963D01*
X0202219Y0132762D02*
X0199907Y0132762D01*
X0199907Y0133560D02*
X0202219Y0133560D01*
X0202219Y0134359D02*
X0199907Y0134359D01*
X0199907Y0135157D02*
X0202219Y0135157D01*
X0202219Y0135956D02*
X0199907Y0135956D01*
X0199907Y0136754D02*
X0202219Y0136754D01*
X0202219Y0137553D02*
X0199907Y0137553D01*
X0199907Y0138351D02*
X0202219Y0138351D01*
X0202219Y0139150D02*
X0199907Y0139150D01*
X0199907Y0139948D02*
X0202219Y0139948D01*
X0202219Y0140747D02*
X0199907Y0140747D01*
X0199907Y0141545D02*
X0202219Y0141545D01*
X0202219Y0142344D02*
X0199907Y0142344D01*
X0199907Y0143142D02*
X0202219Y0143142D01*
X0202219Y0143941D02*
X0199907Y0143941D01*
X0199907Y0144739D02*
X0202219Y0144739D01*
X0202219Y0145538D02*
X0199907Y0145538D01*
X0199907Y0146337D02*
X0202219Y0146337D01*
X0202219Y0147135D02*
X0199907Y0147135D01*
X0199907Y0147934D02*
X0202219Y0147934D01*
X0202219Y0148732D02*
X0199907Y0148732D01*
X0199907Y0149531D02*
X0202219Y0149531D01*
X0202219Y0150329D02*
X0199907Y0150329D01*
X0199907Y0151128D02*
X0202219Y0151128D01*
X0202219Y0151926D02*
X0199907Y0151926D01*
X0199907Y0152725D02*
X0202219Y0152725D01*
X0202219Y0153523D02*
X0199907Y0153523D01*
X0199907Y0154322D02*
X0202219Y0154322D01*
X0202219Y0155120D02*
X0199907Y0155120D01*
X0199907Y0155919D02*
X0202219Y0155919D01*
X0202219Y0156717D02*
X0199907Y0156717D01*
X0199907Y0157516D02*
X0202219Y0157516D01*
X0202219Y0158314D02*
X0199907Y0158314D01*
X0199907Y0159113D02*
X0202219Y0159113D01*
X0202219Y0159911D02*
X0199907Y0159911D01*
X0199907Y0160710D02*
X0202219Y0160710D01*
X0202219Y0161508D02*
X0199907Y0161508D01*
X0199907Y0162307D02*
X0202219Y0162307D01*
X0202219Y0163105D02*
X0199907Y0163105D01*
X0199907Y0163904D02*
X0202219Y0163904D01*
X0202219Y0164702D02*
X0199907Y0164702D01*
X0199907Y0165501D02*
X0202219Y0165501D01*
X0202219Y0166299D02*
X0199907Y0166299D01*
X0199907Y0167098D02*
X0202219Y0167098D01*
X0202219Y0167896D02*
X0199907Y0167896D01*
X0199907Y0168240D02*
X0196185Y0171962D01*
X0195248Y0172899D01*
X0177489Y0172899D01*
X0176699Y0173690D01*
X0174718Y0173690D01*
X0173318Y0172289D01*
X0173318Y0170309D01*
X0174718Y0168909D01*
X0176699Y0168909D01*
X0177489Y0169699D01*
X0193923Y0169699D01*
X0196707Y0166915D01*
X0196707Y0067867D01*
X0163002Y0034162D01*
X0161884Y0034162D01*
X0160483Y0032762D01*
X0160483Y0030781D01*
X0161884Y0029381D01*
X0163864Y0029381D01*
X0165265Y0030781D01*
X0165265Y0031899D01*
X0198970Y0065605D01*
X0199907Y0066542D01*
X0199907Y0168240D01*
X0199453Y0168695D02*
X0202219Y0168695D01*
X0202219Y0169493D02*
X0198654Y0169493D01*
X0197856Y0170292D02*
X0202219Y0170292D01*
X0202219Y0171090D02*
X0197057Y0171090D01*
X0196258Y0171889D02*
X0201981Y0171889D01*
X0201183Y0172687D02*
X0195460Y0172687D01*
X0194585Y0171299D02*
X0198307Y0167578D01*
X0198307Y0067205D01*
X0162874Y0031772D01*
X0160483Y0032149D02*
X0158275Y0032149D01*
X0158275Y0031351D02*
X0160483Y0031351D01*
X0160713Y0030552D02*
X0158275Y0030552D01*
X0158275Y0029754D02*
X0161511Y0029754D01*
X0164237Y0029754D02*
X0186077Y0029754D01*
X0186077Y0030552D02*
X0165035Y0030552D01*
X0165265Y0031351D02*
X0186077Y0031351D01*
X0186077Y0032149D02*
X0165514Y0032149D01*
X0166313Y0032948D02*
X0186077Y0032948D01*
X0186077Y0033746D02*
X0167112Y0033746D01*
X0167910Y0034545D02*
X0186077Y0034545D01*
X0186077Y0035343D02*
X0168709Y0035343D01*
X0169507Y0036142D02*
X0186077Y0036142D01*
X0186077Y0036940D02*
X0170306Y0036940D01*
X0171104Y0037739D02*
X0186077Y0037739D01*
X0186077Y0038537D02*
X0171903Y0038537D01*
X0172701Y0039336D02*
X0186077Y0039336D01*
X0186077Y0040134D02*
X0173500Y0040134D01*
X0174298Y0040933D02*
X0186077Y0040933D01*
X0186077Y0041732D02*
X0175097Y0041732D01*
X0175895Y0042530D02*
X0186077Y0042530D01*
X0186077Y0043329D02*
X0176694Y0043329D01*
X0177492Y0044127D02*
X0186077Y0044127D01*
X0186077Y0044926D02*
X0178291Y0044926D01*
X0179089Y0045724D02*
X0186077Y0045724D01*
X0186077Y0046523D02*
X0179888Y0046523D01*
X0180686Y0047321D02*
X0186077Y0047321D01*
X0186077Y0048120D02*
X0181485Y0048120D01*
X0182283Y0048918D02*
X0186813Y0048918D01*
X0187611Y0049717D02*
X0183082Y0049717D01*
X0183880Y0050515D02*
X0188410Y0050515D01*
X0189208Y0051314D02*
X0184679Y0051314D01*
X0185477Y0052112D02*
X0190007Y0052112D01*
X0190805Y0052911D02*
X0186276Y0052911D01*
X0187074Y0053709D02*
X0191604Y0053709D01*
X0192402Y0054508D02*
X0187873Y0054508D01*
X0188671Y0055306D02*
X0193201Y0055306D01*
X0193999Y0056105D02*
X0189470Y0056105D01*
X0190268Y0056903D02*
X0194798Y0056903D01*
X0195596Y0057702D02*
X0191067Y0057702D01*
X0191865Y0058500D02*
X0196395Y0058500D01*
X0197194Y0059299D02*
X0192664Y0059299D01*
X0193462Y0060097D02*
X0197992Y0060097D01*
X0198791Y0060896D02*
X0194261Y0060896D01*
X0195059Y0061694D02*
X0199589Y0061694D01*
X0200388Y0062493D02*
X0195858Y0062493D01*
X0196656Y0063291D02*
X0201186Y0063291D01*
X0201985Y0064090D02*
X0197455Y0064090D01*
X0198253Y0064888D02*
X0202219Y0064888D01*
X0202219Y0065687D02*
X0199052Y0065687D01*
X0199850Y0066485D02*
X0202219Y0066485D01*
X0202219Y0067284D02*
X0199907Y0067284D01*
X0199907Y0068082D02*
X0202219Y0068082D01*
X0202219Y0068881D02*
X0199907Y0068881D01*
X0199907Y0069679D02*
X0202219Y0069679D01*
X0202219Y0070478D02*
X0199907Y0070478D01*
X0199907Y0071276D02*
X0202219Y0071276D01*
X0202219Y0072075D02*
X0199907Y0072075D01*
X0199907Y0072873D02*
X0202219Y0072873D01*
X0202219Y0073672D02*
X0199907Y0073672D01*
X0199907Y0074470D02*
X0202219Y0074470D01*
X0202219Y0075269D02*
X0199907Y0075269D01*
X0199907Y0076068D02*
X0202219Y0076068D01*
X0202219Y0076866D02*
X0199907Y0076866D01*
X0199907Y0077665D02*
X0202219Y0077665D01*
X0202219Y0078463D02*
X0199907Y0078463D01*
X0199907Y0079262D02*
X0202219Y0079262D01*
X0202219Y0080060D02*
X0199907Y0080060D01*
X0199907Y0080859D02*
X0202219Y0080859D01*
X0202219Y0081657D02*
X0199907Y0081657D01*
X0199907Y0082456D02*
X0202219Y0082456D01*
X0202219Y0083254D02*
X0199907Y0083254D01*
X0199907Y0084053D02*
X0202219Y0084053D01*
X0202219Y0084851D02*
X0199907Y0084851D01*
X0199907Y0085650D02*
X0202219Y0085650D01*
X0202219Y0086448D02*
X0199907Y0086448D01*
X0199907Y0087247D02*
X0202219Y0087247D01*
X0202219Y0088045D02*
X0199907Y0088045D01*
X0199907Y0088844D02*
X0202219Y0088844D01*
X0202219Y0089642D02*
X0199907Y0089642D01*
X0199907Y0090441D02*
X0202219Y0090441D01*
X0202219Y0091239D02*
X0199907Y0091239D01*
X0199907Y0092038D02*
X0202219Y0092038D01*
X0202219Y0092836D02*
X0199907Y0092836D01*
X0199907Y0093635D02*
X0202219Y0093635D01*
X0202219Y0094433D02*
X0199907Y0094433D01*
X0199907Y0095232D02*
X0202219Y0095232D01*
X0202219Y0096030D02*
X0199907Y0096030D01*
X0199907Y0096829D02*
X0202219Y0096829D01*
X0202219Y0097627D02*
X0199907Y0097627D01*
X0199907Y0098426D02*
X0202219Y0098426D01*
X0202219Y0099224D02*
X0199907Y0099224D01*
X0199907Y0100023D02*
X0202219Y0100023D01*
X0202219Y0100821D02*
X0199907Y0100821D01*
X0199907Y0101620D02*
X0202219Y0101620D01*
X0202219Y0102418D02*
X0199907Y0102418D01*
X0196707Y0097627D02*
X0192567Y0097627D01*
X0191769Y0096829D02*
X0196707Y0096829D01*
X0196707Y0096030D02*
X0191639Y0096030D01*
X0191639Y0095232D02*
X0196707Y0095232D01*
X0196707Y0094433D02*
X0191639Y0094433D01*
X0191639Y0093635D02*
X0196707Y0093635D01*
X0196707Y0092836D02*
X0191639Y0092836D01*
X0191639Y0092038D02*
X0196707Y0092038D01*
X0196707Y0091239D02*
X0191639Y0091239D01*
X0191639Y0090441D02*
X0196707Y0090441D01*
X0196707Y0089642D02*
X0191639Y0089642D01*
X0191639Y0088844D02*
X0196707Y0088844D01*
X0196707Y0088045D02*
X0191639Y0088045D01*
X0191639Y0087247D02*
X0196707Y0087247D01*
X0196707Y0086448D02*
X0191639Y0086448D01*
X0191639Y0085650D02*
X0196707Y0085650D01*
X0196707Y0084851D02*
X0191639Y0084851D01*
X0191639Y0084053D02*
X0196707Y0084053D01*
X0196707Y0083254D02*
X0191639Y0083254D01*
X0191639Y0082456D02*
X0196707Y0082456D01*
X0196707Y0081657D02*
X0191639Y0081657D01*
X0191639Y0080859D02*
X0196707Y0080859D01*
X0196707Y0080060D02*
X0191639Y0080060D01*
X0191639Y0079262D02*
X0196707Y0079262D01*
X0196707Y0078463D02*
X0191639Y0078463D01*
X0191639Y0077665D02*
X0196707Y0077665D01*
X0196707Y0076866D02*
X0191639Y0076866D01*
X0191639Y0076068D02*
X0196707Y0076068D01*
X0196707Y0075269D02*
X0191639Y0075269D01*
X0190906Y0074470D02*
X0196707Y0074470D01*
X0196707Y0073672D02*
X0192622Y0073672D01*
X0193421Y0072873D02*
X0196707Y0072873D01*
X0196707Y0072075D02*
X0194005Y0072075D01*
X0194005Y0071276D02*
X0196707Y0071276D01*
X0196707Y0070478D02*
X0194005Y0070478D01*
X0193375Y0069679D02*
X0196707Y0069679D01*
X0196707Y0068881D02*
X0191459Y0068881D01*
X0190660Y0068082D02*
X0196707Y0068082D01*
X0196124Y0067284D02*
X0116024Y0067284D01*
X0115225Y0068082D02*
X0118010Y0068082D01*
X0117211Y0068881D02*
X0114427Y0068881D01*
X0113628Y0069679D02*
X0116413Y0069679D01*
X0115614Y0070478D02*
X0112829Y0070478D01*
X0112031Y0071276D02*
X0114816Y0071276D01*
X0114017Y0072075D02*
X0111232Y0072075D01*
X0110434Y0072873D02*
X0113219Y0072873D01*
X0112420Y0073672D02*
X0109635Y0073672D01*
X0109362Y0074470D02*
X0111622Y0074470D01*
X0110823Y0075269D02*
X0109362Y0075269D01*
X0109362Y0076068D02*
X0110025Y0076068D01*
X0109699Y0076866D02*
X0109362Y0076866D01*
X0109362Y0077665D02*
X0109699Y0077665D01*
X0109699Y0078463D02*
X0109362Y0078463D01*
X0109362Y0079262D02*
X0109699Y0079262D01*
X0109699Y0080060D02*
X0109362Y0080060D01*
X0109362Y0080859D02*
X0109699Y0080859D01*
X0109699Y0081657D02*
X0109362Y0081657D01*
X0109362Y0082456D02*
X0109699Y0082456D01*
X0109699Y0083254D02*
X0109362Y0083254D01*
X0109362Y0084053D02*
X0109699Y0084053D01*
X0109699Y0084851D02*
X0109362Y0084851D01*
X0109362Y0085650D02*
X0109699Y0085650D01*
X0109699Y0086448D02*
X0109362Y0086448D01*
X0109362Y0087247D02*
X0109699Y0087247D01*
X0109699Y0088045D02*
X0109362Y0088045D01*
X0109362Y0088844D02*
X0109699Y0088844D01*
X0109699Y0089642D02*
X0109362Y0089642D01*
X0109362Y0090441D02*
X0109699Y0090441D01*
X0109699Y0091239D02*
X0109362Y0091239D01*
X0109362Y0092038D02*
X0109699Y0092038D01*
X0109699Y0092836D02*
X0109362Y0092836D01*
X0109362Y0093635D02*
X0109699Y0093635D01*
X0109699Y0094433D02*
X0109362Y0094433D01*
X0109362Y0095232D02*
X0109699Y0095232D01*
X0109699Y0096030D02*
X0109362Y0096030D01*
X0109362Y0096829D02*
X0109699Y0096829D01*
X0109932Y0097627D02*
X0109362Y0097627D01*
X0109362Y0098426D02*
X0110730Y0098426D01*
X0111529Y0099224D02*
X0109362Y0099224D01*
X0109362Y0100023D02*
X0112327Y0100023D01*
X0113126Y0100821D02*
X0109362Y0100821D01*
X0109362Y0101620D02*
X0113924Y0101620D01*
X0114723Y0102418D02*
X0109362Y0102418D01*
X0109362Y0103217D02*
X0115521Y0103217D01*
X0116320Y0104015D02*
X0109362Y0104015D01*
X0109362Y0104814D02*
X0123480Y0104814D01*
X0124685Y0102638D02*
X0117205Y0102638D01*
X0111299Y0096732D01*
X0111299Y0077056D01*
X0119182Y0069173D01*
X0189488Y0069173D01*
X0191614Y0071299D01*
X0189224Y0071276D02*
X0187712Y0071276D01*
X0188511Y0072075D02*
X0189224Y0072075D01*
X0189309Y0072873D02*
X0189808Y0072873D01*
X0190108Y0073672D02*
X0190606Y0073672D01*
X0186890Y0072717D02*
X0123152Y0072717D01*
X0115630Y0080238D01*
X0115630Y0092795D01*
X0121142Y0098307D01*
X0122807Y0100023D02*
X0129037Y0100023D01*
X0128594Y0100821D02*
X0126249Y0100821D01*
X0127048Y0101620D02*
X0128594Y0101620D01*
X0128594Y0102418D02*
X0127076Y0102418D01*
X0127076Y0103217D02*
X0129364Y0103217D01*
X0129484Y0099224D02*
X0123532Y0099224D01*
X0123532Y0098426D02*
X0129484Y0098426D01*
X0129484Y0097627D02*
X0123532Y0097627D01*
X0123369Y0096829D02*
X0123044Y0096829D01*
X0122571Y0096030D02*
X0122246Y0096030D01*
X0122294Y0095232D02*
X0120329Y0095232D01*
X0119531Y0094433D02*
X0122294Y0094433D01*
X0122433Y0093635D02*
X0118732Y0093635D01*
X0116602Y0096030D02*
X0112899Y0096030D01*
X0112899Y0095232D02*
X0115804Y0095232D01*
X0115005Y0094433D02*
X0112899Y0094433D01*
X0112899Y0093635D02*
X0114207Y0093635D01*
X0114030Y0092836D02*
X0112899Y0092836D01*
X0112899Y0092038D02*
X0114030Y0092038D01*
X0114030Y0091239D02*
X0112899Y0091239D01*
X0112899Y0090441D02*
X0114030Y0090441D01*
X0114030Y0089642D02*
X0112899Y0089642D01*
X0112899Y0088844D02*
X0114030Y0088844D01*
X0114030Y0088045D02*
X0112899Y0088045D01*
X0112899Y0087247D02*
X0114030Y0087247D01*
X0114030Y0086448D02*
X0112899Y0086448D01*
X0112899Y0085650D02*
X0114030Y0085650D01*
X0114030Y0084851D02*
X0112899Y0084851D01*
X0112899Y0084053D02*
X0114030Y0084053D01*
X0114030Y0083254D02*
X0112899Y0083254D01*
X0112899Y0082456D02*
X0114030Y0082456D01*
X0114030Y0081657D02*
X0112899Y0081657D01*
X0112899Y0080859D02*
X0114030Y0080859D01*
X0114030Y0080060D02*
X0112899Y0080060D01*
X0112899Y0079262D02*
X0114344Y0079262D01*
X0115142Y0078463D02*
X0112899Y0078463D01*
X0112953Y0077665D02*
X0115941Y0077665D01*
X0116739Y0076866D02*
X0113752Y0076866D01*
X0114550Y0076068D02*
X0117538Y0076068D01*
X0118336Y0075269D02*
X0115349Y0075269D01*
X0116147Y0074470D02*
X0119135Y0074470D01*
X0119933Y0073672D02*
X0116946Y0073672D01*
X0117744Y0072873D02*
X0120732Y0072873D01*
X0121530Y0072075D02*
X0118543Y0072075D01*
X0119341Y0071276D02*
X0122329Y0071276D01*
X0121552Y0072054D02*
X0121552Y0072054D01*
X0129437Y0061694D02*
X0006420Y0061694D01*
X0006420Y0060896D02*
X0128623Y0060896D01*
X0128066Y0060097D02*
X0006420Y0060097D01*
X0006420Y0059299D02*
X0127736Y0059299D01*
X0127603Y0058500D02*
X0006420Y0058500D01*
X0006420Y0057702D02*
X0127603Y0057702D01*
X0127776Y0056903D02*
X0006420Y0056903D01*
X0006420Y0056105D02*
X0128107Y0056105D01*
X0128720Y0055306D02*
X0006420Y0055306D01*
X0006420Y0054508D02*
X0129671Y0054508D01*
X0131748Y0046523D02*
X0132140Y0046523D01*
X0132140Y0045724D02*
X0130624Y0045724D01*
X0152272Y0064888D02*
X0193728Y0064888D01*
X0192929Y0064090D02*
X0153039Y0064090D01*
X0153837Y0063291D02*
X0192131Y0063291D01*
X0191332Y0062493D02*
X0154636Y0062493D01*
X0155434Y0061694D02*
X0190534Y0061694D01*
X0189735Y0060896D02*
X0156233Y0060896D01*
X0157031Y0060097D02*
X0188937Y0060097D01*
X0188138Y0059299D02*
X0157094Y0059299D01*
X0157094Y0058500D02*
X0187340Y0058500D01*
X0186541Y0057702D02*
X0157094Y0057702D01*
X0157094Y0056903D02*
X0185743Y0056903D01*
X0184944Y0056105D02*
X0157094Y0056105D01*
X0157094Y0055306D02*
X0184146Y0055306D01*
X0183347Y0054508D02*
X0157094Y0054508D01*
X0157094Y0053709D02*
X0182549Y0053709D01*
X0181750Y0052911D02*
X0157094Y0052911D01*
X0157094Y0052112D02*
X0180952Y0052112D01*
X0180153Y0051314D02*
X0157094Y0051314D01*
X0157094Y0050515D02*
X0179355Y0050515D01*
X0178556Y0049717D02*
X0157094Y0049717D01*
X0157094Y0048918D02*
X0177758Y0048918D01*
X0176959Y0048120D02*
X0157094Y0048120D01*
X0157094Y0047321D02*
X0176161Y0047321D01*
X0175362Y0046523D02*
X0157094Y0046523D01*
X0157094Y0045724D02*
X0174564Y0045724D01*
X0173765Y0044926D02*
X0157094Y0044926D01*
X0157094Y0044127D02*
X0172967Y0044127D01*
X0172168Y0043329D02*
X0157094Y0043329D01*
X0157276Y0042530D02*
X0171370Y0042530D01*
X0170571Y0041732D02*
X0158074Y0041732D01*
X0158275Y0040933D02*
X0169773Y0040933D01*
X0168974Y0040134D02*
X0158275Y0040134D01*
X0158275Y0039336D02*
X0168176Y0039336D01*
X0167377Y0038537D02*
X0158275Y0038537D01*
X0158275Y0037739D02*
X0166579Y0037739D01*
X0165780Y0036940D02*
X0158275Y0036940D01*
X0158275Y0036142D02*
X0164982Y0036142D01*
X0164183Y0035343D02*
X0158275Y0035343D01*
X0158275Y0034545D02*
X0163385Y0034545D01*
X0161468Y0033746D02*
X0158275Y0033746D01*
X0158275Y0032948D02*
X0160670Y0032948D01*
X0158275Y0028955D02*
X0186077Y0028955D01*
X0186077Y0028157D02*
X0158275Y0028157D01*
X0158275Y0027358D02*
X0186077Y0027358D01*
X0186077Y0026560D02*
X0158275Y0026560D01*
X0158275Y0025761D02*
X0186077Y0025761D01*
X0186077Y0024963D02*
X0184875Y0024963D01*
X0185673Y0024164D02*
X0186077Y0024164D01*
X0186077Y0023366D02*
X0185737Y0023366D01*
X0185737Y0022567D02*
X0186077Y0022567D01*
X0186077Y0021769D02*
X0185386Y0021769D01*
X0185767Y0020970D02*
X0184587Y0020970D01*
X0184969Y0020172D02*
X0182812Y0020172D01*
X0182014Y0019373D02*
X0184170Y0019373D01*
X0183372Y0018575D02*
X0181215Y0018575D01*
X0180417Y0017776D02*
X0182573Y0017776D01*
X0181775Y0016978D02*
X0179618Y0016978D01*
X0178820Y0016179D02*
X0180976Y0016179D01*
X0180178Y0015381D02*
X0178021Y0015381D01*
X0176407Y0018575D02*
X0160365Y0018575D01*
X0159566Y0019373D02*
X0177205Y0019373D01*
X0178004Y0020172D02*
X0158768Y0020172D01*
X0158275Y0020970D02*
X0178802Y0020970D01*
X0179601Y0021769D02*
X0158275Y0021769D01*
X0158275Y0022567D02*
X0180399Y0022567D01*
X0180956Y0023366D02*
X0158275Y0023366D01*
X0158275Y0024164D02*
X0181020Y0024164D01*
X0181818Y0024963D02*
X0158275Y0024963D01*
X0152272Y0065687D02*
X0194526Y0065687D01*
X0195325Y0066485D02*
X0151620Y0066485D01*
X0169323Y0084053D02*
X0176628Y0084053D01*
X0176628Y0084851D02*
X0169989Y0084851D01*
X0169989Y0085650D02*
X0176628Y0085650D01*
X0176628Y0086448D02*
X0169989Y0086448D01*
X0169441Y0087247D02*
X0176628Y0087247D01*
X0176628Y0088045D02*
X0168643Y0088045D01*
X0166585Y0088844D02*
X0176628Y0088844D01*
X0176628Y0089642D02*
X0165786Y0089642D01*
X0164988Y0090441D02*
X0176628Y0090441D01*
X0176628Y0091239D02*
X0164189Y0091239D01*
X0163391Y0092038D02*
X0176628Y0092038D01*
X0176628Y0092836D02*
X0162592Y0092836D01*
X0161794Y0093635D02*
X0176628Y0093635D01*
X0176628Y0094433D02*
X0160995Y0094433D01*
X0160197Y0095232D02*
X0176628Y0095232D01*
X0176628Y0096030D02*
X0159398Y0096030D01*
X0158600Y0096829D02*
X0176628Y0096829D01*
X0148676Y0106411D02*
X0144437Y0106411D01*
X0145186Y0107209D02*
X0148676Y0107209D01*
X0148676Y0108008D02*
X0145186Y0108008D01*
X0145186Y0108806D02*
X0148676Y0108806D01*
X0148676Y0109605D02*
X0144795Y0109605D01*
X0144795Y0110403D02*
X0148676Y0110403D01*
X0148676Y0111202D02*
X0144795Y0111202D01*
X0144795Y0112001D02*
X0148676Y0112001D01*
X0148676Y0112799D02*
X0144795Y0112799D01*
X0144795Y0113598D02*
X0148676Y0113598D01*
X0148676Y0114396D02*
X0144795Y0114396D01*
X0144795Y0115195D02*
X0148676Y0115195D01*
X0148676Y0115993D02*
X0144795Y0115993D01*
X0144795Y0116792D02*
X0148676Y0116792D01*
X0148676Y0117590D02*
X0144795Y0117590D01*
X0144795Y0118389D02*
X0148676Y0118389D01*
X0148676Y0119187D02*
X0144795Y0119187D01*
X0144795Y0119986D02*
X0148676Y0119986D01*
X0148676Y0120784D02*
X0144795Y0120784D01*
X0144795Y0121583D02*
X0148676Y0121583D01*
X0148676Y0122381D02*
X0144795Y0122381D01*
X0144795Y0123180D02*
X0148676Y0123180D01*
X0148676Y0123978D02*
X0144795Y0123978D01*
X0144795Y0124777D02*
X0148676Y0124777D01*
X0148676Y0125575D02*
X0144795Y0125575D01*
X0144795Y0126374D02*
X0148676Y0126374D01*
X0148676Y0127172D02*
X0144795Y0127172D01*
X0144795Y0127971D02*
X0148676Y0127971D01*
X0148676Y0128769D02*
X0144795Y0128769D01*
X0144795Y0129568D02*
X0148676Y0129568D01*
X0148676Y0130366D02*
X0144795Y0130366D01*
X0144860Y0131165D02*
X0148676Y0131165D01*
X0148676Y0131963D02*
X0145186Y0131963D01*
X0145186Y0132762D02*
X0148676Y0132762D01*
X0148676Y0133560D02*
X0145096Y0133560D01*
X0144297Y0134359D02*
X0148676Y0134359D01*
X0148676Y0135157D02*
X0006420Y0135157D01*
X0006420Y0134359D02*
X0141293Y0134359D01*
X0140495Y0133560D02*
X0006420Y0133560D01*
X0006420Y0132762D02*
X0140405Y0132762D01*
X0140405Y0131963D02*
X0006420Y0131963D01*
X0006420Y0131165D02*
X0140730Y0131165D01*
X0140795Y0130366D02*
X0006420Y0130366D01*
X0006420Y0129568D02*
X0140795Y0129568D01*
X0140795Y0128769D02*
X0006420Y0128769D01*
X0006420Y0127971D02*
X0140795Y0127971D01*
X0140795Y0127172D02*
X0006420Y0127172D01*
X0006420Y0126374D02*
X0140795Y0126374D01*
X0140795Y0125575D02*
X0006420Y0125575D01*
X0006420Y0124777D02*
X0140795Y0124777D01*
X0140795Y0123978D02*
X0006420Y0123978D01*
X0006420Y0123180D02*
X0140795Y0123180D01*
X0140795Y0122381D02*
X0006420Y0122381D01*
X0006420Y0121583D02*
X0140795Y0121583D01*
X0148676Y0135956D02*
X0006420Y0135956D01*
X0006420Y0136754D02*
X0148676Y0136754D01*
X0148676Y0139150D02*
X0115236Y0139150D01*
X0115236Y0139948D02*
X0148676Y0139948D01*
X0148044Y0140747D02*
X0115236Y0140747D01*
X0113636Y0140747D02*
X0006420Y0140747D01*
X0006420Y0141545D02*
X0113636Y0141545D01*
X0113636Y0142344D02*
X0006420Y0142344D01*
X0006420Y0143142D02*
X0113636Y0143142D01*
X0113636Y0143941D02*
X0006420Y0143941D01*
X0006420Y0144739D02*
X0113636Y0144739D01*
X0113636Y0145538D02*
X0006420Y0145538D01*
X0006420Y0146337D02*
X0113636Y0146337D01*
X0113636Y0147135D02*
X0006420Y0147135D01*
X0006420Y0147934D02*
X0113636Y0147934D01*
X0113636Y0148732D02*
X0006420Y0148732D01*
X0006420Y0149531D02*
X0113636Y0149531D01*
X0113636Y0150329D02*
X0006420Y0150329D01*
X0006420Y0151128D02*
X0113636Y0151128D01*
X0113636Y0151926D02*
X0006420Y0151926D01*
X0006420Y0152725D02*
X0113636Y0152725D01*
X0113636Y0153523D02*
X0006420Y0153523D01*
X0006420Y0154322D02*
X0113636Y0154322D01*
X0113636Y0155120D02*
X0006420Y0155120D01*
X0006420Y0155919D02*
X0113636Y0155919D01*
X0113636Y0156717D02*
X0006420Y0156717D01*
X0006420Y0157516D02*
X0113636Y0157516D01*
X0113636Y0158314D02*
X0006420Y0158314D01*
X0006420Y0159113D02*
X0113636Y0159113D01*
X0113636Y0159911D02*
X0006420Y0159911D01*
X0006420Y0160710D02*
X0113636Y0160710D01*
X0113636Y0161508D02*
X0006420Y0161508D01*
X0006420Y0162307D02*
X0113636Y0162307D01*
X0113636Y0163105D02*
X0006420Y0163105D01*
X0006420Y0163904D02*
X0113636Y0163904D01*
X0113636Y0164702D02*
X0006420Y0164702D01*
X0006420Y0165501D02*
X0113636Y0165501D01*
X0113636Y0166299D02*
X0006420Y0166299D01*
X0006420Y0167098D02*
X0113636Y0167098D01*
X0113636Y0167896D02*
X0006420Y0167896D01*
X0006420Y0168695D02*
X0113636Y0168695D01*
X0113636Y0169493D02*
X0006420Y0169493D01*
X0006420Y0170292D02*
X0113636Y0170292D01*
X0113636Y0171090D02*
X0006420Y0171090D01*
X0006420Y0171889D02*
X0113636Y0171889D01*
X0113636Y0172687D02*
X0006420Y0172687D01*
X0006420Y0173486D02*
X0113636Y0173486D01*
X0113636Y0174284D02*
X0006420Y0174284D01*
X0006420Y0175083D02*
X0113636Y0175083D01*
X0113636Y0175881D02*
X0006420Y0175881D01*
X0006420Y0176680D02*
X0113636Y0176680D01*
X0113636Y0177478D02*
X0006420Y0177478D01*
X0006420Y0178277D02*
X0113636Y0178277D01*
X0113636Y0179075D02*
X0006420Y0179075D01*
X0006420Y0179874D02*
X0113636Y0179874D01*
X0113636Y0180672D02*
X0006420Y0180672D01*
X0006420Y0181471D02*
X0113636Y0181471D01*
X0113636Y0182270D02*
X0006420Y0182270D01*
X0006420Y0183068D02*
X0113636Y0183068D01*
X0113636Y0183867D02*
X0006420Y0183867D01*
X0006420Y0184665D02*
X0113636Y0184665D01*
X0113636Y0185464D02*
X0006420Y0185464D01*
X0006420Y0186262D02*
X0113636Y0186262D01*
X0113636Y0187061D02*
X0006420Y0187061D01*
X0006420Y0187859D02*
X0113636Y0187859D01*
X0113636Y0188658D02*
X0006420Y0188658D01*
X0006420Y0189456D02*
X0113636Y0189456D01*
X0113636Y0190255D02*
X0006420Y0190255D01*
X0006420Y0191053D02*
X0022157Y0191053D01*
X0023232Y0190608D02*
X0026138Y0190608D01*
X0028823Y0191720D01*
X0030878Y0193775D01*
X0031991Y0196460D01*
X0031991Y0199367D01*
X0030878Y0202052D01*
X0028823Y0204107D01*
X0026138Y0205219D01*
X0023232Y0205219D01*
X0020547Y0204107D01*
X0018492Y0202052D01*
X0017380Y0199367D01*
X0017380Y0196460D01*
X0018492Y0193775D01*
X0020547Y0191720D01*
X0023232Y0190608D01*
X0020415Y0191852D02*
X0006420Y0191852D01*
X0006420Y0192650D02*
X0019617Y0192650D01*
X0018818Y0193449D02*
X0006420Y0193449D01*
X0006420Y0194247D02*
X0018296Y0194247D01*
X0017965Y0195046D02*
X0006420Y0195046D01*
X0006420Y0195844D02*
X0017635Y0195844D01*
X0017380Y0196643D02*
X0006420Y0196643D01*
X0006420Y0197441D02*
X0017380Y0197441D01*
X0017380Y0198240D02*
X0006438Y0198240D01*
X0006483Y0199038D02*
X0017380Y0199038D01*
X0017574Y0199837D02*
X0006528Y0199837D01*
X0006689Y0200635D02*
X0017905Y0200635D01*
X0018236Y0201434D02*
X0006871Y0201434D01*
X0007054Y0202232D02*
X0018672Y0202232D01*
X0019471Y0203031D02*
X0007236Y0203031D01*
X0007418Y0203829D02*
X0020269Y0203829D01*
X0021805Y0204628D02*
X0007773Y0204628D01*
X0008158Y0205426D02*
X0113636Y0205426D01*
X0113636Y0204628D02*
X0027565Y0204628D01*
X0029101Y0203829D02*
X0113636Y0203829D01*
X0113636Y0203031D02*
X0029899Y0203031D01*
X0030698Y0202232D02*
X0113636Y0202232D01*
X0113636Y0201434D02*
X0031134Y0201434D01*
X0031465Y0200635D02*
X0113636Y0200635D01*
X0113636Y0199837D02*
X0031796Y0199837D01*
X0031991Y0199038D02*
X0113636Y0199038D01*
X0113636Y0198240D02*
X0031991Y0198240D01*
X0031991Y0197441D02*
X0113636Y0197441D01*
X0113636Y0196643D02*
X0031991Y0196643D01*
X0031735Y0195844D02*
X0113636Y0195844D01*
X0113636Y0195046D02*
X0031405Y0195046D01*
X0031074Y0194247D02*
X0113636Y0194247D01*
X0113636Y0193449D02*
X0030552Y0193449D01*
X0029753Y0192650D02*
X0113636Y0192650D01*
X0113636Y0191852D02*
X0028955Y0191852D01*
X0027213Y0191053D02*
X0113636Y0191053D01*
X0115236Y0191053D02*
X0123488Y0191053D01*
X0124286Y0190255D02*
X0115236Y0190255D01*
X0115236Y0189456D02*
X0125085Y0189456D01*
X0125883Y0188658D02*
X0115236Y0188658D01*
X0115236Y0187859D02*
X0126682Y0187859D01*
X0127480Y0187061D02*
X0115236Y0187061D01*
X0115236Y0186262D02*
X0128279Y0186262D01*
X0129077Y0185464D02*
X0115236Y0185464D01*
X0115236Y0184665D02*
X0129876Y0184665D01*
X0130674Y0183867D02*
X0115236Y0183867D01*
X0115236Y0183068D02*
X0131473Y0183068D01*
X0132272Y0182270D02*
X0115236Y0182270D01*
X0115236Y0181471D02*
X0133070Y0181471D01*
X0133869Y0180672D02*
X0115236Y0180672D01*
X0115236Y0179874D02*
X0134667Y0179874D01*
X0135466Y0179075D02*
X0115236Y0179075D01*
X0115236Y0178277D02*
X0136264Y0178277D01*
X0137063Y0177478D02*
X0115236Y0177478D01*
X0115236Y0176680D02*
X0137255Y0176680D01*
X0137255Y0176451D02*
X0138655Y0175050D01*
X0139773Y0175050D01*
X0142770Y0172054D01*
X0142770Y0158356D01*
X0141980Y0157565D01*
X0141980Y0155585D01*
X0143380Y0154184D01*
X0145360Y0154184D01*
X0146761Y0155585D01*
X0146761Y0157565D01*
X0145970Y0158356D01*
X0145970Y0173379D01*
X0145033Y0174317D01*
X0145033Y0174317D01*
X0142036Y0177313D01*
X0142036Y0178431D01*
X0140636Y0179831D01*
X0139801Y0179831D01*
X0124910Y0194722D01*
X0124910Y0195545D01*
X0125501Y0196136D01*
X0125501Y0198116D01*
X0124100Y0199517D01*
X0122120Y0199517D01*
X0120720Y0198116D01*
X0120720Y0196136D01*
X0121310Y0195545D01*
X0121310Y0193231D01*
X0137255Y0177286D01*
X0137255Y0176451D01*
X0137824Y0175881D02*
X0115236Y0175881D01*
X0115236Y0175083D02*
X0138623Y0175083D01*
X0140539Y0174284D02*
X0115236Y0174284D01*
X0115236Y0173486D02*
X0141338Y0173486D01*
X0142137Y0172687D02*
X0115236Y0172687D01*
X0115236Y0171889D02*
X0142770Y0171889D01*
X0142770Y0171090D02*
X0115236Y0171090D01*
X0115236Y0170292D02*
X0142770Y0170292D01*
X0142770Y0169493D02*
X0115236Y0169493D01*
X0115236Y0168695D02*
X0142770Y0168695D01*
X0142770Y0167896D02*
X0115236Y0167896D01*
X0115236Y0167098D02*
X0142770Y0167098D01*
X0142770Y0166299D02*
X0115236Y0166299D01*
X0115236Y0165501D02*
X0142770Y0165501D01*
X0142770Y0164702D02*
X0115236Y0164702D01*
X0115236Y0163904D02*
X0142770Y0163904D01*
X0142770Y0163105D02*
X0115236Y0163105D01*
X0115236Y0162307D02*
X0142770Y0162307D01*
X0142770Y0161508D02*
X0115236Y0161508D01*
X0115236Y0160710D02*
X0142770Y0160710D01*
X0142770Y0159911D02*
X0115236Y0159911D01*
X0115236Y0159113D02*
X0142770Y0159113D01*
X0142729Y0158314D02*
X0115236Y0158314D01*
X0115236Y0157516D02*
X0141980Y0157516D01*
X0141980Y0156717D02*
X0115236Y0156717D01*
X0115236Y0155919D02*
X0141980Y0155919D01*
X0142444Y0155120D02*
X0115236Y0155120D01*
X0115236Y0154322D02*
X0143243Y0154322D01*
X0145498Y0154322D02*
X0163661Y0154322D01*
X0163661Y0155120D02*
X0146296Y0155120D01*
X0146761Y0155919D02*
X0163661Y0155919D01*
X0163661Y0156717D02*
X0146761Y0156717D01*
X0146761Y0157516D02*
X0163661Y0157516D01*
X0163661Y0158314D02*
X0146011Y0158314D01*
X0145970Y0159113D02*
X0163661Y0159113D01*
X0163661Y0159911D02*
X0145970Y0159911D01*
X0145970Y0160710D02*
X0163661Y0160710D01*
X0163661Y0161508D02*
X0145970Y0161508D01*
X0145970Y0162307D02*
X0163661Y0162307D01*
X0163661Y0163105D02*
X0145970Y0163105D01*
X0145970Y0163904D02*
X0163661Y0163904D01*
X0163661Y0164702D02*
X0145970Y0164702D01*
X0145970Y0165501D02*
X0163661Y0165501D01*
X0163661Y0166299D02*
X0145970Y0166299D01*
X0145970Y0167098D02*
X0163661Y0167098D01*
X0163661Y0167896D02*
X0145970Y0167896D01*
X0145970Y0168695D02*
X0163661Y0168695D01*
X0163661Y0169493D02*
X0145970Y0169493D01*
X0145970Y0170292D02*
X0163661Y0170292D01*
X0163661Y0171090D02*
X0145970Y0171090D01*
X0145970Y0171889D02*
X0163661Y0171889D01*
X0163661Y0172687D02*
X0145970Y0172687D01*
X0145863Y0173486D02*
X0163661Y0173486D01*
X0163661Y0174284D02*
X0145065Y0174284D01*
X0144266Y0175083D02*
X0163661Y0175083D01*
X0163661Y0175881D02*
X0143468Y0175881D01*
X0142669Y0176680D02*
X0163661Y0176680D01*
X0163661Y0177478D02*
X0142036Y0177478D01*
X0142036Y0178277D02*
X0163661Y0178277D01*
X0163661Y0179075D02*
X0141392Y0179075D01*
X0139758Y0179874D02*
X0163661Y0179874D01*
X0163661Y0180672D02*
X0138960Y0180672D01*
X0138161Y0181471D02*
X0163661Y0181471D01*
X0163661Y0182270D02*
X0137363Y0182270D01*
X0136564Y0183068D02*
X0163661Y0183068D01*
X0163661Y0183867D02*
X0135766Y0183867D01*
X0134967Y0184665D02*
X0163661Y0184665D01*
X0163661Y0185464D02*
X0134169Y0185464D01*
X0133370Y0186262D02*
X0163661Y0186262D01*
X0163661Y0187061D02*
X0132572Y0187061D01*
X0131773Y0187859D02*
X0157540Y0187859D01*
X0157750Y0187649D02*
X0157159Y0188239D01*
X0138113Y0188239D01*
X0137058Y0189294D01*
X0130829Y0195523D01*
X0129994Y0195523D01*
X0128594Y0196923D01*
X0128594Y0198904D01*
X0129994Y0200304D01*
X0131974Y0200304D01*
X0133375Y0198904D01*
X0133375Y0198068D01*
X0139604Y0191839D01*
X0156940Y0191839D01*
X0156940Y0196774D01*
X0155348Y0198366D01*
X0155121Y0198272D01*
X0153698Y0198272D01*
X0152383Y0198817D01*
X0151376Y0199824D01*
X0150831Y0201139D01*
X0150831Y0202562D01*
X0151376Y0203877D01*
X0152383Y0204884D01*
X0153698Y0205428D01*
X0155121Y0205428D01*
X0156436Y0204884D01*
X0157443Y0203877D01*
X0157987Y0202562D01*
X0157987Y0201139D01*
X0157893Y0200912D01*
X0160540Y0198265D01*
X0160540Y0191620D01*
X0161131Y0191030D01*
X0161131Y0189049D01*
X0159730Y0187649D01*
X0157750Y0187649D01*
X0159941Y0187859D02*
X0163661Y0187859D01*
X0163661Y0188658D02*
X0160739Y0188658D01*
X0161131Y0189456D02*
X0163661Y0189456D01*
X0163661Y0190255D02*
X0161131Y0190255D01*
X0161107Y0191053D02*
X0163661Y0191053D01*
X0163661Y0191852D02*
X0160540Y0191852D01*
X0160540Y0192650D02*
X0163661Y0192650D01*
X0163661Y0193449D02*
X0160540Y0193449D01*
X0160540Y0194247D02*
X0163661Y0194247D01*
X0163661Y0195046D02*
X0160540Y0195046D01*
X0160540Y0195844D02*
X0163661Y0195844D01*
X0163661Y0196643D02*
X0160540Y0196643D01*
X0160540Y0197441D02*
X0163661Y0197441D01*
X0163661Y0198240D02*
X0160540Y0198240D01*
X0159767Y0199038D02*
X0163661Y0199038D01*
X0163661Y0199837D02*
X0158969Y0199837D01*
X0158170Y0200635D02*
X0163661Y0200635D01*
X0163661Y0201434D02*
X0157987Y0201434D01*
X0157987Y0202232D02*
X0163661Y0202232D01*
X0163661Y0203031D02*
X0157793Y0203031D01*
X0157462Y0203829D02*
X0163661Y0203829D01*
X0163661Y0204628D02*
X0156692Y0204628D01*
X0155126Y0205426D02*
X0163661Y0205426D01*
X0163661Y0206225D02*
X0125790Y0206225D01*
X0125790Y0206042D02*
X0125382Y0205057D01*
X0124628Y0204303D01*
X0123643Y0203895D01*
X0122577Y0203895D01*
X0121592Y0204303D01*
X0120839Y0205057D01*
X0120431Y0206042D01*
X0120431Y0207108D01*
X0120839Y0208093D01*
X0121592Y0208846D01*
X0122577Y0209254D01*
X0123643Y0209254D01*
X0124628Y0208846D01*
X0125382Y0208093D01*
X0125790Y0207108D01*
X0125790Y0206042D01*
X0125535Y0205426D02*
X0145690Y0205426D01*
X0145827Y0205483D02*
X0145140Y0205198D01*
X0144521Y0204785D01*
X0143995Y0204259D01*
X0143581Y0203640D01*
X0143296Y0202952D01*
X0143151Y0202222D01*
X0143151Y0202139D01*
X0146640Y0202139D01*
X0146640Y0201561D01*
X0147218Y0201561D01*
X0147218Y0198072D01*
X0147301Y0198072D01*
X0148031Y0198218D01*
X0148719Y0198502D01*
X0149337Y0198916D01*
X0149864Y0199442D01*
X0150277Y0200061D01*
X0150562Y0200748D01*
X0150707Y0201478D01*
X0150707Y0201561D01*
X0147218Y0201561D01*
X0147218Y0202139D01*
X0150707Y0202139D01*
X0150707Y0202222D01*
X0150562Y0202952D01*
X0150277Y0203640D01*
X0149864Y0204259D01*
X0149337Y0204785D01*
X0148719Y0205198D01*
X0148031Y0205483D01*
X0147301Y0205628D01*
X0147218Y0205628D01*
X0147218Y0202139D01*
X0146640Y0202139D01*
X0146640Y0205628D01*
X0146557Y0205628D01*
X0145827Y0205483D01*
X0146640Y0205426D02*
X0147218Y0205426D01*
X0147218Y0204628D02*
X0146640Y0204628D01*
X0146640Y0203829D02*
X0147218Y0203829D01*
X0147218Y0203031D02*
X0146640Y0203031D01*
X0146640Y0202232D02*
X0147218Y0202232D01*
X0147218Y0201434D02*
X0146640Y0201434D01*
X0146640Y0201561D02*
X0146640Y0198072D01*
X0146557Y0198072D01*
X0145827Y0198218D01*
X0145140Y0198502D01*
X0144521Y0198916D01*
X0143995Y0199442D01*
X0143581Y0200061D01*
X0143296Y0200748D01*
X0143151Y0201478D01*
X0143151Y0201561D01*
X0146640Y0201561D01*
X0146640Y0200635D02*
X0147218Y0200635D01*
X0147218Y0199837D02*
X0146640Y0199837D01*
X0146640Y0199038D02*
X0147218Y0199038D01*
X0147218Y0198240D02*
X0146640Y0198240D01*
X0145774Y0198240D02*
X0133375Y0198240D01*
X0133240Y0199038D02*
X0144398Y0199038D01*
X0143731Y0199837D02*
X0132442Y0199837D01*
X0134002Y0197441D02*
X0156273Y0197441D01*
X0156940Y0196643D02*
X0134800Y0196643D01*
X0135599Y0195844D02*
X0156940Y0195844D01*
X0156940Y0195046D02*
X0136398Y0195046D01*
X0137196Y0194247D02*
X0156940Y0194247D01*
X0156940Y0193449D02*
X0137995Y0193449D01*
X0138793Y0192650D02*
X0156940Y0192650D01*
X0156940Y0191852D02*
X0139592Y0191852D01*
X0136896Y0189456D02*
X0130176Y0189456D01*
X0130975Y0188658D02*
X0137694Y0188658D01*
X0136097Y0190255D02*
X0129378Y0190255D01*
X0128579Y0191053D02*
X0135299Y0191053D01*
X0134500Y0191852D02*
X0127781Y0191852D01*
X0126982Y0192650D02*
X0133702Y0192650D01*
X0132903Y0193449D02*
X0126184Y0193449D01*
X0125385Y0194247D02*
X0132105Y0194247D01*
X0131306Y0195046D02*
X0124910Y0195046D01*
X0125209Y0195844D02*
X0129673Y0195844D01*
X0128874Y0196643D02*
X0125501Y0196643D01*
X0125501Y0197441D02*
X0128594Y0197441D01*
X0128594Y0198240D02*
X0125377Y0198240D01*
X0124579Y0199038D02*
X0128728Y0199038D01*
X0129527Y0199837D02*
X0115236Y0199837D01*
X0115236Y0200635D02*
X0143343Y0200635D01*
X0143160Y0201434D02*
X0115236Y0201434D01*
X0115236Y0202232D02*
X0143153Y0202232D01*
X0143329Y0203031D02*
X0115236Y0203031D01*
X0115236Y0203829D02*
X0143708Y0203829D01*
X0144364Y0204628D02*
X0124953Y0204628D01*
X0125790Y0207023D02*
X0163661Y0207023D01*
X0163661Y0207822D02*
X0125494Y0207822D01*
X0124854Y0208620D02*
X0163661Y0208620D01*
X0163661Y0209419D02*
X0115236Y0209419D01*
X0115236Y0210217D02*
X0163661Y0210217D01*
X0163661Y0211016D02*
X0115236Y0211016D01*
X0115236Y0211814D02*
X0163661Y0211814D01*
X0163661Y0212613D02*
X0115236Y0212613D01*
X0115236Y0213411D02*
X0163661Y0213411D01*
X0163661Y0214210D02*
X0115236Y0214210D01*
X0115236Y0215008D02*
X0163661Y0215008D01*
X0163661Y0215807D02*
X0115236Y0215807D01*
X0113636Y0215807D02*
X0021514Y0215807D01*
X0018351Y0215008D02*
X0113636Y0215008D01*
X0113636Y0214210D02*
X0016693Y0214210D01*
X0015034Y0213411D02*
X0113636Y0213411D01*
X0113636Y0212613D02*
X0014007Y0212613D01*
X0014967Y0213379D02*
X0014967Y0213379D01*
X0013005Y0211814D02*
X0113636Y0211814D01*
X0113636Y0211016D02*
X0012004Y0211016D01*
X0011282Y0210217D02*
X0113636Y0210217D01*
X0113636Y0209419D02*
X0010645Y0209419D01*
X0010008Y0208620D02*
X0113636Y0208620D01*
X0113636Y0207822D02*
X0009371Y0207822D01*
X0008927Y0207023D02*
X0113636Y0207023D01*
X0113636Y0206225D02*
X0008542Y0206225D01*
X0006420Y0139948D02*
X0113636Y0139948D01*
X0113636Y0139150D02*
X0006420Y0139150D01*
X0006420Y0138351D02*
X0113636Y0138351D01*
X0114279Y0137553D02*
X0006420Y0137553D01*
X0113658Y0096829D02*
X0117401Y0096829D01*
X0118199Y0097627D02*
X0114457Y0097627D01*
X0115255Y0098426D02*
X0118751Y0098426D01*
X0118751Y0099224D02*
X0116054Y0099224D01*
X0116853Y0100023D02*
X0119477Y0100023D01*
X0117651Y0100821D02*
X0123121Y0100821D01*
X0137702Y0145538D02*
X0163661Y0145538D01*
X0163661Y0146337D02*
X0137702Y0146337D01*
X0137702Y0147135D02*
X0163661Y0147135D01*
X0163661Y0147934D02*
X0137702Y0147934D01*
X0137702Y0148732D02*
X0163661Y0148732D01*
X0163661Y0149531D02*
X0137702Y0149531D01*
X0137962Y0150329D02*
X0163661Y0150329D01*
X0163661Y0151128D02*
X0138493Y0151128D01*
X0138493Y0151926D02*
X0163661Y0151926D01*
X0163661Y0152725D02*
X0138493Y0152725D01*
X0137810Y0153523D02*
X0163661Y0153523D01*
X0165261Y0153523D02*
X0196707Y0153523D01*
X0196707Y0152725D02*
X0165261Y0152725D01*
X0165261Y0151926D02*
X0196707Y0151926D01*
X0196707Y0151128D02*
X0165261Y0151128D01*
X0165261Y0150329D02*
X0196707Y0150329D01*
X0196707Y0149531D02*
X0165261Y0149531D01*
X0165261Y0148732D02*
X0196707Y0148732D01*
X0196707Y0147934D02*
X0165261Y0147934D01*
X0165261Y0147135D02*
X0196707Y0147135D01*
X0196707Y0146337D02*
X0165261Y0146337D01*
X0165261Y0145538D02*
X0196707Y0145538D01*
X0196707Y0144739D02*
X0165261Y0144739D01*
X0165261Y0143941D02*
X0196707Y0143941D01*
X0196707Y0143142D02*
X0165261Y0143142D01*
X0165261Y0142344D02*
X0196707Y0142344D01*
X0196707Y0141545D02*
X0165261Y0141545D01*
X0165261Y0140747D02*
X0196707Y0140747D01*
X0196707Y0139948D02*
X0165261Y0139948D01*
X0165261Y0139150D02*
X0196707Y0139150D01*
X0196707Y0138351D02*
X0165261Y0138351D01*
X0164619Y0137553D02*
X0196707Y0137553D01*
X0196707Y0154322D02*
X0165261Y0154322D01*
X0165261Y0155120D02*
X0196707Y0155120D01*
X0196707Y0155919D02*
X0165261Y0155919D01*
X0165261Y0156717D02*
X0196707Y0156717D01*
X0196707Y0157516D02*
X0165261Y0157516D01*
X0165261Y0158314D02*
X0196707Y0158314D01*
X0196707Y0159113D02*
X0165261Y0159113D01*
X0165261Y0159911D02*
X0196707Y0159911D01*
X0196707Y0160710D02*
X0165261Y0160710D01*
X0165261Y0161508D02*
X0196707Y0161508D01*
X0196707Y0162307D02*
X0165261Y0162307D01*
X0165261Y0163105D02*
X0196707Y0163105D01*
X0196707Y0163904D02*
X0165261Y0163904D01*
X0165261Y0164702D02*
X0196707Y0164702D01*
X0196707Y0165501D02*
X0165261Y0165501D01*
X0165261Y0166299D02*
X0196707Y0166299D01*
X0196524Y0167098D02*
X0165261Y0167098D01*
X0165261Y0167896D02*
X0195726Y0167896D01*
X0194927Y0168695D02*
X0165261Y0168695D01*
X0165261Y0169493D02*
X0174134Y0169493D01*
X0173335Y0170292D02*
X0165261Y0170292D01*
X0165261Y0171090D02*
X0173318Y0171090D01*
X0173318Y0171889D02*
X0165261Y0171889D01*
X0165261Y0172687D02*
X0173716Y0172687D01*
X0174515Y0173486D02*
X0165261Y0173486D01*
X0165261Y0174284D02*
X0199586Y0174284D01*
X0200384Y0173486D02*
X0176903Y0173486D01*
X0175709Y0171299D02*
X0194585Y0171299D01*
X0194129Y0169493D02*
X0177284Y0169493D01*
X0176866Y0179075D02*
X0194795Y0179075D01*
X0195593Y0178277D02*
X0165261Y0178277D01*
X0165261Y0179075D02*
X0174552Y0179075D01*
X0173753Y0179874D02*
X0165261Y0179874D01*
X0165261Y0180672D02*
X0173318Y0180672D01*
X0173318Y0181471D02*
X0165261Y0181471D01*
X0165261Y0182270D02*
X0173318Y0182270D01*
X0174097Y0183068D02*
X0165261Y0183068D01*
X0165261Y0183867D02*
X0216179Y0183867D01*
X0216179Y0184665D02*
X0165261Y0184665D01*
X0165261Y0185464D02*
X0216179Y0185464D01*
X0216179Y0186262D02*
X0165261Y0186262D01*
X0165261Y0187061D02*
X0216179Y0187061D01*
X0216179Y0187859D02*
X0165261Y0187859D01*
X0165261Y0188658D02*
X0216179Y0188658D01*
X0216179Y0189456D02*
X0165261Y0189456D01*
X0165261Y0190255D02*
X0216179Y0190255D01*
X0216179Y0191053D02*
X0200441Y0191053D01*
X0199367Y0190608D02*
X0202052Y0191720D01*
X0204107Y0193775D01*
X0205219Y0196460D01*
X0205219Y0199367D01*
X0204107Y0202052D01*
X0202052Y0204107D01*
X0199367Y0205219D01*
X0196460Y0205219D01*
X0193775Y0204107D01*
X0191720Y0202052D01*
X0190608Y0199367D01*
X0190608Y0196460D01*
X0191720Y0193775D01*
X0193775Y0191720D01*
X0196460Y0190608D01*
X0199367Y0190608D01*
X0202183Y0191852D02*
X0216179Y0191852D01*
X0216179Y0192650D02*
X0202982Y0192650D01*
X0203780Y0193449D02*
X0216179Y0193449D01*
X0216179Y0194247D02*
X0204302Y0194247D01*
X0204633Y0195046D02*
X0216179Y0195046D01*
X0216179Y0195844D02*
X0204964Y0195844D01*
X0205219Y0196643D02*
X0216179Y0196643D01*
X0216179Y0197441D02*
X0205219Y0197441D01*
X0205219Y0198240D02*
X0216160Y0198240D01*
X0216116Y0199038D02*
X0205219Y0199038D01*
X0205024Y0199837D02*
X0216071Y0199837D01*
X0215909Y0200635D02*
X0204693Y0200635D01*
X0204363Y0201434D02*
X0215727Y0201434D01*
X0215545Y0202232D02*
X0203926Y0202232D01*
X0203128Y0203031D02*
X0215363Y0203031D01*
X0215180Y0203829D02*
X0202329Y0203829D01*
X0200793Y0204628D02*
X0214825Y0204628D01*
X0214441Y0205426D02*
X0165261Y0205426D01*
X0165261Y0204628D02*
X0195033Y0204628D01*
X0193498Y0203829D02*
X0165261Y0203829D01*
X0165261Y0203031D02*
X0192699Y0203031D01*
X0191901Y0202232D02*
X0165261Y0202232D01*
X0165261Y0201434D02*
X0191464Y0201434D01*
X0191133Y0200635D02*
X0165261Y0200635D01*
X0165261Y0199837D02*
X0190803Y0199837D01*
X0190608Y0199038D02*
X0165261Y0199038D01*
X0165261Y0198240D02*
X0190608Y0198240D01*
X0190608Y0197441D02*
X0165261Y0197441D01*
X0165261Y0196643D02*
X0190608Y0196643D01*
X0190863Y0195844D02*
X0165261Y0195844D01*
X0165261Y0195046D02*
X0191194Y0195046D01*
X0191525Y0194247D02*
X0165261Y0194247D01*
X0165261Y0193449D02*
X0192047Y0193449D01*
X0192845Y0192650D02*
X0165261Y0192650D01*
X0165261Y0191852D02*
X0193644Y0191852D01*
X0195385Y0191053D02*
X0165261Y0191053D01*
X0155475Y0198240D02*
X0148084Y0198240D01*
X0149460Y0199038D02*
X0152162Y0199038D01*
X0151371Y0199837D02*
X0150127Y0199837D01*
X0150515Y0200635D02*
X0151040Y0200635D01*
X0150831Y0201434D02*
X0150698Y0201434D01*
X0150705Y0202232D02*
X0150831Y0202232D01*
X0151026Y0203031D02*
X0150529Y0203031D01*
X0150151Y0203829D02*
X0151356Y0203829D01*
X0152127Y0204628D02*
X0149495Y0204628D01*
X0148168Y0205426D02*
X0153693Y0205426D01*
X0165261Y0206225D02*
X0214056Y0206225D01*
X0213672Y0207023D02*
X0165261Y0207023D01*
X0165261Y0207822D02*
X0213227Y0207822D01*
X0212590Y0208620D02*
X0165261Y0208620D01*
X0165261Y0209419D02*
X0211953Y0209419D01*
X0211317Y0210217D02*
X0165261Y0210217D01*
X0165261Y0211016D02*
X0210594Y0211016D01*
X0209593Y0211814D02*
X0165261Y0211814D01*
X0165261Y0212613D02*
X0208592Y0212613D01*
X0207564Y0213411D02*
X0165261Y0213411D01*
X0165261Y0214210D02*
X0205906Y0214210D01*
X0204248Y0215008D02*
X0165261Y0215008D01*
X0165261Y0215807D02*
X0201084Y0215807D01*
X0196392Y0177478D02*
X0165261Y0177478D01*
X0165261Y0176680D02*
X0197190Y0176680D01*
X0197989Y0175881D02*
X0165261Y0175881D01*
X0165261Y0175083D02*
X0198787Y0175083D01*
X0144370Y0172717D02*
X0144370Y0156575D01*
X0144370Y0172717D02*
X0139646Y0177441D01*
X0122689Y0191852D02*
X0115236Y0191852D01*
X0115236Y0192650D02*
X0121891Y0192650D01*
X0121310Y0193449D02*
X0115236Y0193449D01*
X0115236Y0194247D02*
X0121310Y0194247D01*
X0121310Y0195046D02*
X0115236Y0195046D01*
X0115236Y0195844D02*
X0121011Y0195844D01*
X0120720Y0196643D02*
X0115236Y0196643D01*
X0115236Y0197441D02*
X0120720Y0197441D01*
X0120843Y0198240D02*
X0115236Y0198240D01*
X0115236Y0199038D02*
X0121642Y0199038D01*
X0121268Y0204628D02*
X0115236Y0204628D01*
X0115236Y0205426D02*
X0120686Y0205426D01*
X0120431Y0206225D02*
X0115236Y0206225D01*
X0115236Y0207023D02*
X0120431Y0207023D01*
X0120727Y0207822D02*
X0115236Y0207822D01*
X0115236Y0208620D02*
X0121366Y0208620D01*
D15*
X0117992Y0206575D03*
X0116417Y0215236D03*
X0123110Y0197126D03*
X0126654Y0197126D03*
X0129016Y0193976D03*
X0130984Y0197913D03*
X0134921Y0197913D03*
X0139646Y0186102D03*
X0147913Y0186102D03*
X0147126Y0193189D03*
X0155787Y0186102D03*
X0158740Y0190039D03*
X0161693Y0186102D03*
X0147126Y0177441D03*
X0147126Y0169961D03*
X0147126Y0161693D03*
X0144370Y0156575D03*
X0147520Y0154213D03*
X0155984Y0153819D03*
X0162480Y0162087D03*
X0162480Y0169961D03*
X0175709Y0171299D03*
X0175709Y0181299D03*
X0195551Y0186102D03*
X0195551Y0176260D03*
X0195551Y0166417D03*
X0201063Y0166417D03*
X0206575Y0166417D03*
X0206575Y0156181D03*
X0201063Y0156181D03*
X0195551Y0156181D03*
X0204213Y0181378D03*
X0167205Y0136102D03*
X0162480Y0140039D03*
X0167205Y0129016D03*
X0167205Y0121142D03*
X0167205Y0113661D03*
X0167205Y0106575D03*
X0167205Y0096339D03*
X0167598Y0085709D03*
X0175472Y0086496D03*
X0180984Y0086496D03*
X0180197Y0076260D03*
X0191614Y0071299D03*
X0192008Y0066417D03*
X0186102Y0060118D03*
X0192008Y0056181D03*
X0201063Y0056181D03*
X0201063Y0066417D03*
X0206575Y0066417D03*
X0206575Y0076260D03*
X0201063Y0076260D03*
X0194764Y0076260D03*
X0194764Y0096339D03*
X0193976Y0101299D03*
X0191614Y0106181D03*
X0182953Y0106575D03*
X0178228Y0101299D03*
X0191614Y0116417D03*
X0184134Y0121535D03*
X0185709Y0129409D03*
X0201063Y0096339D03*
X0206575Y0096339D03*
X0170748Y0066417D03*
X0166811Y0062283D03*
X0153819Y0066417D03*
X0149882Y0064843D03*
X0145945Y0061693D03*
X0145945Y0047913D03*
X0138858Y0049094D03*
X0136496Y0042795D03*
X0140433Y0038858D03*
X0143583Y0033346D03*
X0135709Y0025472D03*
X0127441Y0030591D03*
X0130984Y0037677D03*
X0127047Y0042795D03*
X0120157Y0025866D03*
X0126654Y0013661D03*
X0123110Y0009724D03*
X0153819Y0014843D03*
X0161693Y0019370D03*
X0162874Y0027441D03*
X0162874Y0031772D03*
X0167598Y0032165D03*
X0163661Y0036890D03*
X0167205Y0041220D03*
X0172717Y0046339D03*
X0181772Y0046339D03*
X0191220Y0046339D03*
X0190433Y0034528D03*
X0183346Y0027047D03*
X0183346Y0023110D03*
X0184528Y0013268D03*
X0157756Y0045551D03*
X0153819Y0030197D03*
X0123504Y0061693D03*
X0117992Y0064843D03*
X0116417Y0068386D03*
X0120354Y0071929D03*
X0124291Y0075472D03*
X0128228Y0079016D03*
X0132953Y0089646D03*
X0136594Y0093209D03*
X0136594Y0097894D03*
X0141122Y0097894D03*
X0141122Y0093209D03*
X0144764Y0089646D03*
X0138504Y0081063D03*
X0152638Y0079016D03*
X0156969Y0081772D03*
X0156181Y0090827D03*
X0153425Y0097913D03*
X0150276Y0099488D03*
X0143976Y0104606D03*
X0142795Y0108150D03*
X0133150Y0104213D03*
X0130984Y0101457D03*
X0128228Y0103425D03*
X0124685Y0102638D03*
X0122717Y0105394D03*
X0120354Y0110906D03*
X0120354Y0118386D03*
X0118780Y0121929D03*
X0129016Y0118780D03*
X0134528Y0125079D03*
X0130984Y0129803D03*
X0139646Y0129016D03*
X0142795Y0132480D03*
X0139646Y0136102D03*
X0139646Y0139843D03*
X0147520Y0139843D03*
X0147520Y0136299D03*
X0153031Y0136102D03*
X0153031Y0139843D03*
X0147520Y0145157D03*
X0138661Y0149488D03*
X0136102Y0151850D03*
X0138858Y0154213D03*
X0132559Y0153425D03*
X0130984Y0146339D03*
X0126260Y0141614D03*
X0116417Y0140433D03*
X0139646Y0121535D03*
X0146732Y0122717D03*
X0146732Y0129016D03*
X0153031Y0129016D03*
X0153031Y0122717D03*
X0156575Y0116811D03*
X0153425Y0110906D03*
X0157756Y0102638D03*
X0124685Y0094764D03*
X0121142Y0094764D03*
X0121142Y0098307D03*
X0117598Y0098701D03*
X0113740Y0094764D03*
X0112087Y0101457D03*
X0104213Y0101850D03*
X0121142Y0089252D03*
X0104213Y0074291D03*
X0113268Y0062874D03*
X0126654Y0168386D03*
X0133740Y0168780D03*
X0138858Y0169961D03*
X0139646Y0177441D03*
X0133740Y0176654D03*
X0126654Y0184921D03*
X0123504Y0189252D03*
X0162480Y0215236D03*
D16*
X0142795Y0132480D02*
X0142795Y0108150D01*
X0130591Y0108150D01*
X0120354Y0118386D01*
X0114449Y0118386D01*
X0107362Y0111299D01*
X0107362Y0073117D01*
X0115636Y0064843D01*
X0117992Y0064843D01*
X0145551Y0064843D01*
X0149882Y0064843D01*
D17*
X0155394Y0059331D01*
X0155394Y0042008D01*
X0156575Y0040827D01*
X0156575Y0019961D01*
X0159724Y0016811D01*
X0177047Y0016811D01*
X0183346Y0023110D01*
D18*
X0167598Y0085709D02*
X0157756Y0095551D01*
X0132559Y0095551D01*
X0130984Y0097126D01*
X0130984Y0101457D01*
D19*
X0139646Y0177441D02*
X0123110Y0193976D01*
X0123110Y0197126D01*
X0130984Y0197913D02*
X0138858Y0190039D01*
X0158740Y0190039D01*
X0158740Y0197520D01*
X0154409Y0201850D01*
M02*
