G75*
%MOIN*%
%OFA0B0*%
%FSLAX25Y25*%
%IPPOS*%
%LPD*%
%AMOC8*
5,1,8,0,0,1.08239X$1,22.5*
%
%ADD10C,0.00039*%
%ADD11C,0.00000*%
%ADD12C,0.12211*%
%ADD13R,0.12400X0.04900*%
%ADD14C,0.01187*%
%ADD15R,0.07487X0.07487*%
%ADD16C,0.05912*%
%ADD17C,0.06337*%
%ADD18C,0.00987*%
%ADD19C,0.05156*%
%ADD20R,0.03943X0.03550*%
%ADD21R,0.04731X0.04337*%
%ADD22R,0.04337X0.04731*%
%ADD23C,0.02959*%
%ADD24R,0.02959X0.02546*%
%ADD25C,0.01600*%
D10*
X0005000Y0024685D02*
X0005000Y0197913D01*
X0005006Y0198389D01*
X0005023Y0198864D01*
X0005052Y0199339D01*
X0005092Y0199813D01*
X0005144Y0200286D01*
X0005207Y0200757D01*
X0005281Y0201227D01*
X0005367Y0201695D01*
X0005464Y0202161D01*
X0005572Y0202624D01*
X0005691Y0203084D01*
X0005822Y0203542D01*
X0005963Y0203996D01*
X0006116Y0204447D01*
X0006279Y0204893D01*
X0006453Y0205336D01*
X0006638Y0205774D01*
X0006833Y0206208D01*
X0007039Y0206637D01*
X0007255Y0207061D01*
X0007481Y0207480D01*
X0007717Y0207893D01*
X0007963Y0208300D01*
X0008219Y0208701D01*
X0008485Y0209095D01*
X0008760Y0209484D01*
X0009044Y0209865D01*
X0009337Y0210239D01*
X0009639Y0210607D01*
X0009951Y0210967D01*
X0010270Y0211319D01*
X0010598Y0211663D01*
X0010935Y0212000D01*
X0011279Y0212328D01*
X0011631Y0212647D01*
X0011991Y0212959D01*
X0012359Y0213261D01*
X0012733Y0213554D01*
X0013114Y0213838D01*
X0013503Y0214113D01*
X0013897Y0214379D01*
X0014298Y0214635D01*
X0014705Y0214881D01*
X0015118Y0215117D01*
X0015537Y0215343D01*
X0015961Y0215559D01*
X0016390Y0215765D01*
X0016824Y0215960D01*
X0017262Y0216145D01*
X0017705Y0216319D01*
X0018151Y0216482D01*
X0018602Y0216635D01*
X0019056Y0216776D01*
X0019514Y0216907D01*
X0019974Y0217026D01*
X0020437Y0217134D01*
X0020903Y0217231D01*
X0021371Y0217317D01*
X0021841Y0217391D01*
X0022312Y0217454D01*
X0022785Y0217506D01*
X0023259Y0217546D01*
X0023734Y0217575D01*
X0024209Y0217592D01*
X0024685Y0217598D01*
X0197913Y0217598D01*
X0198389Y0217592D01*
X0198864Y0217575D01*
X0199339Y0217546D01*
X0199813Y0217506D01*
X0200286Y0217454D01*
X0200757Y0217391D01*
X0201227Y0217317D01*
X0201695Y0217231D01*
X0202161Y0217134D01*
X0202624Y0217026D01*
X0203084Y0216907D01*
X0203542Y0216776D01*
X0203996Y0216635D01*
X0204447Y0216482D01*
X0204893Y0216319D01*
X0205336Y0216145D01*
X0205774Y0215960D01*
X0206208Y0215765D01*
X0206637Y0215559D01*
X0207061Y0215343D01*
X0207480Y0215117D01*
X0207893Y0214881D01*
X0208300Y0214635D01*
X0208701Y0214379D01*
X0209095Y0214113D01*
X0209484Y0213838D01*
X0209865Y0213554D01*
X0210239Y0213261D01*
X0210607Y0212959D01*
X0210967Y0212647D01*
X0211319Y0212328D01*
X0211663Y0212000D01*
X0212000Y0211663D01*
X0212328Y0211319D01*
X0212647Y0210967D01*
X0212959Y0210607D01*
X0213261Y0210239D01*
X0213554Y0209865D01*
X0213838Y0209484D01*
X0214113Y0209095D01*
X0214379Y0208701D01*
X0214635Y0208300D01*
X0214881Y0207893D01*
X0215117Y0207480D01*
X0215343Y0207061D01*
X0215559Y0206637D01*
X0215765Y0206208D01*
X0215960Y0205774D01*
X0216145Y0205336D01*
X0216319Y0204893D01*
X0216482Y0204447D01*
X0216635Y0203996D01*
X0216776Y0203542D01*
X0216907Y0203084D01*
X0217026Y0202624D01*
X0217134Y0202161D01*
X0217231Y0201695D01*
X0217317Y0201227D01*
X0217391Y0200757D01*
X0217454Y0200286D01*
X0217506Y0199813D01*
X0217546Y0199339D01*
X0217575Y0198864D01*
X0217592Y0198389D01*
X0217598Y0197913D01*
X0217598Y0024685D01*
X0217592Y0024209D01*
X0217575Y0023734D01*
X0217546Y0023259D01*
X0217506Y0022785D01*
X0217454Y0022312D01*
X0217391Y0021841D01*
X0217317Y0021371D01*
X0217231Y0020903D01*
X0217134Y0020437D01*
X0217026Y0019974D01*
X0216907Y0019514D01*
X0216776Y0019056D01*
X0216635Y0018602D01*
X0216482Y0018151D01*
X0216319Y0017705D01*
X0216145Y0017262D01*
X0215960Y0016824D01*
X0215765Y0016390D01*
X0215559Y0015961D01*
X0215343Y0015537D01*
X0215117Y0015118D01*
X0214881Y0014705D01*
X0214635Y0014298D01*
X0214379Y0013897D01*
X0214113Y0013503D01*
X0213838Y0013114D01*
X0213554Y0012733D01*
X0213261Y0012359D01*
X0212959Y0011991D01*
X0212647Y0011631D01*
X0212328Y0011279D01*
X0212000Y0010935D01*
X0211663Y0010598D01*
X0211319Y0010270D01*
X0210967Y0009951D01*
X0210607Y0009639D01*
X0210239Y0009337D01*
X0209865Y0009044D01*
X0209484Y0008760D01*
X0209095Y0008485D01*
X0208701Y0008219D01*
X0208300Y0007963D01*
X0207893Y0007717D01*
X0207480Y0007481D01*
X0207061Y0007255D01*
X0206637Y0007039D01*
X0206208Y0006833D01*
X0205774Y0006638D01*
X0205336Y0006453D01*
X0204893Y0006279D01*
X0204447Y0006116D01*
X0203996Y0005963D01*
X0203542Y0005822D01*
X0203084Y0005691D01*
X0202624Y0005572D01*
X0202161Y0005464D01*
X0201695Y0005367D01*
X0201227Y0005281D01*
X0200757Y0005207D01*
X0200286Y0005144D01*
X0199813Y0005092D01*
X0199339Y0005052D01*
X0198864Y0005023D01*
X0198389Y0005006D01*
X0197913Y0005000D01*
X0024685Y0005000D01*
X0024209Y0005006D01*
X0023734Y0005023D01*
X0023259Y0005052D01*
X0022785Y0005092D01*
X0022312Y0005144D01*
X0021841Y0005207D01*
X0021371Y0005281D01*
X0020903Y0005367D01*
X0020437Y0005464D01*
X0019974Y0005572D01*
X0019514Y0005691D01*
X0019056Y0005822D01*
X0018602Y0005963D01*
X0018151Y0006116D01*
X0017705Y0006279D01*
X0017262Y0006453D01*
X0016824Y0006638D01*
X0016390Y0006833D01*
X0015961Y0007039D01*
X0015537Y0007255D01*
X0015118Y0007481D01*
X0014705Y0007717D01*
X0014298Y0007963D01*
X0013897Y0008219D01*
X0013503Y0008485D01*
X0013114Y0008760D01*
X0012733Y0009044D01*
X0012359Y0009337D01*
X0011991Y0009639D01*
X0011631Y0009951D01*
X0011279Y0010270D01*
X0010935Y0010598D01*
X0010598Y0010935D01*
X0010270Y0011279D01*
X0009951Y0011631D01*
X0009639Y0011991D01*
X0009337Y0012359D01*
X0009044Y0012733D01*
X0008760Y0013114D01*
X0008485Y0013503D01*
X0008219Y0013897D01*
X0007963Y0014298D01*
X0007717Y0014705D01*
X0007481Y0015118D01*
X0007255Y0015537D01*
X0007039Y0015961D01*
X0006833Y0016390D01*
X0006638Y0016824D01*
X0006453Y0017262D01*
X0006279Y0017705D01*
X0006116Y0018151D01*
X0005963Y0018602D01*
X0005822Y0019056D01*
X0005691Y0019514D01*
X0005572Y0019974D01*
X0005464Y0020437D01*
X0005367Y0020903D01*
X0005281Y0021371D01*
X0005207Y0021841D01*
X0005144Y0022312D01*
X0005092Y0022785D01*
X0005052Y0023259D01*
X0005023Y0023734D01*
X0005006Y0024209D01*
X0005000Y0024685D01*
X0121306Y0203874D02*
X0120814Y0204278D01*
X0120410Y0204770D01*
X0120109Y0205332D01*
X0119925Y0205941D01*
X0119862Y0206575D01*
X0119925Y0207208D01*
X0120109Y0207818D01*
X0120410Y0208379D01*
X0120814Y0208872D01*
X0121306Y0209275D01*
X0121867Y0209576D01*
X0122477Y0209760D01*
X0123110Y0209823D01*
X0123110Y0208051D01*
X0122782Y0208014D01*
X0122470Y0207905D01*
X0122190Y0207729D01*
X0121956Y0207495D01*
X0121780Y0207215D01*
X0121671Y0206903D01*
X0121634Y0206575D01*
X0121671Y0206246D01*
X0121780Y0205934D01*
X0121956Y0205654D01*
X0122190Y0205421D01*
X0122470Y0205245D01*
X0122782Y0205135D01*
X0123110Y0205098D01*
X0123110Y0203327D01*
X0122477Y0203389D01*
X0121867Y0203574D01*
X0121306Y0203874D01*
X0121302Y0203877D02*
X0123110Y0203877D01*
X0124919Y0203877D01*
X0124915Y0203874D02*
X0124353Y0203574D01*
X0123744Y0203389D01*
X0123110Y0203327D01*
X0123110Y0205098D01*
X0123439Y0205135D01*
X0123751Y0205245D01*
X0124031Y0205421D01*
X0124265Y0205654D01*
X0124440Y0205934D01*
X0124550Y0206246D01*
X0124587Y0206575D01*
X0124550Y0206903D01*
X0124440Y0207215D01*
X0124265Y0207495D01*
X0124031Y0207729D01*
X0123751Y0207905D01*
X0123439Y0208014D01*
X0123110Y0208051D01*
X0123110Y0209823D01*
X0123744Y0209760D01*
X0124353Y0209576D01*
X0124915Y0209275D01*
X0125407Y0208872D01*
X0125811Y0208379D01*
X0126111Y0207818D01*
X0126296Y0207208D01*
X0126358Y0206575D01*
X0126296Y0205941D01*
X0126111Y0205332D01*
X0125811Y0204770D01*
X0125407Y0204278D01*
X0124915Y0203874D01*
X0124965Y0203915D02*
X0123110Y0203915D01*
X0121256Y0203915D01*
X0121210Y0203953D02*
X0123110Y0203953D01*
X0125011Y0203953D01*
X0125057Y0203991D02*
X0123110Y0203991D01*
X0121163Y0203991D01*
X0121117Y0204029D02*
X0123110Y0204029D01*
X0125103Y0204029D01*
X0125149Y0204067D02*
X0123110Y0204067D01*
X0121071Y0204067D01*
X0121025Y0204105D02*
X0123110Y0204105D01*
X0125196Y0204105D01*
X0125242Y0204143D02*
X0123110Y0204143D01*
X0120979Y0204143D01*
X0120933Y0204180D02*
X0123110Y0204180D01*
X0125288Y0204180D01*
X0125334Y0204218D02*
X0123110Y0204218D01*
X0120886Y0204218D01*
X0120840Y0204256D02*
X0123110Y0204256D01*
X0125380Y0204256D01*
X0125420Y0204294D02*
X0123110Y0204294D01*
X0120800Y0204294D01*
X0120769Y0204332D02*
X0123110Y0204332D01*
X0125451Y0204332D01*
X0125482Y0204370D02*
X0123110Y0204370D01*
X0120738Y0204370D01*
X0120707Y0204408D02*
X0123110Y0204408D01*
X0125513Y0204408D01*
X0125544Y0204446D02*
X0123110Y0204446D01*
X0120676Y0204446D01*
X0120645Y0204483D02*
X0123110Y0204483D01*
X0125575Y0204483D01*
X0125607Y0204521D02*
X0123110Y0204521D01*
X0120614Y0204521D01*
X0120583Y0204559D02*
X0123110Y0204559D01*
X0125638Y0204559D01*
X0125669Y0204597D02*
X0123110Y0204597D01*
X0120552Y0204597D01*
X0120521Y0204635D02*
X0123110Y0204635D01*
X0125700Y0204635D01*
X0125731Y0204673D02*
X0123110Y0204673D01*
X0120490Y0204673D01*
X0120458Y0204711D02*
X0123110Y0204711D01*
X0125762Y0204711D01*
X0125793Y0204749D02*
X0123110Y0204749D01*
X0120427Y0204749D01*
X0120401Y0204786D02*
X0123110Y0204786D01*
X0125820Y0204786D01*
X0125840Y0204824D02*
X0123110Y0204824D01*
X0120381Y0204824D01*
X0120360Y0204862D02*
X0123110Y0204862D01*
X0125860Y0204862D01*
X0125880Y0204900D02*
X0123110Y0204900D01*
X0120340Y0204900D01*
X0120320Y0204938D02*
X0123110Y0204938D01*
X0125901Y0204938D01*
X0125921Y0204976D02*
X0123110Y0204976D01*
X0120300Y0204976D01*
X0120279Y0205014D02*
X0123110Y0205014D01*
X0125941Y0205014D01*
X0125961Y0205052D02*
X0123110Y0205052D01*
X0120259Y0205052D01*
X0120239Y0205090D02*
X0123110Y0205090D01*
X0125982Y0205090D01*
X0126002Y0205127D02*
X0123368Y0205127D01*
X0123524Y0205165D02*
X0126022Y0205165D01*
X0126042Y0205203D02*
X0123632Y0205203D01*
X0123741Y0205241D02*
X0126063Y0205241D01*
X0126083Y0205279D02*
X0123805Y0205279D01*
X0123866Y0205317D02*
X0126103Y0205317D01*
X0126118Y0205355D02*
X0123926Y0205355D01*
X0123986Y0205393D02*
X0126129Y0205393D01*
X0126141Y0205430D02*
X0124041Y0205430D01*
X0124079Y0205468D02*
X0126152Y0205468D01*
X0126164Y0205506D02*
X0124116Y0205506D01*
X0124154Y0205544D02*
X0126175Y0205544D01*
X0126187Y0205582D02*
X0124192Y0205582D01*
X0124230Y0205620D02*
X0126198Y0205620D01*
X0126210Y0205658D02*
X0124267Y0205658D01*
X0124290Y0205696D02*
X0126221Y0205696D01*
X0126233Y0205734D02*
X0124314Y0205734D01*
X0124338Y0205771D02*
X0126244Y0205771D01*
X0126256Y0205809D02*
X0124362Y0205809D01*
X0124386Y0205847D02*
X0126267Y0205847D01*
X0126279Y0205885D02*
X0124409Y0205885D01*
X0124433Y0205923D02*
X0126290Y0205923D01*
X0126298Y0205961D02*
X0124450Y0205961D01*
X0124463Y0205999D02*
X0126302Y0205999D01*
X0126305Y0206037D02*
X0124476Y0206037D01*
X0124489Y0206074D02*
X0126309Y0206074D01*
X0126313Y0206112D02*
X0124503Y0206112D01*
X0124516Y0206150D02*
X0126316Y0206150D01*
X0126320Y0206188D02*
X0124529Y0206188D01*
X0124542Y0206226D02*
X0126324Y0206226D01*
X0126328Y0206264D02*
X0124552Y0206264D01*
X0124556Y0206302D02*
X0126331Y0206302D01*
X0126335Y0206340D02*
X0124560Y0206340D01*
X0124564Y0206378D02*
X0126339Y0206378D01*
X0126343Y0206415D02*
X0124569Y0206415D01*
X0124573Y0206453D02*
X0126346Y0206453D01*
X0126350Y0206491D02*
X0124577Y0206491D01*
X0124581Y0206529D02*
X0126354Y0206529D01*
X0126357Y0206567D02*
X0124586Y0206567D01*
X0124583Y0206605D02*
X0126355Y0206605D01*
X0126352Y0206643D02*
X0124579Y0206643D01*
X0124575Y0206681D02*
X0126348Y0206681D01*
X0126344Y0206718D02*
X0124570Y0206718D01*
X0124566Y0206756D02*
X0126340Y0206756D01*
X0126337Y0206794D02*
X0124562Y0206794D01*
X0124558Y0206832D02*
X0126333Y0206832D01*
X0126329Y0206870D02*
X0124553Y0206870D01*
X0124548Y0206908D02*
X0126325Y0206908D01*
X0126322Y0206946D02*
X0124535Y0206946D01*
X0124522Y0206984D02*
X0126318Y0206984D01*
X0126314Y0207021D02*
X0124508Y0207021D01*
X0124495Y0207059D02*
X0126311Y0207059D01*
X0126307Y0207097D02*
X0124482Y0207097D01*
X0124468Y0207135D02*
X0126303Y0207135D01*
X0126299Y0207173D02*
X0124455Y0207173D01*
X0124442Y0207211D02*
X0126295Y0207211D01*
X0126284Y0207249D02*
X0124419Y0207249D01*
X0124396Y0207287D02*
X0126272Y0207287D01*
X0126261Y0207325D02*
X0124372Y0207325D01*
X0124348Y0207362D02*
X0126249Y0207362D01*
X0126238Y0207400D02*
X0124324Y0207400D01*
X0124300Y0207438D02*
X0126226Y0207438D01*
X0126215Y0207476D02*
X0124277Y0207476D01*
X0124246Y0207514D02*
X0126203Y0207514D01*
X0126192Y0207552D02*
X0124208Y0207552D01*
X0124170Y0207590D02*
X0126180Y0207590D01*
X0126169Y0207628D02*
X0124132Y0207628D01*
X0124094Y0207665D02*
X0126157Y0207665D01*
X0126146Y0207703D02*
X0124056Y0207703D01*
X0124011Y0207741D02*
X0126134Y0207741D01*
X0126123Y0207779D02*
X0123951Y0207779D01*
X0123891Y0207817D02*
X0126111Y0207817D01*
X0126091Y0207855D02*
X0123831Y0207855D01*
X0123770Y0207893D02*
X0126071Y0207893D01*
X0126051Y0207931D02*
X0123677Y0207931D01*
X0123569Y0207969D02*
X0126030Y0207969D01*
X0126010Y0208006D02*
X0123461Y0208006D01*
X0123171Y0208044D02*
X0125990Y0208044D01*
X0125970Y0208082D02*
X0123110Y0208082D01*
X0120251Y0208082D01*
X0120231Y0208044D02*
X0123049Y0208044D01*
X0123110Y0208120D02*
X0120271Y0208120D01*
X0120291Y0208158D02*
X0123110Y0208158D01*
X0125929Y0208158D01*
X0125909Y0208196D02*
X0123110Y0208196D01*
X0120312Y0208196D01*
X0120332Y0208234D02*
X0123110Y0208234D01*
X0125889Y0208234D01*
X0125868Y0208272D02*
X0123110Y0208272D01*
X0120352Y0208272D01*
X0120372Y0208309D02*
X0123110Y0208309D01*
X0125848Y0208309D01*
X0125828Y0208347D02*
X0123110Y0208347D01*
X0120392Y0208347D01*
X0120414Y0208385D02*
X0123110Y0208385D01*
X0125806Y0208385D01*
X0125775Y0208423D02*
X0123110Y0208423D01*
X0120446Y0208423D01*
X0120477Y0208461D02*
X0123110Y0208461D01*
X0125744Y0208461D01*
X0125713Y0208499D02*
X0123110Y0208499D01*
X0120508Y0208499D01*
X0120539Y0208537D02*
X0123110Y0208537D01*
X0125682Y0208537D01*
X0125651Y0208575D02*
X0123110Y0208575D01*
X0120570Y0208575D01*
X0120601Y0208613D02*
X0123110Y0208613D01*
X0125619Y0208613D01*
X0125588Y0208650D02*
X0123110Y0208650D01*
X0120632Y0208650D01*
X0120663Y0208688D02*
X0123110Y0208688D01*
X0125557Y0208688D01*
X0125526Y0208726D02*
X0123110Y0208726D01*
X0120694Y0208726D01*
X0120725Y0208764D02*
X0123110Y0208764D01*
X0125495Y0208764D01*
X0125464Y0208802D02*
X0123110Y0208802D01*
X0120756Y0208802D01*
X0120788Y0208840D02*
X0123110Y0208840D01*
X0125433Y0208840D01*
X0125399Y0208878D02*
X0123110Y0208878D01*
X0120821Y0208878D01*
X0120867Y0208916D02*
X0123110Y0208916D01*
X0125353Y0208916D01*
X0125307Y0208953D02*
X0123110Y0208953D01*
X0120913Y0208953D01*
X0120960Y0208991D02*
X0123110Y0208991D01*
X0125261Y0208991D01*
X0125215Y0209029D02*
X0123110Y0209029D01*
X0121006Y0209029D01*
X0121052Y0209067D02*
X0123110Y0209067D01*
X0125169Y0209067D01*
X0125122Y0209105D02*
X0123110Y0209105D01*
X0121098Y0209105D01*
X0121144Y0209143D02*
X0123110Y0209143D01*
X0125076Y0209143D01*
X0125030Y0209181D02*
X0123110Y0209181D01*
X0121190Y0209181D01*
X0121236Y0209219D02*
X0123110Y0209219D01*
X0124984Y0209219D01*
X0124938Y0209256D02*
X0123110Y0209256D01*
X0121283Y0209256D01*
X0121341Y0209294D02*
X0123110Y0209294D01*
X0124879Y0209294D01*
X0124808Y0209332D02*
X0123110Y0209332D01*
X0121412Y0209332D01*
X0121483Y0209370D02*
X0123110Y0209370D01*
X0124738Y0209370D01*
X0124667Y0209408D02*
X0123110Y0209408D01*
X0121554Y0209408D01*
X0121625Y0209446D02*
X0123110Y0209446D01*
X0124596Y0209446D01*
X0124525Y0209484D02*
X0123110Y0209484D01*
X0121696Y0209484D01*
X0121766Y0209522D02*
X0123110Y0209522D01*
X0124454Y0209522D01*
X0124383Y0209560D02*
X0123110Y0209560D01*
X0121837Y0209560D01*
X0121939Y0209597D02*
X0123110Y0209597D01*
X0124281Y0209597D01*
X0124156Y0209635D02*
X0123110Y0209635D01*
X0122064Y0209635D01*
X0122189Y0209673D02*
X0123110Y0209673D01*
X0124031Y0209673D01*
X0123907Y0209711D02*
X0123110Y0209711D01*
X0122314Y0209711D01*
X0122439Y0209749D02*
X0123110Y0209749D01*
X0123782Y0209749D01*
X0123476Y0209787D02*
X0123110Y0209787D01*
X0122745Y0209787D01*
X0123110Y0208120D02*
X0125949Y0208120D01*
X0122760Y0208006D02*
X0120210Y0208006D01*
X0120190Y0207969D02*
X0122651Y0207969D01*
X0122543Y0207931D02*
X0120170Y0207931D01*
X0120150Y0207893D02*
X0122450Y0207893D01*
X0122390Y0207855D02*
X0120129Y0207855D01*
X0120109Y0207817D02*
X0122330Y0207817D01*
X0122269Y0207779D02*
X0120098Y0207779D01*
X0120086Y0207741D02*
X0122209Y0207741D01*
X0122164Y0207703D02*
X0120075Y0207703D01*
X0120063Y0207665D02*
X0122126Y0207665D01*
X0122088Y0207628D02*
X0120052Y0207628D01*
X0120040Y0207590D02*
X0122050Y0207590D01*
X0122012Y0207552D02*
X0120029Y0207552D01*
X0120017Y0207514D02*
X0121975Y0207514D01*
X0121944Y0207476D02*
X0120006Y0207476D01*
X0119994Y0207438D02*
X0121920Y0207438D01*
X0121896Y0207400D02*
X0119983Y0207400D01*
X0119971Y0207362D02*
X0121872Y0207362D01*
X0121849Y0207325D02*
X0119960Y0207325D01*
X0119948Y0207287D02*
X0121825Y0207287D01*
X0121801Y0207249D02*
X0119937Y0207249D01*
X0119925Y0207211D02*
X0121779Y0207211D01*
X0121765Y0207173D02*
X0119921Y0207173D01*
X0119917Y0207135D02*
X0121752Y0207135D01*
X0121739Y0207097D02*
X0119914Y0207097D01*
X0119910Y0207059D02*
X0121725Y0207059D01*
X0121712Y0207021D02*
X0119906Y0207021D01*
X0119902Y0206984D02*
X0121699Y0206984D01*
X0121686Y0206946D02*
X0119899Y0206946D01*
X0119895Y0206908D02*
X0121672Y0206908D01*
X0121667Y0206870D02*
X0119891Y0206870D01*
X0119888Y0206832D02*
X0121663Y0206832D01*
X0121659Y0206794D02*
X0119884Y0206794D01*
X0119880Y0206756D02*
X0121654Y0206756D01*
X0121650Y0206718D02*
X0119876Y0206718D01*
X0119873Y0206681D02*
X0121646Y0206681D01*
X0121642Y0206643D02*
X0119869Y0206643D01*
X0119865Y0206605D02*
X0121637Y0206605D01*
X0121635Y0206567D02*
X0119863Y0206567D01*
X0119867Y0206529D02*
X0121639Y0206529D01*
X0121643Y0206491D02*
X0119870Y0206491D01*
X0119874Y0206453D02*
X0121648Y0206453D01*
X0121652Y0206415D02*
X0119878Y0206415D01*
X0119882Y0206378D02*
X0121656Y0206378D01*
X0121660Y0206340D02*
X0119885Y0206340D01*
X0119889Y0206302D02*
X0121665Y0206302D01*
X0121669Y0206264D02*
X0119893Y0206264D01*
X0119897Y0206226D02*
X0121678Y0206226D01*
X0121691Y0206188D02*
X0119900Y0206188D01*
X0119904Y0206150D02*
X0121704Y0206150D01*
X0121718Y0206112D02*
X0119908Y0206112D01*
X0119911Y0206074D02*
X0121731Y0206074D01*
X0121744Y0206037D02*
X0119915Y0206037D01*
X0119919Y0205999D02*
X0121758Y0205999D01*
X0121771Y0205961D02*
X0119923Y0205961D01*
X0119930Y0205923D02*
X0121787Y0205923D01*
X0121811Y0205885D02*
X0119942Y0205885D01*
X0119953Y0205847D02*
X0121835Y0205847D01*
X0121859Y0205809D02*
X0119965Y0205809D01*
X0119976Y0205771D02*
X0121882Y0205771D01*
X0121906Y0205734D02*
X0119988Y0205734D01*
X0119999Y0205696D02*
X0121930Y0205696D01*
X0121954Y0205658D02*
X0120011Y0205658D01*
X0120022Y0205620D02*
X0121990Y0205620D01*
X0122028Y0205582D02*
X0120034Y0205582D01*
X0120045Y0205544D02*
X0122066Y0205544D01*
X0122104Y0205506D02*
X0120057Y0205506D01*
X0120068Y0205468D02*
X0122142Y0205468D01*
X0122180Y0205430D02*
X0120080Y0205430D01*
X0120091Y0205393D02*
X0122234Y0205393D01*
X0122294Y0205355D02*
X0120103Y0205355D01*
X0120117Y0205317D02*
X0122355Y0205317D01*
X0122415Y0205279D02*
X0120138Y0205279D01*
X0120158Y0205241D02*
X0122480Y0205241D01*
X0122588Y0205203D02*
X0120178Y0205203D01*
X0120198Y0205165D02*
X0122696Y0205165D01*
X0122853Y0205127D02*
X0120219Y0205127D01*
X0121371Y0203839D02*
X0123110Y0203839D01*
X0124850Y0203839D01*
X0124779Y0203802D02*
X0123110Y0203802D01*
X0121442Y0203802D01*
X0121512Y0203764D02*
X0123110Y0203764D01*
X0124708Y0203764D01*
X0124637Y0203726D02*
X0123110Y0203726D01*
X0121583Y0203726D01*
X0121654Y0203688D02*
X0123110Y0203688D01*
X0124566Y0203688D01*
X0124495Y0203650D02*
X0123110Y0203650D01*
X0121725Y0203650D01*
X0121796Y0203612D02*
X0123110Y0203612D01*
X0124425Y0203612D01*
X0124354Y0203574D02*
X0123110Y0203574D01*
X0121867Y0203574D01*
X0121991Y0203536D02*
X0123110Y0203536D01*
X0124229Y0203536D01*
X0124104Y0203499D02*
X0123110Y0203499D01*
X0122116Y0203499D01*
X0122241Y0203461D02*
X0123110Y0203461D01*
X0123979Y0203461D01*
X0123855Y0203423D02*
X0123110Y0203423D01*
X0122366Y0203423D01*
X0122520Y0203385D02*
X0123110Y0203385D01*
X0123700Y0203385D01*
X0123316Y0203347D02*
X0123110Y0203347D01*
X0122905Y0203347D01*
D11*
X0121830Y0206575D02*
X0121832Y0206646D01*
X0121838Y0206717D01*
X0121848Y0206788D01*
X0121862Y0206857D01*
X0121879Y0206926D01*
X0121901Y0206994D01*
X0121926Y0207061D01*
X0121955Y0207126D01*
X0121987Y0207189D01*
X0122023Y0207251D01*
X0122062Y0207310D01*
X0122105Y0207367D01*
X0122150Y0207422D01*
X0122199Y0207474D01*
X0122250Y0207523D01*
X0122304Y0207569D01*
X0122361Y0207613D01*
X0122419Y0207653D01*
X0122480Y0207689D01*
X0122543Y0207723D01*
X0122608Y0207752D01*
X0122674Y0207778D01*
X0122742Y0207801D01*
X0122810Y0207819D01*
X0122880Y0207834D01*
X0122950Y0207845D01*
X0123021Y0207852D01*
X0123092Y0207855D01*
X0123163Y0207854D01*
X0123234Y0207849D01*
X0123305Y0207840D01*
X0123375Y0207827D01*
X0123444Y0207811D01*
X0123512Y0207790D01*
X0123579Y0207766D01*
X0123645Y0207738D01*
X0123708Y0207706D01*
X0123770Y0207671D01*
X0123830Y0207633D01*
X0123888Y0207591D01*
X0123943Y0207547D01*
X0123996Y0207499D01*
X0124046Y0207448D01*
X0124093Y0207395D01*
X0124137Y0207339D01*
X0124178Y0207281D01*
X0124216Y0207220D01*
X0124250Y0207158D01*
X0124280Y0207093D01*
X0124307Y0207028D01*
X0124331Y0206960D01*
X0124350Y0206892D01*
X0124366Y0206823D01*
X0124378Y0206752D01*
X0124386Y0206682D01*
X0124390Y0206611D01*
X0124390Y0206539D01*
X0124386Y0206468D01*
X0124378Y0206398D01*
X0124366Y0206327D01*
X0124350Y0206258D01*
X0124331Y0206190D01*
X0124307Y0206122D01*
X0124280Y0206057D01*
X0124250Y0205992D01*
X0124216Y0205930D01*
X0124178Y0205869D01*
X0124137Y0205811D01*
X0124093Y0205755D01*
X0124046Y0205702D01*
X0123996Y0205651D01*
X0123943Y0205603D01*
X0123888Y0205559D01*
X0123830Y0205517D01*
X0123770Y0205479D01*
X0123708Y0205444D01*
X0123645Y0205412D01*
X0123579Y0205384D01*
X0123512Y0205360D01*
X0123444Y0205339D01*
X0123375Y0205323D01*
X0123305Y0205310D01*
X0123234Y0205301D01*
X0123163Y0205296D01*
X0123092Y0205295D01*
X0123021Y0205298D01*
X0122950Y0205305D01*
X0122880Y0205316D01*
X0122810Y0205331D01*
X0122742Y0205349D01*
X0122674Y0205372D01*
X0122608Y0205398D01*
X0122543Y0205427D01*
X0122480Y0205461D01*
X0122419Y0205497D01*
X0122361Y0205537D01*
X0122304Y0205581D01*
X0122250Y0205627D01*
X0122199Y0205676D01*
X0122150Y0205728D01*
X0122105Y0205783D01*
X0122062Y0205840D01*
X0122023Y0205899D01*
X0121987Y0205961D01*
X0121955Y0206024D01*
X0121926Y0206089D01*
X0121901Y0206156D01*
X0121879Y0206224D01*
X0121862Y0206293D01*
X0121848Y0206362D01*
X0121838Y0206433D01*
X0121832Y0206504D01*
X0121830Y0206575D01*
X0192007Y0197913D02*
X0192009Y0198066D01*
X0192015Y0198220D01*
X0192025Y0198373D01*
X0192039Y0198525D01*
X0192057Y0198678D01*
X0192079Y0198829D01*
X0192104Y0198980D01*
X0192134Y0199131D01*
X0192168Y0199281D01*
X0192205Y0199429D01*
X0192246Y0199577D01*
X0192291Y0199723D01*
X0192340Y0199869D01*
X0192393Y0200013D01*
X0192449Y0200155D01*
X0192509Y0200296D01*
X0192573Y0200436D01*
X0192640Y0200574D01*
X0192711Y0200710D01*
X0192786Y0200844D01*
X0192863Y0200976D01*
X0192945Y0201106D01*
X0193029Y0201234D01*
X0193117Y0201360D01*
X0193208Y0201483D01*
X0193302Y0201604D01*
X0193400Y0201722D01*
X0193500Y0201838D01*
X0193604Y0201951D01*
X0193710Y0202062D01*
X0193819Y0202170D01*
X0193931Y0202275D01*
X0194045Y0202376D01*
X0194163Y0202475D01*
X0194282Y0202571D01*
X0194404Y0202664D01*
X0194529Y0202753D01*
X0194656Y0202840D01*
X0194785Y0202922D01*
X0194916Y0203002D01*
X0195049Y0203078D01*
X0195184Y0203151D01*
X0195321Y0203220D01*
X0195460Y0203285D01*
X0195600Y0203347D01*
X0195742Y0203405D01*
X0195885Y0203460D01*
X0196030Y0203511D01*
X0196176Y0203558D01*
X0196323Y0203601D01*
X0196471Y0203640D01*
X0196620Y0203676D01*
X0196770Y0203707D01*
X0196921Y0203735D01*
X0197072Y0203759D01*
X0197225Y0203779D01*
X0197377Y0203795D01*
X0197530Y0203807D01*
X0197683Y0203815D01*
X0197836Y0203819D01*
X0197990Y0203819D01*
X0198143Y0203815D01*
X0198296Y0203807D01*
X0198449Y0203795D01*
X0198601Y0203779D01*
X0198754Y0203759D01*
X0198905Y0203735D01*
X0199056Y0203707D01*
X0199206Y0203676D01*
X0199355Y0203640D01*
X0199503Y0203601D01*
X0199650Y0203558D01*
X0199796Y0203511D01*
X0199941Y0203460D01*
X0200084Y0203405D01*
X0200226Y0203347D01*
X0200366Y0203285D01*
X0200505Y0203220D01*
X0200642Y0203151D01*
X0200777Y0203078D01*
X0200910Y0203002D01*
X0201041Y0202922D01*
X0201170Y0202840D01*
X0201297Y0202753D01*
X0201422Y0202664D01*
X0201544Y0202571D01*
X0201663Y0202475D01*
X0201781Y0202376D01*
X0201895Y0202275D01*
X0202007Y0202170D01*
X0202116Y0202062D01*
X0202222Y0201951D01*
X0202326Y0201838D01*
X0202426Y0201722D01*
X0202524Y0201604D01*
X0202618Y0201483D01*
X0202709Y0201360D01*
X0202797Y0201234D01*
X0202881Y0201106D01*
X0202963Y0200976D01*
X0203040Y0200844D01*
X0203115Y0200710D01*
X0203186Y0200574D01*
X0203253Y0200436D01*
X0203317Y0200296D01*
X0203377Y0200155D01*
X0203433Y0200013D01*
X0203486Y0199869D01*
X0203535Y0199723D01*
X0203580Y0199577D01*
X0203621Y0199429D01*
X0203658Y0199281D01*
X0203692Y0199131D01*
X0203722Y0198980D01*
X0203747Y0198829D01*
X0203769Y0198678D01*
X0203787Y0198525D01*
X0203801Y0198373D01*
X0203811Y0198220D01*
X0203817Y0198066D01*
X0203819Y0197913D01*
X0203817Y0197760D01*
X0203811Y0197606D01*
X0203801Y0197453D01*
X0203787Y0197301D01*
X0203769Y0197148D01*
X0203747Y0196997D01*
X0203722Y0196846D01*
X0203692Y0196695D01*
X0203658Y0196545D01*
X0203621Y0196397D01*
X0203580Y0196249D01*
X0203535Y0196103D01*
X0203486Y0195957D01*
X0203433Y0195813D01*
X0203377Y0195671D01*
X0203317Y0195530D01*
X0203253Y0195390D01*
X0203186Y0195252D01*
X0203115Y0195116D01*
X0203040Y0194982D01*
X0202963Y0194850D01*
X0202881Y0194720D01*
X0202797Y0194592D01*
X0202709Y0194466D01*
X0202618Y0194343D01*
X0202524Y0194222D01*
X0202426Y0194104D01*
X0202326Y0193988D01*
X0202222Y0193875D01*
X0202116Y0193764D01*
X0202007Y0193656D01*
X0201895Y0193551D01*
X0201781Y0193450D01*
X0201663Y0193351D01*
X0201544Y0193255D01*
X0201422Y0193162D01*
X0201297Y0193073D01*
X0201170Y0192986D01*
X0201041Y0192904D01*
X0200910Y0192824D01*
X0200777Y0192748D01*
X0200642Y0192675D01*
X0200505Y0192606D01*
X0200366Y0192541D01*
X0200226Y0192479D01*
X0200084Y0192421D01*
X0199941Y0192366D01*
X0199796Y0192315D01*
X0199650Y0192268D01*
X0199503Y0192225D01*
X0199355Y0192186D01*
X0199206Y0192150D01*
X0199056Y0192119D01*
X0198905Y0192091D01*
X0198754Y0192067D01*
X0198601Y0192047D01*
X0198449Y0192031D01*
X0198296Y0192019D01*
X0198143Y0192011D01*
X0197990Y0192007D01*
X0197836Y0192007D01*
X0197683Y0192011D01*
X0197530Y0192019D01*
X0197377Y0192031D01*
X0197225Y0192047D01*
X0197072Y0192067D01*
X0196921Y0192091D01*
X0196770Y0192119D01*
X0196620Y0192150D01*
X0196471Y0192186D01*
X0196323Y0192225D01*
X0196176Y0192268D01*
X0196030Y0192315D01*
X0195885Y0192366D01*
X0195742Y0192421D01*
X0195600Y0192479D01*
X0195460Y0192541D01*
X0195321Y0192606D01*
X0195184Y0192675D01*
X0195049Y0192748D01*
X0194916Y0192824D01*
X0194785Y0192904D01*
X0194656Y0192986D01*
X0194529Y0193073D01*
X0194404Y0193162D01*
X0194282Y0193255D01*
X0194163Y0193351D01*
X0194045Y0193450D01*
X0193931Y0193551D01*
X0193819Y0193656D01*
X0193710Y0193764D01*
X0193604Y0193875D01*
X0193500Y0193988D01*
X0193400Y0194104D01*
X0193302Y0194222D01*
X0193208Y0194343D01*
X0193117Y0194466D01*
X0193029Y0194592D01*
X0192945Y0194720D01*
X0192863Y0194850D01*
X0192786Y0194982D01*
X0192711Y0195116D01*
X0192640Y0195252D01*
X0192573Y0195390D01*
X0192509Y0195530D01*
X0192449Y0195671D01*
X0192393Y0195813D01*
X0192340Y0195957D01*
X0192291Y0196103D01*
X0192246Y0196249D01*
X0192205Y0196397D01*
X0192168Y0196545D01*
X0192134Y0196695D01*
X0192104Y0196846D01*
X0192079Y0196997D01*
X0192057Y0197148D01*
X0192039Y0197301D01*
X0192025Y0197453D01*
X0192015Y0197606D01*
X0192009Y0197760D01*
X0192007Y0197913D01*
X0136102Y0054213D02*
X0136104Y0054318D01*
X0136110Y0054423D01*
X0136120Y0054527D01*
X0136134Y0054631D01*
X0136152Y0054735D01*
X0136174Y0054837D01*
X0136199Y0054939D01*
X0136229Y0055040D01*
X0136262Y0055139D01*
X0136299Y0055237D01*
X0136340Y0055334D01*
X0136385Y0055429D01*
X0136433Y0055522D01*
X0136484Y0055614D01*
X0136540Y0055703D01*
X0136598Y0055790D01*
X0136660Y0055875D01*
X0136724Y0055958D01*
X0136792Y0056038D01*
X0136863Y0056115D01*
X0136937Y0056189D01*
X0137014Y0056261D01*
X0137093Y0056330D01*
X0137175Y0056395D01*
X0137259Y0056458D01*
X0137346Y0056517D01*
X0137435Y0056573D01*
X0137526Y0056626D01*
X0137619Y0056675D01*
X0137713Y0056720D01*
X0137809Y0056762D01*
X0137907Y0056800D01*
X0138006Y0056834D01*
X0138107Y0056865D01*
X0138208Y0056891D01*
X0138311Y0056914D01*
X0138414Y0056933D01*
X0138518Y0056948D01*
X0138622Y0056959D01*
X0138727Y0056966D01*
X0138832Y0056969D01*
X0138937Y0056968D01*
X0139042Y0056963D01*
X0139146Y0056954D01*
X0139250Y0056941D01*
X0139354Y0056924D01*
X0139457Y0056903D01*
X0139559Y0056878D01*
X0139660Y0056850D01*
X0139759Y0056817D01*
X0139858Y0056781D01*
X0139955Y0056741D01*
X0140050Y0056698D01*
X0140144Y0056650D01*
X0140236Y0056600D01*
X0140326Y0056546D01*
X0140414Y0056488D01*
X0140499Y0056427D01*
X0140582Y0056363D01*
X0140663Y0056296D01*
X0140741Y0056226D01*
X0140816Y0056152D01*
X0140888Y0056077D01*
X0140958Y0055998D01*
X0141024Y0055917D01*
X0141088Y0055833D01*
X0141148Y0055747D01*
X0141204Y0055659D01*
X0141258Y0055568D01*
X0141308Y0055476D01*
X0141354Y0055382D01*
X0141397Y0055286D01*
X0141436Y0055188D01*
X0141471Y0055090D01*
X0141502Y0054989D01*
X0141530Y0054888D01*
X0141554Y0054786D01*
X0141574Y0054683D01*
X0141590Y0054579D01*
X0141602Y0054475D01*
X0141610Y0054370D01*
X0141614Y0054265D01*
X0141614Y0054161D01*
X0141610Y0054056D01*
X0141602Y0053951D01*
X0141590Y0053847D01*
X0141574Y0053743D01*
X0141554Y0053640D01*
X0141530Y0053538D01*
X0141502Y0053437D01*
X0141471Y0053336D01*
X0141436Y0053238D01*
X0141397Y0053140D01*
X0141354Y0053044D01*
X0141308Y0052950D01*
X0141258Y0052858D01*
X0141204Y0052767D01*
X0141148Y0052679D01*
X0141088Y0052593D01*
X0141024Y0052509D01*
X0140958Y0052428D01*
X0140888Y0052349D01*
X0140816Y0052274D01*
X0140741Y0052200D01*
X0140663Y0052130D01*
X0140582Y0052063D01*
X0140499Y0051999D01*
X0140414Y0051938D01*
X0140326Y0051880D01*
X0140236Y0051826D01*
X0140144Y0051776D01*
X0140050Y0051728D01*
X0139955Y0051685D01*
X0139858Y0051645D01*
X0139759Y0051609D01*
X0139660Y0051576D01*
X0139559Y0051548D01*
X0139457Y0051523D01*
X0139354Y0051502D01*
X0139250Y0051485D01*
X0139146Y0051472D01*
X0139042Y0051463D01*
X0138937Y0051458D01*
X0138832Y0051457D01*
X0138727Y0051460D01*
X0138622Y0051467D01*
X0138518Y0051478D01*
X0138414Y0051493D01*
X0138311Y0051512D01*
X0138208Y0051535D01*
X0138107Y0051561D01*
X0138006Y0051592D01*
X0137907Y0051626D01*
X0137809Y0051664D01*
X0137713Y0051706D01*
X0137619Y0051751D01*
X0137526Y0051800D01*
X0137435Y0051853D01*
X0137346Y0051909D01*
X0137259Y0051968D01*
X0137175Y0052031D01*
X0137093Y0052096D01*
X0137014Y0052165D01*
X0136937Y0052237D01*
X0136863Y0052311D01*
X0136792Y0052388D01*
X0136724Y0052468D01*
X0136660Y0052551D01*
X0136598Y0052636D01*
X0136540Y0052723D01*
X0136484Y0052812D01*
X0136433Y0052904D01*
X0136385Y0052997D01*
X0136340Y0053092D01*
X0136299Y0053189D01*
X0136262Y0053287D01*
X0136229Y0053386D01*
X0136199Y0053487D01*
X0136174Y0053589D01*
X0136152Y0053691D01*
X0136134Y0053795D01*
X0136120Y0053899D01*
X0136110Y0054003D01*
X0136104Y0054108D01*
X0136102Y0054213D01*
X0132362Y0017598D02*
X0132362Y0012874D01*
X0145354Y0012874D01*
X0145354Y0017598D01*
X0132362Y0017598D01*
X0192007Y0024685D02*
X0192009Y0024838D01*
X0192015Y0024992D01*
X0192025Y0025145D01*
X0192039Y0025297D01*
X0192057Y0025450D01*
X0192079Y0025601D01*
X0192104Y0025752D01*
X0192134Y0025903D01*
X0192168Y0026053D01*
X0192205Y0026201D01*
X0192246Y0026349D01*
X0192291Y0026495D01*
X0192340Y0026641D01*
X0192393Y0026785D01*
X0192449Y0026927D01*
X0192509Y0027068D01*
X0192573Y0027208D01*
X0192640Y0027346D01*
X0192711Y0027482D01*
X0192786Y0027616D01*
X0192863Y0027748D01*
X0192945Y0027878D01*
X0193029Y0028006D01*
X0193117Y0028132D01*
X0193208Y0028255D01*
X0193302Y0028376D01*
X0193400Y0028494D01*
X0193500Y0028610D01*
X0193604Y0028723D01*
X0193710Y0028834D01*
X0193819Y0028942D01*
X0193931Y0029047D01*
X0194045Y0029148D01*
X0194163Y0029247D01*
X0194282Y0029343D01*
X0194404Y0029436D01*
X0194529Y0029525D01*
X0194656Y0029612D01*
X0194785Y0029694D01*
X0194916Y0029774D01*
X0195049Y0029850D01*
X0195184Y0029923D01*
X0195321Y0029992D01*
X0195460Y0030057D01*
X0195600Y0030119D01*
X0195742Y0030177D01*
X0195885Y0030232D01*
X0196030Y0030283D01*
X0196176Y0030330D01*
X0196323Y0030373D01*
X0196471Y0030412D01*
X0196620Y0030448D01*
X0196770Y0030479D01*
X0196921Y0030507D01*
X0197072Y0030531D01*
X0197225Y0030551D01*
X0197377Y0030567D01*
X0197530Y0030579D01*
X0197683Y0030587D01*
X0197836Y0030591D01*
X0197990Y0030591D01*
X0198143Y0030587D01*
X0198296Y0030579D01*
X0198449Y0030567D01*
X0198601Y0030551D01*
X0198754Y0030531D01*
X0198905Y0030507D01*
X0199056Y0030479D01*
X0199206Y0030448D01*
X0199355Y0030412D01*
X0199503Y0030373D01*
X0199650Y0030330D01*
X0199796Y0030283D01*
X0199941Y0030232D01*
X0200084Y0030177D01*
X0200226Y0030119D01*
X0200366Y0030057D01*
X0200505Y0029992D01*
X0200642Y0029923D01*
X0200777Y0029850D01*
X0200910Y0029774D01*
X0201041Y0029694D01*
X0201170Y0029612D01*
X0201297Y0029525D01*
X0201422Y0029436D01*
X0201544Y0029343D01*
X0201663Y0029247D01*
X0201781Y0029148D01*
X0201895Y0029047D01*
X0202007Y0028942D01*
X0202116Y0028834D01*
X0202222Y0028723D01*
X0202326Y0028610D01*
X0202426Y0028494D01*
X0202524Y0028376D01*
X0202618Y0028255D01*
X0202709Y0028132D01*
X0202797Y0028006D01*
X0202881Y0027878D01*
X0202963Y0027748D01*
X0203040Y0027616D01*
X0203115Y0027482D01*
X0203186Y0027346D01*
X0203253Y0027208D01*
X0203317Y0027068D01*
X0203377Y0026927D01*
X0203433Y0026785D01*
X0203486Y0026641D01*
X0203535Y0026495D01*
X0203580Y0026349D01*
X0203621Y0026201D01*
X0203658Y0026053D01*
X0203692Y0025903D01*
X0203722Y0025752D01*
X0203747Y0025601D01*
X0203769Y0025450D01*
X0203787Y0025297D01*
X0203801Y0025145D01*
X0203811Y0024992D01*
X0203817Y0024838D01*
X0203819Y0024685D01*
X0203817Y0024532D01*
X0203811Y0024378D01*
X0203801Y0024225D01*
X0203787Y0024073D01*
X0203769Y0023920D01*
X0203747Y0023769D01*
X0203722Y0023618D01*
X0203692Y0023467D01*
X0203658Y0023317D01*
X0203621Y0023169D01*
X0203580Y0023021D01*
X0203535Y0022875D01*
X0203486Y0022729D01*
X0203433Y0022585D01*
X0203377Y0022443D01*
X0203317Y0022302D01*
X0203253Y0022162D01*
X0203186Y0022024D01*
X0203115Y0021888D01*
X0203040Y0021754D01*
X0202963Y0021622D01*
X0202881Y0021492D01*
X0202797Y0021364D01*
X0202709Y0021238D01*
X0202618Y0021115D01*
X0202524Y0020994D01*
X0202426Y0020876D01*
X0202326Y0020760D01*
X0202222Y0020647D01*
X0202116Y0020536D01*
X0202007Y0020428D01*
X0201895Y0020323D01*
X0201781Y0020222D01*
X0201663Y0020123D01*
X0201544Y0020027D01*
X0201422Y0019934D01*
X0201297Y0019845D01*
X0201170Y0019758D01*
X0201041Y0019676D01*
X0200910Y0019596D01*
X0200777Y0019520D01*
X0200642Y0019447D01*
X0200505Y0019378D01*
X0200366Y0019313D01*
X0200226Y0019251D01*
X0200084Y0019193D01*
X0199941Y0019138D01*
X0199796Y0019087D01*
X0199650Y0019040D01*
X0199503Y0018997D01*
X0199355Y0018958D01*
X0199206Y0018922D01*
X0199056Y0018891D01*
X0198905Y0018863D01*
X0198754Y0018839D01*
X0198601Y0018819D01*
X0198449Y0018803D01*
X0198296Y0018791D01*
X0198143Y0018783D01*
X0197990Y0018779D01*
X0197836Y0018779D01*
X0197683Y0018783D01*
X0197530Y0018791D01*
X0197377Y0018803D01*
X0197225Y0018819D01*
X0197072Y0018839D01*
X0196921Y0018863D01*
X0196770Y0018891D01*
X0196620Y0018922D01*
X0196471Y0018958D01*
X0196323Y0018997D01*
X0196176Y0019040D01*
X0196030Y0019087D01*
X0195885Y0019138D01*
X0195742Y0019193D01*
X0195600Y0019251D01*
X0195460Y0019313D01*
X0195321Y0019378D01*
X0195184Y0019447D01*
X0195049Y0019520D01*
X0194916Y0019596D01*
X0194785Y0019676D01*
X0194656Y0019758D01*
X0194529Y0019845D01*
X0194404Y0019934D01*
X0194282Y0020027D01*
X0194163Y0020123D01*
X0194045Y0020222D01*
X0193931Y0020323D01*
X0193819Y0020428D01*
X0193710Y0020536D01*
X0193604Y0020647D01*
X0193500Y0020760D01*
X0193400Y0020876D01*
X0193302Y0020994D01*
X0193208Y0021115D01*
X0193117Y0021238D01*
X0193029Y0021364D01*
X0192945Y0021492D01*
X0192863Y0021622D01*
X0192786Y0021754D01*
X0192711Y0021888D01*
X0192640Y0022024D01*
X0192573Y0022162D01*
X0192509Y0022302D01*
X0192449Y0022443D01*
X0192393Y0022585D01*
X0192340Y0022729D01*
X0192291Y0022875D01*
X0192246Y0023021D01*
X0192205Y0023169D01*
X0192168Y0023317D01*
X0192134Y0023467D01*
X0192104Y0023618D01*
X0192079Y0023769D01*
X0192057Y0023920D01*
X0192039Y0024073D01*
X0192025Y0024225D01*
X0192015Y0024378D01*
X0192009Y0024532D01*
X0192007Y0024685D01*
X0018779Y0024685D02*
X0018781Y0024838D01*
X0018787Y0024992D01*
X0018797Y0025145D01*
X0018811Y0025297D01*
X0018829Y0025450D01*
X0018851Y0025601D01*
X0018876Y0025752D01*
X0018906Y0025903D01*
X0018940Y0026053D01*
X0018977Y0026201D01*
X0019018Y0026349D01*
X0019063Y0026495D01*
X0019112Y0026641D01*
X0019165Y0026785D01*
X0019221Y0026927D01*
X0019281Y0027068D01*
X0019345Y0027208D01*
X0019412Y0027346D01*
X0019483Y0027482D01*
X0019558Y0027616D01*
X0019635Y0027748D01*
X0019717Y0027878D01*
X0019801Y0028006D01*
X0019889Y0028132D01*
X0019980Y0028255D01*
X0020074Y0028376D01*
X0020172Y0028494D01*
X0020272Y0028610D01*
X0020376Y0028723D01*
X0020482Y0028834D01*
X0020591Y0028942D01*
X0020703Y0029047D01*
X0020817Y0029148D01*
X0020935Y0029247D01*
X0021054Y0029343D01*
X0021176Y0029436D01*
X0021301Y0029525D01*
X0021428Y0029612D01*
X0021557Y0029694D01*
X0021688Y0029774D01*
X0021821Y0029850D01*
X0021956Y0029923D01*
X0022093Y0029992D01*
X0022232Y0030057D01*
X0022372Y0030119D01*
X0022514Y0030177D01*
X0022657Y0030232D01*
X0022802Y0030283D01*
X0022948Y0030330D01*
X0023095Y0030373D01*
X0023243Y0030412D01*
X0023392Y0030448D01*
X0023542Y0030479D01*
X0023693Y0030507D01*
X0023844Y0030531D01*
X0023997Y0030551D01*
X0024149Y0030567D01*
X0024302Y0030579D01*
X0024455Y0030587D01*
X0024608Y0030591D01*
X0024762Y0030591D01*
X0024915Y0030587D01*
X0025068Y0030579D01*
X0025221Y0030567D01*
X0025373Y0030551D01*
X0025526Y0030531D01*
X0025677Y0030507D01*
X0025828Y0030479D01*
X0025978Y0030448D01*
X0026127Y0030412D01*
X0026275Y0030373D01*
X0026422Y0030330D01*
X0026568Y0030283D01*
X0026713Y0030232D01*
X0026856Y0030177D01*
X0026998Y0030119D01*
X0027138Y0030057D01*
X0027277Y0029992D01*
X0027414Y0029923D01*
X0027549Y0029850D01*
X0027682Y0029774D01*
X0027813Y0029694D01*
X0027942Y0029612D01*
X0028069Y0029525D01*
X0028194Y0029436D01*
X0028316Y0029343D01*
X0028435Y0029247D01*
X0028553Y0029148D01*
X0028667Y0029047D01*
X0028779Y0028942D01*
X0028888Y0028834D01*
X0028994Y0028723D01*
X0029098Y0028610D01*
X0029198Y0028494D01*
X0029296Y0028376D01*
X0029390Y0028255D01*
X0029481Y0028132D01*
X0029569Y0028006D01*
X0029653Y0027878D01*
X0029735Y0027748D01*
X0029812Y0027616D01*
X0029887Y0027482D01*
X0029958Y0027346D01*
X0030025Y0027208D01*
X0030089Y0027068D01*
X0030149Y0026927D01*
X0030205Y0026785D01*
X0030258Y0026641D01*
X0030307Y0026495D01*
X0030352Y0026349D01*
X0030393Y0026201D01*
X0030430Y0026053D01*
X0030464Y0025903D01*
X0030494Y0025752D01*
X0030519Y0025601D01*
X0030541Y0025450D01*
X0030559Y0025297D01*
X0030573Y0025145D01*
X0030583Y0024992D01*
X0030589Y0024838D01*
X0030591Y0024685D01*
X0030589Y0024532D01*
X0030583Y0024378D01*
X0030573Y0024225D01*
X0030559Y0024073D01*
X0030541Y0023920D01*
X0030519Y0023769D01*
X0030494Y0023618D01*
X0030464Y0023467D01*
X0030430Y0023317D01*
X0030393Y0023169D01*
X0030352Y0023021D01*
X0030307Y0022875D01*
X0030258Y0022729D01*
X0030205Y0022585D01*
X0030149Y0022443D01*
X0030089Y0022302D01*
X0030025Y0022162D01*
X0029958Y0022024D01*
X0029887Y0021888D01*
X0029812Y0021754D01*
X0029735Y0021622D01*
X0029653Y0021492D01*
X0029569Y0021364D01*
X0029481Y0021238D01*
X0029390Y0021115D01*
X0029296Y0020994D01*
X0029198Y0020876D01*
X0029098Y0020760D01*
X0028994Y0020647D01*
X0028888Y0020536D01*
X0028779Y0020428D01*
X0028667Y0020323D01*
X0028553Y0020222D01*
X0028435Y0020123D01*
X0028316Y0020027D01*
X0028194Y0019934D01*
X0028069Y0019845D01*
X0027942Y0019758D01*
X0027813Y0019676D01*
X0027682Y0019596D01*
X0027549Y0019520D01*
X0027414Y0019447D01*
X0027277Y0019378D01*
X0027138Y0019313D01*
X0026998Y0019251D01*
X0026856Y0019193D01*
X0026713Y0019138D01*
X0026568Y0019087D01*
X0026422Y0019040D01*
X0026275Y0018997D01*
X0026127Y0018958D01*
X0025978Y0018922D01*
X0025828Y0018891D01*
X0025677Y0018863D01*
X0025526Y0018839D01*
X0025373Y0018819D01*
X0025221Y0018803D01*
X0025068Y0018791D01*
X0024915Y0018783D01*
X0024762Y0018779D01*
X0024608Y0018779D01*
X0024455Y0018783D01*
X0024302Y0018791D01*
X0024149Y0018803D01*
X0023997Y0018819D01*
X0023844Y0018839D01*
X0023693Y0018863D01*
X0023542Y0018891D01*
X0023392Y0018922D01*
X0023243Y0018958D01*
X0023095Y0018997D01*
X0022948Y0019040D01*
X0022802Y0019087D01*
X0022657Y0019138D01*
X0022514Y0019193D01*
X0022372Y0019251D01*
X0022232Y0019313D01*
X0022093Y0019378D01*
X0021956Y0019447D01*
X0021821Y0019520D01*
X0021688Y0019596D01*
X0021557Y0019676D01*
X0021428Y0019758D01*
X0021301Y0019845D01*
X0021176Y0019934D01*
X0021054Y0020027D01*
X0020935Y0020123D01*
X0020817Y0020222D01*
X0020703Y0020323D01*
X0020591Y0020428D01*
X0020482Y0020536D01*
X0020376Y0020647D01*
X0020272Y0020760D01*
X0020172Y0020876D01*
X0020074Y0020994D01*
X0019980Y0021115D01*
X0019889Y0021238D01*
X0019801Y0021364D01*
X0019717Y0021492D01*
X0019635Y0021622D01*
X0019558Y0021754D01*
X0019483Y0021888D01*
X0019412Y0022024D01*
X0019345Y0022162D01*
X0019281Y0022302D01*
X0019221Y0022443D01*
X0019165Y0022585D01*
X0019112Y0022729D01*
X0019063Y0022875D01*
X0019018Y0023021D01*
X0018977Y0023169D01*
X0018940Y0023317D01*
X0018906Y0023467D01*
X0018876Y0023618D01*
X0018851Y0023769D01*
X0018829Y0023920D01*
X0018811Y0024073D01*
X0018797Y0024225D01*
X0018787Y0024378D01*
X0018781Y0024532D01*
X0018779Y0024685D01*
X0018779Y0197913D02*
X0018781Y0198066D01*
X0018787Y0198220D01*
X0018797Y0198373D01*
X0018811Y0198525D01*
X0018829Y0198678D01*
X0018851Y0198829D01*
X0018876Y0198980D01*
X0018906Y0199131D01*
X0018940Y0199281D01*
X0018977Y0199429D01*
X0019018Y0199577D01*
X0019063Y0199723D01*
X0019112Y0199869D01*
X0019165Y0200013D01*
X0019221Y0200155D01*
X0019281Y0200296D01*
X0019345Y0200436D01*
X0019412Y0200574D01*
X0019483Y0200710D01*
X0019558Y0200844D01*
X0019635Y0200976D01*
X0019717Y0201106D01*
X0019801Y0201234D01*
X0019889Y0201360D01*
X0019980Y0201483D01*
X0020074Y0201604D01*
X0020172Y0201722D01*
X0020272Y0201838D01*
X0020376Y0201951D01*
X0020482Y0202062D01*
X0020591Y0202170D01*
X0020703Y0202275D01*
X0020817Y0202376D01*
X0020935Y0202475D01*
X0021054Y0202571D01*
X0021176Y0202664D01*
X0021301Y0202753D01*
X0021428Y0202840D01*
X0021557Y0202922D01*
X0021688Y0203002D01*
X0021821Y0203078D01*
X0021956Y0203151D01*
X0022093Y0203220D01*
X0022232Y0203285D01*
X0022372Y0203347D01*
X0022514Y0203405D01*
X0022657Y0203460D01*
X0022802Y0203511D01*
X0022948Y0203558D01*
X0023095Y0203601D01*
X0023243Y0203640D01*
X0023392Y0203676D01*
X0023542Y0203707D01*
X0023693Y0203735D01*
X0023844Y0203759D01*
X0023997Y0203779D01*
X0024149Y0203795D01*
X0024302Y0203807D01*
X0024455Y0203815D01*
X0024608Y0203819D01*
X0024762Y0203819D01*
X0024915Y0203815D01*
X0025068Y0203807D01*
X0025221Y0203795D01*
X0025373Y0203779D01*
X0025526Y0203759D01*
X0025677Y0203735D01*
X0025828Y0203707D01*
X0025978Y0203676D01*
X0026127Y0203640D01*
X0026275Y0203601D01*
X0026422Y0203558D01*
X0026568Y0203511D01*
X0026713Y0203460D01*
X0026856Y0203405D01*
X0026998Y0203347D01*
X0027138Y0203285D01*
X0027277Y0203220D01*
X0027414Y0203151D01*
X0027549Y0203078D01*
X0027682Y0203002D01*
X0027813Y0202922D01*
X0027942Y0202840D01*
X0028069Y0202753D01*
X0028194Y0202664D01*
X0028316Y0202571D01*
X0028435Y0202475D01*
X0028553Y0202376D01*
X0028667Y0202275D01*
X0028779Y0202170D01*
X0028888Y0202062D01*
X0028994Y0201951D01*
X0029098Y0201838D01*
X0029198Y0201722D01*
X0029296Y0201604D01*
X0029390Y0201483D01*
X0029481Y0201360D01*
X0029569Y0201234D01*
X0029653Y0201106D01*
X0029735Y0200976D01*
X0029812Y0200844D01*
X0029887Y0200710D01*
X0029958Y0200574D01*
X0030025Y0200436D01*
X0030089Y0200296D01*
X0030149Y0200155D01*
X0030205Y0200013D01*
X0030258Y0199869D01*
X0030307Y0199723D01*
X0030352Y0199577D01*
X0030393Y0199429D01*
X0030430Y0199281D01*
X0030464Y0199131D01*
X0030494Y0198980D01*
X0030519Y0198829D01*
X0030541Y0198678D01*
X0030559Y0198525D01*
X0030573Y0198373D01*
X0030583Y0198220D01*
X0030589Y0198066D01*
X0030591Y0197913D01*
X0030589Y0197760D01*
X0030583Y0197606D01*
X0030573Y0197453D01*
X0030559Y0197301D01*
X0030541Y0197148D01*
X0030519Y0196997D01*
X0030494Y0196846D01*
X0030464Y0196695D01*
X0030430Y0196545D01*
X0030393Y0196397D01*
X0030352Y0196249D01*
X0030307Y0196103D01*
X0030258Y0195957D01*
X0030205Y0195813D01*
X0030149Y0195671D01*
X0030089Y0195530D01*
X0030025Y0195390D01*
X0029958Y0195252D01*
X0029887Y0195116D01*
X0029812Y0194982D01*
X0029735Y0194850D01*
X0029653Y0194720D01*
X0029569Y0194592D01*
X0029481Y0194466D01*
X0029390Y0194343D01*
X0029296Y0194222D01*
X0029198Y0194104D01*
X0029098Y0193988D01*
X0028994Y0193875D01*
X0028888Y0193764D01*
X0028779Y0193656D01*
X0028667Y0193551D01*
X0028553Y0193450D01*
X0028435Y0193351D01*
X0028316Y0193255D01*
X0028194Y0193162D01*
X0028069Y0193073D01*
X0027942Y0192986D01*
X0027813Y0192904D01*
X0027682Y0192824D01*
X0027549Y0192748D01*
X0027414Y0192675D01*
X0027277Y0192606D01*
X0027138Y0192541D01*
X0026998Y0192479D01*
X0026856Y0192421D01*
X0026713Y0192366D01*
X0026568Y0192315D01*
X0026422Y0192268D01*
X0026275Y0192225D01*
X0026127Y0192186D01*
X0025978Y0192150D01*
X0025828Y0192119D01*
X0025677Y0192091D01*
X0025526Y0192067D01*
X0025373Y0192047D01*
X0025221Y0192031D01*
X0025068Y0192019D01*
X0024915Y0192011D01*
X0024762Y0192007D01*
X0024608Y0192007D01*
X0024455Y0192011D01*
X0024302Y0192019D01*
X0024149Y0192031D01*
X0023997Y0192047D01*
X0023844Y0192067D01*
X0023693Y0192091D01*
X0023542Y0192119D01*
X0023392Y0192150D01*
X0023243Y0192186D01*
X0023095Y0192225D01*
X0022948Y0192268D01*
X0022802Y0192315D01*
X0022657Y0192366D01*
X0022514Y0192421D01*
X0022372Y0192479D01*
X0022232Y0192541D01*
X0022093Y0192606D01*
X0021956Y0192675D01*
X0021821Y0192748D01*
X0021688Y0192824D01*
X0021557Y0192904D01*
X0021428Y0192986D01*
X0021301Y0193073D01*
X0021176Y0193162D01*
X0021054Y0193255D01*
X0020935Y0193351D01*
X0020817Y0193450D01*
X0020703Y0193551D01*
X0020591Y0193656D01*
X0020482Y0193764D01*
X0020376Y0193875D01*
X0020272Y0193988D01*
X0020172Y0194104D01*
X0020074Y0194222D01*
X0019980Y0194343D01*
X0019889Y0194466D01*
X0019801Y0194592D01*
X0019717Y0194720D01*
X0019635Y0194850D01*
X0019558Y0194982D01*
X0019483Y0195116D01*
X0019412Y0195252D01*
X0019345Y0195390D01*
X0019281Y0195530D01*
X0019221Y0195671D01*
X0019165Y0195813D01*
X0019112Y0195957D01*
X0019063Y0196103D01*
X0019018Y0196249D01*
X0018977Y0196397D01*
X0018940Y0196545D01*
X0018906Y0196695D01*
X0018876Y0196846D01*
X0018851Y0196997D01*
X0018829Y0197148D01*
X0018811Y0197301D01*
X0018797Y0197453D01*
X0018787Y0197606D01*
X0018781Y0197760D01*
X0018779Y0197913D01*
D12*
X0024685Y0197913D03*
X0024685Y0024685D03*
X0197913Y0024685D03*
X0197913Y0197913D03*
D13*
X0195709Y0181299D03*
X0195709Y0171299D03*
X0195709Y0161299D03*
X0195709Y0151299D03*
X0195709Y0141299D03*
X0195709Y0131299D03*
X0195709Y0121299D03*
X0195709Y0111299D03*
X0195709Y0101299D03*
X0195709Y0091299D03*
X0195709Y0081299D03*
X0195709Y0071299D03*
X0195709Y0061299D03*
X0195709Y0051299D03*
X0195709Y0041299D03*
X0175709Y0041299D03*
X0175709Y0051299D03*
X0175709Y0061299D03*
X0175709Y0071299D03*
X0175709Y0081299D03*
X0175709Y0091299D03*
X0175709Y0101299D03*
X0175709Y0111299D03*
X0175709Y0121299D03*
X0175709Y0131299D03*
X0175709Y0141299D03*
X0175709Y0151299D03*
X0175709Y0161299D03*
X0175709Y0171299D03*
X0175709Y0181299D03*
D14*
X0142008Y0102639D02*
X0142008Y0100275D01*
X0142008Y0100275D01*
X0142008Y0102639D01*
X0142008Y0102639D01*
X0142008Y0101461D02*
X0142008Y0101461D01*
X0140433Y0102639D02*
X0140433Y0100275D01*
X0140433Y0100275D01*
X0140433Y0102639D01*
X0140433Y0102639D01*
X0140433Y0101461D02*
X0140433Y0101461D01*
X0138858Y0102639D02*
X0138858Y0100275D01*
X0138858Y0100275D01*
X0138858Y0102639D01*
X0138858Y0102639D01*
X0138858Y0101461D02*
X0138858Y0101461D01*
X0137283Y0102639D02*
X0137283Y0100275D01*
X0137283Y0100275D01*
X0137283Y0102639D01*
X0137283Y0102639D01*
X0137283Y0101461D02*
X0137283Y0101461D01*
X0135709Y0102639D02*
X0135709Y0100275D01*
X0135709Y0100275D01*
X0135709Y0102639D01*
X0135709Y0102639D01*
X0135709Y0101461D02*
X0135709Y0101461D01*
X0134135Y0098701D02*
X0134135Y0098701D01*
X0131771Y0098701D01*
X0131771Y0098701D01*
X0134135Y0098701D01*
X0134135Y0097126D02*
X0134135Y0097126D01*
X0131771Y0097126D01*
X0131771Y0097126D01*
X0134135Y0097126D01*
X0134135Y0095551D02*
X0134135Y0095551D01*
X0131771Y0095551D01*
X0131771Y0095551D01*
X0134135Y0095551D01*
X0134135Y0093976D02*
X0134135Y0093976D01*
X0131771Y0093976D01*
X0131771Y0093976D01*
X0134135Y0093976D01*
X0134135Y0092402D02*
X0134135Y0092402D01*
X0131771Y0092402D01*
X0131771Y0092402D01*
X0134135Y0092402D01*
X0135709Y0090828D02*
X0135709Y0088464D01*
X0135709Y0088464D01*
X0135709Y0090828D01*
X0135709Y0090828D01*
X0135709Y0089650D02*
X0135709Y0089650D01*
X0137283Y0090828D02*
X0137283Y0088464D01*
X0137283Y0088464D01*
X0137283Y0090828D01*
X0137283Y0090828D01*
X0137283Y0089650D02*
X0137283Y0089650D01*
X0138858Y0090828D02*
X0138858Y0088464D01*
X0138858Y0088464D01*
X0138858Y0090828D01*
X0138858Y0090828D01*
X0138858Y0089650D02*
X0138858Y0089650D01*
X0140433Y0090828D02*
X0140433Y0088464D01*
X0140433Y0088464D01*
X0140433Y0090828D01*
X0140433Y0090828D01*
X0140433Y0089650D02*
X0140433Y0089650D01*
X0142008Y0090828D02*
X0142008Y0088464D01*
X0142008Y0088464D01*
X0142008Y0090828D01*
X0142008Y0090828D01*
X0142008Y0089650D02*
X0142008Y0089650D01*
X0145946Y0092402D02*
X0145946Y0092402D01*
X0143582Y0092402D01*
X0143582Y0092402D01*
X0145946Y0092402D01*
X0145946Y0093976D02*
X0145946Y0093976D01*
X0143582Y0093976D01*
X0143582Y0093976D01*
X0145946Y0093976D01*
X0145946Y0095551D02*
X0145946Y0095551D01*
X0143582Y0095551D01*
X0143582Y0095551D01*
X0145946Y0095551D01*
X0145946Y0097126D02*
X0145946Y0097126D01*
X0143582Y0097126D01*
X0143582Y0097126D01*
X0145946Y0097126D01*
X0145946Y0098701D02*
X0145946Y0098701D01*
X0143582Y0098701D01*
X0143582Y0098701D01*
X0145946Y0098701D01*
D15*
X0138858Y0095551D03*
D16*
X0138858Y0054213D03*
D17*
X0131772Y0058150D03*
X0128819Y0049488D03*
X0130197Y0024291D03*
X0150276Y0024291D03*
X0149094Y0034528D03*
X0149094Y0054213D03*
D18*
X0140923Y0155471D02*
X0140923Y0159569D01*
X0141911Y0159569D01*
X0141911Y0155471D01*
X0140923Y0155471D01*
X0140923Y0156457D02*
X0141911Y0156457D01*
X0141911Y0157443D02*
X0140923Y0157443D01*
X0140923Y0158429D02*
X0141911Y0158429D01*
X0141911Y0159415D02*
X0140923Y0159415D01*
X0135805Y0159569D02*
X0135805Y0155471D01*
X0135805Y0159569D02*
X0136793Y0159569D01*
X0136793Y0155471D01*
X0135805Y0155471D01*
X0135805Y0156457D02*
X0136793Y0156457D01*
X0136793Y0157443D02*
X0135805Y0157443D01*
X0135805Y0158429D02*
X0136793Y0158429D01*
X0136793Y0159415D02*
X0135805Y0159415D01*
X0135805Y0163030D02*
X0135805Y0167128D01*
X0136793Y0167128D01*
X0136793Y0163030D01*
X0135805Y0163030D01*
X0135805Y0164016D02*
X0136793Y0164016D01*
X0136793Y0165002D02*
X0135805Y0165002D01*
X0135805Y0165988D02*
X0136793Y0165988D01*
X0136793Y0166974D02*
X0135805Y0166974D01*
X0138364Y0167128D02*
X0138364Y0163030D01*
X0138364Y0167128D02*
X0139352Y0167128D01*
X0139352Y0163030D01*
X0138364Y0163030D01*
X0138364Y0164016D02*
X0139352Y0164016D01*
X0139352Y0165002D02*
X0138364Y0165002D01*
X0138364Y0165988D02*
X0139352Y0165988D01*
X0139352Y0166974D02*
X0138364Y0166974D01*
X0140923Y0167128D02*
X0140923Y0163030D01*
X0140923Y0167128D02*
X0141911Y0167128D01*
X0141911Y0163030D01*
X0140923Y0163030D01*
X0140923Y0164016D02*
X0141911Y0164016D01*
X0141911Y0165002D02*
X0140923Y0165002D01*
X0140923Y0165988D02*
X0141911Y0165988D01*
X0141911Y0166974D02*
X0140923Y0166974D01*
D19*
X0146929Y0201850D03*
X0154409Y0201850D03*
D20*
X0124291Y0118583D03*
X0124291Y0111102D03*
X0132559Y0114843D03*
D21*
X0142205Y0112480D03*
X0148898Y0112480D03*
X0130000Y0125079D03*
X0123307Y0125079D03*
X0152047Y0158150D03*
X0158740Y0158150D03*
X0158740Y0166024D03*
X0152047Y0166024D03*
X0152047Y0173898D03*
X0158740Y0173898D03*
X0158740Y0181772D03*
X0152047Y0181772D03*
X0146142Y0181772D03*
X0139449Y0181772D03*
X0135906Y0189646D03*
X0129213Y0189646D03*
X0130000Y0180591D03*
X0123307Y0180591D03*
X0123307Y0172717D03*
X0130000Y0172717D03*
X0148898Y0086496D03*
X0155591Y0086496D03*
X0148110Y0077047D03*
X0148110Y0069173D03*
X0141417Y0069173D03*
X0141417Y0077047D03*
X0172126Y0030984D03*
X0178819Y0030984D03*
X0178819Y0023110D03*
X0172126Y0023110D03*
X0165039Y0023110D03*
X0158346Y0023110D03*
X0158346Y0014843D03*
X0165039Y0014843D03*
X0172126Y0014843D03*
X0178819Y0014843D03*
D22*
X0158543Y0029606D03*
X0158543Y0036299D03*
X0121535Y0037283D03*
X0121535Y0030591D03*
X0128228Y0083543D03*
X0128228Y0090236D03*
X0130984Y0134724D03*
X0130984Y0141417D03*
X0142795Y0144173D03*
X0142795Y0150866D03*
X0151850Y0150866D03*
X0151850Y0144173D03*
X0130591Y0157953D03*
X0130591Y0164646D03*
X0122717Y0164646D03*
X0122717Y0157953D03*
X0119173Y0188268D03*
X0119173Y0194961D03*
D23*
X0123110Y0206575D03*
D24*
X0121240Y0200758D03*
X0124980Y0200758D03*
D25*
X0104823Y0208541D02*
X0104823Y0209916D01*
X0104823Y0208541D02*
X0102073Y0205791D01*
X0102073Y0201666D01*
X0102073Y0205791D02*
X0099323Y0208541D01*
X0099323Y0209916D01*
X0095760Y0201666D02*
X0090260Y0201666D01*
X0090260Y0209916D01*
X0086697Y0209916D02*
X0081198Y0209916D01*
X0081198Y0201666D01*
X0081198Y0205791D02*
X0083947Y0205791D01*
X0077634Y0205791D02*
X0072135Y0205791D01*
X0068572Y0209916D02*
X0063072Y0209916D01*
X0063072Y0201666D01*
X0068572Y0201666D01*
X0065822Y0205791D02*
X0063072Y0205791D01*
X0059509Y0205791D02*
X0054009Y0205791D01*
X0054009Y0201666D02*
X0054009Y0209916D01*
X0050446Y0209916D02*
X0044946Y0209916D01*
X0047696Y0209916D02*
X0047696Y0201666D01*
X0059509Y0201666D02*
X0059509Y0209916D01*
M02*
