G75*
%MOIN*%
%OFA0B0*%
%FSLAX25Y25*%
%IPPOS*%
%LPD*%
%AMOC8*
5,1,8,0,0,1.08239X$1,22.5*
%
%ADD10C,0.00039*%
%ADD11C,0.00000*%
D10*
X0005000Y0024685D02*
X0005000Y0197913D01*
X0005006Y0198389D01*
X0005023Y0198864D01*
X0005052Y0199339D01*
X0005092Y0199813D01*
X0005144Y0200286D01*
X0005207Y0200757D01*
X0005281Y0201227D01*
X0005367Y0201695D01*
X0005464Y0202161D01*
X0005572Y0202624D01*
X0005691Y0203084D01*
X0005822Y0203542D01*
X0005963Y0203996D01*
X0006116Y0204447D01*
X0006279Y0204893D01*
X0006453Y0205336D01*
X0006638Y0205774D01*
X0006833Y0206208D01*
X0007039Y0206637D01*
X0007255Y0207061D01*
X0007481Y0207480D01*
X0007717Y0207893D01*
X0007963Y0208300D01*
X0008219Y0208701D01*
X0008485Y0209095D01*
X0008760Y0209484D01*
X0009044Y0209865D01*
X0009337Y0210239D01*
X0009639Y0210607D01*
X0009951Y0210967D01*
X0010270Y0211319D01*
X0010598Y0211663D01*
X0010935Y0212000D01*
X0011279Y0212328D01*
X0011631Y0212647D01*
X0011991Y0212959D01*
X0012359Y0213261D01*
X0012733Y0213554D01*
X0013114Y0213838D01*
X0013503Y0214113D01*
X0013897Y0214379D01*
X0014298Y0214635D01*
X0014705Y0214881D01*
X0015118Y0215117D01*
X0015537Y0215343D01*
X0015961Y0215559D01*
X0016390Y0215765D01*
X0016824Y0215960D01*
X0017262Y0216145D01*
X0017705Y0216319D01*
X0018151Y0216482D01*
X0018602Y0216635D01*
X0019056Y0216776D01*
X0019514Y0216907D01*
X0019974Y0217026D01*
X0020437Y0217134D01*
X0020903Y0217231D01*
X0021371Y0217317D01*
X0021841Y0217391D01*
X0022312Y0217454D01*
X0022785Y0217506D01*
X0023259Y0217546D01*
X0023734Y0217575D01*
X0024209Y0217592D01*
X0024685Y0217598D01*
X0197913Y0217598D01*
X0198389Y0217592D01*
X0198864Y0217575D01*
X0199339Y0217546D01*
X0199813Y0217506D01*
X0200286Y0217454D01*
X0200757Y0217391D01*
X0201227Y0217317D01*
X0201695Y0217231D01*
X0202161Y0217134D01*
X0202624Y0217026D01*
X0203084Y0216907D01*
X0203542Y0216776D01*
X0203996Y0216635D01*
X0204447Y0216482D01*
X0204893Y0216319D01*
X0205336Y0216145D01*
X0205774Y0215960D01*
X0206208Y0215765D01*
X0206637Y0215559D01*
X0207061Y0215343D01*
X0207480Y0215117D01*
X0207893Y0214881D01*
X0208300Y0214635D01*
X0208701Y0214379D01*
X0209095Y0214113D01*
X0209484Y0213838D01*
X0209865Y0213554D01*
X0210239Y0213261D01*
X0210607Y0212959D01*
X0210967Y0212647D01*
X0211319Y0212328D01*
X0211663Y0212000D01*
X0212000Y0211663D01*
X0212328Y0211319D01*
X0212647Y0210967D01*
X0212959Y0210607D01*
X0213261Y0210239D01*
X0213554Y0209865D01*
X0213838Y0209484D01*
X0214113Y0209095D01*
X0214379Y0208701D01*
X0214635Y0208300D01*
X0214881Y0207893D01*
X0215117Y0207480D01*
X0215343Y0207061D01*
X0215559Y0206637D01*
X0215765Y0206208D01*
X0215960Y0205774D01*
X0216145Y0205336D01*
X0216319Y0204893D01*
X0216482Y0204447D01*
X0216635Y0203996D01*
X0216776Y0203542D01*
X0216907Y0203084D01*
X0217026Y0202624D01*
X0217134Y0202161D01*
X0217231Y0201695D01*
X0217317Y0201227D01*
X0217391Y0200757D01*
X0217454Y0200286D01*
X0217506Y0199813D01*
X0217546Y0199339D01*
X0217575Y0198864D01*
X0217592Y0198389D01*
X0217598Y0197913D01*
X0217598Y0024685D01*
X0217592Y0024209D01*
X0217575Y0023734D01*
X0217546Y0023259D01*
X0217506Y0022785D01*
X0217454Y0022312D01*
X0217391Y0021841D01*
X0217317Y0021371D01*
X0217231Y0020903D01*
X0217134Y0020437D01*
X0217026Y0019974D01*
X0216907Y0019514D01*
X0216776Y0019056D01*
X0216635Y0018602D01*
X0216482Y0018151D01*
X0216319Y0017705D01*
X0216145Y0017262D01*
X0215960Y0016824D01*
X0215765Y0016390D01*
X0215559Y0015961D01*
X0215343Y0015537D01*
X0215117Y0015118D01*
X0214881Y0014705D01*
X0214635Y0014298D01*
X0214379Y0013897D01*
X0214113Y0013503D01*
X0213838Y0013114D01*
X0213554Y0012733D01*
X0213261Y0012359D01*
X0212959Y0011991D01*
X0212647Y0011631D01*
X0212328Y0011279D01*
X0212000Y0010935D01*
X0211663Y0010598D01*
X0211319Y0010270D01*
X0210967Y0009951D01*
X0210607Y0009639D01*
X0210239Y0009337D01*
X0209865Y0009044D01*
X0209484Y0008760D01*
X0209095Y0008485D01*
X0208701Y0008219D01*
X0208300Y0007963D01*
X0207893Y0007717D01*
X0207480Y0007481D01*
X0207061Y0007255D01*
X0206637Y0007039D01*
X0206208Y0006833D01*
X0205774Y0006638D01*
X0205336Y0006453D01*
X0204893Y0006279D01*
X0204447Y0006116D01*
X0203996Y0005963D01*
X0203542Y0005822D01*
X0203084Y0005691D01*
X0202624Y0005572D01*
X0202161Y0005464D01*
X0201695Y0005367D01*
X0201227Y0005281D01*
X0200757Y0005207D01*
X0200286Y0005144D01*
X0199813Y0005092D01*
X0199339Y0005052D01*
X0198864Y0005023D01*
X0198389Y0005006D01*
X0197913Y0005000D01*
X0024685Y0005000D01*
X0024209Y0005006D01*
X0023734Y0005023D01*
X0023259Y0005052D01*
X0022785Y0005092D01*
X0022312Y0005144D01*
X0021841Y0005207D01*
X0021371Y0005281D01*
X0020903Y0005367D01*
X0020437Y0005464D01*
X0019974Y0005572D01*
X0019514Y0005691D01*
X0019056Y0005822D01*
X0018602Y0005963D01*
X0018151Y0006116D01*
X0017705Y0006279D01*
X0017262Y0006453D01*
X0016824Y0006638D01*
X0016390Y0006833D01*
X0015961Y0007039D01*
X0015537Y0007255D01*
X0015118Y0007481D01*
X0014705Y0007717D01*
X0014298Y0007963D01*
X0013897Y0008219D01*
X0013503Y0008485D01*
X0013114Y0008760D01*
X0012733Y0009044D01*
X0012359Y0009337D01*
X0011991Y0009639D01*
X0011631Y0009951D01*
X0011279Y0010270D01*
X0010935Y0010598D01*
X0010598Y0010935D01*
X0010270Y0011279D01*
X0009951Y0011631D01*
X0009639Y0011991D01*
X0009337Y0012359D01*
X0009044Y0012733D01*
X0008760Y0013114D01*
X0008485Y0013503D01*
X0008219Y0013897D01*
X0007963Y0014298D01*
X0007717Y0014705D01*
X0007481Y0015118D01*
X0007255Y0015537D01*
X0007039Y0015961D01*
X0006833Y0016390D01*
X0006638Y0016824D01*
X0006453Y0017262D01*
X0006279Y0017705D01*
X0006116Y0018151D01*
X0005963Y0018602D01*
X0005822Y0019056D01*
X0005691Y0019514D01*
X0005572Y0019974D01*
X0005464Y0020437D01*
X0005367Y0020903D01*
X0005281Y0021371D01*
X0005207Y0021841D01*
X0005144Y0022312D01*
X0005092Y0022785D01*
X0005052Y0023259D01*
X0005023Y0023734D01*
X0005006Y0024209D01*
X0005000Y0024685D01*
D11*
X0018779Y0024685D02*
X0018781Y0024838D01*
X0018787Y0024992D01*
X0018797Y0025145D01*
X0018811Y0025297D01*
X0018829Y0025450D01*
X0018851Y0025601D01*
X0018876Y0025752D01*
X0018906Y0025903D01*
X0018940Y0026053D01*
X0018977Y0026201D01*
X0019018Y0026349D01*
X0019063Y0026495D01*
X0019112Y0026641D01*
X0019165Y0026785D01*
X0019221Y0026927D01*
X0019281Y0027068D01*
X0019345Y0027208D01*
X0019412Y0027346D01*
X0019483Y0027482D01*
X0019558Y0027616D01*
X0019635Y0027748D01*
X0019717Y0027878D01*
X0019801Y0028006D01*
X0019889Y0028132D01*
X0019980Y0028255D01*
X0020074Y0028376D01*
X0020172Y0028494D01*
X0020272Y0028610D01*
X0020376Y0028723D01*
X0020482Y0028834D01*
X0020591Y0028942D01*
X0020703Y0029047D01*
X0020817Y0029148D01*
X0020935Y0029247D01*
X0021054Y0029343D01*
X0021176Y0029436D01*
X0021301Y0029525D01*
X0021428Y0029612D01*
X0021557Y0029694D01*
X0021688Y0029774D01*
X0021821Y0029850D01*
X0021956Y0029923D01*
X0022093Y0029992D01*
X0022232Y0030057D01*
X0022372Y0030119D01*
X0022514Y0030177D01*
X0022657Y0030232D01*
X0022802Y0030283D01*
X0022948Y0030330D01*
X0023095Y0030373D01*
X0023243Y0030412D01*
X0023392Y0030448D01*
X0023542Y0030479D01*
X0023693Y0030507D01*
X0023844Y0030531D01*
X0023997Y0030551D01*
X0024149Y0030567D01*
X0024302Y0030579D01*
X0024455Y0030587D01*
X0024608Y0030591D01*
X0024762Y0030591D01*
X0024915Y0030587D01*
X0025068Y0030579D01*
X0025221Y0030567D01*
X0025373Y0030551D01*
X0025526Y0030531D01*
X0025677Y0030507D01*
X0025828Y0030479D01*
X0025978Y0030448D01*
X0026127Y0030412D01*
X0026275Y0030373D01*
X0026422Y0030330D01*
X0026568Y0030283D01*
X0026713Y0030232D01*
X0026856Y0030177D01*
X0026998Y0030119D01*
X0027138Y0030057D01*
X0027277Y0029992D01*
X0027414Y0029923D01*
X0027549Y0029850D01*
X0027682Y0029774D01*
X0027813Y0029694D01*
X0027942Y0029612D01*
X0028069Y0029525D01*
X0028194Y0029436D01*
X0028316Y0029343D01*
X0028435Y0029247D01*
X0028553Y0029148D01*
X0028667Y0029047D01*
X0028779Y0028942D01*
X0028888Y0028834D01*
X0028994Y0028723D01*
X0029098Y0028610D01*
X0029198Y0028494D01*
X0029296Y0028376D01*
X0029390Y0028255D01*
X0029481Y0028132D01*
X0029569Y0028006D01*
X0029653Y0027878D01*
X0029735Y0027748D01*
X0029812Y0027616D01*
X0029887Y0027482D01*
X0029958Y0027346D01*
X0030025Y0027208D01*
X0030089Y0027068D01*
X0030149Y0026927D01*
X0030205Y0026785D01*
X0030258Y0026641D01*
X0030307Y0026495D01*
X0030352Y0026349D01*
X0030393Y0026201D01*
X0030430Y0026053D01*
X0030464Y0025903D01*
X0030494Y0025752D01*
X0030519Y0025601D01*
X0030541Y0025450D01*
X0030559Y0025297D01*
X0030573Y0025145D01*
X0030583Y0024992D01*
X0030589Y0024838D01*
X0030591Y0024685D01*
X0030589Y0024532D01*
X0030583Y0024378D01*
X0030573Y0024225D01*
X0030559Y0024073D01*
X0030541Y0023920D01*
X0030519Y0023769D01*
X0030494Y0023618D01*
X0030464Y0023467D01*
X0030430Y0023317D01*
X0030393Y0023169D01*
X0030352Y0023021D01*
X0030307Y0022875D01*
X0030258Y0022729D01*
X0030205Y0022585D01*
X0030149Y0022443D01*
X0030089Y0022302D01*
X0030025Y0022162D01*
X0029958Y0022024D01*
X0029887Y0021888D01*
X0029812Y0021754D01*
X0029735Y0021622D01*
X0029653Y0021492D01*
X0029569Y0021364D01*
X0029481Y0021238D01*
X0029390Y0021115D01*
X0029296Y0020994D01*
X0029198Y0020876D01*
X0029098Y0020760D01*
X0028994Y0020647D01*
X0028888Y0020536D01*
X0028779Y0020428D01*
X0028667Y0020323D01*
X0028553Y0020222D01*
X0028435Y0020123D01*
X0028316Y0020027D01*
X0028194Y0019934D01*
X0028069Y0019845D01*
X0027942Y0019758D01*
X0027813Y0019676D01*
X0027682Y0019596D01*
X0027549Y0019520D01*
X0027414Y0019447D01*
X0027277Y0019378D01*
X0027138Y0019313D01*
X0026998Y0019251D01*
X0026856Y0019193D01*
X0026713Y0019138D01*
X0026568Y0019087D01*
X0026422Y0019040D01*
X0026275Y0018997D01*
X0026127Y0018958D01*
X0025978Y0018922D01*
X0025828Y0018891D01*
X0025677Y0018863D01*
X0025526Y0018839D01*
X0025373Y0018819D01*
X0025221Y0018803D01*
X0025068Y0018791D01*
X0024915Y0018783D01*
X0024762Y0018779D01*
X0024608Y0018779D01*
X0024455Y0018783D01*
X0024302Y0018791D01*
X0024149Y0018803D01*
X0023997Y0018819D01*
X0023844Y0018839D01*
X0023693Y0018863D01*
X0023542Y0018891D01*
X0023392Y0018922D01*
X0023243Y0018958D01*
X0023095Y0018997D01*
X0022948Y0019040D01*
X0022802Y0019087D01*
X0022657Y0019138D01*
X0022514Y0019193D01*
X0022372Y0019251D01*
X0022232Y0019313D01*
X0022093Y0019378D01*
X0021956Y0019447D01*
X0021821Y0019520D01*
X0021688Y0019596D01*
X0021557Y0019676D01*
X0021428Y0019758D01*
X0021301Y0019845D01*
X0021176Y0019934D01*
X0021054Y0020027D01*
X0020935Y0020123D01*
X0020817Y0020222D01*
X0020703Y0020323D01*
X0020591Y0020428D01*
X0020482Y0020536D01*
X0020376Y0020647D01*
X0020272Y0020760D01*
X0020172Y0020876D01*
X0020074Y0020994D01*
X0019980Y0021115D01*
X0019889Y0021238D01*
X0019801Y0021364D01*
X0019717Y0021492D01*
X0019635Y0021622D01*
X0019558Y0021754D01*
X0019483Y0021888D01*
X0019412Y0022024D01*
X0019345Y0022162D01*
X0019281Y0022302D01*
X0019221Y0022443D01*
X0019165Y0022585D01*
X0019112Y0022729D01*
X0019063Y0022875D01*
X0019018Y0023021D01*
X0018977Y0023169D01*
X0018940Y0023317D01*
X0018906Y0023467D01*
X0018876Y0023618D01*
X0018851Y0023769D01*
X0018829Y0023920D01*
X0018811Y0024073D01*
X0018797Y0024225D01*
X0018787Y0024378D01*
X0018781Y0024532D01*
X0018779Y0024685D01*
X0132362Y0017598D02*
X0132362Y0012874D01*
X0145354Y0012874D01*
X0145354Y0017598D01*
X0132362Y0017598D01*
X0136102Y0054213D02*
X0136104Y0054318D01*
X0136110Y0054423D01*
X0136120Y0054527D01*
X0136134Y0054631D01*
X0136152Y0054735D01*
X0136174Y0054837D01*
X0136199Y0054939D01*
X0136229Y0055040D01*
X0136262Y0055139D01*
X0136299Y0055237D01*
X0136340Y0055334D01*
X0136385Y0055429D01*
X0136433Y0055522D01*
X0136484Y0055614D01*
X0136540Y0055703D01*
X0136598Y0055790D01*
X0136660Y0055875D01*
X0136724Y0055958D01*
X0136792Y0056038D01*
X0136863Y0056115D01*
X0136937Y0056189D01*
X0137014Y0056261D01*
X0137093Y0056330D01*
X0137175Y0056395D01*
X0137259Y0056458D01*
X0137346Y0056517D01*
X0137435Y0056573D01*
X0137526Y0056626D01*
X0137619Y0056675D01*
X0137713Y0056720D01*
X0137809Y0056762D01*
X0137907Y0056800D01*
X0138006Y0056834D01*
X0138107Y0056865D01*
X0138208Y0056891D01*
X0138311Y0056914D01*
X0138414Y0056933D01*
X0138518Y0056948D01*
X0138622Y0056959D01*
X0138727Y0056966D01*
X0138832Y0056969D01*
X0138937Y0056968D01*
X0139042Y0056963D01*
X0139146Y0056954D01*
X0139250Y0056941D01*
X0139354Y0056924D01*
X0139457Y0056903D01*
X0139559Y0056878D01*
X0139660Y0056850D01*
X0139759Y0056817D01*
X0139858Y0056781D01*
X0139955Y0056741D01*
X0140050Y0056698D01*
X0140144Y0056650D01*
X0140236Y0056600D01*
X0140326Y0056546D01*
X0140414Y0056488D01*
X0140499Y0056427D01*
X0140582Y0056363D01*
X0140663Y0056296D01*
X0140741Y0056226D01*
X0140816Y0056152D01*
X0140888Y0056077D01*
X0140958Y0055998D01*
X0141024Y0055917D01*
X0141088Y0055833D01*
X0141148Y0055747D01*
X0141204Y0055659D01*
X0141258Y0055568D01*
X0141308Y0055476D01*
X0141354Y0055382D01*
X0141397Y0055286D01*
X0141436Y0055188D01*
X0141471Y0055090D01*
X0141502Y0054989D01*
X0141530Y0054888D01*
X0141554Y0054786D01*
X0141574Y0054683D01*
X0141590Y0054579D01*
X0141602Y0054475D01*
X0141610Y0054370D01*
X0141614Y0054265D01*
X0141614Y0054161D01*
X0141610Y0054056D01*
X0141602Y0053951D01*
X0141590Y0053847D01*
X0141574Y0053743D01*
X0141554Y0053640D01*
X0141530Y0053538D01*
X0141502Y0053437D01*
X0141471Y0053336D01*
X0141436Y0053238D01*
X0141397Y0053140D01*
X0141354Y0053044D01*
X0141308Y0052950D01*
X0141258Y0052858D01*
X0141204Y0052767D01*
X0141148Y0052679D01*
X0141088Y0052593D01*
X0141024Y0052509D01*
X0140958Y0052428D01*
X0140888Y0052349D01*
X0140816Y0052274D01*
X0140741Y0052200D01*
X0140663Y0052130D01*
X0140582Y0052063D01*
X0140499Y0051999D01*
X0140414Y0051938D01*
X0140326Y0051880D01*
X0140236Y0051826D01*
X0140144Y0051776D01*
X0140050Y0051728D01*
X0139955Y0051685D01*
X0139858Y0051645D01*
X0139759Y0051609D01*
X0139660Y0051576D01*
X0139559Y0051548D01*
X0139457Y0051523D01*
X0139354Y0051502D01*
X0139250Y0051485D01*
X0139146Y0051472D01*
X0139042Y0051463D01*
X0138937Y0051458D01*
X0138832Y0051457D01*
X0138727Y0051460D01*
X0138622Y0051467D01*
X0138518Y0051478D01*
X0138414Y0051493D01*
X0138311Y0051512D01*
X0138208Y0051535D01*
X0138107Y0051561D01*
X0138006Y0051592D01*
X0137907Y0051626D01*
X0137809Y0051664D01*
X0137713Y0051706D01*
X0137619Y0051751D01*
X0137526Y0051800D01*
X0137435Y0051853D01*
X0137346Y0051909D01*
X0137259Y0051968D01*
X0137175Y0052031D01*
X0137093Y0052096D01*
X0137014Y0052165D01*
X0136937Y0052237D01*
X0136863Y0052311D01*
X0136792Y0052388D01*
X0136724Y0052468D01*
X0136660Y0052551D01*
X0136598Y0052636D01*
X0136540Y0052723D01*
X0136484Y0052812D01*
X0136433Y0052904D01*
X0136385Y0052997D01*
X0136340Y0053092D01*
X0136299Y0053189D01*
X0136262Y0053287D01*
X0136229Y0053386D01*
X0136199Y0053487D01*
X0136174Y0053589D01*
X0136152Y0053691D01*
X0136134Y0053795D01*
X0136120Y0053899D01*
X0136110Y0054003D01*
X0136104Y0054108D01*
X0136102Y0054213D01*
X0192007Y0024685D02*
X0192009Y0024838D01*
X0192015Y0024992D01*
X0192025Y0025145D01*
X0192039Y0025297D01*
X0192057Y0025450D01*
X0192079Y0025601D01*
X0192104Y0025752D01*
X0192134Y0025903D01*
X0192168Y0026053D01*
X0192205Y0026201D01*
X0192246Y0026349D01*
X0192291Y0026495D01*
X0192340Y0026641D01*
X0192393Y0026785D01*
X0192449Y0026927D01*
X0192509Y0027068D01*
X0192573Y0027208D01*
X0192640Y0027346D01*
X0192711Y0027482D01*
X0192786Y0027616D01*
X0192863Y0027748D01*
X0192945Y0027878D01*
X0193029Y0028006D01*
X0193117Y0028132D01*
X0193208Y0028255D01*
X0193302Y0028376D01*
X0193400Y0028494D01*
X0193500Y0028610D01*
X0193604Y0028723D01*
X0193710Y0028834D01*
X0193819Y0028942D01*
X0193931Y0029047D01*
X0194045Y0029148D01*
X0194163Y0029247D01*
X0194282Y0029343D01*
X0194404Y0029436D01*
X0194529Y0029525D01*
X0194656Y0029612D01*
X0194785Y0029694D01*
X0194916Y0029774D01*
X0195049Y0029850D01*
X0195184Y0029923D01*
X0195321Y0029992D01*
X0195460Y0030057D01*
X0195600Y0030119D01*
X0195742Y0030177D01*
X0195885Y0030232D01*
X0196030Y0030283D01*
X0196176Y0030330D01*
X0196323Y0030373D01*
X0196471Y0030412D01*
X0196620Y0030448D01*
X0196770Y0030479D01*
X0196921Y0030507D01*
X0197072Y0030531D01*
X0197225Y0030551D01*
X0197377Y0030567D01*
X0197530Y0030579D01*
X0197683Y0030587D01*
X0197836Y0030591D01*
X0197990Y0030591D01*
X0198143Y0030587D01*
X0198296Y0030579D01*
X0198449Y0030567D01*
X0198601Y0030551D01*
X0198754Y0030531D01*
X0198905Y0030507D01*
X0199056Y0030479D01*
X0199206Y0030448D01*
X0199355Y0030412D01*
X0199503Y0030373D01*
X0199650Y0030330D01*
X0199796Y0030283D01*
X0199941Y0030232D01*
X0200084Y0030177D01*
X0200226Y0030119D01*
X0200366Y0030057D01*
X0200505Y0029992D01*
X0200642Y0029923D01*
X0200777Y0029850D01*
X0200910Y0029774D01*
X0201041Y0029694D01*
X0201170Y0029612D01*
X0201297Y0029525D01*
X0201422Y0029436D01*
X0201544Y0029343D01*
X0201663Y0029247D01*
X0201781Y0029148D01*
X0201895Y0029047D01*
X0202007Y0028942D01*
X0202116Y0028834D01*
X0202222Y0028723D01*
X0202326Y0028610D01*
X0202426Y0028494D01*
X0202524Y0028376D01*
X0202618Y0028255D01*
X0202709Y0028132D01*
X0202797Y0028006D01*
X0202881Y0027878D01*
X0202963Y0027748D01*
X0203040Y0027616D01*
X0203115Y0027482D01*
X0203186Y0027346D01*
X0203253Y0027208D01*
X0203317Y0027068D01*
X0203377Y0026927D01*
X0203433Y0026785D01*
X0203486Y0026641D01*
X0203535Y0026495D01*
X0203580Y0026349D01*
X0203621Y0026201D01*
X0203658Y0026053D01*
X0203692Y0025903D01*
X0203722Y0025752D01*
X0203747Y0025601D01*
X0203769Y0025450D01*
X0203787Y0025297D01*
X0203801Y0025145D01*
X0203811Y0024992D01*
X0203817Y0024838D01*
X0203819Y0024685D01*
X0203817Y0024532D01*
X0203811Y0024378D01*
X0203801Y0024225D01*
X0203787Y0024073D01*
X0203769Y0023920D01*
X0203747Y0023769D01*
X0203722Y0023618D01*
X0203692Y0023467D01*
X0203658Y0023317D01*
X0203621Y0023169D01*
X0203580Y0023021D01*
X0203535Y0022875D01*
X0203486Y0022729D01*
X0203433Y0022585D01*
X0203377Y0022443D01*
X0203317Y0022302D01*
X0203253Y0022162D01*
X0203186Y0022024D01*
X0203115Y0021888D01*
X0203040Y0021754D01*
X0202963Y0021622D01*
X0202881Y0021492D01*
X0202797Y0021364D01*
X0202709Y0021238D01*
X0202618Y0021115D01*
X0202524Y0020994D01*
X0202426Y0020876D01*
X0202326Y0020760D01*
X0202222Y0020647D01*
X0202116Y0020536D01*
X0202007Y0020428D01*
X0201895Y0020323D01*
X0201781Y0020222D01*
X0201663Y0020123D01*
X0201544Y0020027D01*
X0201422Y0019934D01*
X0201297Y0019845D01*
X0201170Y0019758D01*
X0201041Y0019676D01*
X0200910Y0019596D01*
X0200777Y0019520D01*
X0200642Y0019447D01*
X0200505Y0019378D01*
X0200366Y0019313D01*
X0200226Y0019251D01*
X0200084Y0019193D01*
X0199941Y0019138D01*
X0199796Y0019087D01*
X0199650Y0019040D01*
X0199503Y0018997D01*
X0199355Y0018958D01*
X0199206Y0018922D01*
X0199056Y0018891D01*
X0198905Y0018863D01*
X0198754Y0018839D01*
X0198601Y0018819D01*
X0198449Y0018803D01*
X0198296Y0018791D01*
X0198143Y0018783D01*
X0197990Y0018779D01*
X0197836Y0018779D01*
X0197683Y0018783D01*
X0197530Y0018791D01*
X0197377Y0018803D01*
X0197225Y0018819D01*
X0197072Y0018839D01*
X0196921Y0018863D01*
X0196770Y0018891D01*
X0196620Y0018922D01*
X0196471Y0018958D01*
X0196323Y0018997D01*
X0196176Y0019040D01*
X0196030Y0019087D01*
X0195885Y0019138D01*
X0195742Y0019193D01*
X0195600Y0019251D01*
X0195460Y0019313D01*
X0195321Y0019378D01*
X0195184Y0019447D01*
X0195049Y0019520D01*
X0194916Y0019596D01*
X0194785Y0019676D01*
X0194656Y0019758D01*
X0194529Y0019845D01*
X0194404Y0019934D01*
X0194282Y0020027D01*
X0194163Y0020123D01*
X0194045Y0020222D01*
X0193931Y0020323D01*
X0193819Y0020428D01*
X0193710Y0020536D01*
X0193604Y0020647D01*
X0193500Y0020760D01*
X0193400Y0020876D01*
X0193302Y0020994D01*
X0193208Y0021115D01*
X0193117Y0021238D01*
X0193029Y0021364D01*
X0192945Y0021492D01*
X0192863Y0021622D01*
X0192786Y0021754D01*
X0192711Y0021888D01*
X0192640Y0022024D01*
X0192573Y0022162D01*
X0192509Y0022302D01*
X0192449Y0022443D01*
X0192393Y0022585D01*
X0192340Y0022729D01*
X0192291Y0022875D01*
X0192246Y0023021D01*
X0192205Y0023169D01*
X0192168Y0023317D01*
X0192134Y0023467D01*
X0192104Y0023618D01*
X0192079Y0023769D01*
X0192057Y0023920D01*
X0192039Y0024073D01*
X0192025Y0024225D01*
X0192015Y0024378D01*
X0192009Y0024532D01*
X0192007Y0024685D01*
X0192007Y0197913D02*
X0192009Y0198066D01*
X0192015Y0198220D01*
X0192025Y0198373D01*
X0192039Y0198525D01*
X0192057Y0198678D01*
X0192079Y0198829D01*
X0192104Y0198980D01*
X0192134Y0199131D01*
X0192168Y0199281D01*
X0192205Y0199429D01*
X0192246Y0199577D01*
X0192291Y0199723D01*
X0192340Y0199869D01*
X0192393Y0200013D01*
X0192449Y0200155D01*
X0192509Y0200296D01*
X0192573Y0200436D01*
X0192640Y0200574D01*
X0192711Y0200710D01*
X0192786Y0200844D01*
X0192863Y0200976D01*
X0192945Y0201106D01*
X0193029Y0201234D01*
X0193117Y0201360D01*
X0193208Y0201483D01*
X0193302Y0201604D01*
X0193400Y0201722D01*
X0193500Y0201838D01*
X0193604Y0201951D01*
X0193710Y0202062D01*
X0193819Y0202170D01*
X0193931Y0202275D01*
X0194045Y0202376D01*
X0194163Y0202475D01*
X0194282Y0202571D01*
X0194404Y0202664D01*
X0194529Y0202753D01*
X0194656Y0202840D01*
X0194785Y0202922D01*
X0194916Y0203002D01*
X0195049Y0203078D01*
X0195184Y0203151D01*
X0195321Y0203220D01*
X0195460Y0203285D01*
X0195600Y0203347D01*
X0195742Y0203405D01*
X0195885Y0203460D01*
X0196030Y0203511D01*
X0196176Y0203558D01*
X0196323Y0203601D01*
X0196471Y0203640D01*
X0196620Y0203676D01*
X0196770Y0203707D01*
X0196921Y0203735D01*
X0197072Y0203759D01*
X0197225Y0203779D01*
X0197377Y0203795D01*
X0197530Y0203807D01*
X0197683Y0203815D01*
X0197836Y0203819D01*
X0197990Y0203819D01*
X0198143Y0203815D01*
X0198296Y0203807D01*
X0198449Y0203795D01*
X0198601Y0203779D01*
X0198754Y0203759D01*
X0198905Y0203735D01*
X0199056Y0203707D01*
X0199206Y0203676D01*
X0199355Y0203640D01*
X0199503Y0203601D01*
X0199650Y0203558D01*
X0199796Y0203511D01*
X0199941Y0203460D01*
X0200084Y0203405D01*
X0200226Y0203347D01*
X0200366Y0203285D01*
X0200505Y0203220D01*
X0200642Y0203151D01*
X0200777Y0203078D01*
X0200910Y0203002D01*
X0201041Y0202922D01*
X0201170Y0202840D01*
X0201297Y0202753D01*
X0201422Y0202664D01*
X0201544Y0202571D01*
X0201663Y0202475D01*
X0201781Y0202376D01*
X0201895Y0202275D01*
X0202007Y0202170D01*
X0202116Y0202062D01*
X0202222Y0201951D01*
X0202326Y0201838D01*
X0202426Y0201722D01*
X0202524Y0201604D01*
X0202618Y0201483D01*
X0202709Y0201360D01*
X0202797Y0201234D01*
X0202881Y0201106D01*
X0202963Y0200976D01*
X0203040Y0200844D01*
X0203115Y0200710D01*
X0203186Y0200574D01*
X0203253Y0200436D01*
X0203317Y0200296D01*
X0203377Y0200155D01*
X0203433Y0200013D01*
X0203486Y0199869D01*
X0203535Y0199723D01*
X0203580Y0199577D01*
X0203621Y0199429D01*
X0203658Y0199281D01*
X0203692Y0199131D01*
X0203722Y0198980D01*
X0203747Y0198829D01*
X0203769Y0198678D01*
X0203787Y0198525D01*
X0203801Y0198373D01*
X0203811Y0198220D01*
X0203817Y0198066D01*
X0203819Y0197913D01*
X0203817Y0197760D01*
X0203811Y0197606D01*
X0203801Y0197453D01*
X0203787Y0197301D01*
X0203769Y0197148D01*
X0203747Y0196997D01*
X0203722Y0196846D01*
X0203692Y0196695D01*
X0203658Y0196545D01*
X0203621Y0196397D01*
X0203580Y0196249D01*
X0203535Y0196103D01*
X0203486Y0195957D01*
X0203433Y0195813D01*
X0203377Y0195671D01*
X0203317Y0195530D01*
X0203253Y0195390D01*
X0203186Y0195252D01*
X0203115Y0195116D01*
X0203040Y0194982D01*
X0202963Y0194850D01*
X0202881Y0194720D01*
X0202797Y0194592D01*
X0202709Y0194466D01*
X0202618Y0194343D01*
X0202524Y0194222D01*
X0202426Y0194104D01*
X0202326Y0193988D01*
X0202222Y0193875D01*
X0202116Y0193764D01*
X0202007Y0193656D01*
X0201895Y0193551D01*
X0201781Y0193450D01*
X0201663Y0193351D01*
X0201544Y0193255D01*
X0201422Y0193162D01*
X0201297Y0193073D01*
X0201170Y0192986D01*
X0201041Y0192904D01*
X0200910Y0192824D01*
X0200777Y0192748D01*
X0200642Y0192675D01*
X0200505Y0192606D01*
X0200366Y0192541D01*
X0200226Y0192479D01*
X0200084Y0192421D01*
X0199941Y0192366D01*
X0199796Y0192315D01*
X0199650Y0192268D01*
X0199503Y0192225D01*
X0199355Y0192186D01*
X0199206Y0192150D01*
X0199056Y0192119D01*
X0198905Y0192091D01*
X0198754Y0192067D01*
X0198601Y0192047D01*
X0198449Y0192031D01*
X0198296Y0192019D01*
X0198143Y0192011D01*
X0197990Y0192007D01*
X0197836Y0192007D01*
X0197683Y0192011D01*
X0197530Y0192019D01*
X0197377Y0192031D01*
X0197225Y0192047D01*
X0197072Y0192067D01*
X0196921Y0192091D01*
X0196770Y0192119D01*
X0196620Y0192150D01*
X0196471Y0192186D01*
X0196323Y0192225D01*
X0196176Y0192268D01*
X0196030Y0192315D01*
X0195885Y0192366D01*
X0195742Y0192421D01*
X0195600Y0192479D01*
X0195460Y0192541D01*
X0195321Y0192606D01*
X0195184Y0192675D01*
X0195049Y0192748D01*
X0194916Y0192824D01*
X0194785Y0192904D01*
X0194656Y0192986D01*
X0194529Y0193073D01*
X0194404Y0193162D01*
X0194282Y0193255D01*
X0194163Y0193351D01*
X0194045Y0193450D01*
X0193931Y0193551D01*
X0193819Y0193656D01*
X0193710Y0193764D01*
X0193604Y0193875D01*
X0193500Y0193988D01*
X0193400Y0194104D01*
X0193302Y0194222D01*
X0193208Y0194343D01*
X0193117Y0194466D01*
X0193029Y0194592D01*
X0192945Y0194720D01*
X0192863Y0194850D01*
X0192786Y0194982D01*
X0192711Y0195116D01*
X0192640Y0195252D01*
X0192573Y0195390D01*
X0192509Y0195530D01*
X0192449Y0195671D01*
X0192393Y0195813D01*
X0192340Y0195957D01*
X0192291Y0196103D01*
X0192246Y0196249D01*
X0192205Y0196397D01*
X0192168Y0196545D01*
X0192134Y0196695D01*
X0192104Y0196846D01*
X0192079Y0196997D01*
X0192057Y0197148D01*
X0192039Y0197301D01*
X0192025Y0197453D01*
X0192015Y0197606D01*
X0192009Y0197760D01*
X0192007Y0197913D01*
X0121830Y0206575D02*
X0121832Y0206646D01*
X0121838Y0206717D01*
X0121848Y0206788D01*
X0121862Y0206857D01*
X0121879Y0206926D01*
X0121901Y0206994D01*
X0121926Y0207061D01*
X0121955Y0207126D01*
X0121987Y0207189D01*
X0122023Y0207251D01*
X0122062Y0207310D01*
X0122105Y0207367D01*
X0122150Y0207422D01*
X0122199Y0207474D01*
X0122250Y0207523D01*
X0122304Y0207569D01*
X0122361Y0207613D01*
X0122419Y0207653D01*
X0122480Y0207689D01*
X0122543Y0207723D01*
X0122608Y0207752D01*
X0122674Y0207778D01*
X0122742Y0207801D01*
X0122810Y0207819D01*
X0122880Y0207834D01*
X0122950Y0207845D01*
X0123021Y0207852D01*
X0123092Y0207855D01*
X0123163Y0207854D01*
X0123234Y0207849D01*
X0123305Y0207840D01*
X0123375Y0207827D01*
X0123444Y0207811D01*
X0123512Y0207790D01*
X0123579Y0207766D01*
X0123645Y0207738D01*
X0123708Y0207706D01*
X0123770Y0207671D01*
X0123830Y0207633D01*
X0123888Y0207591D01*
X0123943Y0207547D01*
X0123996Y0207499D01*
X0124046Y0207448D01*
X0124093Y0207395D01*
X0124137Y0207339D01*
X0124178Y0207281D01*
X0124216Y0207220D01*
X0124250Y0207158D01*
X0124280Y0207093D01*
X0124307Y0207028D01*
X0124331Y0206960D01*
X0124350Y0206892D01*
X0124366Y0206823D01*
X0124378Y0206752D01*
X0124386Y0206682D01*
X0124390Y0206611D01*
X0124390Y0206539D01*
X0124386Y0206468D01*
X0124378Y0206398D01*
X0124366Y0206327D01*
X0124350Y0206258D01*
X0124331Y0206190D01*
X0124307Y0206122D01*
X0124280Y0206057D01*
X0124250Y0205992D01*
X0124216Y0205930D01*
X0124178Y0205869D01*
X0124137Y0205811D01*
X0124093Y0205755D01*
X0124046Y0205702D01*
X0123996Y0205651D01*
X0123943Y0205603D01*
X0123888Y0205559D01*
X0123830Y0205517D01*
X0123770Y0205479D01*
X0123708Y0205444D01*
X0123645Y0205412D01*
X0123579Y0205384D01*
X0123512Y0205360D01*
X0123444Y0205339D01*
X0123375Y0205323D01*
X0123305Y0205310D01*
X0123234Y0205301D01*
X0123163Y0205296D01*
X0123092Y0205295D01*
X0123021Y0205298D01*
X0122950Y0205305D01*
X0122880Y0205316D01*
X0122810Y0205331D01*
X0122742Y0205349D01*
X0122674Y0205372D01*
X0122608Y0205398D01*
X0122543Y0205427D01*
X0122480Y0205461D01*
X0122419Y0205497D01*
X0122361Y0205537D01*
X0122304Y0205581D01*
X0122250Y0205627D01*
X0122199Y0205676D01*
X0122150Y0205728D01*
X0122105Y0205783D01*
X0122062Y0205840D01*
X0122023Y0205899D01*
X0121987Y0205961D01*
X0121955Y0206024D01*
X0121926Y0206089D01*
X0121901Y0206156D01*
X0121879Y0206224D01*
X0121862Y0206293D01*
X0121848Y0206362D01*
X0121838Y0206433D01*
X0121832Y0206504D01*
X0121830Y0206575D01*
X0018779Y0197913D02*
X0018781Y0198066D01*
X0018787Y0198220D01*
X0018797Y0198373D01*
X0018811Y0198525D01*
X0018829Y0198678D01*
X0018851Y0198829D01*
X0018876Y0198980D01*
X0018906Y0199131D01*
X0018940Y0199281D01*
X0018977Y0199429D01*
X0019018Y0199577D01*
X0019063Y0199723D01*
X0019112Y0199869D01*
X0019165Y0200013D01*
X0019221Y0200155D01*
X0019281Y0200296D01*
X0019345Y0200436D01*
X0019412Y0200574D01*
X0019483Y0200710D01*
X0019558Y0200844D01*
X0019635Y0200976D01*
X0019717Y0201106D01*
X0019801Y0201234D01*
X0019889Y0201360D01*
X0019980Y0201483D01*
X0020074Y0201604D01*
X0020172Y0201722D01*
X0020272Y0201838D01*
X0020376Y0201951D01*
X0020482Y0202062D01*
X0020591Y0202170D01*
X0020703Y0202275D01*
X0020817Y0202376D01*
X0020935Y0202475D01*
X0021054Y0202571D01*
X0021176Y0202664D01*
X0021301Y0202753D01*
X0021428Y0202840D01*
X0021557Y0202922D01*
X0021688Y0203002D01*
X0021821Y0203078D01*
X0021956Y0203151D01*
X0022093Y0203220D01*
X0022232Y0203285D01*
X0022372Y0203347D01*
X0022514Y0203405D01*
X0022657Y0203460D01*
X0022802Y0203511D01*
X0022948Y0203558D01*
X0023095Y0203601D01*
X0023243Y0203640D01*
X0023392Y0203676D01*
X0023542Y0203707D01*
X0023693Y0203735D01*
X0023844Y0203759D01*
X0023997Y0203779D01*
X0024149Y0203795D01*
X0024302Y0203807D01*
X0024455Y0203815D01*
X0024608Y0203819D01*
X0024762Y0203819D01*
X0024915Y0203815D01*
X0025068Y0203807D01*
X0025221Y0203795D01*
X0025373Y0203779D01*
X0025526Y0203759D01*
X0025677Y0203735D01*
X0025828Y0203707D01*
X0025978Y0203676D01*
X0026127Y0203640D01*
X0026275Y0203601D01*
X0026422Y0203558D01*
X0026568Y0203511D01*
X0026713Y0203460D01*
X0026856Y0203405D01*
X0026998Y0203347D01*
X0027138Y0203285D01*
X0027277Y0203220D01*
X0027414Y0203151D01*
X0027549Y0203078D01*
X0027682Y0203002D01*
X0027813Y0202922D01*
X0027942Y0202840D01*
X0028069Y0202753D01*
X0028194Y0202664D01*
X0028316Y0202571D01*
X0028435Y0202475D01*
X0028553Y0202376D01*
X0028667Y0202275D01*
X0028779Y0202170D01*
X0028888Y0202062D01*
X0028994Y0201951D01*
X0029098Y0201838D01*
X0029198Y0201722D01*
X0029296Y0201604D01*
X0029390Y0201483D01*
X0029481Y0201360D01*
X0029569Y0201234D01*
X0029653Y0201106D01*
X0029735Y0200976D01*
X0029812Y0200844D01*
X0029887Y0200710D01*
X0029958Y0200574D01*
X0030025Y0200436D01*
X0030089Y0200296D01*
X0030149Y0200155D01*
X0030205Y0200013D01*
X0030258Y0199869D01*
X0030307Y0199723D01*
X0030352Y0199577D01*
X0030393Y0199429D01*
X0030430Y0199281D01*
X0030464Y0199131D01*
X0030494Y0198980D01*
X0030519Y0198829D01*
X0030541Y0198678D01*
X0030559Y0198525D01*
X0030573Y0198373D01*
X0030583Y0198220D01*
X0030589Y0198066D01*
X0030591Y0197913D01*
X0030589Y0197760D01*
X0030583Y0197606D01*
X0030573Y0197453D01*
X0030559Y0197301D01*
X0030541Y0197148D01*
X0030519Y0196997D01*
X0030494Y0196846D01*
X0030464Y0196695D01*
X0030430Y0196545D01*
X0030393Y0196397D01*
X0030352Y0196249D01*
X0030307Y0196103D01*
X0030258Y0195957D01*
X0030205Y0195813D01*
X0030149Y0195671D01*
X0030089Y0195530D01*
X0030025Y0195390D01*
X0029958Y0195252D01*
X0029887Y0195116D01*
X0029812Y0194982D01*
X0029735Y0194850D01*
X0029653Y0194720D01*
X0029569Y0194592D01*
X0029481Y0194466D01*
X0029390Y0194343D01*
X0029296Y0194222D01*
X0029198Y0194104D01*
X0029098Y0193988D01*
X0028994Y0193875D01*
X0028888Y0193764D01*
X0028779Y0193656D01*
X0028667Y0193551D01*
X0028553Y0193450D01*
X0028435Y0193351D01*
X0028316Y0193255D01*
X0028194Y0193162D01*
X0028069Y0193073D01*
X0027942Y0192986D01*
X0027813Y0192904D01*
X0027682Y0192824D01*
X0027549Y0192748D01*
X0027414Y0192675D01*
X0027277Y0192606D01*
X0027138Y0192541D01*
X0026998Y0192479D01*
X0026856Y0192421D01*
X0026713Y0192366D01*
X0026568Y0192315D01*
X0026422Y0192268D01*
X0026275Y0192225D01*
X0026127Y0192186D01*
X0025978Y0192150D01*
X0025828Y0192119D01*
X0025677Y0192091D01*
X0025526Y0192067D01*
X0025373Y0192047D01*
X0025221Y0192031D01*
X0025068Y0192019D01*
X0024915Y0192011D01*
X0024762Y0192007D01*
X0024608Y0192007D01*
X0024455Y0192011D01*
X0024302Y0192019D01*
X0024149Y0192031D01*
X0023997Y0192047D01*
X0023844Y0192067D01*
X0023693Y0192091D01*
X0023542Y0192119D01*
X0023392Y0192150D01*
X0023243Y0192186D01*
X0023095Y0192225D01*
X0022948Y0192268D01*
X0022802Y0192315D01*
X0022657Y0192366D01*
X0022514Y0192421D01*
X0022372Y0192479D01*
X0022232Y0192541D01*
X0022093Y0192606D01*
X0021956Y0192675D01*
X0021821Y0192748D01*
X0021688Y0192824D01*
X0021557Y0192904D01*
X0021428Y0192986D01*
X0021301Y0193073D01*
X0021176Y0193162D01*
X0021054Y0193255D01*
X0020935Y0193351D01*
X0020817Y0193450D01*
X0020703Y0193551D01*
X0020591Y0193656D01*
X0020482Y0193764D01*
X0020376Y0193875D01*
X0020272Y0193988D01*
X0020172Y0194104D01*
X0020074Y0194222D01*
X0019980Y0194343D01*
X0019889Y0194466D01*
X0019801Y0194592D01*
X0019717Y0194720D01*
X0019635Y0194850D01*
X0019558Y0194982D01*
X0019483Y0195116D01*
X0019412Y0195252D01*
X0019345Y0195390D01*
X0019281Y0195530D01*
X0019221Y0195671D01*
X0019165Y0195813D01*
X0019112Y0195957D01*
X0019063Y0196103D01*
X0019018Y0196249D01*
X0018977Y0196397D01*
X0018940Y0196545D01*
X0018906Y0196695D01*
X0018876Y0196846D01*
X0018851Y0196997D01*
X0018829Y0197148D01*
X0018811Y0197301D01*
X0018797Y0197453D01*
X0018787Y0197606D01*
X0018781Y0197760D01*
X0018779Y0197913D01*
M02*
