G75*
%MOIN*%
%OFA0B0*%
%FSLAX25Y25*%
%IPPOS*%
%LPD*%
%AMOC8*
5,1,8,0,0,1.08239X$1,22.5*
%
%ADD10C,0.00500*%
%ADD11C,0.00039*%
%ADD12C,0.00000*%
%ADD13C,0.00300*%
%ADD14C,0.00787*%
%ADD15C,0.00600*%
%ADD16C,0.00800*%
%ADD17C,0.00400*%
%ADD18R,0.01969X0.03740*%
%ADD19C,0.02200*%
%ADD20R,0.03740X0.01969*%
%ADD21R,0.01800X0.03000*%
%ADD22R,0.03000X0.01800*%
D10*
X0126457Y0012874D02*
X0132165Y0012874D01*
X0129016Y0012874D02*
X0129016Y0005000D01*
X0148701Y0005000D01*
X0148701Y0012874D01*
X0129016Y0012874D01*
X0126457Y0012874D01*
X0126457Y0044173D01*
X0126457Y0054803D02*
X0126457Y0060118D01*
X0128228Y0060118D01*
X0126457Y0060118D02*
X0151260Y0060118D01*
X0151260Y0059528D01*
X0151260Y0060118D02*
X0135315Y0060118D01*
X0126457Y0060118D02*
X0126457Y0012874D01*
X0145551Y0012874D02*
X0151260Y0012874D01*
X0151260Y0018976D01*
X0151260Y0012874D02*
X0148701Y0012874D01*
X0151260Y0012874D02*
X0151260Y0060118D01*
X0151260Y0048898D02*
X0151260Y0039843D01*
X0134921Y0087283D02*
X0132953Y0087283D01*
X0132953Y0090827D01*
X0080517Y0189226D02*
X0080517Y0192229D01*
X0079016Y0193730D01*
X0077514Y0192229D01*
X0077514Y0189226D01*
X0075913Y0189977D02*
X0075913Y0191478D01*
X0075162Y0192229D01*
X0074412Y0192229D01*
X0072911Y0191478D01*
X0072911Y0193730D01*
X0075913Y0193730D01*
X0077514Y0191478D02*
X0080517Y0191478D01*
X0075913Y0189977D02*
X0075162Y0189226D01*
X0073661Y0189226D01*
X0072911Y0189977D01*
X0071309Y0189977D02*
X0071309Y0192980D01*
X0068307Y0189977D01*
X0069057Y0189226D01*
X0070559Y0189226D01*
X0071309Y0189977D01*
X0068307Y0189977D02*
X0068307Y0192980D01*
X0069057Y0193730D01*
X0070559Y0193730D01*
X0071309Y0192980D01*
X0066705Y0193730D02*
X0065204Y0192980D01*
X0063703Y0191478D01*
X0065955Y0191478D01*
X0066705Y0190728D01*
X0066705Y0189977D01*
X0065955Y0189226D01*
X0064453Y0189226D01*
X0063703Y0189977D01*
X0063703Y0191478D01*
X0062101Y0189977D02*
X0061351Y0189226D01*
X0059849Y0189226D01*
X0059099Y0189977D01*
X0062101Y0192980D01*
X0062101Y0189977D01*
X0062101Y0192980D02*
X0061351Y0193730D01*
X0059849Y0193730D01*
X0059099Y0192980D01*
X0059099Y0189977D01*
X0057497Y0189977D02*
X0057497Y0190728D01*
X0056747Y0191478D01*
X0054495Y0191478D01*
X0054495Y0189977D01*
X0055245Y0189226D01*
X0056747Y0189226D01*
X0057497Y0189977D01*
X0054495Y0191478D02*
X0055996Y0192980D01*
X0057497Y0193730D01*
X0052893Y0192980D02*
X0052143Y0193730D01*
X0050642Y0193730D01*
X0049891Y0192980D01*
X0048290Y0192980D02*
X0045287Y0189977D01*
X0046038Y0189226D01*
X0047539Y0189226D01*
X0048290Y0189977D01*
X0048290Y0192980D01*
X0047539Y0193730D01*
X0046038Y0193730D01*
X0045287Y0192980D01*
X0045287Y0189977D01*
X0043686Y0189226D02*
X0040683Y0189226D01*
X0043686Y0192229D01*
X0043686Y0192980D01*
X0042935Y0193730D01*
X0041434Y0193730D01*
X0040683Y0192980D01*
X0049891Y0189226D02*
X0052893Y0192229D01*
X0052893Y0192980D01*
X0052893Y0189226D02*
X0049891Y0189226D01*
X0119469Y0199193D02*
X0119469Y0210020D01*
X0120906Y0210020D01*
X0119469Y0210020D02*
X0119469Y0208740D01*
X0119469Y0210020D02*
X0126752Y0210020D01*
X0125315Y0210020D01*
X0126752Y0210020D02*
X0126752Y0208740D01*
X0126752Y0210020D02*
X0126752Y0199193D01*
X0119469Y0199193D01*
X0119469Y0203091D02*
X0119469Y0204409D01*
X0126752Y0204409D02*
X0126752Y0203091D01*
X0138858Y0197913D02*
X0138862Y0198203D01*
X0138872Y0198493D01*
X0138890Y0198782D01*
X0138915Y0199071D01*
X0138947Y0199359D01*
X0138986Y0199646D01*
X0139032Y0199932D01*
X0139085Y0200217D01*
X0139145Y0200501D01*
X0139212Y0200783D01*
X0139286Y0201063D01*
X0139367Y0201342D01*
X0139454Y0201618D01*
X0139548Y0201892D01*
X0139649Y0202164D01*
X0139757Y0202433D01*
X0139871Y0202699D01*
X0139992Y0202963D01*
X0140119Y0203223D01*
X0140253Y0203481D01*
X0140392Y0203735D01*
X0140538Y0203985D01*
X0140690Y0204232D01*
X0140849Y0204475D01*
X0141013Y0204714D01*
X0141182Y0204949D01*
X0141358Y0205180D01*
X0141539Y0205406D01*
X0141726Y0205628D01*
X0141918Y0205845D01*
X0142115Y0206057D01*
X0142317Y0206265D01*
X0142525Y0206467D01*
X0142737Y0206664D01*
X0142954Y0206856D01*
X0143176Y0207043D01*
X0143402Y0207224D01*
X0143633Y0207400D01*
X0143868Y0207569D01*
X0144107Y0207733D01*
X0144350Y0207892D01*
X0144597Y0208044D01*
X0144847Y0208190D01*
X0145101Y0208329D01*
X0145359Y0208463D01*
X0145619Y0208590D01*
X0145883Y0208711D01*
X0146149Y0208825D01*
X0146418Y0208933D01*
X0146690Y0209034D01*
X0146964Y0209128D01*
X0147240Y0209215D01*
X0147519Y0209296D01*
X0147799Y0209370D01*
X0148081Y0209437D01*
X0148365Y0209497D01*
X0148650Y0209550D01*
X0148936Y0209596D01*
X0149223Y0209635D01*
X0149511Y0209667D01*
X0149800Y0209692D01*
X0150089Y0209710D01*
X0150379Y0209720D01*
X0150669Y0209724D01*
X0150959Y0209720D01*
X0151249Y0209710D01*
X0151538Y0209692D01*
X0151827Y0209667D01*
X0152115Y0209635D01*
X0152402Y0209596D01*
X0152688Y0209550D01*
X0152973Y0209497D01*
X0153257Y0209437D01*
X0153539Y0209370D01*
X0153819Y0209296D01*
X0154098Y0209215D01*
X0154374Y0209128D01*
X0154648Y0209034D01*
X0154920Y0208933D01*
X0155189Y0208825D01*
X0155455Y0208711D01*
X0155719Y0208590D01*
X0155979Y0208463D01*
X0156237Y0208329D01*
X0156491Y0208190D01*
X0156741Y0208044D01*
X0156988Y0207892D01*
X0157231Y0207733D01*
X0157470Y0207569D01*
X0157705Y0207400D01*
X0157936Y0207224D01*
X0158162Y0207043D01*
X0158384Y0206856D01*
X0158601Y0206664D01*
X0158813Y0206467D01*
X0159021Y0206265D01*
X0159223Y0206057D01*
X0159420Y0205845D01*
X0159612Y0205628D01*
X0159799Y0205406D01*
X0159980Y0205180D01*
X0160156Y0204949D01*
X0160325Y0204714D01*
X0160489Y0204475D01*
X0160648Y0204232D01*
X0160800Y0203985D01*
X0160946Y0203735D01*
X0161085Y0203481D01*
X0161219Y0203223D01*
X0161346Y0202963D01*
X0161467Y0202699D01*
X0161581Y0202433D01*
X0161689Y0202164D01*
X0161790Y0201892D01*
X0161884Y0201618D01*
X0161971Y0201342D01*
X0162052Y0201063D01*
X0162126Y0200783D01*
X0162193Y0200501D01*
X0162253Y0200217D01*
X0162306Y0199932D01*
X0162352Y0199646D01*
X0162391Y0199359D01*
X0162423Y0199071D01*
X0162448Y0198782D01*
X0162466Y0198493D01*
X0162476Y0198203D01*
X0162480Y0197913D01*
X0162476Y0197623D01*
X0162466Y0197333D01*
X0162448Y0197044D01*
X0162423Y0196755D01*
X0162391Y0196467D01*
X0162352Y0196180D01*
X0162306Y0195894D01*
X0162253Y0195609D01*
X0162193Y0195325D01*
X0162126Y0195043D01*
X0162052Y0194763D01*
X0161971Y0194484D01*
X0161884Y0194208D01*
X0161790Y0193934D01*
X0161689Y0193662D01*
X0161581Y0193393D01*
X0161467Y0193127D01*
X0161346Y0192863D01*
X0161219Y0192603D01*
X0161085Y0192345D01*
X0160946Y0192091D01*
X0160800Y0191841D01*
X0160648Y0191594D01*
X0160489Y0191351D01*
X0160325Y0191112D01*
X0160156Y0190877D01*
X0159980Y0190646D01*
X0159799Y0190420D01*
X0159612Y0190198D01*
X0159420Y0189981D01*
X0159223Y0189769D01*
X0159021Y0189561D01*
X0158813Y0189359D01*
X0158601Y0189162D01*
X0158384Y0188970D01*
X0158162Y0188783D01*
X0157936Y0188602D01*
X0157705Y0188426D01*
X0157470Y0188257D01*
X0157231Y0188093D01*
X0156988Y0187934D01*
X0156741Y0187782D01*
X0156491Y0187636D01*
X0156237Y0187497D01*
X0155979Y0187363D01*
X0155719Y0187236D01*
X0155455Y0187115D01*
X0155189Y0187001D01*
X0154920Y0186893D01*
X0154648Y0186792D01*
X0154374Y0186698D01*
X0154098Y0186611D01*
X0153819Y0186530D01*
X0153539Y0186456D01*
X0153257Y0186389D01*
X0152973Y0186329D01*
X0152688Y0186276D01*
X0152402Y0186230D01*
X0152115Y0186191D01*
X0151827Y0186159D01*
X0151538Y0186134D01*
X0151249Y0186116D01*
X0150959Y0186106D01*
X0150669Y0186102D01*
X0150379Y0186106D01*
X0150089Y0186116D01*
X0149800Y0186134D01*
X0149511Y0186159D01*
X0149223Y0186191D01*
X0148936Y0186230D01*
X0148650Y0186276D01*
X0148365Y0186329D01*
X0148081Y0186389D01*
X0147799Y0186456D01*
X0147519Y0186530D01*
X0147240Y0186611D01*
X0146964Y0186698D01*
X0146690Y0186792D01*
X0146418Y0186893D01*
X0146149Y0187001D01*
X0145883Y0187115D01*
X0145619Y0187236D01*
X0145359Y0187363D01*
X0145101Y0187497D01*
X0144847Y0187636D01*
X0144597Y0187782D01*
X0144350Y0187934D01*
X0144107Y0188093D01*
X0143868Y0188257D01*
X0143633Y0188426D01*
X0143402Y0188602D01*
X0143176Y0188783D01*
X0142954Y0188970D01*
X0142737Y0189162D01*
X0142525Y0189359D01*
X0142317Y0189561D01*
X0142115Y0189769D01*
X0141918Y0189981D01*
X0141726Y0190198D01*
X0141539Y0190420D01*
X0141358Y0190646D01*
X0141182Y0190877D01*
X0141013Y0191112D01*
X0140849Y0191351D01*
X0140690Y0191594D01*
X0140538Y0191841D01*
X0140392Y0192091D01*
X0140253Y0192345D01*
X0140119Y0192603D01*
X0139992Y0192863D01*
X0139871Y0193127D01*
X0139757Y0193393D01*
X0139649Y0193662D01*
X0139548Y0193934D01*
X0139454Y0194208D01*
X0139367Y0194484D01*
X0139286Y0194763D01*
X0139212Y0195043D01*
X0139145Y0195325D01*
X0139085Y0195609D01*
X0139032Y0195894D01*
X0138986Y0196180D01*
X0138947Y0196467D01*
X0138915Y0196755D01*
X0138890Y0197044D01*
X0138872Y0197333D01*
X0138862Y0197623D01*
X0138858Y0197913D01*
X0138862Y0198203D01*
X0138872Y0198493D01*
X0138890Y0198782D01*
X0138915Y0199071D01*
X0138947Y0199359D01*
X0138986Y0199646D01*
X0139032Y0199932D01*
X0139085Y0200217D01*
X0139145Y0200501D01*
X0139212Y0200783D01*
X0139286Y0201063D01*
X0139367Y0201342D01*
X0139454Y0201618D01*
X0139548Y0201892D01*
X0139649Y0202164D01*
X0139757Y0202433D01*
X0139871Y0202699D01*
X0139992Y0202963D01*
X0140119Y0203223D01*
X0140253Y0203481D01*
X0140392Y0203735D01*
X0140538Y0203985D01*
X0140690Y0204232D01*
X0140849Y0204475D01*
X0141013Y0204714D01*
X0141182Y0204949D01*
X0141358Y0205180D01*
X0141539Y0205406D01*
X0141726Y0205628D01*
X0141918Y0205845D01*
X0142115Y0206057D01*
X0142317Y0206265D01*
X0142525Y0206467D01*
X0142737Y0206664D01*
X0142954Y0206856D01*
X0143176Y0207043D01*
X0143402Y0207224D01*
X0143633Y0207400D01*
X0143868Y0207569D01*
X0144107Y0207733D01*
X0144350Y0207892D01*
X0144597Y0208044D01*
X0144847Y0208190D01*
X0145101Y0208329D01*
X0145359Y0208463D01*
X0145619Y0208590D01*
X0145883Y0208711D01*
X0146149Y0208825D01*
X0146418Y0208933D01*
X0146690Y0209034D01*
X0146964Y0209128D01*
X0147240Y0209215D01*
X0147519Y0209296D01*
X0147799Y0209370D01*
X0148081Y0209437D01*
X0148365Y0209497D01*
X0148650Y0209550D01*
X0148936Y0209596D01*
X0149223Y0209635D01*
X0149511Y0209667D01*
X0149800Y0209692D01*
X0150089Y0209710D01*
X0150379Y0209720D01*
X0150669Y0209724D01*
X0150959Y0209720D01*
X0151249Y0209710D01*
X0151538Y0209692D01*
X0151827Y0209667D01*
X0152115Y0209635D01*
X0152402Y0209596D01*
X0152688Y0209550D01*
X0152973Y0209497D01*
X0153257Y0209437D01*
X0153539Y0209370D01*
X0153819Y0209296D01*
X0154098Y0209215D01*
X0154374Y0209128D01*
X0154648Y0209034D01*
X0154920Y0208933D01*
X0155189Y0208825D01*
X0155455Y0208711D01*
X0155719Y0208590D01*
X0155979Y0208463D01*
X0156237Y0208329D01*
X0156491Y0208190D01*
X0156741Y0208044D01*
X0156988Y0207892D01*
X0157231Y0207733D01*
X0157470Y0207569D01*
X0157705Y0207400D01*
X0157936Y0207224D01*
X0158162Y0207043D01*
X0158384Y0206856D01*
X0158601Y0206664D01*
X0158813Y0206467D01*
X0159021Y0206265D01*
X0159223Y0206057D01*
X0159420Y0205845D01*
X0159612Y0205628D01*
X0159799Y0205406D01*
X0159980Y0205180D01*
X0160156Y0204949D01*
X0160325Y0204714D01*
X0160489Y0204475D01*
X0160648Y0204232D01*
X0160800Y0203985D01*
X0160946Y0203735D01*
X0161085Y0203481D01*
X0161219Y0203223D01*
X0161346Y0202963D01*
X0161467Y0202699D01*
X0161581Y0202433D01*
X0161689Y0202164D01*
X0161790Y0201892D01*
X0161884Y0201618D01*
X0161971Y0201342D01*
X0162052Y0201063D01*
X0162126Y0200783D01*
X0162193Y0200501D01*
X0162253Y0200217D01*
X0162306Y0199932D01*
X0162352Y0199646D01*
X0162391Y0199359D01*
X0162423Y0199071D01*
X0162448Y0198782D01*
X0162466Y0198493D01*
X0162476Y0198203D01*
X0162480Y0197913D01*
X0162476Y0197623D01*
X0162466Y0197333D01*
X0162448Y0197044D01*
X0162423Y0196755D01*
X0162391Y0196467D01*
X0162352Y0196180D01*
X0162306Y0195894D01*
X0162253Y0195609D01*
X0162193Y0195325D01*
X0162126Y0195043D01*
X0162052Y0194763D01*
X0161971Y0194484D01*
X0161884Y0194208D01*
X0161790Y0193934D01*
X0161689Y0193662D01*
X0161581Y0193393D01*
X0161467Y0193127D01*
X0161346Y0192863D01*
X0161219Y0192603D01*
X0161085Y0192345D01*
X0160946Y0192091D01*
X0160800Y0191841D01*
X0160648Y0191594D01*
X0160489Y0191351D01*
X0160325Y0191112D01*
X0160156Y0190877D01*
X0159980Y0190646D01*
X0159799Y0190420D01*
X0159612Y0190198D01*
X0159420Y0189981D01*
X0159223Y0189769D01*
X0159021Y0189561D01*
X0158813Y0189359D01*
X0158601Y0189162D01*
X0158384Y0188970D01*
X0158162Y0188783D01*
X0157936Y0188602D01*
X0157705Y0188426D01*
X0157470Y0188257D01*
X0157231Y0188093D01*
X0156988Y0187934D01*
X0156741Y0187782D01*
X0156491Y0187636D01*
X0156237Y0187497D01*
X0155979Y0187363D01*
X0155719Y0187236D01*
X0155455Y0187115D01*
X0155189Y0187001D01*
X0154920Y0186893D01*
X0154648Y0186792D01*
X0154374Y0186698D01*
X0154098Y0186611D01*
X0153819Y0186530D01*
X0153539Y0186456D01*
X0153257Y0186389D01*
X0152973Y0186329D01*
X0152688Y0186276D01*
X0152402Y0186230D01*
X0152115Y0186191D01*
X0151827Y0186159D01*
X0151538Y0186134D01*
X0151249Y0186116D01*
X0150959Y0186106D01*
X0150669Y0186102D01*
X0150379Y0186106D01*
X0150089Y0186116D01*
X0149800Y0186134D01*
X0149511Y0186159D01*
X0149223Y0186191D01*
X0148936Y0186230D01*
X0148650Y0186276D01*
X0148365Y0186329D01*
X0148081Y0186389D01*
X0147799Y0186456D01*
X0147519Y0186530D01*
X0147240Y0186611D01*
X0146964Y0186698D01*
X0146690Y0186792D01*
X0146418Y0186893D01*
X0146149Y0187001D01*
X0145883Y0187115D01*
X0145619Y0187236D01*
X0145359Y0187363D01*
X0145101Y0187497D01*
X0144847Y0187636D01*
X0144597Y0187782D01*
X0144350Y0187934D01*
X0144107Y0188093D01*
X0143868Y0188257D01*
X0143633Y0188426D01*
X0143402Y0188602D01*
X0143176Y0188783D01*
X0142954Y0188970D01*
X0142737Y0189162D01*
X0142525Y0189359D01*
X0142317Y0189561D01*
X0142115Y0189769D01*
X0141918Y0189981D01*
X0141726Y0190198D01*
X0141539Y0190420D01*
X0141358Y0190646D01*
X0141182Y0190877D01*
X0141013Y0191112D01*
X0140849Y0191351D01*
X0140690Y0191594D01*
X0140538Y0191841D01*
X0140392Y0192091D01*
X0140253Y0192345D01*
X0140119Y0192603D01*
X0139992Y0192863D01*
X0139871Y0193127D01*
X0139757Y0193393D01*
X0139649Y0193662D01*
X0139548Y0193934D01*
X0139454Y0194208D01*
X0139367Y0194484D01*
X0139286Y0194763D01*
X0139212Y0195043D01*
X0139145Y0195325D01*
X0139085Y0195609D01*
X0139032Y0195894D01*
X0138986Y0196180D01*
X0138947Y0196467D01*
X0138915Y0196755D01*
X0138890Y0197044D01*
X0138872Y0197333D01*
X0138862Y0197623D01*
X0138858Y0197913D01*
X0155433Y0198445D02*
X0160433Y0198445D01*
X0155433Y0198445D01*
X0157933Y0200945D02*
X0157933Y0195945D01*
X0157933Y0200945D01*
D11*
X0005000Y0197913D02*
X0005000Y0024685D01*
X0005006Y0024209D01*
X0005023Y0023734D01*
X0005052Y0023259D01*
X0005092Y0022785D01*
X0005144Y0022312D01*
X0005207Y0021841D01*
X0005281Y0021371D01*
X0005367Y0020903D01*
X0005464Y0020437D01*
X0005572Y0019974D01*
X0005691Y0019514D01*
X0005822Y0019056D01*
X0005963Y0018602D01*
X0006116Y0018151D01*
X0006279Y0017705D01*
X0006453Y0017262D01*
X0006638Y0016824D01*
X0006833Y0016390D01*
X0007039Y0015961D01*
X0007255Y0015537D01*
X0007481Y0015118D01*
X0007717Y0014705D01*
X0007963Y0014298D01*
X0008219Y0013897D01*
X0008485Y0013503D01*
X0008760Y0013114D01*
X0009044Y0012733D01*
X0009337Y0012359D01*
X0009639Y0011991D01*
X0009951Y0011631D01*
X0010270Y0011279D01*
X0010598Y0010935D01*
X0010935Y0010598D01*
X0011279Y0010270D01*
X0011631Y0009951D01*
X0011991Y0009639D01*
X0012359Y0009337D01*
X0012733Y0009044D01*
X0013114Y0008760D01*
X0013503Y0008485D01*
X0013897Y0008219D01*
X0014298Y0007963D01*
X0014705Y0007717D01*
X0015118Y0007481D01*
X0015537Y0007255D01*
X0015961Y0007039D01*
X0016390Y0006833D01*
X0016824Y0006638D01*
X0017262Y0006453D01*
X0017705Y0006279D01*
X0018151Y0006116D01*
X0018602Y0005963D01*
X0019056Y0005822D01*
X0019514Y0005691D01*
X0019974Y0005572D01*
X0020437Y0005464D01*
X0020903Y0005367D01*
X0021371Y0005281D01*
X0021841Y0005207D01*
X0022312Y0005144D01*
X0022785Y0005092D01*
X0023259Y0005052D01*
X0023734Y0005023D01*
X0024209Y0005006D01*
X0024685Y0005000D01*
X0197913Y0005000D01*
X0198389Y0005006D01*
X0198864Y0005023D01*
X0199339Y0005052D01*
X0199813Y0005092D01*
X0200286Y0005144D01*
X0200757Y0005207D01*
X0201227Y0005281D01*
X0201695Y0005367D01*
X0202161Y0005464D01*
X0202624Y0005572D01*
X0203084Y0005691D01*
X0203542Y0005822D01*
X0203996Y0005963D01*
X0204447Y0006116D01*
X0204893Y0006279D01*
X0205336Y0006453D01*
X0205774Y0006638D01*
X0206208Y0006833D01*
X0206637Y0007039D01*
X0207061Y0007255D01*
X0207480Y0007481D01*
X0207893Y0007717D01*
X0208300Y0007963D01*
X0208701Y0008219D01*
X0209095Y0008485D01*
X0209484Y0008760D01*
X0209865Y0009044D01*
X0210239Y0009337D01*
X0210607Y0009639D01*
X0210967Y0009951D01*
X0211319Y0010270D01*
X0211663Y0010598D01*
X0212000Y0010935D01*
X0212328Y0011279D01*
X0212647Y0011631D01*
X0212959Y0011991D01*
X0213261Y0012359D01*
X0213554Y0012733D01*
X0213838Y0013114D01*
X0214113Y0013503D01*
X0214379Y0013897D01*
X0214635Y0014298D01*
X0214881Y0014705D01*
X0215117Y0015118D01*
X0215343Y0015537D01*
X0215559Y0015961D01*
X0215765Y0016390D01*
X0215960Y0016824D01*
X0216145Y0017262D01*
X0216319Y0017705D01*
X0216482Y0018151D01*
X0216635Y0018602D01*
X0216776Y0019056D01*
X0216907Y0019514D01*
X0217026Y0019974D01*
X0217134Y0020437D01*
X0217231Y0020903D01*
X0217317Y0021371D01*
X0217391Y0021841D01*
X0217454Y0022312D01*
X0217506Y0022785D01*
X0217546Y0023259D01*
X0217575Y0023734D01*
X0217592Y0024209D01*
X0217598Y0024685D01*
X0217598Y0197913D01*
X0217592Y0198389D01*
X0217575Y0198864D01*
X0217546Y0199339D01*
X0217506Y0199813D01*
X0217454Y0200286D01*
X0217391Y0200757D01*
X0217317Y0201227D01*
X0217231Y0201695D01*
X0217134Y0202161D01*
X0217026Y0202624D01*
X0216907Y0203084D01*
X0216776Y0203542D01*
X0216635Y0203996D01*
X0216482Y0204447D01*
X0216319Y0204893D01*
X0216145Y0205336D01*
X0215960Y0205774D01*
X0215765Y0206208D01*
X0215559Y0206637D01*
X0215343Y0207061D01*
X0215117Y0207480D01*
X0214881Y0207893D01*
X0214635Y0208300D01*
X0214379Y0208701D01*
X0214113Y0209095D01*
X0213838Y0209484D01*
X0213554Y0209865D01*
X0213261Y0210239D01*
X0212959Y0210607D01*
X0212647Y0210967D01*
X0212328Y0211319D01*
X0212000Y0211663D01*
X0211663Y0212000D01*
X0211319Y0212328D01*
X0210967Y0212647D01*
X0210607Y0212959D01*
X0210239Y0213261D01*
X0209865Y0213554D01*
X0209484Y0213838D01*
X0209095Y0214113D01*
X0208701Y0214379D01*
X0208300Y0214635D01*
X0207893Y0214881D01*
X0207480Y0215117D01*
X0207061Y0215343D01*
X0206637Y0215559D01*
X0206208Y0215765D01*
X0205774Y0215960D01*
X0205336Y0216145D01*
X0204893Y0216319D01*
X0204447Y0216482D01*
X0203996Y0216635D01*
X0203542Y0216776D01*
X0203084Y0216907D01*
X0202624Y0217026D01*
X0202161Y0217134D01*
X0201695Y0217231D01*
X0201227Y0217317D01*
X0200757Y0217391D01*
X0200286Y0217454D01*
X0199813Y0217506D01*
X0199339Y0217546D01*
X0198864Y0217575D01*
X0198389Y0217592D01*
X0197913Y0217598D01*
X0024685Y0217598D01*
X0024209Y0217592D01*
X0023734Y0217575D01*
X0023259Y0217546D01*
X0022785Y0217506D01*
X0022312Y0217454D01*
X0021841Y0217391D01*
X0021371Y0217317D01*
X0020903Y0217231D01*
X0020437Y0217134D01*
X0019974Y0217026D01*
X0019514Y0216907D01*
X0019056Y0216776D01*
X0018602Y0216635D01*
X0018151Y0216482D01*
X0017705Y0216319D01*
X0017262Y0216145D01*
X0016824Y0215960D01*
X0016390Y0215765D01*
X0015961Y0215559D01*
X0015537Y0215343D01*
X0015118Y0215117D01*
X0014705Y0214881D01*
X0014298Y0214635D01*
X0013897Y0214379D01*
X0013503Y0214113D01*
X0013114Y0213838D01*
X0012733Y0213554D01*
X0012359Y0213261D01*
X0011991Y0212959D01*
X0011631Y0212647D01*
X0011279Y0212328D01*
X0010935Y0212000D01*
X0010598Y0211663D01*
X0010270Y0211319D01*
X0009951Y0210967D01*
X0009639Y0210607D01*
X0009337Y0210239D01*
X0009044Y0209865D01*
X0008760Y0209484D01*
X0008485Y0209095D01*
X0008219Y0208701D01*
X0007963Y0208300D01*
X0007717Y0207893D01*
X0007481Y0207480D01*
X0007255Y0207061D01*
X0007039Y0206637D01*
X0006833Y0206208D01*
X0006638Y0205774D01*
X0006453Y0205336D01*
X0006279Y0204893D01*
X0006116Y0204447D01*
X0005963Y0203996D01*
X0005822Y0203542D01*
X0005691Y0203084D01*
X0005572Y0202624D01*
X0005464Y0202161D01*
X0005367Y0201695D01*
X0005281Y0201227D01*
X0005207Y0200757D01*
X0005144Y0200286D01*
X0005092Y0199813D01*
X0005052Y0199339D01*
X0005023Y0198864D01*
X0005006Y0198389D01*
X0005000Y0197913D01*
D12*
X0018779Y0197913D02*
X0018781Y0198066D01*
X0018787Y0198220D01*
X0018797Y0198373D01*
X0018811Y0198525D01*
X0018829Y0198678D01*
X0018851Y0198829D01*
X0018876Y0198980D01*
X0018906Y0199131D01*
X0018940Y0199281D01*
X0018977Y0199429D01*
X0019018Y0199577D01*
X0019063Y0199723D01*
X0019112Y0199869D01*
X0019165Y0200013D01*
X0019221Y0200155D01*
X0019281Y0200296D01*
X0019345Y0200436D01*
X0019412Y0200574D01*
X0019483Y0200710D01*
X0019558Y0200844D01*
X0019635Y0200976D01*
X0019717Y0201106D01*
X0019801Y0201234D01*
X0019889Y0201360D01*
X0019980Y0201483D01*
X0020074Y0201604D01*
X0020172Y0201722D01*
X0020272Y0201838D01*
X0020376Y0201951D01*
X0020482Y0202062D01*
X0020591Y0202170D01*
X0020703Y0202275D01*
X0020817Y0202376D01*
X0020935Y0202475D01*
X0021054Y0202571D01*
X0021176Y0202664D01*
X0021301Y0202753D01*
X0021428Y0202840D01*
X0021557Y0202922D01*
X0021688Y0203002D01*
X0021821Y0203078D01*
X0021956Y0203151D01*
X0022093Y0203220D01*
X0022232Y0203285D01*
X0022372Y0203347D01*
X0022514Y0203405D01*
X0022657Y0203460D01*
X0022802Y0203511D01*
X0022948Y0203558D01*
X0023095Y0203601D01*
X0023243Y0203640D01*
X0023392Y0203676D01*
X0023542Y0203707D01*
X0023693Y0203735D01*
X0023844Y0203759D01*
X0023997Y0203779D01*
X0024149Y0203795D01*
X0024302Y0203807D01*
X0024455Y0203815D01*
X0024608Y0203819D01*
X0024762Y0203819D01*
X0024915Y0203815D01*
X0025068Y0203807D01*
X0025221Y0203795D01*
X0025373Y0203779D01*
X0025526Y0203759D01*
X0025677Y0203735D01*
X0025828Y0203707D01*
X0025978Y0203676D01*
X0026127Y0203640D01*
X0026275Y0203601D01*
X0026422Y0203558D01*
X0026568Y0203511D01*
X0026713Y0203460D01*
X0026856Y0203405D01*
X0026998Y0203347D01*
X0027138Y0203285D01*
X0027277Y0203220D01*
X0027414Y0203151D01*
X0027549Y0203078D01*
X0027682Y0203002D01*
X0027813Y0202922D01*
X0027942Y0202840D01*
X0028069Y0202753D01*
X0028194Y0202664D01*
X0028316Y0202571D01*
X0028435Y0202475D01*
X0028553Y0202376D01*
X0028667Y0202275D01*
X0028779Y0202170D01*
X0028888Y0202062D01*
X0028994Y0201951D01*
X0029098Y0201838D01*
X0029198Y0201722D01*
X0029296Y0201604D01*
X0029390Y0201483D01*
X0029481Y0201360D01*
X0029569Y0201234D01*
X0029653Y0201106D01*
X0029735Y0200976D01*
X0029812Y0200844D01*
X0029887Y0200710D01*
X0029958Y0200574D01*
X0030025Y0200436D01*
X0030089Y0200296D01*
X0030149Y0200155D01*
X0030205Y0200013D01*
X0030258Y0199869D01*
X0030307Y0199723D01*
X0030352Y0199577D01*
X0030393Y0199429D01*
X0030430Y0199281D01*
X0030464Y0199131D01*
X0030494Y0198980D01*
X0030519Y0198829D01*
X0030541Y0198678D01*
X0030559Y0198525D01*
X0030573Y0198373D01*
X0030583Y0198220D01*
X0030589Y0198066D01*
X0030591Y0197913D01*
X0030589Y0197760D01*
X0030583Y0197606D01*
X0030573Y0197453D01*
X0030559Y0197301D01*
X0030541Y0197148D01*
X0030519Y0196997D01*
X0030494Y0196846D01*
X0030464Y0196695D01*
X0030430Y0196545D01*
X0030393Y0196397D01*
X0030352Y0196249D01*
X0030307Y0196103D01*
X0030258Y0195957D01*
X0030205Y0195813D01*
X0030149Y0195671D01*
X0030089Y0195530D01*
X0030025Y0195390D01*
X0029958Y0195252D01*
X0029887Y0195116D01*
X0029812Y0194982D01*
X0029735Y0194850D01*
X0029653Y0194720D01*
X0029569Y0194592D01*
X0029481Y0194466D01*
X0029390Y0194343D01*
X0029296Y0194222D01*
X0029198Y0194104D01*
X0029098Y0193988D01*
X0028994Y0193875D01*
X0028888Y0193764D01*
X0028779Y0193656D01*
X0028667Y0193551D01*
X0028553Y0193450D01*
X0028435Y0193351D01*
X0028316Y0193255D01*
X0028194Y0193162D01*
X0028069Y0193073D01*
X0027942Y0192986D01*
X0027813Y0192904D01*
X0027682Y0192824D01*
X0027549Y0192748D01*
X0027414Y0192675D01*
X0027277Y0192606D01*
X0027138Y0192541D01*
X0026998Y0192479D01*
X0026856Y0192421D01*
X0026713Y0192366D01*
X0026568Y0192315D01*
X0026422Y0192268D01*
X0026275Y0192225D01*
X0026127Y0192186D01*
X0025978Y0192150D01*
X0025828Y0192119D01*
X0025677Y0192091D01*
X0025526Y0192067D01*
X0025373Y0192047D01*
X0025221Y0192031D01*
X0025068Y0192019D01*
X0024915Y0192011D01*
X0024762Y0192007D01*
X0024608Y0192007D01*
X0024455Y0192011D01*
X0024302Y0192019D01*
X0024149Y0192031D01*
X0023997Y0192047D01*
X0023844Y0192067D01*
X0023693Y0192091D01*
X0023542Y0192119D01*
X0023392Y0192150D01*
X0023243Y0192186D01*
X0023095Y0192225D01*
X0022948Y0192268D01*
X0022802Y0192315D01*
X0022657Y0192366D01*
X0022514Y0192421D01*
X0022372Y0192479D01*
X0022232Y0192541D01*
X0022093Y0192606D01*
X0021956Y0192675D01*
X0021821Y0192748D01*
X0021688Y0192824D01*
X0021557Y0192904D01*
X0021428Y0192986D01*
X0021301Y0193073D01*
X0021176Y0193162D01*
X0021054Y0193255D01*
X0020935Y0193351D01*
X0020817Y0193450D01*
X0020703Y0193551D01*
X0020591Y0193656D01*
X0020482Y0193764D01*
X0020376Y0193875D01*
X0020272Y0193988D01*
X0020172Y0194104D01*
X0020074Y0194222D01*
X0019980Y0194343D01*
X0019889Y0194466D01*
X0019801Y0194592D01*
X0019717Y0194720D01*
X0019635Y0194850D01*
X0019558Y0194982D01*
X0019483Y0195116D01*
X0019412Y0195252D01*
X0019345Y0195390D01*
X0019281Y0195530D01*
X0019221Y0195671D01*
X0019165Y0195813D01*
X0019112Y0195957D01*
X0019063Y0196103D01*
X0019018Y0196249D01*
X0018977Y0196397D01*
X0018940Y0196545D01*
X0018906Y0196695D01*
X0018876Y0196846D01*
X0018851Y0196997D01*
X0018829Y0197148D01*
X0018811Y0197301D01*
X0018797Y0197453D01*
X0018787Y0197606D01*
X0018781Y0197760D01*
X0018779Y0197913D01*
X0121830Y0206575D02*
X0121832Y0206646D01*
X0121838Y0206717D01*
X0121848Y0206788D01*
X0121862Y0206857D01*
X0121879Y0206926D01*
X0121901Y0206994D01*
X0121926Y0207061D01*
X0121955Y0207126D01*
X0121987Y0207189D01*
X0122023Y0207251D01*
X0122062Y0207310D01*
X0122105Y0207367D01*
X0122150Y0207422D01*
X0122199Y0207474D01*
X0122250Y0207523D01*
X0122304Y0207569D01*
X0122361Y0207613D01*
X0122419Y0207653D01*
X0122480Y0207689D01*
X0122543Y0207723D01*
X0122608Y0207752D01*
X0122674Y0207778D01*
X0122742Y0207801D01*
X0122810Y0207819D01*
X0122880Y0207834D01*
X0122950Y0207845D01*
X0123021Y0207852D01*
X0123092Y0207855D01*
X0123163Y0207854D01*
X0123234Y0207849D01*
X0123305Y0207840D01*
X0123375Y0207827D01*
X0123444Y0207811D01*
X0123512Y0207790D01*
X0123579Y0207766D01*
X0123645Y0207738D01*
X0123708Y0207706D01*
X0123770Y0207671D01*
X0123830Y0207633D01*
X0123888Y0207591D01*
X0123943Y0207547D01*
X0123996Y0207499D01*
X0124046Y0207448D01*
X0124093Y0207395D01*
X0124137Y0207339D01*
X0124178Y0207281D01*
X0124216Y0207220D01*
X0124250Y0207158D01*
X0124280Y0207093D01*
X0124307Y0207028D01*
X0124331Y0206960D01*
X0124350Y0206892D01*
X0124366Y0206823D01*
X0124378Y0206752D01*
X0124386Y0206682D01*
X0124390Y0206611D01*
X0124390Y0206539D01*
X0124386Y0206468D01*
X0124378Y0206398D01*
X0124366Y0206327D01*
X0124350Y0206258D01*
X0124331Y0206190D01*
X0124307Y0206122D01*
X0124280Y0206057D01*
X0124250Y0205992D01*
X0124216Y0205930D01*
X0124178Y0205869D01*
X0124137Y0205811D01*
X0124093Y0205755D01*
X0124046Y0205702D01*
X0123996Y0205651D01*
X0123943Y0205603D01*
X0123888Y0205559D01*
X0123830Y0205517D01*
X0123770Y0205479D01*
X0123708Y0205444D01*
X0123645Y0205412D01*
X0123579Y0205384D01*
X0123512Y0205360D01*
X0123444Y0205339D01*
X0123375Y0205323D01*
X0123305Y0205310D01*
X0123234Y0205301D01*
X0123163Y0205296D01*
X0123092Y0205295D01*
X0123021Y0205298D01*
X0122950Y0205305D01*
X0122880Y0205316D01*
X0122810Y0205331D01*
X0122742Y0205349D01*
X0122674Y0205372D01*
X0122608Y0205398D01*
X0122543Y0205427D01*
X0122480Y0205461D01*
X0122419Y0205497D01*
X0122361Y0205537D01*
X0122304Y0205581D01*
X0122250Y0205627D01*
X0122199Y0205676D01*
X0122150Y0205728D01*
X0122105Y0205783D01*
X0122062Y0205840D01*
X0122023Y0205899D01*
X0121987Y0205961D01*
X0121955Y0206024D01*
X0121926Y0206089D01*
X0121901Y0206156D01*
X0121879Y0206224D01*
X0121862Y0206293D01*
X0121848Y0206362D01*
X0121838Y0206433D01*
X0121832Y0206504D01*
X0121830Y0206575D01*
X0192007Y0197913D02*
X0192009Y0198066D01*
X0192015Y0198220D01*
X0192025Y0198373D01*
X0192039Y0198525D01*
X0192057Y0198678D01*
X0192079Y0198829D01*
X0192104Y0198980D01*
X0192134Y0199131D01*
X0192168Y0199281D01*
X0192205Y0199429D01*
X0192246Y0199577D01*
X0192291Y0199723D01*
X0192340Y0199869D01*
X0192393Y0200013D01*
X0192449Y0200155D01*
X0192509Y0200296D01*
X0192573Y0200436D01*
X0192640Y0200574D01*
X0192711Y0200710D01*
X0192786Y0200844D01*
X0192863Y0200976D01*
X0192945Y0201106D01*
X0193029Y0201234D01*
X0193117Y0201360D01*
X0193208Y0201483D01*
X0193302Y0201604D01*
X0193400Y0201722D01*
X0193500Y0201838D01*
X0193604Y0201951D01*
X0193710Y0202062D01*
X0193819Y0202170D01*
X0193931Y0202275D01*
X0194045Y0202376D01*
X0194163Y0202475D01*
X0194282Y0202571D01*
X0194404Y0202664D01*
X0194529Y0202753D01*
X0194656Y0202840D01*
X0194785Y0202922D01*
X0194916Y0203002D01*
X0195049Y0203078D01*
X0195184Y0203151D01*
X0195321Y0203220D01*
X0195460Y0203285D01*
X0195600Y0203347D01*
X0195742Y0203405D01*
X0195885Y0203460D01*
X0196030Y0203511D01*
X0196176Y0203558D01*
X0196323Y0203601D01*
X0196471Y0203640D01*
X0196620Y0203676D01*
X0196770Y0203707D01*
X0196921Y0203735D01*
X0197072Y0203759D01*
X0197225Y0203779D01*
X0197377Y0203795D01*
X0197530Y0203807D01*
X0197683Y0203815D01*
X0197836Y0203819D01*
X0197990Y0203819D01*
X0198143Y0203815D01*
X0198296Y0203807D01*
X0198449Y0203795D01*
X0198601Y0203779D01*
X0198754Y0203759D01*
X0198905Y0203735D01*
X0199056Y0203707D01*
X0199206Y0203676D01*
X0199355Y0203640D01*
X0199503Y0203601D01*
X0199650Y0203558D01*
X0199796Y0203511D01*
X0199941Y0203460D01*
X0200084Y0203405D01*
X0200226Y0203347D01*
X0200366Y0203285D01*
X0200505Y0203220D01*
X0200642Y0203151D01*
X0200777Y0203078D01*
X0200910Y0203002D01*
X0201041Y0202922D01*
X0201170Y0202840D01*
X0201297Y0202753D01*
X0201422Y0202664D01*
X0201544Y0202571D01*
X0201663Y0202475D01*
X0201781Y0202376D01*
X0201895Y0202275D01*
X0202007Y0202170D01*
X0202116Y0202062D01*
X0202222Y0201951D01*
X0202326Y0201838D01*
X0202426Y0201722D01*
X0202524Y0201604D01*
X0202618Y0201483D01*
X0202709Y0201360D01*
X0202797Y0201234D01*
X0202881Y0201106D01*
X0202963Y0200976D01*
X0203040Y0200844D01*
X0203115Y0200710D01*
X0203186Y0200574D01*
X0203253Y0200436D01*
X0203317Y0200296D01*
X0203377Y0200155D01*
X0203433Y0200013D01*
X0203486Y0199869D01*
X0203535Y0199723D01*
X0203580Y0199577D01*
X0203621Y0199429D01*
X0203658Y0199281D01*
X0203692Y0199131D01*
X0203722Y0198980D01*
X0203747Y0198829D01*
X0203769Y0198678D01*
X0203787Y0198525D01*
X0203801Y0198373D01*
X0203811Y0198220D01*
X0203817Y0198066D01*
X0203819Y0197913D01*
X0203817Y0197760D01*
X0203811Y0197606D01*
X0203801Y0197453D01*
X0203787Y0197301D01*
X0203769Y0197148D01*
X0203747Y0196997D01*
X0203722Y0196846D01*
X0203692Y0196695D01*
X0203658Y0196545D01*
X0203621Y0196397D01*
X0203580Y0196249D01*
X0203535Y0196103D01*
X0203486Y0195957D01*
X0203433Y0195813D01*
X0203377Y0195671D01*
X0203317Y0195530D01*
X0203253Y0195390D01*
X0203186Y0195252D01*
X0203115Y0195116D01*
X0203040Y0194982D01*
X0202963Y0194850D01*
X0202881Y0194720D01*
X0202797Y0194592D01*
X0202709Y0194466D01*
X0202618Y0194343D01*
X0202524Y0194222D01*
X0202426Y0194104D01*
X0202326Y0193988D01*
X0202222Y0193875D01*
X0202116Y0193764D01*
X0202007Y0193656D01*
X0201895Y0193551D01*
X0201781Y0193450D01*
X0201663Y0193351D01*
X0201544Y0193255D01*
X0201422Y0193162D01*
X0201297Y0193073D01*
X0201170Y0192986D01*
X0201041Y0192904D01*
X0200910Y0192824D01*
X0200777Y0192748D01*
X0200642Y0192675D01*
X0200505Y0192606D01*
X0200366Y0192541D01*
X0200226Y0192479D01*
X0200084Y0192421D01*
X0199941Y0192366D01*
X0199796Y0192315D01*
X0199650Y0192268D01*
X0199503Y0192225D01*
X0199355Y0192186D01*
X0199206Y0192150D01*
X0199056Y0192119D01*
X0198905Y0192091D01*
X0198754Y0192067D01*
X0198601Y0192047D01*
X0198449Y0192031D01*
X0198296Y0192019D01*
X0198143Y0192011D01*
X0197990Y0192007D01*
X0197836Y0192007D01*
X0197683Y0192011D01*
X0197530Y0192019D01*
X0197377Y0192031D01*
X0197225Y0192047D01*
X0197072Y0192067D01*
X0196921Y0192091D01*
X0196770Y0192119D01*
X0196620Y0192150D01*
X0196471Y0192186D01*
X0196323Y0192225D01*
X0196176Y0192268D01*
X0196030Y0192315D01*
X0195885Y0192366D01*
X0195742Y0192421D01*
X0195600Y0192479D01*
X0195460Y0192541D01*
X0195321Y0192606D01*
X0195184Y0192675D01*
X0195049Y0192748D01*
X0194916Y0192824D01*
X0194785Y0192904D01*
X0194656Y0192986D01*
X0194529Y0193073D01*
X0194404Y0193162D01*
X0194282Y0193255D01*
X0194163Y0193351D01*
X0194045Y0193450D01*
X0193931Y0193551D01*
X0193819Y0193656D01*
X0193710Y0193764D01*
X0193604Y0193875D01*
X0193500Y0193988D01*
X0193400Y0194104D01*
X0193302Y0194222D01*
X0193208Y0194343D01*
X0193117Y0194466D01*
X0193029Y0194592D01*
X0192945Y0194720D01*
X0192863Y0194850D01*
X0192786Y0194982D01*
X0192711Y0195116D01*
X0192640Y0195252D01*
X0192573Y0195390D01*
X0192509Y0195530D01*
X0192449Y0195671D01*
X0192393Y0195813D01*
X0192340Y0195957D01*
X0192291Y0196103D01*
X0192246Y0196249D01*
X0192205Y0196397D01*
X0192168Y0196545D01*
X0192134Y0196695D01*
X0192104Y0196846D01*
X0192079Y0196997D01*
X0192057Y0197148D01*
X0192039Y0197301D01*
X0192025Y0197453D01*
X0192015Y0197606D01*
X0192009Y0197760D01*
X0192007Y0197913D01*
X0136102Y0054213D02*
X0136104Y0054318D01*
X0136110Y0054423D01*
X0136120Y0054527D01*
X0136134Y0054631D01*
X0136152Y0054735D01*
X0136174Y0054837D01*
X0136199Y0054939D01*
X0136229Y0055040D01*
X0136262Y0055139D01*
X0136299Y0055237D01*
X0136340Y0055334D01*
X0136385Y0055429D01*
X0136433Y0055522D01*
X0136484Y0055614D01*
X0136540Y0055703D01*
X0136598Y0055790D01*
X0136660Y0055875D01*
X0136724Y0055958D01*
X0136792Y0056038D01*
X0136863Y0056115D01*
X0136937Y0056189D01*
X0137014Y0056261D01*
X0137093Y0056330D01*
X0137175Y0056395D01*
X0137259Y0056458D01*
X0137346Y0056517D01*
X0137435Y0056573D01*
X0137526Y0056626D01*
X0137619Y0056675D01*
X0137713Y0056720D01*
X0137809Y0056762D01*
X0137907Y0056800D01*
X0138006Y0056834D01*
X0138107Y0056865D01*
X0138208Y0056891D01*
X0138311Y0056914D01*
X0138414Y0056933D01*
X0138518Y0056948D01*
X0138622Y0056959D01*
X0138727Y0056966D01*
X0138832Y0056969D01*
X0138937Y0056968D01*
X0139042Y0056963D01*
X0139146Y0056954D01*
X0139250Y0056941D01*
X0139354Y0056924D01*
X0139457Y0056903D01*
X0139559Y0056878D01*
X0139660Y0056850D01*
X0139759Y0056817D01*
X0139858Y0056781D01*
X0139955Y0056741D01*
X0140050Y0056698D01*
X0140144Y0056650D01*
X0140236Y0056600D01*
X0140326Y0056546D01*
X0140414Y0056488D01*
X0140499Y0056427D01*
X0140582Y0056363D01*
X0140663Y0056296D01*
X0140741Y0056226D01*
X0140816Y0056152D01*
X0140888Y0056077D01*
X0140958Y0055998D01*
X0141024Y0055917D01*
X0141088Y0055833D01*
X0141148Y0055747D01*
X0141204Y0055659D01*
X0141258Y0055568D01*
X0141308Y0055476D01*
X0141354Y0055382D01*
X0141397Y0055286D01*
X0141436Y0055188D01*
X0141471Y0055090D01*
X0141502Y0054989D01*
X0141530Y0054888D01*
X0141554Y0054786D01*
X0141574Y0054683D01*
X0141590Y0054579D01*
X0141602Y0054475D01*
X0141610Y0054370D01*
X0141614Y0054265D01*
X0141614Y0054161D01*
X0141610Y0054056D01*
X0141602Y0053951D01*
X0141590Y0053847D01*
X0141574Y0053743D01*
X0141554Y0053640D01*
X0141530Y0053538D01*
X0141502Y0053437D01*
X0141471Y0053336D01*
X0141436Y0053238D01*
X0141397Y0053140D01*
X0141354Y0053044D01*
X0141308Y0052950D01*
X0141258Y0052858D01*
X0141204Y0052767D01*
X0141148Y0052679D01*
X0141088Y0052593D01*
X0141024Y0052509D01*
X0140958Y0052428D01*
X0140888Y0052349D01*
X0140816Y0052274D01*
X0140741Y0052200D01*
X0140663Y0052130D01*
X0140582Y0052063D01*
X0140499Y0051999D01*
X0140414Y0051938D01*
X0140326Y0051880D01*
X0140236Y0051826D01*
X0140144Y0051776D01*
X0140050Y0051728D01*
X0139955Y0051685D01*
X0139858Y0051645D01*
X0139759Y0051609D01*
X0139660Y0051576D01*
X0139559Y0051548D01*
X0139457Y0051523D01*
X0139354Y0051502D01*
X0139250Y0051485D01*
X0139146Y0051472D01*
X0139042Y0051463D01*
X0138937Y0051458D01*
X0138832Y0051457D01*
X0138727Y0051460D01*
X0138622Y0051467D01*
X0138518Y0051478D01*
X0138414Y0051493D01*
X0138311Y0051512D01*
X0138208Y0051535D01*
X0138107Y0051561D01*
X0138006Y0051592D01*
X0137907Y0051626D01*
X0137809Y0051664D01*
X0137713Y0051706D01*
X0137619Y0051751D01*
X0137526Y0051800D01*
X0137435Y0051853D01*
X0137346Y0051909D01*
X0137259Y0051968D01*
X0137175Y0052031D01*
X0137093Y0052096D01*
X0137014Y0052165D01*
X0136937Y0052237D01*
X0136863Y0052311D01*
X0136792Y0052388D01*
X0136724Y0052468D01*
X0136660Y0052551D01*
X0136598Y0052636D01*
X0136540Y0052723D01*
X0136484Y0052812D01*
X0136433Y0052904D01*
X0136385Y0052997D01*
X0136340Y0053092D01*
X0136299Y0053189D01*
X0136262Y0053287D01*
X0136229Y0053386D01*
X0136199Y0053487D01*
X0136174Y0053589D01*
X0136152Y0053691D01*
X0136134Y0053795D01*
X0136120Y0053899D01*
X0136110Y0054003D01*
X0136104Y0054108D01*
X0136102Y0054213D01*
X0132362Y0017598D02*
X0132362Y0012874D01*
X0145354Y0012874D01*
X0145354Y0017598D01*
X0132362Y0017598D01*
X0192007Y0024685D02*
X0192009Y0024838D01*
X0192015Y0024992D01*
X0192025Y0025145D01*
X0192039Y0025297D01*
X0192057Y0025450D01*
X0192079Y0025601D01*
X0192104Y0025752D01*
X0192134Y0025903D01*
X0192168Y0026053D01*
X0192205Y0026201D01*
X0192246Y0026349D01*
X0192291Y0026495D01*
X0192340Y0026641D01*
X0192393Y0026785D01*
X0192449Y0026927D01*
X0192509Y0027068D01*
X0192573Y0027208D01*
X0192640Y0027346D01*
X0192711Y0027482D01*
X0192786Y0027616D01*
X0192863Y0027748D01*
X0192945Y0027878D01*
X0193029Y0028006D01*
X0193117Y0028132D01*
X0193208Y0028255D01*
X0193302Y0028376D01*
X0193400Y0028494D01*
X0193500Y0028610D01*
X0193604Y0028723D01*
X0193710Y0028834D01*
X0193819Y0028942D01*
X0193931Y0029047D01*
X0194045Y0029148D01*
X0194163Y0029247D01*
X0194282Y0029343D01*
X0194404Y0029436D01*
X0194529Y0029525D01*
X0194656Y0029612D01*
X0194785Y0029694D01*
X0194916Y0029774D01*
X0195049Y0029850D01*
X0195184Y0029923D01*
X0195321Y0029992D01*
X0195460Y0030057D01*
X0195600Y0030119D01*
X0195742Y0030177D01*
X0195885Y0030232D01*
X0196030Y0030283D01*
X0196176Y0030330D01*
X0196323Y0030373D01*
X0196471Y0030412D01*
X0196620Y0030448D01*
X0196770Y0030479D01*
X0196921Y0030507D01*
X0197072Y0030531D01*
X0197225Y0030551D01*
X0197377Y0030567D01*
X0197530Y0030579D01*
X0197683Y0030587D01*
X0197836Y0030591D01*
X0197990Y0030591D01*
X0198143Y0030587D01*
X0198296Y0030579D01*
X0198449Y0030567D01*
X0198601Y0030551D01*
X0198754Y0030531D01*
X0198905Y0030507D01*
X0199056Y0030479D01*
X0199206Y0030448D01*
X0199355Y0030412D01*
X0199503Y0030373D01*
X0199650Y0030330D01*
X0199796Y0030283D01*
X0199941Y0030232D01*
X0200084Y0030177D01*
X0200226Y0030119D01*
X0200366Y0030057D01*
X0200505Y0029992D01*
X0200642Y0029923D01*
X0200777Y0029850D01*
X0200910Y0029774D01*
X0201041Y0029694D01*
X0201170Y0029612D01*
X0201297Y0029525D01*
X0201422Y0029436D01*
X0201544Y0029343D01*
X0201663Y0029247D01*
X0201781Y0029148D01*
X0201895Y0029047D01*
X0202007Y0028942D01*
X0202116Y0028834D01*
X0202222Y0028723D01*
X0202326Y0028610D01*
X0202426Y0028494D01*
X0202524Y0028376D01*
X0202618Y0028255D01*
X0202709Y0028132D01*
X0202797Y0028006D01*
X0202881Y0027878D01*
X0202963Y0027748D01*
X0203040Y0027616D01*
X0203115Y0027482D01*
X0203186Y0027346D01*
X0203253Y0027208D01*
X0203317Y0027068D01*
X0203377Y0026927D01*
X0203433Y0026785D01*
X0203486Y0026641D01*
X0203535Y0026495D01*
X0203580Y0026349D01*
X0203621Y0026201D01*
X0203658Y0026053D01*
X0203692Y0025903D01*
X0203722Y0025752D01*
X0203747Y0025601D01*
X0203769Y0025450D01*
X0203787Y0025297D01*
X0203801Y0025145D01*
X0203811Y0024992D01*
X0203817Y0024838D01*
X0203819Y0024685D01*
X0203817Y0024532D01*
X0203811Y0024378D01*
X0203801Y0024225D01*
X0203787Y0024073D01*
X0203769Y0023920D01*
X0203747Y0023769D01*
X0203722Y0023618D01*
X0203692Y0023467D01*
X0203658Y0023317D01*
X0203621Y0023169D01*
X0203580Y0023021D01*
X0203535Y0022875D01*
X0203486Y0022729D01*
X0203433Y0022585D01*
X0203377Y0022443D01*
X0203317Y0022302D01*
X0203253Y0022162D01*
X0203186Y0022024D01*
X0203115Y0021888D01*
X0203040Y0021754D01*
X0202963Y0021622D01*
X0202881Y0021492D01*
X0202797Y0021364D01*
X0202709Y0021238D01*
X0202618Y0021115D01*
X0202524Y0020994D01*
X0202426Y0020876D01*
X0202326Y0020760D01*
X0202222Y0020647D01*
X0202116Y0020536D01*
X0202007Y0020428D01*
X0201895Y0020323D01*
X0201781Y0020222D01*
X0201663Y0020123D01*
X0201544Y0020027D01*
X0201422Y0019934D01*
X0201297Y0019845D01*
X0201170Y0019758D01*
X0201041Y0019676D01*
X0200910Y0019596D01*
X0200777Y0019520D01*
X0200642Y0019447D01*
X0200505Y0019378D01*
X0200366Y0019313D01*
X0200226Y0019251D01*
X0200084Y0019193D01*
X0199941Y0019138D01*
X0199796Y0019087D01*
X0199650Y0019040D01*
X0199503Y0018997D01*
X0199355Y0018958D01*
X0199206Y0018922D01*
X0199056Y0018891D01*
X0198905Y0018863D01*
X0198754Y0018839D01*
X0198601Y0018819D01*
X0198449Y0018803D01*
X0198296Y0018791D01*
X0198143Y0018783D01*
X0197990Y0018779D01*
X0197836Y0018779D01*
X0197683Y0018783D01*
X0197530Y0018791D01*
X0197377Y0018803D01*
X0197225Y0018819D01*
X0197072Y0018839D01*
X0196921Y0018863D01*
X0196770Y0018891D01*
X0196620Y0018922D01*
X0196471Y0018958D01*
X0196323Y0018997D01*
X0196176Y0019040D01*
X0196030Y0019087D01*
X0195885Y0019138D01*
X0195742Y0019193D01*
X0195600Y0019251D01*
X0195460Y0019313D01*
X0195321Y0019378D01*
X0195184Y0019447D01*
X0195049Y0019520D01*
X0194916Y0019596D01*
X0194785Y0019676D01*
X0194656Y0019758D01*
X0194529Y0019845D01*
X0194404Y0019934D01*
X0194282Y0020027D01*
X0194163Y0020123D01*
X0194045Y0020222D01*
X0193931Y0020323D01*
X0193819Y0020428D01*
X0193710Y0020536D01*
X0193604Y0020647D01*
X0193500Y0020760D01*
X0193400Y0020876D01*
X0193302Y0020994D01*
X0193208Y0021115D01*
X0193117Y0021238D01*
X0193029Y0021364D01*
X0192945Y0021492D01*
X0192863Y0021622D01*
X0192786Y0021754D01*
X0192711Y0021888D01*
X0192640Y0022024D01*
X0192573Y0022162D01*
X0192509Y0022302D01*
X0192449Y0022443D01*
X0192393Y0022585D01*
X0192340Y0022729D01*
X0192291Y0022875D01*
X0192246Y0023021D01*
X0192205Y0023169D01*
X0192168Y0023317D01*
X0192134Y0023467D01*
X0192104Y0023618D01*
X0192079Y0023769D01*
X0192057Y0023920D01*
X0192039Y0024073D01*
X0192025Y0024225D01*
X0192015Y0024378D01*
X0192009Y0024532D01*
X0192007Y0024685D01*
X0018779Y0024685D02*
X0018781Y0024838D01*
X0018787Y0024992D01*
X0018797Y0025145D01*
X0018811Y0025297D01*
X0018829Y0025450D01*
X0018851Y0025601D01*
X0018876Y0025752D01*
X0018906Y0025903D01*
X0018940Y0026053D01*
X0018977Y0026201D01*
X0019018Y0026349D01*
X0019063Y0026495D01*
X0019112Y0026641D01*
X0019165Y0026785D01*
X0019221Y0026927D01*
X0019281Y0027068D01*
X0019345Y0027208D01*
X0019412Y0027346D01*
X0019483Y0027482D01*
X0019558Y0027616D01*
X0019635Y0027748D01*
X0019717Y0027878D01*
X0019801Y0028006D01*
X0019889Y0028132D01*
X0019980Y0028255D01*
X0020074Y0028376D01*
X0020172Y0028494D01*
X0020272Y0028610D01*
X0020376Y0028723D01*
X0020482Y0028834D01*
X0020591Y0028942D01*
X0020703Y0029047D01*
X0020817Y0029148D01*
X0020935Y0029247D01*
X0021054Y0029343D01*
X0021176Y0029436D01*
X0021301Y0029525D01*
X0021428Y0029612D01*
X0021557Y0029694D01*
X0021688Y0029774D01*
X0021821Y0029850D01*
X0021956Y0029923D01*
X0022093Y0029992D01*
X0022232Y0030057D01*
X0022372Y0030119D01*
X0022514Y0030177D01*
X0022657Y0030232D01*
X0022802Y0030283D01*
X0022948Y0030330D01*
X0023095Y0030373D01*
X0023243Y0030412D01*
X0023392Y0030448D01*
X0023542Y0030479D01*
X0023693Y0030507D01*
X0023844Y0030531D01*
X0023997Y0030551D01*
X0024149Y0030567D01*
X0024302Y0030579D01*
X0024455Y0030587D01*
X0024608Y0030591D01*
X0024762Y0030591D01*
X0024915Y0030587D01*
X0025068Y0030579D01*
X0025221Y0030567D01*
X0025373Y0030551D01*
X0025526Y0030531D01*
X0025677Y0030507D01*
X0025828Y0030479D01*
X0025978Y0030448D01*
X0026127Y0030412D01*
X0026275Y0030373D01*
X0026422Y0030330D01*
X0026568Y0030283D01*
X0026713Y0030232D01*
X0026856Y0030177D01*
X0026998Y0030119D01*
X0027138Y0030057D01*
X0027277Y0029992D01*
X0027414Y0029923D01*
X0027549Y0029850D01*
X0027682Y0029774D01*
X0027813Y0029694D01*
X0027942Y0029612D01*
X0028069Y0029525D01*
X0028194Y0029436D01*
X0028316Y0029343D01*
X0028435Y0029247D01*
X0028553Y0029148D01*
X0028667Y0029047D01*
X0028779Y0028942D01*
X0028888Y0028834D01*
X0028994Y0028723D01*
X0029098Y0028610D01*
X0029198Y0028494D01*
X0029296Y0028376D01*
X0029390Y0028255D01*
X0029481Y0028132D01*
X0029569Y0028006D01*
X0029653Y0027878D01*
X0029735Y0027748D01*
X0029812Y0027616D01*
X0029887Y0027482D01*
X0029958Y0027346D01*
X0030025Y0027208D01*
X0030089Y0027068D01*
X0030149Y0026927D01*
X0030205Y0026785D01*
X0030258Y0026641D01*
X0030307Y0026495D01*
X0030352Y0026349D01*
X0030393Y0026201D01*
X0030430Y0026053D01*
X0030464Y0025903D01*
X0030494Y0025752D01*
X0030519Y0025601D01*
X0030541Y0025450D01*
X0030559Y0025297D01*
X0030573Y0025145D01*
X0030583Y0024992D01*
X0030589Y0024838D01*
X0030591Y0024685D01*
X0030589Y0024532D01*
X0030583Y0024378D01*
X0030573Y0024225D01*
X0030559Y0024073D01*
X0030541Y0023920D01*
X0030519Y0023769D01*
X0030494Y0023618D01*
X0030464Y0023467D01*
X0030430Y0023317D01*
X0030393Y0023169D01*
X0030352Y0023021D01*
X0030307Y0022875D01*
X0030258Y0022729D01*
X0030205Y0022585D01*
X0030149Y0022443D01*
X0030089Y0022302D01*
X0030025Y0022162D01*
X0029958Y0022024D01*
X0029887Y0021888D01*
X0029812Y0021754D01*
X0029735Y0021622D01*
X0029653Y0021492D01*
X0029569Y0021364D01*
X0029481Y0021238D01*
X0029390Y0021115D01*
X0029296Y0020994D01*
X0029198Y0020876D01*
X0029098Y0020760D01*
X0028994Y0020647D01*
X0028888Y0020536D01*
X0028779Y0020428D01*
X0028667Y0020323D01*
X0028553Y0020222D01*
X0028435Y0020123D01*
X0028316Y0020027D01*
X0028194Y0019934D01*
X0028069Y0019845D01*
X0027942Y0019758D01*
X0027813Y0019676D01*
X0027682Y0019596D01*
X0027549Y0019520D01*
X0027414Y0019447D01*
X0027277Y0019378D01*
X0027138Y0019313D01*
X0026998Y0019251D01*
X0026856Y0019193D01*
X0026713Y0019138D01*
X0026568Y0019087D01*
X0026422Y0019040D01*
X0026275Y0018997D01*
X0026127Y0018958D01*
X0025978Y0018922D01*
X0025828Y0018891D01*
X0025677Y0018863D01*
X0025526Y0018839D01*
X0025373Y0018819D01*
X0025221Y0018803D01*
X0025068Y0018791D01*
X0024915Y0018783D01*
X0024762Y0018779D01*
X0024608Y0018779D01*
X0024455Y0018783D01*
X0024302Y0018791D01*
X0024149Y0018803D01*
X0023997Y0018819D01*
X0023844Y0018839D01*
X0023693Y0018863D01*
X0023542Y0018891D01*
X0023392Y0018922D01*
X0023243Y0018958D01*
X0023095Y0018997D01*
X0022948Y0019040D01*
X0022802Y0019087D01*
X0022657Y0019138D01*
X0022514Y0019193D01*
X0022372Y0019251D01*
X0022232Y0019313D01*
X0022093Y0019378D01*
X0021956Y0019447D01*
X0021821Y0019520D01*
X0021688Y0019596D01*
X0021557Y0019676D01*
X0021428Y0019758D01*
X0021301Y0019845D01*
X0021176Y0019934D01*
X0021054Y0020027D01*
X0020935Y0020123D01*
X0020817Y0020222D01*
X0020703Y0020323D01*
X0020591Y0020428D01*
X0020482Y0020536D01*
X0020376Y0020647D01*
X0020272Y0020760D01*
X0020172Y0020876D01*
X0020074Y0020994D01*
X0019980Y0021115D01*
X0019889Y0021238D01*
X0019801Y0021364D01*
X0019717Y0021492D01*
X0019635Y0021622D01*
X0019558Y0021754D01*
X0019483Y0021888D01*
X0019412Y0022024D01*
X0019345Y0022162D01*
X0019281Y0022302D01*
X0019221Y0022443D01*
X0019165Y0022585D01*
X0019112Y0022729D01*
X0019063Y0022875D01*
X0019018Y0023021D01*
X0018977Y0023169D01*
X0018940Y0023317D01*
X0018906Y0023467D01*
X0018876Y0023618D01*
X0018851Y0023769D01*
X0018829Y0023920D01*
X0018811Y0024073D01*
X0018797Y0024225D01*
X0018787Y0024378D01*
X0018781Y0024532D01*
X0018779Y0024685D01*
D13*
X0115483Y0031374D02*
X0115483Y0032826D01*
X0115967Y0033309D01*
X0116934Y0033309D01*
X0117418Y0032826D01*
X0117418Y0031374D01*
X0118385Y0031374D02*
X0115483Y0031374D01*
X0117418Y0032342D02*
X0118385Y0033309D01*
X0117902Y0034321D02*
X0118385Y0034805D01*
X0118385Y0035772D01*
X0117902Y0036256D01*
X0115967Y0036256D01*
X0115483Y0035772D01*
X0115483Y0034805D01*
X0115967Y0034321D01*
X0116450Y0034321D01*
X0116934Y0034805D01*
X0116934Y0036256D01*
X0151650Y0068780D02*
X0153585Y0068780D01*
X0154597Y0068780D02*
X0156531Y0068780D01*
X0155564Y0068780D02*
X0155564Y0071682D01*
X0154597Y0070715D01*
X0151650Y0071682D02*
X0151650Y0068780D01*
X0152134Y0074685D02*
X0153101Y0074685D01*
X0153585Y0075169D01*
X0154597Y0076137D02*
X0156531Y0076137D01*
X0156048Y0077588D02*
X0156048Y0074685D01*
X0154597Y0076137D02*
X0156048Y0077588D01*
X0153585Y0077104D02*
X0153101Y0077588D01*
X0152134Y0077588D01*
X0151650Y0077104D01*
X0151650Y0075169D01*
X0152134Y0074685D01*
X0152324Y0089646D02*
X0151841Y0090130D01*
X0152324Y0089646D02*
X0153292Y0089646D01*
X0153776Y0090130D01*
X0153776Y0091097D01*
X0153292Y0091581D01*
X0152808Y0091581D01*
X0151841Y0091097D01*
X0151841Y0092549D01*
X0153776Y0092549D01*
X0150829Y0092065D02*
X0150345Y0092549D01*
X0149378Y0092549D01*
X0148894Y0092065D01*
X0148894Y0090130D01*
X0149378Y0089646D01*
X0150345Y0089646D01*
X0150829Y0090130D01*
X0136649Y0086334D02*
X0136649Y0083431D01*
X0137616Y0083431D02*
X0135681Y0083431D01*
X0134670Y0083915D02*
X0134670Y0086334D01*
X0135681Y0085366D02*
X0136649Y0086334D01*
X0134670Y0083915D02*
X0134186Y0083431D01*
X0133219Y0083431D01*
X0132735Y0083915D01*
X0132735Y0086334D01*
X0124291Y0086183D02*
X0123807Y0085699D01*
X0124291Y0086183D02*
X0124291Y0087150D01*
X0123807Y0087634D01*
X0123323Y0087634D01*
X0122840Y0087150D01*
X0122840Y0086666D01*
X0122840Y0087150D02*
X0122356Y0087634D01*
X0121872Y0087634D01*
X0121388Y0087150D01*
X0121388Y0086183D01*
X0121872Y0085699D01*
X0121872Y0084687D02*
X0121388Y0084204D01*
X0121388Y0083236D01*
X0121872Y0082752D01*
X0123807Y0082752D01*
X0124291Y0083236D01*
X0124291Y0084204D01*
X0123807Y0084687D01*
X0122349Y0113454D02*
X0120414Y0113454D01*
X0121382Y0113454D02*
X0121382Y0116356D01*
X0120414Y0115389D01*
X0119403Y0115873D02*
X0118919Y0116356D01*
X0117951Y0116356D01*
X0117468Y0115873D01*
X0117468Y0113938D01*
X0117951Y0113454D01*
X0118919Y0113454D01*
X0119403Y0113938D01*
X0116471Y0113454D02*
X0115503Y0113454D01*
X0115987Y0113454D02*
X0115987Y0116356D01*
X0115503Y0116356D02*
X0116471Y0116356D01*
X0123787Y0128229D02*
X0124755Y0128229D01*
X0125239Y0128712D01*
X0126250Y0128229D02*
X0128185Y0128229D01*
X0127218Y0128229D02*
X0127218Y0131131D01*
X0126250Y0130164D01*
X0125239Y0130647D02*
X0124755Y0131131D01*
X0123787Y0131131D01*
X0123304Y0130647D01*
X0123304Y0128712D01*
X0123787Y0128229D01*
X0124932Y0134721D02*
X0127834Y0134721D01*
X0127834Y0136656D01*
X0127351Y0137667D02*
X0127834Y0138151D01*
X0127834Y0139119D01*
X0127351Y0139602D01*
X0126867Y0139602D01*
X0126383Y0139119D01*
X0126383Y0138635D01*
X0126383Y0139119D02*
X0125899Y0139602D01*
X0125416Y0139602D01*
X0124932Y0139119D01*
X0124932Y0138151D01*
X0125416Y0137667D01*
X0136743Y0140233D02*
X0139645Y0140233D01*
X0139645Y0142168D01*
X0139645Y0143179D02*
X0137710Y0145114D01*
X0137227Y0145114D01*
X0136743Y0144630D01*
X0136743Y0143663D01*
X0137227Y0143179D01*
X0139645Y0143179D02*
X0139645Y0145114D01*
X0131522Y0149607D02*
X0128620Y0149607D01*
X0128620Y0151059D01*
X0129104Y0151542D01*
X0130071Y0151542D01*
X0130555Y0151059D01*
X0130555Y0149607D01*
X0130555Y0150575D02*
X0131522Y0151542D01*
X0131522Y0152554D02*
X0131039Y0152554D01*
X0129104Y0154489D01*
X0128620Y0154489D01*
X0128620Y0152554D01*
X0119173Y0158039D02*
X0119173Y0159007D01*
X0118689Y0159490D01*
X0119173Y0160502D02*
X0119173Y0162437D01*
X0119173Y0161470D02*
X0116270Y0161470D01*
X0117238Y0160502D01*
X0116754Y0159490D02*
X0116270Y0159007D01*
X0116270Y0158039D01*
X0116754Y0157556D01*
X0118689Y0157556D01*
X0119173Y0158039D01*
X0118689Y0163449D02*
X0116754Y0163449D01*
X0116270Y0163932D01*
X0116270Y0164900D01*
X0116754Y0165384D01*
X0118689Y0163449D01*
X0119173Y0163932D01*
X0119173Y0164900D01*
X0118689Y0165384D01*
X0116754Y0165384D01*
X0116897Y0171391D02*
X0115929Y0172358D01*
X0116413Y0172358D02*
X0114962Y0172358D01*
X0114962Y0171391D02*
X0114962Y0174293D01*
X0116413Y0174293D01*
X0116897Y0173810D01*
X0116897Y0172842D01*
X0116413Y0172358D01*
X0117908Y0172358D02*
X0118392Y0172842D01*
X0119359Y0172842D01*
X0119843Y0172358D01*
X0119843Y0171875D01*
X0119359Y0171391D01*
X0118392Y0171391D01*
X0117908Y0171875D01*
X0117908Y0172358D01*
X0118392Y0172842D02*
X0117908Y0173326D01*
X0117908Y0173810D01*
X0118392Y0174293D01*
X0119359Y0174293D01*
X0119843Y0173810D01*
X0119843Y0173326D01*
X0119359Y0172842D01*
X0118876Y0179659D02*
X0118876Y0182561D01*
X0117908Y0181594D01*
X0117908Y0179659D02*
X0119843Y0179659D01*
X0116897Y0179659D02*
X0114962Y0179659D01*
X0115929Y0179659D02*
X0115929Y0182561D01*
X0114962Y0181594D01*
X0113950Y0182077D02*
X0113466Y0182561D01*
X0112499Y0182561D01*
X0112015Y0182077D01*
X0112015Y0180142D01*
X0112499Y0179659D01*
X0113466Y0179659D01*
X0113950Y0180142D01*
X0113605Y0188264D02*
X0115539Y0188264D01*
X0116023Y0188748D01*
X0116023Y0189715D01*
X0115539Y0190199D01*
X0116023Y0191211D02*
X0116023Y0193146D01*
X0116023Y0192178D02*
X0113121Y0192178D01*
X0114088Y0191211D01*
X0113605Y0190199D02*
X0113121Y0189715D01*
X0113121Y0188748D01*
X0113605Y0188264D01*
X0113605Y0194157D02*
X0113121Y0194641D01*
X0113121Y0195608D01*
X0113605Y0196092D01*
X0114088Y0196092D01*
X0114572Y0195608D01*
X0115056Y0196092D01*
X0115539Y0196092D01*
X0116023Y0195608D01*
X0116023Y0194641D01*
X0115539Y0194157D01*
X0114572Y0195125D02*
X0114572Y0195608D01*
X0127982Y0200744D02*
X0128950Y0201711D01*
X0127982Y0202679D01*
X0130885Y0202679D01*
X0130885Y0203690D02*
X0130885Y0204658D01*
X0130885Y0204174D02*
X0127982Y0204174D01*
X0127982Y0203690D02*
X0127982Y0204658D01*
X0128466Y0205655D02*
X0130401Y0205655D01*
X0130885Y0206138D01*
X0130885Y0207106D01*
X0130401Y0207590D01*
X0130885Y0208601D02*
X0128950Y0210536D01*
X0128466Y0210536D01*
X0127982Y0210052D01*
X0127982Y0209085D01*
X0128466Y0208601D01*
X0128466Y0207590D02*
X0127982Y0207106D01*
X0127982Y0206138D01*
X0128466Y0205655D01*
X0130885Y0208601D02*
X0130885Y0210536D01*
X0130885Y0200744D02*
X0127982Y0200744D01*
X0131661Y0196092D02*
X0131178Y0195608D01*
X0131178Y0193673D01*
X0131661Y0193189D01*
X0132629Y0193189D01*
X0133113Y0193673D01*
X0134124Y0193673D02*
X0134124Y0194157D01*
X0134608Y0194641D01*
X0135575Y0194641D01*
X0136059Y0194157D01*
X0136059Y0193673D01*
X0135575Y0193189D01*
X0134608Y0193189D01*
X0134124Y0193673D01*
X0134608Y0194641D02*
X0134124Y0195124D01*
X0134124Y0195608D01*
X0134608Y0196092D01*
X0135575Y0196092D01*
X0136059Y0195608D01*
X0136059Y0195124D01*
X0135575Y0194641D01*
X0133113Y0195608D02*
X0132629Y0196092D01*
X0131661Y0196092D01*
X0141340Y0178624D02*
X0142791Y0178624D01*
X0143275Y0178140D01*
X0143275Y0177173D01*
X0142791Y0176689D01*
X0141340Y0176689D01*
X0142307Y0176689D02*
X0143275Y0175722D01*
X0144286Y0177173D02*
X0146221Y0177173D01*
X0145737Y0175722D02*
X0145737Y0178624D01*
X0144286Y0177173D01*
X0141340Y0175722D02*
X0141340Y0178624D01*
X0145198Y0168312D02*
X0144714Y0167828D01*
X0144714Y0166860D01*
X0145198Y0166377D01*
X0144714Y0165365D02*
X0147133Y0165365D01*
X0147617Y0164881D01*
X0147617Y0163914D01*
X0147133Y0163430D01*
X0144714Y0163430D01*
X0147617Y0166377D02*
X0145682Y0168312D01*
X0145198Y0168312D01*
X0147617Y0168312D02*
X0147617Y0166377D01*
X0161886Y0159478D02*
X0161886Y0156575D01*
X0161886Y0157543D02*
X0163337Y0157543D01*
X0163821Y0158026D01*
X0163821Y0158994D01*
X0163337Y0159478D01*
X0161886Y0159478D01*
X0162854Y0157543D02*
X0163821Y0156575D01*
X0164833Y0157059D02*
X0165316Y0156575D01*
X0166284Y0156575D01*
X0166768Y0157059D01*
X0166768Y0157543D01*
X0166284Y0158026D01*
X0164833Y0158026D01*
X0164833Y0157059D01*
X0164833Y0158026D02*
X0165800Y0158994D01*
X0166768Y0159478D01*
X0166678Y0164449D02*
X0165710Y0164449D01*
X0165226Y0164933D01*
X0165226Y0165900D02*
X0166194Y0166384D01*
X0166678Y0166384D01*
X0167161Y0165900D01*
X0167161Y0164933D01*
X0166678Y0164449D01*
X0165226Y0165900D02*
X0165226Y0167352D01*
X0167161Y0167352D01*
X0164215Y0166868D02*
X0164215Y0165900D01*
X0163731Y0165417D01*
X0162280Y0165417D01*
X0163247Y0165417D02*
X0164215Y0164449D01*
X0162280Y0164449D02*
X0162280Y0167352D01*
X0163731Y0167352D01*
X0164215Y0166868D01*
X0163731Y0172323D02*
X0164215Y0172807D01*
X0163731Y0172323D02*
X0162764Y0172323D01*
X0162280Y0172807D01*
X0162280Y0174742D01*
X0162764Y0175226D01*
X0163731Y0175226D01*
X0164215Y0174742D01*
X0165226Y0174742D02*
X0165226Y0174258D01*
X0165710Y0173774D01*
X0167161Y0173774D01*
X0167161Y0172807D02*
X0167161Y0174742D01*
X0166678Y0175226D01*
X0165710Y0175226D01*
X0165226Y0174742D01*
X0165226Y0172807D02*
X0165710Y0172323D01*
X0166678Y0172323D01*
X0167161Y0172807D01*
X0166678Y0180197D02*
X0165710Y0180197D01*
X0165226Y0180681D01*
X0164215Y0180197D02*
X0163247Y0181165D01*
X0163731Y0181165D02*
X0162280Y0181165D01*
X0162280Y0180197D02*
X0162280Y0183100D01*
X0163731Y0183100D01*
X0164215Y0182616D01*
X0164215Y0181648D01*
X0163731Y0181165D01*
X0165226Y0182616D02*
X0165710Y0183100D01*
X0166678Y0183100D01*
X0167161Y0182616D01*
X0167161Y0182132D01*
X0166678Y0181648D01*
X0167161Y0181165D01*
X0167161Y0180681D01*
X0166678Y0180197D01*
X0166678Y0181648D02*
X0166194Y0181648D01*
X0166357Y0194110D02*
X0163455Y0194110D01*
X0164422Y0195077D01*
X0163455Y0196045D01*
X0166357Y0196045D01*
X0166357Y0197056D02*
X0166357Y0198024D01*
X0166357Y0197540D02*
X0163455Y0197540D01*
X0163455Y0197056D02*
X0163455Y0198024D01*
X0163938Y0199021D02*
X0165873Y0199021D01*
X0166357Y0199504D01*
X0166357Y0200472D01*
X0165873Y0200956D01*
X0166357Y0201967D02*
X0166357Y0203902D01*
X0166357Y0202935D02*
X0163455Y0202935D01*
X0164422Y0201967D01*
X0163938Y0200956D02*
X0163455Y0200472D01*
X0163455Y0199504D01*
X0163938Y0199021D01*
X0157900Y0150158D02*
X0157900Y0148223D01*
X0155965Y0150158D01*
X0155482Y0150158D01*
X0154998Y0149674D01*
X0154998Y0148707D01*
X0155482Y0148223D01*
X0154998Y0146244D02*
X0157900Y0146244D01*
X0157900Y0145277D02*
X0157900Y0147212D01*
X0155965Y0145277D02*
X0154998Y0146244D01*
X0155482Y0144265D02*
X0154998Y0143781D01*
X0154998Y0142814D01*
X0155482Y0142330D01*
X0157417Y0142330D01*
X0157900Y0142814D01*
X0157900Y0143781D01*
X0157417Y0144265D01*
X0146599Y0118533D02*
X0145631Y0118533D01*
X0145148Y0118049D01*
X0144136Y0118049D02*
X0143652Y0118533D01*
X0142685Y0118533D01*
X0142201Y0118049D01*
X0142201Y0116114D01*
X0142685Y0115630D01*
X0143652Y0115630D01*
X0144136Y0116114D01*
X0145148Y0115630D02*
X0147083Y0117565D01*
X0147083Y0118049D01*
X0146599Y0118533D01*
X0147083Y0115630D02*
X0145148Y0115630D01*
X0157215Y0044720D02*
X0157699Y0044720D01*
X0159634Y0042785D01*
X0160118Y0042785D01*
X0159634Y0041774D02*
X0160118Y0041290D01*
X0160118Y0040323D01*
X0159634Y0039839D01*
X0157699Y0039839D01*
X0157215Y0040323D01*
X0157215Y0041290D01*
X0157699Y0041774D01*
X0157215Y0042785D02*
X0157215Y0044720D01*
X0163855Y0029163D02*
X0165306Y0029163D01*
X0165790Y0028679D01*
X0165790Y0027711D01*
X0165306Y0027228D01*
X0163855Y0027228D01*
X0164822Y0027228D02*
X0165790Y0026260D01*
X0166801Y0026260D02*
X0168736Y0026260D01*
X0167769Y0026260D02*
X0167769Y0029163D01*
X0166801Y0028195D01*
X0163855Y0029163D02*
X0163855Y0026260D01*
X0164331Y0011301D02*
X0163364Y0010818D01*
X0162396Y0009850D01*
X0163848Y0009850D01*
X0164331Y0009366D01*
X0164331Y0008883D01*
X0163848Y0008399D01*
X0162880Y0008399D01*
X0162396Y0008883D01*
X0162396Y0009850D01*
X0161385Y0008883D02*
X0160901Y0008399D01*
X0159934Y0008399D01*
X0159450Y0008883D01*
X0159450Y0010818D01*
X0159934Y0011301D01*
X0160901Y0011301D01*
X0161385Y0010818D01*
X0171070Y0010818D02*
X0171070Y0008883D01*
X0171554Y0008399D01*
X0172522Y0008399D01*
X0173005Y0008883D01*
X0174017Y0008399D02*
X0175952Y0008399D01*
X0174984Y0008399D02*
X0174984Y0011301D01*
X0174017Y0010334D01*
X0173005Y0010818D02*
X0172522Y0011301D01*
X0171554Y0011301D01*
X0171070Y0010818D01*
X0176963Y0009850D02*
X0178898Y0009850D01*
X0178415Y0008399D02*
X0178415Y0011301D01*
X0176963Y0009850D01*
X0182359Y0021930D02*
X0184294Y0021930D01*
X0185305Y0023381D02*
X0187240Y0023381D01*
X0186756Y0021930D02*
X0186756Y0024832D01*
X0185305Y0023381D01*
X0182359Y0024832D02*
X0182359Y0021930D01*
X0182359Y0029804D02*
X0182359Y0032706D01*
X0183810Y0032706D01*
X0184294Y0032222D01*
X0184294Y0031255D01*
X0183810Y0030771D01*
X0182359Y0030771D01*
X0183326Y0030771D02*
X0184294Y0029804D01*
X0185305Y0029804D02*
X0187240Y0031739D01*
X0187240Y0032222D01*
X0186756Y0032706D01*
X0185789Y0032706D01*
X0185305Y0032222D01*
X0185305Y0029804D02*
X0187240Y0029804D01*
D14*
X0154606Y0023937D02*
X0154608Y0023976D01*
X0154614Y0024015D01*
X0154624Y0024053D01*
X0154637Y0024090D01*
X0154654Y0024125D01*
X0154674Y0024159D01*
X0154698Y0024190D01*
X0154725Y0024219D01*
X0154754Y0024245D01*
X0154786Y0024268D01*
X0154820Y0024288D01*
X0154856Y0024304D01*
X0154893Y0024316D01*
X0154932Y0024325D01*
X0154971Y0024330D01*
X0155010Y0024331D01*
X0155049Y0024328D01*
X0155088Y0024321D01*
X0155125Y0024310D01*
X0155162Y0024296D01*
X0155197Y0024278D01*
X0155230Y0024257D01*
X0155261Y0024232D01*
X0155289Y0024205D01*
X0155314Y0024175D01*
X0155336Y0024142D01*
X0155355Y0024108D01*
X0155370Y0024072D01*
X0155382Y0024034D01*
X0155390Y0023996D01*
X0155394Y0023957D01*
X0155394Y0023917D01*
X0155390Y0023878D01*
X0155382Y0023840D01*
X0155370Y0023802D01*
X0155355Y0023766D01*
X0155336Y0023732D01*
X0155314Y0023699D01*
X0155289Y0023669D01*
X0155261Y0023642D01*
X0155230Y0023617D01*
X0155197Y0023596D01*
X0155162Y0023578D01*
X0155125Y0023564D01*
X0155088Y0023553D01*
X0155049Y0023546D01*
X0155010Y0023543D01*
X0154971Y0023544D01*
X0154932Y0023549D01*
X0154893Y0023558D01*
X0154856Y0023570D01*
X0154820Y0023586D01*
X0154786Y0023606D01*
X0154754Y0023629D01*
X0154725Y0023655D01*
X0154698Y0023684D01*
X0154674Y0023715D01*
X0154654Y0023749D01*
X0154637Y0023784D01*
X0154624Y0023821D01*
X0154614Y0023859D01*
X0154608Y0023898D01*
X0154606Y0023937D01*
X0154608Y0023976D01*
X0154614Y0024015D01*
X0154624Y0024053D01*
X0154637Y0024090D01*
X0154654Y0024125D01*
X0154674Y0024159D01*
X0154698Y0024190D01*
X0154725Y0024219D01*
X0154754Y0024245D01*
X0154786Y0024268D01*
X0154820Y0024288D01*
X0154856Y0024304D01*
X0154893Y0024316D01*
X0154932Y0024325D01*
X0154971Y0024330D01*
X0155010Y0024331D01*
X0155049Y0024328D01*
X0155088Y0024321D01*
X0155125Y0024310D01*
X0155162Y0024296D01*
X0155197Y0024278D01*
X0155230Y0024257D01*
X0155261Y0024232D01*
X0155289Y0024205D01*
X0155314Y0024175D01*
X0155336Y0024142D01*
X0155355Y0024108D01*
X0155370Y0024072D01*
X0155382Y0024034D01*
X0155390Y0023996D01*
X0155394Y0023957D01*
X0155394Y0023917D01*
X0155390Y0023878D01*
X0155382Y0023840D01*
X0155370Y0023802D01*
X0155355Y0023766D01*
X0155336Y0023732D01*
X0155314Y0023699D01*
X0155289Y0023669D01*
X0155261Y0023642D01*
X0155230Y0023617D01*
X0155197Y0023596D01*
X0155162Y0023578D01*
X0155125Y0023564D01*
X0155088Y0023553D01*
X0155049Y0023546D01*
X0155010Y0023543D01*
X0154971Y0023544D01*
X0154932Y0023549D01*
X0154893Y0023558D01*
X0154856Y0023570D01*
X0154820Y0023586D01*
X0154786Y0023606D01*
X0154754Y0023629D01*
X0154725Y0023655D01*
X0154698Y0023684D01*
X0154674Y0023715D01*
X0154654Y0023749D01*
X0154637Y0023784D01*
X0154624Y0023821D01*
X0154614Y0023859D01*
X0154608Y0023898D01*
X0154606Y0023937D01*
X0120846Y0196732D02*
X0120848Y0196771D01*
X0120854Y0196810D01*
X0120864Y0196848D01*
X0120877Y0196885D01*
X0120894Y0196920D01*
X0120914Y0196954D01*
X0120938Y0196985D01*
X0120965Y0197014D01*
X0120994Y0197040D01*
X0121026Y0197063D01*
X0121060Y0197083D01*
X0121096Y0197099D01*
X0121133Y0197111D01*
X0121172Y0197120D01*
X0121211Y0197125D01*
X0121250Y0197126D01*
X0121289Y0197123D01*
X0121328Y0197116D01*
X0121365Y0197105D01*
X0121402Y0197091D01*
X0121437Y0197073D01*
X0121470Y0197052D01*
X0121501Y0197027D01*
X0121529Y0197000D01*
X0121554Y0196970D01*
X0121576Y0196937D01*
X0121595Y0196903D01*
X0121610Y0196867D01*
X0121622Y0196829D01*
X0121630Y0196791D01*
X0121634Y0196752D01*
X0121634Y0196712D01*
X0121630Y0196673D01*
X0121622Y0196635D01*
X0121610Y0196597D01*
X0121595Y0196561D01*
X0121576Y0196527D01*
X0121554Y0196494D01*
X0121529Y0196464D01*
X0121501Y0196437D01*
X0121470Y0196412D01*
X0121437Y0196391D01*
X0121402Y0196373D01*
X0121365Y0196359D01*
X0121328Y0196348D01*
X0121289Y0196341D01*
X0121250Y0196338D01*
X0121211Y0196339D01*
X0121172Y0196344D01*
X0121133Y0196353D01*
X0121096Y0196365D01*
X0121060Y0196381D01*
X0121026Y0196401D01*
X0120994Y0196424D01*
X0120965Y0196450D01*
X0120938Y0196479D01*
X0120914Y0196510D01*
X0120894Y0196544D01*
X0120877Y0196579D01*
X0120864Y0196616D01*
X0120854Y0196654D01*
X0120848Y0196693D01*
X0120846Y0196732D01*
X0120848Y0196771D01*
X0120854Y0196810D01*
X0120864Y0196848D01*
X0120877Y0196885D01*
X0120894Y0196920D01*
X0120914Y0196954D01*
X0120938Y0196985D01*
X0120965Y0197014D01*
X0120994Y0197040D01*
X0121026Y0197063D01*
X0121060Y0197083D01*
X0121096Y0197099D01*
X0121133Y0197111D01*
X0121172Y0197120D01*
X0121211Y0197125D01*
X0121250Y0197126D01*
X0121289Y0197123D01*
X0121328Y0197116D01*
X0121365Y0197105D01*
X0121402Y0197091D01*
X0121437Y0197073D01*
X0121470Y0197052D01*
X0121501Y0197027D01*
X0121529Y0197000D01*
X0121554Y0196970D01*
X0121576Y0196937D01*
X0121595Y0196903D01*
X0121610Y0196867D01*
X0121622Y0196829D01*
X0121630Y0196791D01*
X0121634Y0196752D01*
X0121634Y0196712D01*
X0121630Y0196673D01*
X0121622Y0196635D01*
X0121610Y0196597D01*
X0121595Y0196561D01*
X0121576Y0196527D01*
X0121554Y0196494D01*
X0121529Y0196464D01*
X0121501Y0196437D01*
X0121470Y0196412D01*
X0121437Y0196391D01*
X0121402Y0196373D01*
X0121365Y0196359D01*
X0121328Y0196348D01*
X0121289Y0196341D01*
X0121250Y0196338D01*
X0121211Y0196339D01*
X0121172Y0196344D01*
X0121133Y0196353D01*
X0121096Y0196365D01*
X0121060Y0196381D01*
X0121026Y0196401D01*
X0120994Y0196424D01*
X0120965Y0196450D01*
X0120938Y0196479D01*
X0120914Y0196510D01*
X0120894Y0196544D01*
X0120877Y0196579D01*
X0120864Y0196616D01*
X0120854Y0196654D01*
X0120848Y0196693D01*
X0120846Y0196732D01*
D15*
X0142737Y0169346D02*
X0142739Y0169302D01*
X0142745Y0169259D01*
X0142754Y0169217D01*
X0142767Y0169175D01*
X0142784Y0169135D01*
X0142804Y0169096D01*
X0142827Y0169059D01*
X0142854Y0169025D01*
X0142883Y0168992D01*
X0142916Y0168963D01*
X0142950Y0168936D01*
X0142987Y0168913D01*
X0143026Y0168893D01*
X0143066Y0168876D01*
X0143108Y0168863D01*
X0143150Y0168854D01*
X0143193Y0168848D01*
X0143237Y0168846D01*
X0143281Y0168848D01*
X0143324Y0168854D01*
X0143366Y0168863D01*
X0143408Y0168876D01*
X0143448Y0168893D01*
X0143487Y0168913D01*
X0143524Y0168936D01*
X0143558Y0168963D01*
X0143591Y0168992D01*
X0143620Y0169025D01*
X0143647Y0169059D01*
X0143670Y0169096D01*
X0143690Y0169135D01*
X0143707Y0169175D01*
X0143720Y0169217D01*
X0143729Y0169259D01*
X0143735Y0169302D01*
X0143737Y0169346D01*
X0143735Y0169390D01*
X0143729Y0169433D01*
X0143720Y0169475D01*
X0143707Y0169517D01*
X0143690Y0169557D01*
X0143670Y0169596D01*
X0143647Y0169633D01*
X0143620Y0169667D01*
X0143591Y0169700D01*
X0143558Y0169729D01*
X0143524Y0169756D01*
X0143487Y0169779D01*
X0143448Y0169799D01*
X0143408Y0169816D01*
X0143366Y0169829D01*
X0143324Y0169838D01*
X0143281Y0169844D01*
X0143237Y0169846D01*
X0143193Y0169844D01*
X0143150Y0169838D01*
X0143108Y0169829D01*
X0143066Y0169816D01*
X0143026Y0169799D01*
X0142987Y0169779D01*
X0142950Y0169756D01*
X0142916Y0169729D01*
X0142883Y0169700D01*
X0142854Y0169667D01*
X0142827Y0169633D01*
X0142804Y0169596D01*
X0142784Y0169557D01*
X0142767Y0169517D01*
X0142754Y0169475D01*
X0142745Y0169433D01*
X0142739Y0169390D01*
X0142737Y0169346D01*
X0142739Y0169302D01*
X0142745Y0169259D01*
X0142754Y0169217D01*
X0142767Y0169175D01*
X0142784Y0169135D01*
X0142804Y0169096D01*
X0142827Y0169059D01*
X0142854Y0169025D01*
X0142883Y0168992D01*
X0142916Y0168963D01*
X0142950Y0168936D01*
X0142987Y0168913D01*
X0143026Y0168893D01*
X0143066Y0168876D01*
X0143108Y0168863D01*
X0143150Y0168854D01*
X0143193Y0168848D01*
X0143237Y0168846D01*
X0143281Y0168848D01*
X0143324Y0168854D01*
X0143366Y0168863D01*
X0143408Y0168876D01*
X0143448Y0168893D01*
X0143487Y0168913D01*
X0143524Y0168936D01*
X0143558Y0168963D01*
X0143591Y0168992D01*
X0143620Y0169025D01*
X0143647Y0169059D01*
X0143670Y0169096D01*
X0143690Y0169135D01*
X0143707Y0169175D01*
X0143720Y0169217D01*
X0143729Y0169259D01*
X0143735Y0169302D01*
X0143737Y0169346D01*
X0143735Y0169390D01*
X0143729Y0169433D01*
X0143720Y0169475D01*
X0143707Y0169517D01*
X0143690Y0169557D01*
X0143670Y0169596D01*
X0143647Y0169633D01*
X0143620Y0169667D01*
X0143591Y0169700D01*
X0143558Y0169729D01*
X0143524Y0169756D01*
X0143487Y0169779D01*
X0143448Y0169799D01*
X0143408Y0169816D01*
X0143366Y0169829D01*
X0143324Y0169838D01*
X0143281Y0169844D01*
X0143237Y0169846D01*
X0143193Y0169844D01*
X0143150Y0169838D01*
X0143108Y0169829D01*
X0143066Y0169816D01*
X0143026Y0169799D01*
X0142987Y0169779D01*
X0142950Y0169756D01*
X0142916Y0169729D01*
X0142883Y0169700D01*
X0142854Y0169667D01*
X0142827Y0169633D01*
X0142804Y0169596D01*
X0142784Y0169557D01*
X0142767Y0169517D01*
X0142754Y0169475D01*
X0142745Y0169433D01*
X0142739Y0169390D01*
X0142737Y0169346D01*
X0143189Y0163976D02*
X0143189Y0158622D01*
X0134528Y0158622D01*
X0134528Y0163976D01*
X0143189Y0163976D01*
X0143658Y0163976D02*
X0143658Y0158622D01*
X0134058Y0158622D02*
X0134058Y0163976D01*
X0130828Y0120443D02*
X0125628Y0120443D01*
X0125628Y0109243D01*
X0130828Y0109243D01*
X0130828Y0120443D01*
D16*
X0130984Y0120354D02*
X0127835Y0120354D01*
X0130984Y0120354D02*
X0130984Y0117992D01*
X0130984Y0111693D02*
X0130984Y0109331D01*
X0127835Y0109331D01*
D17*
X0128055Y0123429D02*
X0125252Y0123429D01*
X0125252Y0126780D02*
X0128055Y0126780D01*
X0129283Y0136669D02*
X0129283Y0139472D01*
X0132634Y0139472D02*
X0132634Y0136669D01*
X0141094Y0146118D02*
X0141094Y0148921D01*
X0144445Y0148921D02*
X0144445Y0146118D01*
X0150201Y0146118D02*
X0150201Y0148921D01*
X0153551Y0148921D02*
X0153551Y0146118D01*
X0153992Y0156500D02*
X0156795Y0156500D01*
X0156795Y0159850D02*
X0153992Y0159850D01*
X0153992Y0164323D02*
X0156795Y0164323D01*
X0156795Y0167673D02*
X0153992Y0167673D01*
X0153992Y0172197D02*
X0156795Y0172197D01*
X0156795Y0175547D02*
X0153992Y0175547D01*
X0153992Y0180071D02*
X0156795Y0180071D01*
X0156795Y0183421D02*
X0153992Y0183421D01*
X0144197Y0183421D02*
X0141394Y0183421D01*
X0141394Y0180071D02*
X0144197Y0180071D01*
X0133961Y0187945D02*
X0131157Y0187945D01*
X0131157Y0191295D02*
X0133961Y0191295D01*
X0128055Y0182240D02*
X0125252Y0182240D01*
X0125252Y0178890D02*
X0128055Y0178890D01*
X0128055Y0174417D02*
X0125252Y0174417D01*
X0125252Y0171067D02*
X0128055Y0171067D01*
X0128890Y0162701D02*
X0128890Y0159898D01*
X0132240Y0159898D02*
X0132240Y0162701D01*
X0124417Y0162701D02*
X0124417Y0159898D01*
X0121067Y0159898D02*
X0121067Y0162701D01*
X0120823Y0190213D02*
X0120823Y0193016D01*
X0117472Y0193016D02*
X0117472Y0190213D01*
X0144150Y0114181D02*
X0146953Y0114181D01*
X0146953Y0110831D02*
X0144150Y0110831D01*
X0150843Y0088197D02*
X0153646Y0088197D01*
X0153646Y0084846D02*
X0150843Y0084846D01*
X0146165Y0078748D02*
X0143362Y0078748D01*
X0143362Y0075398D02*
X0146165Y0075398D01*
X0146165Y0070874D02*
X0143362Y0070874D01*
X0143362Y0067524D02*
X0146165Y0067524D01*
X0129929Y0085488D02*
X0129929Y0088291D01*
X0126579Y0088291D02*
X0126579Y0085488D01*
X0123236Y0035339D02*
X0123236Y0032535D01*
X0119886Y0032535D02*
X0119886Y0035339D01*
X0156894Y0034354D02*
X0156894Y0031551D01*
X0160244Y0031551D02*
X0160244Y0034354D01*
X0160291Y0024760D02*
X0163094Y0024760D01*
X0163094Y0021409D02*
X0160291Y0021409D01*
X0160291Y0016492D02*
X0163094Y0016492D01*
X0163094Y0013142D02*
X0160291Y0013142D01*
X0174071Y0013193D02*
X0176874Y0013193D01*
X0176874Y0016543D02*
X0174071Y0016543D01*
X0174071Y0021409D02*
X0176874Y0021409D01*
X0176874Y0024760D02*
X0174071Y0024760D01*
X0174071Y0029283D02*
X0176874Y0029283D01*
X0176874Y0032634D02*
X0174071Y0032634D01*
D18*
X0173188Y0030964D03*
X0177788Y0030964D03*
X0177788Y0023090D03*
X0173188Y0023090D03*
X0173157Y0014863D03*
X0177757Y0014863D03*
X0164008Y0014822D03*
X0159408Y0014822D03*
X0159408Y0023090D03*
X0164008Y0023090D03*
X0147048Y0069193D03*
X0142448Y0069193D03*
X0142448Y0077067D03*
X0147048Y0077067D03*
X0149929Y0086516D03*
X0154529Y0086516D03*
X0147836Y0112500D03*
X0143236Y0112500D03*
X0128938Y0125099D03*
X0124338Y0125099D03*
X0153078Y0158170D03*
X0157678Y0158170D03*
X0157709Y0166004D03*
X0153109Y0166004D03*
X0153109Y0173878D03*
X0157709Y0173878D03*
X0157709Y0181752D03*
X0153109Y0181752D03*
X0145111Y0181752D03*
X0140511Y0181752D03*
X0134875Y0189626D03*
X0130275Y0189626D03*
X0128969Y0180570D03*
X0124369Y0180570D03*
X0124338Y0172737D03*
X0128938Y0172737D03*
D19*
X0126654Y0180470D02*
X0126654Y0180711D01*
X0132559Y0189526D02*
X0132559Y0189766D01*
X0119293Y0191614D02*
X0119053Y0191614D01*
X0122596Y0161299D02*
X0122837Y0161299D01*
X0151730Y0147520D02*
X0151970Y0147520D01*
X0155394Y0173778D02*
X0155394Y0174018D01*
X0126654Y0125199D02*
X0126654Y0124959D01*
X0145551Y0112600D02*
X0145551Y0112360D01*
X0152244Y0086616D02*
X0152244Y0086376D01*
X0144764Y0077167D02*
X0144764Y0076927D01*
X0128348Y0086890D02*
X0128108Y0086890D01*
X0158423Y0032953D02*
X0158663Y0032953D01*
X0161693Y0014963D02*
X0161693Y0014722D01*
X0175472Y0014722D02*
X0175472Y0014963D01*
D20*
X0158563Y0030668D03*
X0158563Y0035268D03*
X0121556Y0036253D03*
X0121556Y0031653D03*
X0128248Y0084605D03*
X0128248Y0089205D03*
X0130964Y0135755D03*
X0130964Y0140355D03*
X0142775Y0145204D03*
X0142775Y0149804D03*
X0151870Y0149835D03*
X0151870Y0145235D03*
X0130570Y0158984D03*
X0130570Y0163584D03*
X0122737Y0163615D03*
X0122737Y0159015D03*
X0119153Y0189299D03*
X0119153Y0193899D03*
D21*
X0126654Y0172717D03*
X0142795Y0181772D03*
X0155394Y0181772D03*
X0155394Y0166024D03*
X0155394Y0158150D03*
X0175472Y0030984D03*
X0161693Y0023110D03*
D22*
X0121535Y0033937D03*
X0130591Y0161299D03*
M02*
