%
M48
M72
T01C0.0118
T02C0.0256
T03C0.0276
T04C0.0394
T05C0.0551
T06C0.1181
%
T01
X10421Y7429
X11327Y6287
X11799Y6484
X11642Y6839
X12035Y7193
X12429Y7547
X12823Y7902
X13295Y8965
X13659Y9321
X13659Y9789
X14112Y9789
X14112Y9321
X14476Y8965
X13850Y8106
X15264Y7902
X15697Y8177
X15618Y9083
X15343Y9791
X15028Y9949
X14398Y10461
X14280Y10815
X13315Y10421
X13098Y10146
X12823Y10343
X12469Y10264
X12272Y10539
X12035Y11091
X12035Y11839
X11878Y12193
X12902Y11878
X13453Y12508
X13098Y12980
X13965Y12902
X14280Y13248
X13965Y13610
X13965Y13984
X14752Y13984
X14752Y13630
X15303Y13610
X15303Y13984
X14752Y14516
X14752Y15421
X14437Y15657
X14713Y16169
X14713Y16996
X14713Y17744
X13965Y17744
X13374Y17665
X13374Y16878
X13886Y16996
X13886Y15421
X13610Y15185
X13866Y14949
X13256Y15343
X13098Y14634
X12626Y14161
X11642Y14043
X13965Y12154
X14673Y12272
X14673Y12902
X15303Y12902
X15303Y12272
X15657Y11681
X15343Y11091
X15776Y10264
X16720Y10657
X16720Y11366
X16720Y12114
X16720Y12902
X16720Y13610
X16248Y14004
X15598Y15382
X16248Y16209
X16248Y16996
X17571Y17130
X17571Y18130
X16169Y18610
X15874Y19004
X15579Y18610
X14791Y18610
X14713Y19319
X13965Y18610
X13492Y19791
X13098Y19791
X12902Y19398
X12665Y19713
X12311Y19713
X12350Y18925
X12665Y18492
X12665Y16839
X11799Y20657
X11642Y21524
X16248Y21524
X19555Y18610
X19555Y17626
X19555Y16642
X20106Y16642
X20657Y16642
X20657Y15618
X20106Y15618
X19555Y15618
X20421Y18138
X18571Y12941
X18413Y12154
X19161Y11642
X19161Y10618
X19398Y10130
X19476Y9634
X20106Y9634
X20657Y9634
X20657Y7626
X20106Y7626
X19476Y7626
X19161Y7130
X19201Y6642
X18610Y6012
X19201Y5618
X20106Y5618
X20106Y6642
X20657Y6642
X19122Y4634
X18177Y4634
X17272Y4634
X16720Y4122
X16366Y3689
X16287Y3177
X16287Y2744
X16760Y3217
X16169Y1937
X15382Y1484
X15382Y3020
X14358Y3335
X14043Y3886
X13650Y4280
X13886Y4909
X14594Y4791
X14594Y6169
X14988Y6484
X15382Y6642
X16681Y6228
X17075Y6642
X18020Y7626
X18098Y8650
X17547Y8650
X16760Y8571
X16720Y9634
X17823Y10130
X18295Y10657
X15776Y4555
X13571Y2547
X12744Y3059
X13098Y3768
X12705Y4280
X12016Y2587
X12665Y1366
X12311Y972
X12350Y6169
X12114Y8925
X12114Y9476
X12469Y9476
X12114Y9831
X11760Y9870
X11374Y9476
X11209Y10146
X10421Y10185
X18335Y2705
X18335Y2311
X18453Y1327
X19043Y3453
T02
X12311Y20657
T03
X14693Y20185
X15441Y20185
T04
X13177Y5815
X12882Y4949
X13020Y2429
X15028Y2429
X14909Y3453
X14909Y5421
T05
X13886Y5421
T06
X2469Y2469
X2469Y19791
X19791Y19791
X19791Y2469
M30
